ISO-10303-21;
HEADER;
FILE_DESCRIPTION(('FreeCAD Model'),'2;1');
FILE_NAME('Open CASCADE Shape Model','2025-08-30T12:59:03',(''),(''),
  'Open CASCADE STEP processor 7.8','FreeCAD','Unknown');
FILE_SCHEMA(('AUTOMOTIVE_DESIGN { 1 0 10303 214 1 1 1 1 }'));
ENDSEC;
DATA;
#1 = APPLICATION_PROTOCOL_DEFINITION('international standard',
  'automotive_design',2000,#2);
#2 = APPLICATION_CONTEXT(
  'core data for automotive mechanical design processes');
#3 = SHAPE_DEFINITION_REPRESENTATION(#4,#10);
#4 = PRODUCT_DEFINITION_SHAPE('','',#5);
#5 = PRODUCT_DEFINITION('design','',#6,#9);
#6 = PRODUCT_DEFINITION_FORMATION('','',#7);
#7 = PRODUCT('DFN_standard','DFN_standard','',(#8));
#8 = PRODUCT_CONTEXT('',#2,'mechanical');
#9 = PRODUCT_DEFINITION_CONTEXT('part definition',#2,'design');
#10 = SHAPE_REPRESENTATION('',(#11,#15,#19,#23,#27,#31,#35,#39,#43,#47),
  #51);
#11 = AXIS2_PLACEMENT_3D('',#12,#13,#14);
#12 = CARTESIAN_POINT('',(0.,0.,0.));
#13 = DIRECTION('',(0.,0.,1.));
#14 = DIRECTION('',(1.,0.,-0.));
#15 = AXIS2_PLACEMENT_3D('',#16,#17,#18);
#16 = CARTESIAN_POINT('',(0.,0.,0.));
#17 = DIRECTION('',(0.,0.,1.));
#18 = DIRECTION('',(1.,0.,0.));
#19 = AXIS2_PLACEMENT_3D('',#20,#21,#22);
#20 = CARTESIAN_POINT('',(0.,0.,0.));
#21 = DIRECTION('',(0.,0.,1.));
#22 = DIRECTION('',(1.,0.,0.));
#23 = AXIS2_PLACEMENT_3D('',#24,#25,#26);
#24 = CARTESIAN_POINT('',(0.,0.,0.));
#25 = DIRECTION('',(0.,0.,1.));
#26 = DIRECTION('',(1.,0.,0.));
#27 = AXIS2_PLACEMENT_3D('',#28,#29,#30);
#28 = CARTESIAN_POINT('',(0.,0.,-0.5));
#29 = DIRECTION('',(0.,0.,1.));
#30 = DIRECTION('',(1.,0.,0.));
#31 = AXIS2_PLACEMENT_3D('',#32,#33,#34);
#32 = CARTESIAN_POINT('',(0.,0.,-1.));
#33 = DIRECTION('',(0.,0.,1.));
#34 = DIRECTION('',(1.,0.,0.));
#35 = AXIS2_PLACEMENT_3D('',#36,#37,#38);
#36 = CARTESIAN_POINT('',(0.,0.,-0.5));
#37 = DIRECTION('',(0.,0.,1.));
#38 = DIRECTION('',(1.,0.,0.));
#39 = AXIS2_PLACEMENT_3D('',#40,#41,#42);
#40 = CARTESIAN_POINT('',(0.,0.,-1.));
#41 = DIRECTION('',(0.,0.,1.));
#42 = DIRECTION('',(1.,0.,0.));
#43 = AXIS2_PLACEMENT_3D('',#44,#45,#46);
#44 = CARTESIAN_POINT('',(0.,0.,0.));
#45 = DIRECTION('',(0.,0.,1.));
#46 = DIRECTION('',(1.,0.,0.));
#47 = AXIS2_PLACEMENT_3D('',#48,#49,#50);
#48 = CARTESIAN_POINT('',(0.,0.,0.));
#49 = DIRECTION('',(0.,0.,1.));
#50 = DIRECTION('',(1.,0.,0.));
#51 = ( GEOMETRIC_REPRESENTATION_CONTEXT(3) 
GLOBAL_UNCERTAINTY_ASSIGNED_CONTEXT((#55)) GLOBAL_UNIT_ASSIGNED_CONTEXT(
(#52,#53,#54)) REPRESENTATION_CONTEXT('Context #1',
  '3D Context with UNIT and UNCERTAINTY') );
#52 = ( LENGTH_UNIT() NAMED_UNIT(*) SI_UNIT(.MILLI.,.METRE.) );
#53 = ( NAMED_UNIT(*) PLANE_ANGLE_UNIT() SI_UNIT($,.RADIAN.) );
#54 = ( NAMED_UNIT(*) SI_UNIT($,.STERADIAN.) SOLID_ANGLE_UNIT() );
#55 = UNCERTAINTY_MEASURE_WITH_UNIT(LENGTH_MEASURE(2.E-07),#52,
  'distance_accuracy_value','confusion accuracy');
#56 = PRODUCT_RELATED_PRODUCT_CATEGORY('part',$,(#7));
#57 = SHAPE_DEFINITION_REPRESENTATION(#58,#64);
#58 = PRODUCT_DEFINITION_SHAPE('','',#59);
#59 = PRODUCT_DEFINITION('design','',#60,#63);
#60 = PRODUCT_DEFINITION_FORMATION('','',#61);
#61 = PRODUCT('Body_Solid1','Body_Solid1','',(#62));
#62 = PRODUCT_CONTEXT('',#2,'mechanical');
#63 = PRODUCT_DEFINITION_CONTEXT('part definition',#2,'design');
#64 = ADVANCED_BREP_SHAPE_REPRESENTATION('',(#11,#65),#1064);
#65 = MANIFOLD_SOLID_BREP('',#66);
#66 = CLOSED_SHELL('',(#67,#203,#405,#429,#454,#471,#495,#520,#537,#561,
    #586,#603,#627,#662,#679,#691,#703,#715,#796,#820,#845,#862,#886,
    #911,#928,#952,#977,#994,#1019,#1031,#1043,#1055));
#67 = ADVANCED_FACE('',(#68),#198,.T.);
#68 = FACE_BOUND('',#69,.T.);
#69 = EDGE_LOOP('',(#70,#80,#88,#96,#104,#112,#120,#128,#136,#144,#152,
    #160,#168,#176,#184,#192));
#70 = ORIENTED_EDGE('',*,*,#71,.F.);
#71 = EDGE_CURVE('',#72,#74,#76,.T.);
#72 = VERTEX_POINT('',#73);
#73 = CARTESIAN_POINT('',(1.,5.E-02,-1.));
#74 = VERTEX_POINT('',#75);
#75 = CARTESIAN_POINT('',(1.,5.E-02,-0.66));
#76 = LINE('',#77,#78);
#77 = CARTESIAN_POINT('',(1.,5.E-02,-1.));
#78 = VECTOR('',#79,1.);
#79 = DIRECTION('',(0.,2.22044604925E-16,1.));
#80 = ORIENTED_EDGE('',*,*,#81,.T.);
#81 = EDGE_CURVE('',#72,#82,#84,.T.);
#82 = VERTEX_POINT('',#83);
#83 = CARTESIAN_POINT('',(1.,1.,-1.));
#84 = LINE('',#85,#86);
#85 = CARTESIAN_POINT('',(1.,-2.22044604925E-16,-1.));
#86 = VECTOR('',#87,1.);
#87 = DIRECTION('',(0.,1.,-2.22044604925E-16));
#88 = ORIENTED_EDGE('',*,*,#89,.T.);
#89 = EDGE_CURVE('',#82,#90,#92,.T.);
#90 = VERTEX_POINT('',#91);
#91 = CARTESIAN_POINT('',(1.,1.,1.));
#92 = LINE('',#93,#94);
#93 = CARTESIAN_POINT('',(1.,1.,-1.));
#94 = VECTOR('',#95,1.);
#95 = DIRECTION('',(0.,2.22044604925E-16,1.));
#96 = ORIENTED_EDGE('',*,*,#97,.F.);
#97 = EDGE_CURVE('',#98,#90,#100,.T.);
#98 = VERTEX_POINT('',#99);
#99 = CARTESIAN_POINT('',(1.,5.E-02,1.));
#100 = LINE('',#101,#102);
#101 = CARTESIAN_POINT('',(1.,2.22044604925E-16,1.));
#102 = VECTOR('',#103,1.);
#103 = DIRECTION('',(0.,1.,-2.22044604925E-16));
#104 = ORIENTED_EDGE('',*,*,#105,.F.);
#105 = EDGE_CURVE('',#106,#98,#108,.T.);
#106 = VERTEX_POINT('',#107);
#107 = CARTESIAN_POINT('',(1.,5.E-02,0.66));
#108 = LINE('',#109,#110);
#109 = CARTESIAN_POINT('',(1.,5.E-02,-1.));
#110 = VECTOR('',#111,1.);
#111 = DIRECTION('',(0.,2.22044604925E-16,1.));
#112 = ORIENTED_EDGE('',*,*,#113,.T.);
#113 = EDGE_CURVE('',#106,#114,#116,.T.);
#114 = VERTEX_POINT('',#115);
#115 = CARTESIAN_POINT('',(1.,0.2,0.66));
#116 = LINE('',#117,#118);
#117 = CARTESIAN_POINT('',(1.,0.,0.66));
#118 = VECTOR('',#119,1.);
#119 = DIRECTION('',(0.,1.,-2.22044604925E-16));
#120 = ORIENTED_EDGE('',*,*,#121,.T.);
#121 = EDGE_CURVE('',#114,#122,#124,.T.);
#122 = VERTEX_POINT('',#123);
#123 = CARTESIAN_POINT('',(1.,0.2,0.34));
#124 = LINE('',#125,#126);
#125 = CARTESIAN_POINT('',(1.,0.2,0.66));
#126 = VECTOR('',#127,1.);
#127 = DIRECTION('',(0.,-2.22044604925E-16,-1.));
#128 = ORIENTED_EDGE('',*,*,#129,.F.);
#129 = EDGE_CURVE('',#130,#122,#132,.T.);
#130 = VERTEX_POINT('',#131);
#131 = CARTESIAN_POINT('',(1.,5.E-02,0.34));
#132 = LINE('',#133,#134);
#133 = CARTESIAN_POINT('',(1.,0.,0.34));
#134 = VECTOR('',#135,1.);
#135 = DIRECTION('',(0.,1.,-2.22044604925E-16));
#136 = ORIENTED_EDGE('',*,*,#137,.F.);
#137 = EDGE_CURVE('',#138,#130,#140,.T.);
#138 = VERTEX_POINT('',#139);
#139 = CARTESIAN_POINT('',(1.,5.E-02,0.16));
#140 = LINE('',#141,#142);
#141 = CARTESIAN_POINT('',(1.,5.E-02,-1.));
#142 = VECTOR('',#143,1.);
#143 = DIRECTION('',(0.,2.22044604925E-16,1.));
#144 = ORIENTED_EDGE('',*,*,#145,.T.);
#145 = EDGE_CURVE('',#138,#146,#148,.T.);
#146 = VERTEX_POINT('',#147);
#147 = CARTESIAN_POINT('',(1.,0.2,0.16));
#148 = LINE('',#149,#150);
#149 = CARTESIAN_POINT('',(1.,0.,0.16));
#150 = VECTOR('',#151,1.);
#151 = DIRECTION('',(0.,1.,-2.22044604925E-16));
#152 = ORIENTED_EDGE('',*,*,#153,.T.);
#153 = EDGE_CURVE('',#146,#154,#156,.T.);
#154 = VERTEX_POINT('',#155);
#155 = CARTESIAN_POINT('',(1.,0.2,-0.16));
#156 = LINE('',#157,#158);
#157 = CARTESIAN_POINT('',(1.,0.2,0.16));
#158 = VECTOR('',#159,1.);
#159 = DIRECTION('',(0.,-2.22044604925E-16,-1.));
#160 = ORIENTED_EDGE('',*,*,#161,.F.);
#161 = EDGE_CURVE('',#162,#154,#164,.T.);
#162 = VERTEX_POINT('',#163);
#163 = CARTESIAN_POINT('',(1.,5.E-02,-0.16));
#164 = LINE('',#165,#166);
#165 = CARTESIAN_POINT('',(1.,-1.110223024625E-16,-0.16));
#166 = VECTOR('',#167,1.);
#167 = DIRECTION('',(0.,1.,-2.22044604925E-16));
#168 = ORIENTED_EDGE('',*,*,#169,.F.);
#169 = EDGE_CURVE('',#170,#162,#172,.T.);
#170 = VERTEX_POINT('',#171);
#171 = CARTESIAN_POINT('',(1.,5.E-02,-0.34));
#172 = LINE('',#173,#174);
#173 = CARTESIAN_POINT('',(1.,5.E-02,-1.));
#174 = VECTOR('',#175,1.);
#175 = DIRECTION('',(0.,2.22044604925E-16,1.));
#176 = ORIENTED_EDGE('',*,*,#177,.T.);
#177 = EDGE_CURVE('',#170,#178,#180,.T.);
#178 = VERTEX_POINT('',#179);
#179 = CARTESIAN_POINT('',(1.,0.2,-0.34));
#180 = LINE('',#181,#182);
#181 = CARTESIAN_POINT('',(1.,-7.549516567451E-17,-0.34));
#182 = VECTOR('',#183,1.);
#183 = DIRECTION('',(0.,1.,-2.22044604925E-16));
#184 = ORIENTED_EDGE('',*,*,#185,.T.);
#185 = EDGE_CURVE('',#178,#186,#188,.T.);
#186 = VERTEX_POINT('',#187);
#187 = CARTESIAN_POINT('',(1.,0.2,-0.66));
#188 = LINE('',#189,#190);
#189 = CARTESIAN_POINT('',(1.,0.2,-0.34));
#190 = VECTOR('',#191,1.);
#191 = DIRECTION('',(0.,-2.22044604925E-16,-1.));
#192 = ORIENTED_EDGE('',*,*,#193,.F.);
#193 = EDGE_CURVE('',#74,#186,#194,.T.);
#194 = LINE('',#195,#196);
#195 = CARTESIAN_POINT('',(1.,-1.465494392505E-16,-0.66));
#196 = VECTOR('',#197,1.);
#197 = DIRECTION('',(0.,1.,-2.22044604925E-16));
#198 = PLANE('',#199);
#199 = AXIS2_PLACEMENT_3D('',#200,#201,#202);
#200 = CARTESIAN_POINT('',(1.,-2.22044604925E-16,-1.));
#201 = DIRECTION('',(1.,0.,0.));
#202 = DIRECTION('',(0.,2.22044604925E-16,1.));
#203 = ADVANCED_FACE('',(#204),#400,.F.);
#204 = FACE_BOUND('',#205,.F.);
#205 = EDGE_LOOP('',(#206,#207,#215,#223,#231,#240,#248,#256,#264,#273,
    #281,#289,#297,#306,#314,#322,#328,#329,#337,#346,#352,#353,#361,
    #370,#376,#377,#385,#394));
#206 = ORIENTED_EDGE('',*,*,#71,.F.);
#207 = ORIENTED_EDGE('',*,*,#208,.F.);
#208 = EDGE_CURVE('',#209,#72,#211,.T.);
#209 = VERTEX_POINT('',#210);
#210 = CARTESIAN_POINT('',(-1.,5.E-02,-1.));
#211 = LINE('',#212,#213);
#212 = CARTESIAN_POINT('',(-1.,5.E-02,-1.));
#213 = VECTOR('',#214,1.);
#214 = DIRECTION('',(1.,0.,0.));
#215 = ORIENTED_EDGE('',*,*,#216,.F.);
#216 = EDGE_CURVE('',#217,#209,#219,.T.);
#217 = VERTEX_POINT('',#218);
#218 = CARTESIAN_POINT('',(-1.,5.E-02,-0.66));
#219 = LINE('',#220,#221);
#220 = CARTESIAN_POINT('',(-1.,5.E-02,1.));
#221 = VECTOR('',#222,1.);
#222 = DIRECTION('',(0.,-2.22044604925E-16,-1.));
#223 = ORIENTED_EDGE('',*,*,#224,.T.);
#224 = EDGE_CURVE('',#217,#225,#227,.T.);
#225 = VERTEX_POINT('',#226);
#226 = CARTESIAN_POINT('',(-0.774999999999,5.E-02,-0.66));
#227 = LINE('',#228,#229);
#228 = CARTESIAN_POINT('',(-0.3875,5.E-02,-0.66));
#229 = VECTOR('',#230,1.);
#230 = DIRECTION('',(1.,0.,0.));
#231 = ORIENTED_EDGE('',*,*,#232,.T.);
#232 = EDGE_CURVE('',#225,#233,#235,.T.);
#233 = VERTEX_POINT('',#234);
#234 = CARTESIAN_POINT('',(-0.775,5.E-02,-0.34));
#235 = CIRCLE('',#236,0.16);
#236 = AXIS2_PLACEMENT_3D('',#237,#238,#239);
#237 = CARTESIAN_POINT('',(-0.775,5.E-02,-0.5));
#238 = DIRECTION('',(0.,-1.,2.22044604925E-16));
#239 = DIRECTION('',(1.,0.,0.));
#240 = ORIENTED_EDGE('',*,*,#241,.T.);
#241 = EDGE_CURVE('',#233,#242,#244,.T.);
#242 = VERTEX_POINT('',#243);
#243 = CARTESIAN_POINT('',(-1.,5.E-02,-0.34));
#244 = LINE('',#245,#246);
#245 = CARTESIAN_POINT('',(-0.5,5.E-02,-0.34));
#246 = VECTOR('',#247,1.);
#247 = DIRECTION('',(-1.,0.,0.));
#248 = ORIENTED_EDGE('',*,*,#249,.F.);
#249 = EDGE_CURVE('',#250,#242,#252,.T.);
#250 = VERTEX_POINT('',#251);
#251 = CARTESIAN_POINT('',(-1.,5.E-02,-0.16));
#252 = LINE('',#253,#254);
#253 = CARTESIAN_POINT('',(-1.,5.E-02,1.));
#254 = VECTOR('',#255,1.);
#255 = DIRECTION('',(0.,-2.22044604925E-16,-1.));
#256 = ORIENTED_EDGE('',*,*,#257,.T.);
#257 = EDGE_CURVE('',#250,#258,#260,.T.);
#258 = VERTEX_POINT('',#259);
#259 = CARTESIAN_POINT('',(-0.774999999999,5.E-02,-0.16));
#260 = LINE('',#261,#262);
#261 = CARTESIAN_POINT('',(-0.3875,5.E-02,-0.16));
#262 = VECTOR('',#263,1.);
#263 = DIRECTION('',(1.,0.,0.));
#264 = ORIENTED_EDGE('',*,*,#265,.T.);
#265 = EDGE_CURVE('',#258,#266,#268,.T.);
#266 = VERTEX_POINT('',#267);
#267 = CARTESIAN_POINT('',(-0.775,5.E-02,0.16));
#268 = CIRCLE('',#269,0.16);
#269 = AXIS2_PLACEMENT_3D('',#270,#271,#272);
#270 = CARTESIAN_POINT('',(-0.775,5.E-02,-1.110223024625E-17));
#271 = DIRECTION('',(0.,-1.,2.22044604925E-16));
#272 = DIRECTION('',(1.,0.,0.));
#273 = ORIENTED_EDGE('',*,*,#274,.T.);
#274 = EDGE_CURVE('',#266,#275,#277,.T.);
#275 = VERTEX_POINT('',#276);
#276 = CARTESIAN_POINT('',(-1.,5.E-02,0.16));
#277 = LINE('',#278,#279);
#278 = CARTESIAN_POINT('',(-0.5,5.E-02,0.16));
#279 = VECTOR('',#280,1.);
#280 = DIRECTION('',(-1.,0.,0.));
#281 = ORIENTED_EDGE('',*,*,#282,.F.);
#282 = EDGE_CURVE('',#283,#275,#285,.T.);
#283 = VERTEX_POINT('',#284);
#284 = CARTESIAN_POINT('',(-1.,5.E-02,0.34));
#285 = LINE('',#286,#287);
#286 = CARTESIAN_POINT('',(-1.,5.E-02,1.));
#287 = VECTOR('',#288,1.);
#288 = DIRECTION('',(0.,-2.22044604925E-16,-1.));
#289 = ORIENTED_EDGE('',*,*,#290,.T.);
#290 = EDGE_CURVE('',#283,#291,#293,.T.);
#291 = VERTEX_POINT('',#292);
#292 = CARTESIAN_POINT('',(-0.774999999999,5.E-02,0.34));
#293 = LINE('',#294,#295);
#294 = CARTESIAN_POINT('',(-0.3875,5.E-02,0.34));
#295 = VECTOR('',#296,1.);
#296 = DIRECTION('',(1.,0.,0.));
#297 = ORIENTED_EDGE('',*,*,#298,.T.);
#298 = EDGE_CURVE('',#291,#299,#301,.T.);
#299 = VERTEX_POINT('',#300);
#300 = CARTESIAN_POINT('',(-0.775,5.E-02,0.66));
#301 = CIRCLE('',#302,0.16);
#302 = AXIS2_PLACEMENT_3D('',#303,#304,#305);
#303 = CARTESIAN_POINT('',(-0.775,5.E-02,0.5));
#304 = DIRECTION('',(0.,-1.,2.22044604925E-16));
#305 = DIRECTION('',(1.,0.,0.));
#306 = ORIENTED_EDGE('',*,*,#307,.T.);
#307 = EDGE_CURVE('',#299,#308,#310,.T.);
#308 = VERTEX_POINT('',#309);
#309 = CARTESIAN_POINT('',(-1.,5.E-02,0.66));
#310 = LINE('',#311,#312);
#311 = CARTESIAN_POINT('',(-0.5,5.E-02,0.66));
#312 = VECTOR('',#313,1.);
#313 = DIRECTION('',(-1.,0.,0.));
#314 = ORIENTED_EDGE('',*,*,#315,.F.);
#315 = EDGE_CURVE('',#316,#308,#318,.T.);
#316 = VERTEX_POINT('',#317);
#317 = CARTESIAN_POINT('',(-1.,5.E-02,1.));
#318 = LINE('',#319,#320);
#319 = CARTESIAN_POINT('',(-1.,5.E-02,1.));
#320 = VECTOR('',#321,1.);
#321 = DIRECTION('',(0.,-2.22044604925E-16,-1.));
#322 = ORIENTED_EDGE('',*,*,#323,.F.);
#323 = EDGE_CURVE('',#98,#316,#324,.T.);
#324 = LINE('',#325,#326);
#325 = CARTESIAN_POINT('',(1.,5.E-02,1.));
#326 = VECTOR('',#327,1.);
#327 = DIRECTION('',(-1.,0.,0.));
#328 = ORIENTED_EDGE('',*,*,#105,.F.);
#329 = ORIENTED_EDGE('',*,*,#330,.T.);
#330 = EDGE_CURVE('',#106,#331,#333,.T.);
#331 = VERTEX_POINT('',#332);
#332 = CARTESIAN_POINT('',(0.775,5.E-02,0.66));
#333 = LINE('',#334,#335);
#334 = CARTESIAN_POINT('',(0.3875,5.E-02,0.66));
#335 = VECTOR('',#336,1.);
#336 = DIRECTION('',(-1.,0.,0.));
#337 = ORIENTED_EDGE('',*,*,#338,.T.);
#338 = EDGE_CURVE('',#331,#339,#341,.T.);
#339 = VERTEX_POINT('',#340);
#340 = CARTESIAN_POINT('',(0.774999999999,5.E-02,0.34));
#341 = CIRCLE('',#342,0.16);
#342 = AXIS2_PLACEMENT_3D('',#343,#344,#345);
#343 = CARTESIAN_POINT('',(0.775,5.E-02,0.5));
#344 = DIRECTION('',(0.,-1.,2.22044604925E-16));
#345 = DIRECTION('',(1.,0.,0.));
#346 = ORIENTED_EDGE('',*,*,#347,.T.);
#347 = EDGE_CURVE('',#339,#130,#348,.T.);
#348 = LINE('',#349,#350);
#349 = CARTESIAN_POINT('',(0.5,5.E-02,0.34));
#350 = VECTOR('',#351,1.);
#351 = DIRECTION('',(1.,0.,0.));
#352 = ORIENTED_EDGE('',*,*,#137,.F.);
#353 = ORIENTED_EDGE('',*,*,#354,.T.);
#354 = EDGE_CURVE('',#138,#355,#357,.T.);
#355 = VERTEX_POINT('',#356);
#356 = CARTESIAN_POINT('',(0.775,5.E-02,0.16));
#357 = LINE('',#358,#359);
#358 = CARTESIAN_POINT('',(0.3875,5.E-02,0.16));
#359 = VECTOR('',#360,1.);
#360 = DIRECTION('',(-1.,0.,0.));
#361 = ORIENTED_EDGE('',*,*,#362,.T.);
#362 = EDGE_CURVE('',#355,#363,#365,.T.);
#363 = VERTEX_POINT('',#364);
#364 = CARTESIAN_POINT('',(0.774999999999,5.E-02,-0.16));
#365 = CIRCLE('',#366,0.16);
#366 = AXIS2_PLACEMENT_3D('',#367,#368,#369);
#367 = CARTESIAN_POINT('',(0.775,5.E-02,-1.110223024625E-17));
#368 = DIRECTION('',(0.,-1.,2.22044604925E-16));
#369 = DIRECTION('',(1.,0.,0.));
#370 = ORIENTED_EDGE('',*,*,#371,.T.);
#371 = EDGE_CURVE('',#363,#162,#372,.T.);
#372 = LINE('',#373,#374);
#373 = CARTESIAN_POINT('',(0.5,5.E-02,-0.16));
#374 = VECTOR('',#375,1.);
#375 = DIRECTION('',(1.,0.,0.));
#376 = ORIENTED_EDGE('',*,*,#169,.F.);
#377 = ORIENTED_EDGE('',*,*,#378,.T.);
#378 = EDGE_CURVE('',#170,#379,#381,.T.);
#379 = VERTEX_POINT('',#380);
#380 = CARTESIAN_POINT('',(0.775,5.E-02,-0.34));
#381 = LINE('',#382,#383);
#382 = CARTESIAN_POINT('',(0.3875,5.E-02,-0.34));
#383 = VECTOR('',#384,1.);
#384 = DIRECTION('',(-1.,0.,0.));
#385 = ORIENTED_EDGE('',*,*,#386,.T.);
#386 = EDGE_CURVE('',#379,#387,#389,.T.);
#387 = VERTEX_POINT('',#388);
#388 = CARTESIAN_POINT('',(0.774999999999,5.E-02,-0.66));
#389 = CIRCLE('',#390,0.16);
#390 = AXIS2_PLACEMENT_3D('',#391,#392,#393);
#391 = CARTESIAN_POINT('',(0.775,5.E-02,-0.5));
#392 = DIRECTION('',(0.,-1.,2.22044604925E-16));
#393 = DIRECTION('',(1.,0.,0.));
#394 = ORIENTED_EDGE('',*,*,#395,.T.);
#395 = EDGE_CURVE('',#387,#74,#396,.T.);
#396 = LINE('',#397,#398);
#397 = CARTESIAN_POINT('',(0.5,5.E-02,-0.66));
#398 = VECTOR('',#399,1.);
#399 = DIRECTION('',(1.,0.,0.));
#400 = PLANE('',#401);
#401 = AXIS2_PLACEMENT_3D('',#402,#403,#404);
#402 = CARTESIAN_POINT('',(0.,5.E-02,-1.387778780781E-17));
#403 = DIRECTION('',(0.,1.,0.));
#404 = DIRECTION('',(0.,0.,1.));
#405 = ADVANCED_FACE('',(#406),#424,.T.);
#406 = FACE_BOUND('',#407,.T.);
#407 = EDGE_LOOP('',(#408,#409,#410,#418));
#408 = ORIENTED_EDGE('',*,*,#395,.T.);
#409 = ORIENTED_EDGE('',*,*,#193,.T.);
#410 = ORIENTED_EDGE('',*,*,#411,.T.);
#411 = EDGE_CURVE('',#186,#412,#414,.T.);
#412 = VERTEX_POINT('',#413);
#413 = CARTESIAN_POINT('',(0.774999999999,0.2,-0.66));
#414 = LINE('',#415,#416);
#415 = CARTESIAN_POINT('',(1.,0.2,-0.66));
#416 = VECTOR('',#417,1.);
#417 = DIRECTION('',(-1.,0.,0.));
#418 = ORIENTED_EDGE('',*,*,#419,.F.);
#419 = EDGE_CURVE('',#387,#412,#420,.T.);
#420 = LINE('',#421,#422);
#421 = CARTESIAN_POINT('',(0.774999999999,-1.465494392505E-16,-0.66));
#422 = VECTOR('',#423,1.);
#423 = DIRECTION('',(0.,1.,-2.22044604925E-16));
#424 = PLANE('',#425);
#425 = AXIS2_PLACEMENT_3D('',#426,#427,#428);
#426 = CARTESIAN_POINT('',(1.,-1.465494392505E-16,-0.66));
#427 = DIRECTION('',(0.,2.22044604925E-16,1.));
#428 = DIRECTION('',(-1.,0.,0.));
#429 = ADVANCED_FACE('',(#430),#449,.F.);
#430 = FACE_BOUND('',#431,.F.);
#431 = EDGE_LOOP('',(#432,#433,#434,#443));
#432 = ORIENTED_EDGE('',*,*,#185,.T.);
#433 = ORIENTED_EDGE('',*,*,#411,.T.);
#434 = ORIENTED_EDGE('',*,*,#435,.F.);
#435 = EDGE_CURVE('',#436,#412,#438,.T.);
#436 = VERTEX_POINT('',#437);
#437 = CARTESIAN_POINT('',(0.775,0.2,-0.34));
#438 = CIRCLE('',#439,0.16);
#439 = AXIS2_PLACEMENT_3D('',#440,#441,#442);
#440 = CARTESIAN_POINT('',(0.775,0.2,-0.5));
#441 = DIRECTION('',(0.,-1.,2.22044604925E-16));
#442 = DIRECTION('',(1.,0.,0.));
#443 = ORIENTED_EDGE('',*,*,#444,.T.);
#444 = EDGE_CURVE('',#436,#178,#445,.T.);
#445 = LINE('',#446,#447);
#446 = CARTESIAN_POINT('',(0.775,0.2,-0.34));
#447 = VECTOR('',#448,1.);
#448 = DIRECTION('',(1.,0.,0.));
#449 = PLANE('',#450);
#450 = AXIS2_PLACEMENT_3D('',#451,#452,#453);
#451 = CARTESIAN_POINT('',(0.837627599461,0.2,-0.5));
#452 = DIRECTION('',(0.,1.,0.));
#453 = DIRECTION('',(0.,0.,1.));
#454 = ADVANCED_FACE('',(#455),#466,.T.);
#455 = FACE_BOUND('',#456,.T.);
#456 = EDGE_LOOP('',(#457,#458,#464,#465));
#457 = ORIENTED_EDGE('',*,*,#378,.T.);
#458 = ORIENTED_EDGE('',*,*,#459,.T.);
#459 = EDGE_CURVE('',#379,#436,#460,.T.);
#460 = LINE('',#461,#462);
#461 = CARTESIAN_POINT('',(0.775,-7.549516567451E-17,-0.34));
#462 = VECTOR('',#463,1.);
#463 = DIRECTION('',(0.,1.,-2.22044604925E-16));
#464 = ORIENTED_EDGE('',*,*,#444,.T.);
#465 = ORIENTED_EDGE('',*,*,#177,.F.);
#466 = PLANE('',#467);
#467 = AXIS2_PLACEMENT_3D('',#468,#469,#470);
#468 = CARTESIAN_POINT('',(0.775,-7.549516567451E-17,-0.34));
#469 = DIRECTION('',(0.,-2.22044604925E-16,-1.));
#470 = DIRECTION('',(1.,0.,0.));
#471 = ADVANCED_FACE('',(#472),#490,.T.);
#472 = FACE_BOUND('',#473,.T.);
#473 = EDGE_LOOP('',(#474,#475,#476,#484));
#474 = ORIENTED_EDGE('',*,*,#371,.T.);
#475 = ORIENTED_EDGE('',*,*,#161,.T.);
#476 = ORIENTED_EDGE('',*,*,#477,.T.);
#477 = EDGE_CURVE('',#154,#478,#480,.T.);
#478 = VERTEX_POINT('',#479);
#479 = CARTESIAN_POINT('',(0.774999999999,0.2,-0.16));
#480 = LINE('',#481,#482);
#481 = CARTESIAN_POINT('',(1.,0.2,-0.16));
#482 = VECTOR('',#483,1.);
#483 = DIRECTION('',(-1.,0.,0.));
#484 = ORIENTED_EDGE('',*,*,#485,.F.);
#485 = EDGE_CURVE('',#363,#478,#486,.T.);
#486 = LINE('',#487,#488);
#487 = CARTESIAN_POINT('',(0.774999999999,-1.110223024625E-16,-0.16));
#488 = VECTOR('',#489,1.);
#489 = DIRECTION('',(0.,1.,-2.22044604925E-16));
#490 = PLANE('',#491);
#491 = AXIS2_PLACEMENT_3D('',#492,#493,#494);
#492 = CARTESIAN_POINT('',(1.,-1.110223024625E-16,-0.16));
#493 = DIRECTION('',(0.,2.22044604925E-16,1.));
#494 = DIRECTION('',(-1.,0.,0.));
#495 = ADVANCED_FACE('',(#496),#515,.F.);
#496 = FACE_BOUND('',#497,.F.);
#497 = EDGE_LOOP('',(#498,#499,#500,#509));
#498 = ORIENTED_EDGE('',*,*,#153,.T.);
#499 = ORIENTED_EDGE('',*,*,#477,.T.);
#500 = ORIENTED_EDGE('',*,*,#501,.F.);
#501 = EDGE_CURVE('',#502,#478,#504,.T.);
#502 = VERTEX_POINT('',#503);
#503 = CARTESIAN_POINT('',(0.775,0.2,0.16));
#504 = CIRCLE('',#505,0.16);
#505 = AXIS2_PLACEMENT_3D('',#506,#507,#508);
#506 = CARTESIAN_POINT('',(0.775,0.2,-8.326672684689E-17));
#507 = DIRECTION('',(0.,-1.,2.22044604925E-16));
#508 = DIRECTION('',(1.,0.,0.));
#509 = ORIENTED_EDGE('',*,*,#510,.T.);
#510 = EDGE_CURVE('',#502,#146,#511,.T.);
#511 = LINE('',#512,#513);
#512 = CARTESIAN_POINT('',(0.775,0.2,0.16));
#513 = VECTOR('',#514,1.);
#514 = DIRECTION('',(1.,0.,0.));
#515 = PLANE('',#516);
#516 = AXIS2_PLACEMENT_3D('',#517,#518,#519);
#517 = CARTESIAN_POINT('',(0.837627599461,0.2,1.586508702189E-13));
#518 = DIRECTION('',(0.,1.,0.));
#519 = DIRECTION('',(0.,0.,1.));
#520 = ADVANCED_FACE('',(#521),#532,.T.);
#521 = FACE_BOUND('',#522,.T.);
#522 = EDGE_LOOP('',(#523,#524,#530,#531));
#523 = ORIENTED_EDGE('',*,*,#354,.T.);
#524 = ORIENTED_EDGE('',*,*,#525,.T.);
#525 = EDGE_CURVE('',#355,#502,#526,.T.);
#526 = LINE('',#527,#528);
#527 = CARTESIAN_POINT('',(0.775,0.,0.16));
#528 = VECTOR('',#529,1.);
#529 = DIRECTION('',(0.,1.,-2.22044604925E-16));
#530 = ORIENTED_EDGE('',*,*,#510,.T.);
#531 = ORIENTED_EDGE('',*,*,#145,.F.);
#532 = PLANE('',#533);
#533 = AXIS2_PLACEMENT_3D('',#534,#535,#536);
#534 = CARTESIAN_POINT('',(0.775,0.,0.16));
#535 = DIRECTION('',(0.,-2.22044604925E-16,-1.));
#536 = DIRECTION('',(1.,0.,0.));
#537 = ADVANCED_FACE('',(#538),#556,.T.);
#538 = FACE_BOUND('',#539,.T.);
#539 = EDGE_LOOP('',(#540,#541,#542,#550));
#540 = ORIENTED_EDGE('',*,*,#347,.T.);
#541 = ORIENTED_EDGE('',*,*,#129,.T.);
#542 = ORIENTED_EDGE('',*,*,#543,.T.);
#543 = EDGE_CURVE('',#122,#544,#546,.T.);
#544 = VERTEX_POINT('',#545);
#545 = CARTESIAN_POINT('',(0.774999999999,0.2,0.34));
#546 = LINE('',#547,#548);
#547 = CARTESIAN_POINT('',(1.,0.2,0.34));
#548 = VECTOR('',#549,1.);
#549 = DIRECTION('',(-1.,0.,0.));
#550 = ORIENTED_EDGE('',*,*,#551,.F.);
#551 = EDGE_CURVE('',#339,#544,#552,.T.);
#552 = LINE('',#553,#554);
#553 = CARTESIAN_POINT('',(0.774999999999,0.,0.34));
#554 = VECTOR('',#555,1.);
#555 = DIRECTION('',(0.,1.,-2.22044604925E-16));
#556 = PLANE('',#557);
#557 = AXIS2_PLACEMENT_3D('',#558,#559,#560);
#558 = CARTESIAN_POINT('',(1.,0.,0.34));
#559 = DIRECTION('',(0.,2.22044604925E-16,1.));
#560 = DIRECTION('',(-1.,0.,0.));
#561 = ADVANCED_FACE('',(#562),#581,.F.);
#562 = FACE_BOUND('',#563,.F.);
#563 = EDGE_LOOP('',(#564,#565,#566,#575));
#564 = ORIENTED_EDGE('',*,*,#121,.T.);
#565 = ORIENTED_EDGE('',*,*,#543,.T.);
#566 = ORIENTED_EDGE('',*,*,#567,.F.);
#567 = EDGE_CURVE('',#568,#544,#570,.T.);
#568 = VERTEX_POINT('',#569);
#569 = CARTESIAN_POINT('',(0.775,0.2,0.66));
#570 = CIRCLE('',#571,0.16);
#571 = AXIS2_PLACEMENT_3D('',#572,#573,#574);
#572 = CARTESIAN_POINT('',(0.775,0.2,0.5));
#573 = DIRECTION('',(0.,-1.,2.22044604925E-16));
#574 = DIRECTION('',(1.,0.,0.));
#575 = ORIENTED_EDGE('',*,*,#576,.T.);
#576 = EDGE_CURVE('',#568,#114,#577,.T.);
#577 = LINE('',#578,#579);
#578 = CARTESIAN_POINT('',(0.775,0.2,0.66));
#579 = VECTOR('',#580,1.);
#580 = DIRECTION('',(1.,0.,0.));
#581 = PLANE('',#582);
#582 = AXIS2_PLACEMENT_3D('',#583,#584,#585);
#583 = CARTESIAN_POINT('',(0.837627599461,0.2,0.5));
#584 = DIRECTION('',(0.,1.,0.));
#585 = DIRECTION('',(0.,0.,1.));
#586 = ADVANCED_FACE('',(#587),#598,.T.);
#587 = FACE_BOUND('',#588,.T.);
#588 = EDGE_LOOP('',(#589,#590,#596,#597));
#589 = ORIENTED_EDGE('',*,*,#330,.T.);
#590 = ORIENTED_EDGE('',*,*,#591,.T.);
#591 = EDGE_CURVE('',#331,#568,#592,.T.);
#592 = LINE('',#593,#594);
#593 = CARTESIAN_POINT('',(0.775,0.,0.66));
#594 = VECTOR('',#595,1.);
#595 = DIRECTION('',(0.,1.,-2.22044604925E-16));
#596 = ORIENTED_EDGE('',*,*,#576,.T.);
#597 = ORIENTED_EDGE('',*,*,#113,.F.);
#598 = PLANE('',#599);
#599 = AXIS2_PLACEMENT_3D('',#600,#601,#602);
#600 = CARTESIAN_POINT('',(0.775,0.,0.66));
#601 = DIRECTION('',(0.,-2.22044604925E-16,-1.));
#602 = DIRECTION('',(1.,0.,0.));
#603 = ADVANCED_FACE('',(#604),#622,.T.);
#604 = FACE_BOUND('',#605,.T.);
#605 = EDGE_LOOP('',(#606,#607,#608,#616));
#606 = ORIENTED_EDGE('',*,*,#323,.F.);
#607 = ORIENTED_EDGE('',*,*,#97,.T.);
#608 = ORIENTED_EDGE('',*,*,#609,.T.);
#609 = EDGE_CURVE('',#90,#610,#612,.T.);
#610 = VERTEX_POINT('',#611);
#611 = CARTESIAN_POINT('',(-1.,1.,1.));
#612 = LINE('',#613,#614);
#613 = CARTESIAN_POINT('',(1.,1.,1.));
#614 = VECTOR('',#615,1.);
#615 = DIRECTION('',(-1.,0.,0.));
#616 = ORIENTED_EDGE('',*,*,#617,.F.);
#617 = EDGE_CURVE('',#316,#610,#618,.T.);
#618 = LINE('',#619,#620);
#619 = CARTESIAN_POINT('',(-1.,2.22044604925E-16,1.));
#620 = VECTOR('',#621,1.);
#621 = DIRECTION('',(0.,1.,-2.22044604925E-16));
#622 = PLANE('',#623);
#623 = AXIS2_PLACEMENT_3D('',#624,#625,#626);
#624 = CARTESIAN_POINT('',(1.,2.22044604925E-16,1.));
#625 = DIRECTION('',(0.,2.22044604925E-16,1.));
#626 = DIRECTION('',(-1.,0.,0.));
#627 = ADVANCED_FACE('',(#628,#646),#657,.T.);
#628 = FACE_BOUND('',#629,.T.);
#629 = EDGE_LOOP('',(#630,#631,#639,#645));
#630 = ORIENTED_EDGE('',*,*,#89,.F.);
#631 = ORIENTED_EDGE('',*,*,#632,.F.);
#632 = EDGE_CURVE('',#633,#82,#635,.T.);
#633 = VERTEX_POINT('',#634);
#634 = CARTESIAN_POINT('',(-1.,1.,-1.));
#635 = LINE('',#636,#637);
#636 = CARTESIAN_POINT('',(-1.,1.,-1.));
#637 = VECTOR('',#638,1.);
#638 = DIRECTION('',(1.,0.,0.));
#639 = ORIENTED_EDGE('',*,*,#640,.F.);
#640 = EDGE_CURVE('',#610,#633,#641,.T.);
#641 = LINE('',#642,#643);
#642 = CARTESIAN_POINT('',(-1.,1.,1.));
#643 = VECTOR('',#644,1.);
#644 = DIRECTION('',(0.,-2.22044604925E-16,-1.));
#645 = ORIENTED_EDGE('',*,*,#609,.F.);
#646 = FACE_BOUND('',#647,.T.);
#647 = EDGE_LOOP('',(#648));
#648 = ORIENTED_EDGE('',*,*,#649,.F.);
#649 = EDGE_CURVE('',#650,#650,#652,.T.);
#650 = VERTEX_POINT('',#651);
#651 = CARTESIAN_POINT('',(-0.646,1.,-0.746));
#652 = CIRCLE('',#653,0.1);
#653 = AXIS2_PLACEMENT_3D('',#654,#655,#656);
#654 = CARTESIAN_POINT('',(-0.746,1.,-0.746));
#655 = DIRECTION('',(-0.,1.,2.22044604925E-16));
#656 = DIRECTION('',(1.,0.,0.));
#657 = PLANE('',#658);
#658 = AXIS2_PLACEMENT_3D('',#659,#660,#661);
#659 = CARTESIAN_POINT('',(0.,1.,-2.22044604925E-16));
#660 = DIRECTION('',(0.,1.,0.));
#661 = DIRECTION('',(0.,0.,1.));
#662 = ADVANCED_FACE('',(#663),#674,.T.);
#663 = FACE_BOUND('',#664,.T.);
#664 = EDGE_LOOP('',(#665,#666,#672,#673));
#665 = ORIENTED_EDGE('',*,*,#208,.F.);
#666 = ORIENTED_EDGE('',*,*,#667,.T.);
#667 = EDGE_CURVE('',#209,#633,#668,.T.);
#668 = LINE('',#669,#670);
#669 = CARTESIAN_POINT('',(-1.,-2.22044604925E-16,-1.));
#670 = VECTOR('',#671,1.);
#671 = DIRECTION('',(0.,1.,-2.22044604925E-16));
#672 = ORIENTED_EDGE('',*,*,#632,.T.);
#673 = ORIENTED_EDGE('',*,*,#81,.F.);
#674 = PLANE('',#675);
#675 = AXIS2_PLACEMENT_3D('',#676,#677,#678);
#676 = CARTESIAN_POINT('',(-1.,-2.22044604925E-16,-1.));
#677 = DIRECTION('',(0.,-2.22044604925E-16,-1.));
#678 = DIRECTION('',(1.,0.,0.));
#679 = ADVANCED_FACE('',(#680),#686,.F.);
#680 = FACE_BOUND('',#681,.F.);
#681 = EDGE_LOOP('',(#682,#683,#684,#685));
#682 = ORIENTED_EDGE('',*,*,#386,.F.);
#683 = ORIENTED_EDGE('',*,*,#459,.T.);
#684 = ORIENTED_EDGE('',*,*,#435,.T.);
#685 = ORIENTED_EDGE('',*,*,#419,.F.);
#686 = CYLINDRICAL_SURFACE('',#687,0.16);
#687 = AXIS2_PLACEMENT_3D('',#688,#689,#690);
#688 = CARTESIAN_POINT('',(0.775,-1.110223024625E-16,-0.5));
#689 = DIRECTION('',(0.,-1.,2.22044604925E-16));
#690 = DIRECTION('',(1.,0.,0.));
#691 = ADVANCED_FACE('',(#692),#698,.F.);
#692 = FACE_BOUND('',#693,.F.);
#693 = EDGE_LOOP('',(#694,#695,#696,#697));
#694 = ORIENTED_EDGE('',*,*,#362,.F.);
#695 = ORIENTED_EDGE('',*,*,#525,.T.);
#696 = ORIENTED_EDGE('',*,*,#501,.T.);
#697 = ORIENTED_EDGE('',*,*,#485,.F.);
#698 = CYLINDRICAL_SURFACE('',#699,0.16);
#699 = AXIS2_PLACEMENT_3D('',#700,#701,#702);
#700 = CARTESIAN_POINT('',(0.775,0.,5.551115123126E-17));
#701 = DIRECTION('',(0.,-1.,2.22044604925E-16));
#702 = DIRECTION('',(1.,0.,0.));
#703 = ADVANCED_FACE('',(#704),#710,.F.);
#704 = FACE_BOUND('',#705,.F.);
#705 = EDGE_LOOP('',(#706,#707,#708,#709));
#706 = ORIENTED_EDGE('',*,*,#338,.F.);
#707 = ORIENTED_EDGE('',*,*,#591,.T.);
#708 = ORIENTED_EDGE('',*,*,#567,.T.);
#709 = ORIENTED_EDGE('',*,*,#551,.F.);
#710 = CYLINDRICAL_SURFACE('',#711,0.16);
#711 = AXIS2_PLACEMENT_3D('',#712,#713,#714);
#712 = CARTESIAN_POINT('',(0.775,0.,0.5));
#713 = DIRECTION('',(0.,-1.,2.22044604925E-16));
#714 = DIRECTION('',(1.,0.,0.));
#715 = ADVANCED_FACE('',(#716),#791,.T.);
#716 = FACE_BOUND('',#717,.T.);
#717 = EDGE_LOOP('',(#718,#719,#720,#721,#722,#723,#731,#739,#745,#746,
    #754,#762,#768,#769,#777,#785));
#718 = ORIENTED_EDGE('',*,*,#315,.F.);
#719 = ORIENTED_EDGE('',*,*,#617,.T.);
#720 = ORIENTED_EDGE('',*,*,#640,.T.);
#721 = ORIENTED_EDGE('',*,*,#667,.F.);
#722 = ORIENTED_EDGE('',*,*,#216,.F.);
#723 = ORIENTED_EDGE('',*,*,#724,.T.);
#724 = EDGE_CURVE('',#217,#725,#727,.T.);
#725 = VERTEX_POINT('',#726);
#726 = CARTESIAN_POINT('',(-1.,0.2,-0.66));
#727 = LINE('',#728,#729);
#728 = CARTESIAN_POINT('',(-1.,-1.465494392505E-16,-0.66));
#729 = VECTOR('',#730,1.);
#730 = DIRECTION('',(0.,1.,-2.22044604925E-16));
#731 = ORIENTED_EDGE('',*,*,#732,.T.);
#732 = EDGE_CURVE('',#725,#733,#735,.T.);
#733 = VERTEX_POINT('',#734);
#734 = CARTESIAN_POINT('',(-1.,0.2,-0.34));
#735 = LINE('',#736,#737);
#736 = CARTESIAN_POINT('',(-1.,0.2,-0.66));
#737 = VECTOR('',#738,1.);
#738 = DIRECTION('',(0.,2.22044604925E-16,1.));
#739 = ORIENTED_EDGE('',*,*,#740,.F.);
#740 = EDGE_CURVE('',#242,#733,#741,.T.);
#741 = LINE('',#742,#743);
#742 = CARTESIAN_POINT('',(-1.,-7.549516567451E-17,-0.34));
#743 = VECTOR('',#744,1.);
#744 = DIRECTION('',(0.,1.,-2.22044604925E-16));
#745 = ORIENTED_EDGE('',*,*,#249,.F.);
#746 = ORIENTED_EDGE('',*,*,#747,.T.);
#747 = EDGE_CURVE('',#250,#748,#750,.T.);
#748 = VERTEX_POINT('',#749);
#749 = CARTESIAN_POINT('',(-1.,0.2,-0.16));
#750 = LINE('',#751,#752);
#751 = CARTESIAN_POINT('',(-1.,-1.110223024625E-16,-0.16));
#752 = VECTOR('',#753,1.);
#753 = DIRECTION('',(0.,1.,-2.22044604925E-16));
#754 = ORIENTED_EDGE('',*,*,#755,.T.);
#755 = EDGE_CURVE('',#748,#756,#758,.T.);
#756 = VERTEX_POINT('',#757);
#757 = CARTESIAN_POINT('',(-1.,0.2,0.16));
#758 = LINE('',#759,#760);
#759 = CARTESIAN_POINT('',(-1.,0.2,-0.16));
#760 = VECTOR('',#761,1.);
#761 = DIRECTION('',(0.,2.22044604925E-16,1.));
#762 = ORIENTED_EDGE('',*,*,#763,.F.);
#763 = EDGE_CURVE('',#275,#756,#764,.T.);
#764 = LINE('',#765,#766);
#765 = CARTESIAN_POINT('',(-1.,0.,0.16));
#766 = VECTOR('',#767,1.);
#767 = DIRECTION('',(0.,1.,-2.22044604925E-16));
#768 = ORIENTED_EDGE('',*,*,#282,.F.);
#769 = ORIENTED_EDGE('',*,*,#770,.T.);
#770 = EDGE_CURVE('',#283,#771,#773,.T.);
#771 = VERTEX_POINT('',#772);
#772 = CARTESIAN_POINT('',(-1.,0.2,0.34));
#773 = LINE('',#774,#775);
#774 = CARTESIAN_POINT('',(-1.,0.,0.34));
#775 = VECTOR('',#776,1.);
#776 = DIRECTION('',(0.,1.,-2.22044604925E-16));
#777 = ORIENTED_EDGE('',*,*,#778,.T.);
#778 = EDGE_CURVE('',#771,#779,#781,.T.);
#779 = VERTEX_POINT('',#780);
#780 = CARTESIAN_POINT('',(-1.,0.2,0.66));
#781 = LINE('',#782,#783);
#782 = CARTESIAN_POINT('',(-1.,0.2,0.34));
#783 = VECTOR('',#784,1.);
#784 = DIRECTION('',(0.,2.22044604925E-16,1.));
#785 = ORIENTED_EDGE('',*,*,#786,.F.);
#786 = EDGE_CURVE('',#308,#779,#787,.T.);
#787 = LINE('',#788,#789);
#788 = CARTESIAN_POINT('',(-1.,0.,0.66));
#789 = VECTOR('',#790,1.);
#790 = DIRECTION('',(0.,1.,-2.22044604925E-16));
#791 = PLANE('',#792);
#792 = AXIS2_PLACEMENT_3D('',#793,#794,#795);
#793 = CARTESIAN_POINT('',(-1.,2.22044604925E-16,1.));
#794 = DIRECTION('',(-1.,0.,0.));
#795 = DIRECTION('',(0.,-2.22044604925E-16,-1.));
#796 = ADVANCED_FACE('',(#797),#815,.T.);
#797 = FACE_BOUND('',#798,.T.);
#798 = EDGE_LOOP('',(#799,#800,#801,#809));
#799 = ORIENTED_EDGE('',*,*,#307,.T.);
#800 = ORIENTED_EDGE('',*,*,#786,.T.);
#801 = ORIENTED_EDGE('',*,*,#802,.T.);
#802 = EDGE_CURVE('',#779,#803,#805,.T.);
#803 = VERTEX_POINT('',#804);
#804 = CARTESIAN_POINT('',(-0.775,0.2,0.66));
#805 = LINE('',#806,#807);
#806 = CARTESIAN_POINT('',(-1.,0.2,0.66));
#807 = VECTOR('',#808,1.);
#808 = DIRECTION('',(1.,0.,0.));
#809 = ORIENTED_EDGE('',*,*,#810,.F.);
#810 = EDGE_CURVE('',#299,#803,#811,.T.);
#811 = LINE('',#812,#813);
#812 = CARTESIAN_POINT('',(-0.775,0.,0.66));
#813 = VECTOR('',#814,1.);
#814 = DIRECTION('',(0.,1.,-2.22044604925E-16));
#815 = PLANE('',#816);
#816 = AXIS2_PLACEMENT_3D('',#817,#818,#819);
#817 = CARTESIAN_POINT('',(-1.,0.,0.66));
#818 = DIRECTION('',(0.,-2.22044604925E-16,-1.));
#819 = DIRECTION('',(1.,0.,0.));
#820 = ADVANCED_FACE('',(#821),#840,.F.);
#821 = FACE_BOUND('',#822,.F.);
#822 = EDGE_LOOP('',(#823,#824,#832,#839));
#823 = ORIENTED_EDGE('',*,*,#298,.F.);
#824 = ORIENTED_EDGE('',*,*,#825,.T.);
#825 = EDGE_CURVE('',#291,#826,#828,.T.);
#826 = VERTEX_POINT('',#827);
#827 = CARTESIAN_POINT('',(-0.774999999999,0.2,0.34));
#828 = LINE('',#829,#830);
#829 = CARTESIAN_POINT('',(-0.774999999999,0.,0.34));
#830 = VECTOR('',#831,1.);
#831 = DIRECTION('',(0.,1.,-2.22044604925E-16));
#832 = ORIENTED_EDGE('',*,*,#833,.T.);
#833 = EDGE_CURVE('',#826,#803,#834,.T.);
#834 = CIRCLE('',#835,0.16);
#835 = AXIS2_PLACEMENT_3D('',#836,#837,#838);
#836 = CARTESIAN_POINT('',(-0.775,0.2,0.5));
#837 = DIRECTION('',(0.,-1.,2.22044604925E-16));
#838 = DIRECTION('',(1.,0.,0.));
#839 = ORIENTED_EDGE('',*,*,#810,.F.);
#840 = CYLINDRICAL_SURFACE('',#841,0.16);
#841 = AXIS2_PLACEMENT_3D('',#842,#843,#844);
#842 = CARTESIAN_POINT('',(-0.775,0.,0.5));
#843 = DIRECTION('',(0.,-1.,2.22044604925E-16));
#844 = DIRECTION('',(1.,0.,0.));
#845 = ADVANCED_FACE('',(#846),#857,.T.);
#846 = FACE_BOUND('',#847,.T.);
#847 = EDGE_LOOP('',(#848,#849,#850,#856));
#848 = ORIENTED_EDGE('',*,*,#290,.T.);
#849 = ORIENTED_EDGE('',*,*,#825,.T.);
#850 = ORIENTED_EDGE('',*,*,#851,.T.);
#851 = EDGE_CURVE('',#826,#771,#852,.T.);
#852 = LINE('',#853,#854);
#853 = CARTESIAN_POINT('',(-0.775,0.2,0.34));
#854 = VECTOR('',#855,1.);
#855 = DIRECTION('',(-1.,0.,0.));
#856 = ORIENTED_EDGE('',*,*,#770,.F.);
#857 = PLANE('',#858);
#858 = AXIS2_PLACEMENT_3D('',#859,#860,#861);
#859 = CARTESIAN_POINT('',(-0.775,0.,0.34));
#860 = DIRECTION('',(0.,2.22044604925E-16,1.));
#861 = DIRECTION('',(-1.,0.,0.));
#862 = ADVANCED_FACE('',(#863),#881,.T.);
#863 = FACE_BOUND('',#864,.T.);
#864 = EDGE_LOOP('',(#865,#866,#867,#875));
#865 = ORIENTED_EDGE('',*,*,#274,.T.);
#866 = ORIENTED_EDGE('',*,*,#763,.T.);
#867 = ORIENTED_EDGE('',*,*,#868,.T.);
#868 = EDGE_CURVE('',#756,#869,#871,.T.);
#869 = VERTEX_POINT('',#870);
#870 = CARTESIAN_POINT('',(-0.775,0.2,0.16));
#871 = LINE('',#872,#873);
#872 = CARTESIAN_POINT('',(-1.,0.2,0.16));
#873 = VECTOR('',#874,1.);
#874 = DIRECTION('',(1.,0.,0.));
#875 = ORIENTED_EDGE('',*,*,#876,.F.);
#876 = EDGE_CURVE('',#266,#869,#877,.T.);
#877 = LINE('',#878,#879);
#878 = CARTESIAN_POINT('',(-0.775,0.,0.16));
#879 = VECTOR('',#880,1.);
#880 = DIRECTION('',(0.,1.,-2.22044604925E-16));
#881 = PLANE('',#882);
#882 = AXIS2_PLACEMENT_3D('',#883,#884,#885);
#883 = CARTESIAN_POINT('',(-1.,0.,0.16));
#884 = DIRECTION('',(0.,-2.22044604925E-16,-1.));
#885 = DIRECTION('',(1.,0.,0.));
#886 = ADVANCED_FACE('',(#887),#906,.F.);
#887 = FACE_BOUND('',#888,.F.);
#888 = EDGE_LOOP('',(#889,#890,#898,#905));
#889 = ORIENTED_EDGE('',*,*,#265,.F.);
#890 = ORIENTED_EDGE('',*,*,#891,.T.);
#891 = EDGE_CURVE('',#258,#892,#894,.T.);
#892 = VERTEX_POINT('',#893);
#893 = CARTESIAN_POINT('',(-0.774999999999,0.2,-0.16));
#894 = LINE('',#895,#896);
#895 = CARTESIAN_POINT('',(-0.774999999999,-1.110223024625E-16,-0.16));
#896 = VECTOR('',#897,1.);
#897 = DIRECTION('',(0.,1.,-2.22044604925E-16));
#898 = ORIENTED_EDGE('',*,*,#899,.T.);
#899 = EDGE_CURVE('',#892,#869,#900,.T.);
#900 = CIRCLE('',#901,0.16);
#901 = AXIS2_PLACEMENT_3D('',#902,#903,#904);
#902 = CARTESIAN_POINT('',(-0.775,0.2,-8.326672684689E-17));
#903 = DIRECTION('',(0.,-1.,2.22044604925E-16));
#904 = DIRECTION('',(1.,0.,0.));
#905 = ORIENTED_EDGE('',*,*,#876,.F.);
#906 = CYLINDRICAL_SURFACE('',#907,0.16);
#907 = AXIS2_PLACEMENT_3D('',#908,#909,#910);
#908 = CARTESIAN_POINT('',(-0.775,0.,5.551115123126E-17));
#909 = DIRECTION('',(0.,-1.,2.22044604925E-16));
#910 = DIRECTION('',(1.,0.,0.));
#911 = ADVANCED_FACE('',(#912),#923,.T.);
#912 = FACE_BOUND('',#913,.T.);
#913 = EDGE_LOOP('',(#914,#915,#916,#922));
#914 = ORIENTED_EDGE('',*,*,#257,.T.);
#915 = ORIENTED_EDGE('',*,*,#891,.T.);
#916 = ORIENTED_EDGE('',*,*,#917,.T.);
#917 = EDGE_CURVE('',#892,#748,#918,.T.);
#918 = LINE('',#919,#920);
#919 = CARTESIAN_POINT('',(-0.775,0.2,-0.16));
#920 = VECTOR('',#921,1.);
#921 = DIRECTION('',(-1.,0.,0.));
#922 = ORIENTED_EDGE('',*,*,#747,.F.);
#923 = PLANE('',#924);
#924 = AXIS2_PLACEMENT_3D('',#925,#926,#927);
#925 = CARTESIAN_POINT('',(-0.775,-1.110223024625E-16,-0.16));
#926 = DIRECTION('',(0.,2.22044604925E-16,1.));
#927 = DIRECTION('',(-1.,0.,0.));
#928 = ADVANCED_FACE('',(#929),#947,.T.);
#929 = FACE_BOUND('',#930,.T.);
#930 = EDGE_LOOP('',(#931,#932,#933,#941));
#931 = ORIENTED_EDGE('',*,*,#241,.T.);
#932 = ORIENTED_EDGE('',*,*,#740,.T.);
#933 = ORIENTED_EDGE('',*,*,#934,.T.);
#934 = EDGE_CURVE('',#733,#935,#937,.T.);
#935 = VERTEX_POINT('',#936);
#936 = CARTESIAN_POINT('',(-0.775,0.2,-0.34));
#937 = LINE('',#938,#939);
#938 = CARTESIAN_POINT('',(-1.,0.2,-0.34));
#939 = VECTOR('',#940,1.);
#940 = DIRECTION('',(1.,0.,0.));
#941 = ORIENTED_EDGE('',*,*,#942,.F.);
#942 = EDGE_CURVE('',#233,#935,#943,.T.);
#943 = LINE('',#944,#945);
#944 = CARTESIAN_POINT('',(-0.775,-7.549516567451E-17,-0.34));
#945 = VECTOR('',#946,1.);
#946 = DIRECTION('',(0.,1.,-2.22044604925E-16));
#947 = PLANE('',#948);
#948 = AXIS2_PLACEMENT_3D('',#949,#950,#951);
#949 = CARTESIAN_POINT('',(-1.,-7.549516567451E-17,-0.34));
#950 = DIRECTION('',(0.,-2.22044604925E-16,-1.));
#951 = DIRECTION('',(1.,0.,0.));
#952 = ADVANCED_FACE('',(#953),#972,.F.);
#953 = FACE_BOUND('',#954,.F.);
#954 = EDGE_LOOP('',(#955,#956,#964,#971));
#955 = ORIENTED_EDGE('',*,*,#232,.F.);
#956 = ORIENTED_EDGE('',*,*,#957,.T.);
#957 = EDGE_CURVE('',#225,#958,#960,.T.);
#958 = VERTEX_POINT('',#959);
#959 = CARTESIAN_POINT('',(-0.774999999999,0.2,-0.66));
#960 = LINE('',#961,#962);
#961 = CARTESIAN_POINT('',(-0.774999999999,-1.465494392505E-16,-0.66));
#962 = VECTOR('',#963,1.);
#963 = DIRECTION('',(0.,1.,-2.22044604925E-16));
#964 = ORIENTED_EDGE('',*,*,#965,.T.);
#965 = EDGE_CURVE('',#958,#935,#966,.T.);
#966 = CIRCLE('',#967,0.16);
#967 = AXIS2_PLACEMENT_3D('',#968,#969,#970);
#968 = CARTESIAN_POINT('',(-0.775,0.2,-0.5));
#969 = DIRECTION('',(0.,-1.,2.22044604925E-16));
#970 = DIRECTION('',(1.,0.,0.));
#971 = ORIENTED_EDGE('',*,*,#942,.F.);
#972 = CYLINDRICAL_SURFACE('',#973,0.16);
#973 = AXIS2_PLACEMENT_3D('',#974,#975,#976);
#974 = CARTESIAN_POINT('',(-0.775,-1.110223024625E-16,-0.5));
#975 = DIRECTION('',(0.,-1.,2.22044604925E-16));
#976 = DIRECTION('',(1.,0.,0.));
#977 = ADVANCED_FACE('',(#978),#989,.T.);
#978 = FACE_BOUND('',#979,.T.);
#979 = EDGE_LOOP('',(#980,#981,#982,#988));
#980 = ORIENTED_EDGE('',*,*,#224,.T.);
#981 = ORIENTED_EDGE('',*,*,#957,.T.);
#982 = ORIENTED_EDGE('',*,*,#983,.T.);
#983 = EDGE_CURVE('',#958,#725,#984,.T.);
#984 = LINE('',#985,#986);
#985 = CARTESIAN_POINT('',(-0.775,0.2,-0.66));
#986 = VECTOR('',#987,1.);
#987 = DIRECTION('',(-1.,0.,0.));
#988 = ORIENTED_EDGE('',*,*,#724,.F.);
#989 = PLANE('',#990);
#990 = AXIS2_PLACEMENT_3D('',#991,#992,#993);
#991 = CARTESIAN_POINT('',(-0.775,-1.465494392505E-16,-0.66));
#992 = DIRECTION('',(0.,2.22044604925E-16,1.));
#993 = DIRECTION('',(-1.,0.,0.));
#994 = ADVANCED_FACE('',(#995),#1014,.F.);
#995 = FACE_BOUND('',#996,.F.);
#996 = EDGE_LOOP('',(#997,#1005,#1012,#1013));
#997 = ORIENTED_EDGE('',*,*,#998,.T.);
#998 = EDGE_CURVE('',#650,#999,#1001,.T.);
#999 = VERTEX_POINT('',#1000);
#1000 = CARTESIAN_POINT('',(-0.646,0.746,-0.746));
#1001 = LINE('',#1002,#1003);
#1002 = CARTESIAN_POINT('',(-0.646,1.,-0.746));
#1003 = VECTOR('',#1004,1.);
#1004 = DIRECTION('',(0.,-1.,-2.22044604925E-16));
#1005 = ORIENTED_EDGE('',*,*,#1006,.T.);
#1006 = EDGE_CURVE('',#999,#999,#1007,.T.);
#1007 = CIRCLE('',#1008,0.1);
#1008 = AXIS2_PLACEMENT_3D('',#1009,#1010,#1011);
#1009 = CARTESIAN_POINT('',(-0.746,0.746,-0.746));
#1010 = DIRECTION('',(-0.,1.,2.22044604925E-16));
#1011 = DIRECTION('',(1.,0.,0.));
#1012 = ORIENTED_EDGE('',*,*,#998,.F.);
#1013 = ORIENTED_EDGE('',*,*,#649,.F.);
#1014 = CYLINDRICAL_SURFACE('',#1015,0.1);
#1015 = AXIS2_PLACEMENT_3D('',#1016,#1017,#1018);
#1016 = CARTESIAN_POINT('',(-0.746,1.,-0.746));
#1017 = DIRECTION('',(0.,1.,2.22044604925E-16));
#1018 = DIRECTION('',(1.,0.,0.));
#1019 = ADVANCED_FACE('',(#1020),#1026,.F.);
#1020 = FACE_BOUND('',#1021,.F.);
#1021 = EDGE_LOOP('',(#1022,#1023,#1024,#1025));
#1022 = ORIENTED_EDGE('',*,*,#778,.T.);
#1023 = ORIENTED_EDGE('',*,*,#802,.T.);
#1024 = ORIENTED_EDGE('',*,*,#833,.F.);
#1025 = ORIENTED_EDGE('',*,*,#851,.T.);
#1026 = PLANE('',#1027);
#1027 = AXIS2_PLACEMENT_3D('',#1028,#1029,#1030);
#1028 = CARTESIAN_POINT('',(-0.837627599461,0.2,0.5));
#1029 = DIRECTION('',(0.,1.,0.));
#1030 = DIRECTION('',(0.,0.,1.));
#1031 = ADVANCED_FACE('',(#1032),#1038,.F.);
#1032 = FACE_BOUND('',#1033,.F.);
#1033 = EDGE_LOOP('',(#1034,#1035,#1036,#1037));
#1034 = ORIENTED_EDGE('',*,*,#755,.T.);
#1035 = ORIENTED_EDGE('',*,*,#868,.T.);
#1036 = ORIENTED_EDGE('',*,*,#899,.F.);
#1037 = ORIENTED_EDGE('',*,*,#917,.T.);
#1038 = PLANE('',#1039);
#1039 = AXIS2_PLACEMENT_3D('',#1040,#1041,#1042);
#1040 = CARTESIAN_POINT('',(-0.837627599461,0.2,1.585953590677E-13));
#1041 = DIRECTION('',(0.,1.,0.));
#1042 = DIRECTION('',(0.,0.,1.));
#1043 = ADVANCED_FACE('',(#1044),#1050,.F.);
#1044 = FACE_BOUND('',#1045,.F.);
#1045 = EDGE_LOOP('',(#1046,#1047,#1048,#1049));
#1046 = ORIENTED_EDGE('',*,*,#732,.T.);
#1047 = ORIENTED_EDGE('',*,*,#934,.T.);
#1048 = ORIENTED_EDGE('',*,*,#965,.F.);
#1049 = ORIENTED_EDGE('',*,*,#983,.T.);
#1050 = PLANE('',#1051);
#1051 = AXIS2_PLACEMENT_3D('',#1052,#1053,#1054);
#1052 = CARTESIAN_POINT('',(-0.837627599461,0.2,-0.5));
#1053 = DIRECTION('',(0.,1.,0.));
#1054 = DIRECTION('',(0.,0.,1.));
#1055 = ADVANCED_FACE('',(#1056),#1059,.T.);
#1056 = FACE_BOUND('',#1057,.T.);
#1057 = EDGE_LOOP('',(#1058));
#1058 = ORIENTED_EDGE('',*,*,#1006,.T.);
#1059 = PLANE('',#1060);
#1060 = AXIS2_PLACEMENT_3D('',#1061,#1062,#1063);
#1061 = CARTESIAN_POINT('',(-0.746,0.746,-0.746));
#1062 = DIRECTION('',(0.,1.,0.));
#1063 = DIRECTION('',(0.,0.,1.));
#1064 = ( GEOMETRIC_REPRESENTATION_CONTEXT(3) 
GLOBAL_UNCERTAINTY_ASSIGNED_CONTEXT((#1068)) 
GLOBAL_UNIT_ASSIGNED_CONTEXT((#1065,#1066,#1067)) REPRESENTATION_CONTEXT
('Context #1','3D Context with UNIT and UNCERTAINTY') );
#1065 = ( LENGTH_UNIT() NAMED_UNIT(*) SI_UNIT(.MILLI.,.METRE.) );
#1066 = ( NAMED_UNIT(*) PLANE_ANGLE_UNIT() SI_UNIT($,.RADIAN.) );
#1067 = ( NAMED_UNIT(*) SI_UNIT($,.STERADIAN.) SOLID_ANGLE_UNIT() );
#1068 = UNCERTAINTY_MEASURE_WITH_UNIT(LENGTH_MEASURE(5.E-07),#1065,
  'distance_accuracy_value','confusion accuracy');
#1069 = CONTEXT_DEPENDENT_SHAPE_REPRESENTATION(#1070,#1072);
#1070 = ( REPRESENTATION_RELATIONSHIP('','',#64,#10) 
REPRESENTATION_RELATIONSHIP_WITH_TRANSFORMATION(#1071) 
SHAPE_REPRESENTATION_RELATIONSHIP() );
#1071 = ITEM_DEFINED_TRANSFORMATION('','',#11,#15);
#1072 = PRODUCT_DEFINITION_SHAPE('Placement','Placement of an item',
  #1073);
#1073 = NEXT_ASSEMBLY_USAGE_OCCURRENCE('737','Body_Solid1','',#5,#59,$);
#1074 = PRODUCT_RELATED_PRODUCT_CATEGORY('part',$,(#61));
#1075 = SHAPE_DEFINITION_REPRESENTATION(#1076,#1082);
#1076 = PRODUCT_DEFINITION_SHAPE('','',#1077);
#1077 = PRODUCT_DEFINITION('design','',#1078,#1081);
#1078 = PRODUCT_DEFINITION_FORMATION('','',#1079);
#1079 = PRODUCT('Body002_Solid1','Body002_Solid1','',(#1080));
#1080 = PRODUCT_CONTEXT('',#2,'mechanical');
#1081 = PRODUCT_DEFINITION_CONTEXT('part definition',#2,'design');
#1082 = ADVANCED_BREP_SHAPE_REPRESENTATION('',(#11,#1083),#1235);
#1083 = MANIFOLD_SOLID_BREP('',#1084);
#1084 = CLOSED_SHELL('',(#1085,#1125,#1156,#1189,#1211,#1223));
#1085 = ADVANCED_FACE('',(#1086),#1120,.F.);
#1086 = FACE_BOUND('',#1087,.F.);
#1087 = EDGE_LOOP('',(#1088,#1098,#1106,#1114));
#1088 = ORIENTED_EDGE('',*,*,#1089,.T.);
#1089 = EDGE_CURVE('',#1090,#1092,#1094,.T.);
#1090 = VERTEX_POINT('',#1091);
#1091 = CARTESIAN_POINT('',(1.,1.465494392505E-16,0.66));
#1092 = VERTEX_POINT('',#1093);
#1093 = CARTESIAN_POINT('',(1.,0.2,0.66));
#1094 = LINE('',#1095,#1096);
#1095 = CARTESIAN_POINT('',(1.,1.465494392505E-16,0.66));
#1096 = VECTOR('',#1097,1.);
#1097 = DIRECTION('',(-0.,1.,-2.22044604925E-16));
#1098 = ORIENTED_EDGE('',*,*,#1099,.T.);
#1099 = EDGE_CURVE('',#1092,#1100,#1102,.T.);
#1100 = VERTEX_POINT('',#1101);
#1101 = CARTESIAN_POINT('',(1.,0.2,0.34));
#1102 = LINE('',#1103,#1104);
#1103 = CARTESIAN_POINT('',(1.,0.2,0.66));
#1104 = VECTOR('',#1105,1.);
#1105 = DIRECTION('',(0.,-2.22044604925E-16,-1.));
#1106 = ORIENTED_EDGE('',*,*,#1107,.F.);
#1107 = EDGE_CURVE('',#1108,#1100,#1110,.T.);
#1108 = VERTEX_POINT('',#1109);
#1109 = CARTESIAN_POINT('',(1.,7.549516567451E-17,0.34));
#1110 = LINE('',#1111,#1112);
#1111 = CARTESIAN_POINT('',(1.,7.549516567451E-17,0.34));
#1112 = VECTOR('',#1113,1.);
#1113 = DIRECTION('',(-0.,1.,-2.22044604925E-16));
#1114 = ORIENTED_EDGE('',*,*,#1115,.F.);
#1115 = EDGE_CURVE('',#1090,#1108,#1116,.T.);
#1116 = LINE('',#1117,#1118);
#1117 = CARTESIAN_POINT('',(1.,1.465494392505E-16,0.66));
#1118 = VECTOR('',#1119,1.);
#1119 = DIRECTION('',(0.,-2.22044604925E-16,-1.));
#1120 = PLANE('',#1121);
#1121 = AXIS2_PLACEMENT_3D('',#1122,#1123,#1124);
#1122 = CARTESIAN_POINT('',(1.,1.465494392505E-16,0.66));
#1123 = DIRECTION('',(-1.,-0.,0.));
#1124 = DIRECTION('',(0.,-2.22044604925E-16,-1.));
#1125 = ADVANCED_FACE('',(#1126),#1151,.F.);
#1126 = FACE_BOUND('',#1127,.F.);
#1127 = EDGE_LOOP('',(#1128,#1129,#1137,#1145));
#1128 = ORIENTED_EDGE('',*,*,#1107,.T.);
#1129 = ORIENTED_EDGE('',*,*,#1130,.T.);
#1130 = EDGE_CURVE('',#1100,#1131,#1133,.T.);
#1131 = VERTEX_POINT('',#1132);
#1132 = CARTESIAN_POINT('',(0.775,0.2,0.34));
#1133 = LINE('',#1134,#1135);
#1134 = CARTESIAN_POINT('',(1.,0.2,0.34));
#1135 = VECTOR('',#1136,1.);
#1136 = DIRECTION('',(-1.,0.,0.));
#1137 = ORIENTED_EDGE('',*,*,#1138,.F.);
#1138 = EDGE_CURVE('',#1139,#1131,#1141,.T.);
#1139 = VERTEX_POINT('',#1140);
#1140 = CARTESIAN_POINT('',(0.775,7.549516567451E-17,0.34));
#1141 = LINE('',#1142,#1143);
#1142 = CARTESIAN_POINT('',(0.775,7.549516567451E-17,0.34));
#1143 = VECTOR('',#1144,1.);
#1144 = DIRECTION('',(-0.,1.,-2.22044604925E-16));
#1145 = ORIENTED_EDGE('',*,*,#1146,.F.);
#1146 = EDGE_CURVE('',#1108,#1139,#1147,.T.);
#1147 = LINE('',#1148,#1149);
#1148 = CARTESIAN_POINT('',(1.,7.549516567451E-17,0.34));
#1149 = VECTOR('',#1150,1.);
#1150 = DIRECTION('',(-1.,0.,0.));
#1151 = PLANE('',#1152);
#1152 = AXIS2_PLACEMENT_3D('',#1153,#1154,#1155);
#1153 = CARTESIAN_POINT('',(1.,7.549516567451E-17,0.34));
#1154 = DIRECTION('',(0.,2.22044604925E-16,1.));
#1155 = DIRECTION('',(-1.,-0.,0.));
#1156 = ADVANCED_FACE('',(#1157),#1184,.T.);
#1157 = FACE_BOUND('',#1158,.T.);
#1158 = EDGE_LOOP('',(#1159,#1169,#1176,#1177));
#1159 = ORIENTED_EDGE('',*,*,#1160,.T.);
#1160 = EDGE_CURVE('',#1161,#1163,#1165,.T.);
#1161 = VERTEX_POINT('',#1162);
#1162 = CARTESIAN_POINT('',(0.774999999999,1.465494392505E-16,0.66));
#1163 = VERTEX_POINT('',#1164);
#1164 = CARTESIAN_POINT('',(0.774999999999,0.2,0.66));
#1165 = LINE('',#1166,#1167);
#1166 = CARTESIAN_POINT('',(0.774999999999,1.465494392505E-16,0.66));
#1167 = VECTOR('',#1168,1.);
#1168 = DIRECTION('',(-0.,1.,-2.22044604925E-16));
#1169 = ORIENTED_EDGE('',*,*,#1170,.T.);
#1170 = EDGE_CURVE('',#1163,#1131,#1171,.T.);
#1171 = CIRCLE('',#1172,0.16);
#1172 = AXIS2_PLACEMENT_3D('',#1173,#1174,#1175);
#1173 = CARTESIAN_POINT('',(0.775,0.2,0.5));
#1174 = DIRECTION('',(0.,-1.,2.22044604925E-16));
#1175 = DIRECTION('',(1.,0.,0.));
#1176 = ORIENTED_EDGE('',*,*,#1138,.F.);
#1177 = ORIENTED_EDGE('',*,*,#1178,.F.);
#1178 = EDGE_CURVE('',#1161,#1139,#1179,.T.);
#1179 = CIRCLE('',#1180,0.16);
#1180 = AXIS2_PLACEMENT_3D('',#1181,#1182,#1183);
#1181 = CARTESIAN_POINT('',(0.775,1.110223024625E-16,0.5));
#1182 = DIRECTION('',(0.,-1.,2.22044604925E-16));
#1183 = DIRECTION('',(1.,0.,0.));
#1184 = CYLINDRICAL_SURFACE('',#1185,0.16);
#1185 = AXIS2_PLACEMENT_3D('',#1186,#1187,#1188);
#1186 = CARTESIAN_POINT('',(0.775,1.110223024625E-16,0.5));
#1187 = DIRECTION('',(0.,-1.,2.22044604925E-16));
#1188 = DIRECTION('',(1.,0.,0.));
#1189 = ADVANCED_FACE('',(#1190),#1206,.F.);
#1190 = FACE_BOUND('',#1191,.F.);
#1191 = EDGE_LOOP('',(#1192,#1193,#1199,#1200));
#1192 = ORIENTED_EDGE('',*,*,#1160,.T.);
#1193 = ORIENTED_EDGE('',*,*,#1194,.T.);
#1194 = EDGE_CURVE('',#1163,#1092,#1195,.T.);
#1195 = LINE('',#1196,#1197);
#1196 = CARTESIAN_POINT('',(0.775,0.2,0.66));
#1197 = VECTOR('',#1198,1.);
#1198 = DIRECTION('',(1.,0.,0.));
#1199 = ORIENTED_EDGE('',*,*,#1089,.F.);
#1200 = ORIENTED_EDGE('',*,*,#1201,.F.);
#1201 = EDGE_CURVE('',#1161,#1090,#1202,.T.);
#1202 = LINE('',#1203,#1204);
#1203 = CARTESIAN_POINT('',(0.775,1.465494392505E-16,0.66));
#1204 = VECTOR('',#1205,1.);
#1205 = DIRECTION('',(1.,0.,0.));
#1206 = PLANE('',#1207);
#1207 = AXIS2_PLACEMENT_3D('',#1208,#1209,#1210);
#1208 = CARTESIAN_POINT('',(0.775,1.465494392505E-16,0.66));
#1209 = DIRECTION('',(0.,-2.22044604925E-16,-1.));
#1210 = DIRECTION('',(1.,0.,0.));
#1211 = ADVANCED_FACE('',(#1212),#1218,.F.);
#1212 = FACE_BOUND('',#1213,.F.);
#1213 = EDGE_LOOP('',(#1214,#1215,#1216,#1217));
#1214 = ORIENTED_EDGE('',*,*,#1115,.T.);
#1215 = ORIENTED_EDGE('',*,*,#1146,.T.);
#1216 = ORIENTED_EDGE('',*,*,#1178,.F.);
#1217 = ORIENTED_EDGE('',*,*,#1201,.T.);
#1218 = PLANE('',#1219);
#1219 = AXIS2_PLACEMENT_3D('',#1220,#1221,#1222);
#1220 = CARTESIAN_POINT('',(0.837627599461,1.110223024625E-16,0.5));
#1221 = DIRECTION('',(0.,1.,0.));
#1222 = DIRECTION('',(0.,0.,1.));
#1223 = ADVANCED_FACE('',(#1224),#1230,.T.);
#1224 = FACE_BOUND('',#1225,.T.);
#1225 = EDGE_LOOP('',(#1226,#1227,#1228,#1229));
#1226 = ORIENTED_EDGE('',*,*,#1099,.T.);
#1227 = ORIENTED_EDGE('',*,*,#1130,.T.);
#1228 = ORIENTED_EDGE('',*,*,#1170,.F.);
#1229 = ORIENTED_EDGE('',*,*,#1194,.T.);
#1230 = PLANE('',#1231);
#1231 = AXIS2_PLACEMENT_3D('',#1232,#1233,#1234);
#1232 = CARTESIAN_POINT('',(0.837627599461,0.2,0.5));
#1233 = DIRECTION('',(0.,1.,0.));
#1234 = DIRECTION('',(0.,0.,1.));
#1235 = ( GEOMETRIC_REPRESENTATION_CONTEXT(3) 
GLOBAL_UNCERTAINTY_ASSIGNED_CONTEXT((#1239)) 
GLOBAL_UNIT_ASSIGNED_CONTEXT((#1236,#1237,#1238)) REPRESENTATION_CONTEXT
('Context #1','3D Context with UNIT and UNCERTAINTY') );
#1236 = ( LENGTH_UNIT() NAMED_UNIT(*) SI_UNIT(.MILLI.,.METRE.) );
#1237 = ( NAMED_UNIT(*) PLANE_ANGLE_UNIT() SI_UNIT($,.RADIAN.) );
#1238 = ( NAMED_UNIT(*) SI_UNIT($,.STERADIAN.) SOLID_ANGLE_UNIT() );
#1239 = UNCERTAINTY_MEASURE_WITH_UNIT(LENGTH_MEASURE(1.E-07),#1236,
  'distance_accuracy_value','confusion accuracy');
#1240 = CONTEXT_DEPENDENT_SHAPE_REPRESENTATION(#1241,#1243);
#1241 = ( REPRESENTATION_RELATIONSHIP('','',#1082,#10) 
REPRESENTATION_RELATIONSHIP_WITH_TRANSFORMATION(#1242) 
SHAPE_REPRESENTATION_RELATIONSHIP() );
#1242 = ITEM_DEFINED_TRANSFORMATION('','',#11,#19);
#1243 = PRODUCT_DEFINITION_SHAPE('Placement','Placement of an item',
  #1244);
#1244 = NEXT_ASSEMBLY_USAGE_OCCURRENCE('738','Body002_Solid1','',#5,
  #1077,$);
#1245 = PRODUCT_RELATED_PRODUCT_CATEGORY('part',$,(#1079));
#1246 = SHAPE_DEFINITION_REPRESENTATION(#1247,#1253);
#1247 = PRODUCT_DEFINITION_SHAPE('','',#1248);
#1248 = PRODUCT_DEFINITION('design','',#1249,#1252);
#1249 = PRODUCT_DEFINITION_FORMATION('','',#1250);
#1250 = PRODUCT('Array002_Solid1','Array002_Solid1','',(#1251));
#1251 = PRODUCT_CONTEXT('',#2,'mechanical');
#1252 = PRODUCT_DEFINITION_CONTEXT('part definition',#2,'design');
#1253 = ADVANCED_BREP_SHAPE_REPRESENTATION('',(#11,#1254),#1406);
#1254 = MANIFOLD_SOLID_BREP('',#1255);
#1255 = CLOSED_SHELL('',(#1256,#1296,#1327,#1360,#1382,#1394));
#1256 = ADVANCED_FACE('',(#1257),#1291,.F.);
#1257 = FACE_BOUND('',#1258,.T.);
#1258 = EDGE_LOOP('',(#1259,#1269,#1277,#1285));
#1259 = ORIENTED_EDGE('',*,*,#1260,.T.);
#1260 = EDGE_CURVE('',#1261,#1263,#1265,.T.);
#1261 = VERTEX_POINT('',#1262);
#1262 = CARTESIAN_POINT('',(-1.,1.465494392505E-16,0.66));
#1263 = VERTEX_POINT('',#1264);
#1264 = CARTESIAN_POINT('',(-1.,0.2,0.66));
#1265 = LINE('',#1266,#1267);
#1266 = CARTESIAN_POINT('',(-1.,1.465494392505E-16,0.66));
#1267 = VECTOR('',#1268,1.);
#1268 = DIRECTION('',(-0.,1.,-2.22044604925E-16));
#1269 = ORIENTED_EDGE('',*,*,#1270,.T.);
#1270 = EDGE_CURVE('',#1263,#1271,#1273,.T.);
#1271 = VERTEX_POINT('',#1272);
#1272 = CARTESIAN_POINT('',(-1.,0.2,0.34));
#1273 = LINE('',#1274,#1275);
#1274 = CARTESIAN_POINT('',(-1.,0.2,0.66));
#1275 = VECTOR('',#1276,1.);
#1276 = DIRECTION('',(0.,-2.22044604925E-16,-1.));
#1277 = ORIENTED_EDGE('',*,*,#1278,.F.);
#1278 = EDGE_CURVE('',#1279,#1271,#1281,.T.);
#1279 = VERTEX_POINT('',#1280);
#1280 = CARTESIAN_POINT('',(-1.,7.549516567451E-17,0.34));
#1281 = LINE('',#1282,#1283);
#1282 = CARTESIAN_POINT('',(-1.,7.549516567451E-17,0.34));
#1283 = VECTOR('',#1284,1.);
#1284 = DIRECTION('',(-0.,1.,-2.22044604925E-16));
#1285 = ORIENTED_EDGE('',*,*,#1286,.F.);
#1286 = EDGE_CURVE('',#1261,#1279,#1287,.T.);
#1287 = LINE('',#1288,#1289);
#1288 = CARTESIAN_POINT('',(-1.,1.465494392505E-16,0.66));
#1289 = VECTOR('',#1290,1.);
#1290 = DIRECTION('',(0.,-2.22044604925E-16,-1.));
#1291 = PLANE('',#1292);
#1292 = AXIS2_PLACEMENT_3D('',#1293,#1294,#1295);
#1293 = CARTESIAN_POINT('',(-1.,1.465494392505E-16,0.66));
#1294 = DIRECTION('',(1.,-0.,0.));
#1295 = DIRECTION('',(0.,2.22044604925E-16,1.));
#1296 = ADVANCED_FACE('',(#1297),#1322,.F.);
#1297 = FACE_BOUND('',#1298,.T.);
#1298 = EDGE_LOOP('',(#1299,#1300,#1308,#1316));
#1299 = ORIENTED_EDGE('',*,*,#1278,.T.);
#1300 = ORIENTED_EDGE('',*,*,#1301,.T.);
#1301 = EDGE_CURVE('',#1271,#1302,#1304,.T.);
#1302 = VERTEX_POINT('',#1303);
#1303 = CARTESIAN_POINT('',(-0.775,0.2,0.34));
#1304 = LINE('',#1305,#1306);
#1305 = CARTESIAN_POINT('',(-1.,0.2,0.34));
#1306 = VECTOR('',#1307,1.);
#1307 = DIRECTION('',(1.,0.,0.));
#1308 = ORIENTED_EDGE('',*,*,#1309,.F.);
#1309 = EDGE_CURVE('',#1310,#1302,#1312,.T.);
#1310 = VERTEX_POINT('',#1311);
#1311 = CARTESIAN_POINT('',(-0.775,7.549516567451E-17,0.34));
#1312 = LINE('',#1313,#1314);
#1313 = CARTESIAN_POINT('',(-0.775,7.549516567451E-17,0.34));
#1314 = VECTOR('',#1315,1.);
#1315 = DIRECTION('',(-0.,1.,-2.22044604925E-16));
#1316 = ORIENTED_EDGE('',*,*,#1317,.F.);
#1317 = EDGE_CURVE('',#1279,#1310,#1318,.T.);
#1318 = LINE('',#1319,#1320);
#1319 = CARTESIAN_POINT('',(-1.,7.549516567451E-17,0.34));
#1320 = VECTOR('',#1321,1.);
#1321 = DIRECTION('',(1.,0.,0.));
#1322 = PLANE('',#1323);
#1323 = AXIS2_PLACEMENT_3D('',#1324,#1325,#1326);
#1324 = CARTESIAN_POINT('',(-1.,7.549516567451E-17,0.34));
#1325 = DIRECTION('',(-0.,2.22044604925E-16,1.));
#1326 = DIRECTION('',(-1.,0.,-0.));
#1327 = ADVANCED_FACE('',(#1328),#1355,.T.);
#1328 = FACE_BOUND('',#1329,.F.);
#1329 = EDGE_LOOP('',(#1330,#1340,#1347,#1348));
#1330 = ORIENTED_EDGE('',*,*,#1331,.T.);
#1331 = EDGE_CURVE('',#1332,#1334,#1336,.T.);
#1332 = VERTEX_POINT('',#1333);
#1333 = CARTESIAN_POINT('',(-0.774999999999,1.465494392505E-16,0.66));
#1334 = VERTEX_POINT('',#1335);
#1335 = CARTESIAN_POINT('',(-0.774999999999,0.2,0.66));
#1336 = LINE('',#1337,#1338);
#1337 = CARTESIAN_POINT('',(-0.774999999999,1.465494392505E-16,0.66));
#1338 = VECTOR('',#1339,1.);
#1339 = DIRECTION('',(-0.,1.,-2.22044604925E-16));
#1340 = ORIENTED_EDGE('',*,*,#1341,.T.);
#1341 = EDGE_CURVE('',#1334,#1302,#1342,.T.);
#1342 = CIRCLE('',#1343,0.16);
#1343 = AXIS2_PLACEMENT_3D('',#1344,#1345,#1346);
#1344 = CARTESIAN_POINT('',(-0.775,0.2,0.5));
#1345 = DIRECTION('',(-0.,1.,-2.22044604925E-16));
#1346 = DIRECTION('',(-1.,-0.,0.));
#1347 = ORIENTED_EDGE('',*,*,#1309,.F.);
#1348 = ORIENTED_EDGE('',*,*,#1349,.F.);
#1349 = EDGE_CURVE('',#1332,#1310,#1350,.T.);
#1350 = CIRCLE('',#1351,0.16);
#1351 = AXIS2_PLACEMENT_3D('',#1352,#1353,#1354);
#1352 = CARTESIAN_POINT('',(-0.775,1.110223024625E-16,0.5));
#1353 = DIRECTION('',(-0.,1.,-2.22044604925E-16));
#1354 = DIRECTION('',(-1.,-0.,0.));
#1355 = CYLINDRICAL_SURFACE('',#1356,0.16);
#1356 = AXIS2_PLACEMENT_3D('',#1357,#1358,#1359);
#1357 = CARTESIAN_POINT('',(-0.775,1.110223024625E-16,0.5));
#1358 = DIRECTION('',(-0.,-1.,2.22044604925E-16));
#1359 = DIRECTION('',(-1.,-0.,-0.));
#1360 = ADVANCED_FACE('',(#1361),#1377,.F.);
#1361 = FACE_BOUND('',#1362,.T.);
#1362 = EDGE_LOOP('',(#1363,#1364,#1370,#1371));
#1363 = ORIENTED_EDGE('',*,*,#1331,.T.);
#1364 = ORIENTED_EDGE('',*,*,#1365,.T.);
#1365 = EDGE_CURVE('',#1334,#1263,#1366,.T.);
#1366 = LINE('',#1367,#1368);
#1367 = CARTESIAN_POINT('',(-0.775,0.2,0.66));
#1368 = VECTOR('',#1369,1.);
#1369 = DIRECTION('',(-1.,-0.,0.));
#1370 = ORIENTED_EDGE('',*,*,#1260,.F.);
#1371 = ORIENTED_EDGE('',*,*,#1372,.F.);
#1372 = EDGE_CURVE('',#1332,#1261,#1373,.T.);
#1373 = LINE('',#1374,#1375);
#1374 = CARTESIAN_POINT('',(-0.775,1.465494392505E-16,0.66));
#1375 = VECTOR('',#1376,1.);
#1376 = DIRECTION('',(-1.,-0.,0.));
#1377 = PLANE('',#1378);
#1378 = AXIS2_PLACEMENT_3D('',#1379,#1380,#1381);
#1379 = CARTESIAN_POINT('',(-0.775,1.465494392505E-16,0.66));
#1380 = DIRECTION('',(-0.,-2.22044604925E-16,-1.));
#1381 = DIRECTION('',(1.,0.,0.));
#1382 = ADVANCED_FACE('',(#1383),#1389,.F.);
#1383 = FACE_BOUND('',#1384,.T.);
#1384 = EDGE_LOOP('',(#1385,#1386,#1387,#1388));
#1385 = ORIENTED_EDGE('',*,*,#1286,.T.);
#1386 = ORIENTED_EDGE('',*,*,#1317,.T.);
#1387 = ORIENTED_EDGE('',*,*,#1349,.F.);
#1388 = ORIENTED_EDGE('',*,*,#1372,.T.);
#1389 = PLANE('',#1390);
#1390 = AXIS2_PLACEMENT_3D('',#1391,#1392,#1393);
#1391 = CARTESIAN_POINT('',(-0.837627599461,1.110223024625E-16,0.5));
#1392 = DIRECTION('',(0.,1.,0.));
#1393 = DIRECTION('',(0.,0.,-1.));
#1394 = ADVANCED_FACE('',(#1395),#1401,.T.);
#1395 = FACE_BOUND('',#1396,.F.);
#1396 = EDGE_LOOP('',(#1397,#1398,#1399,#1400));
#1397 = ORIENTED_EDGE('',*,*,#1270,.T.);
#1398 = ORIENTED_EDGE('',*,*,#1301,.T.);
#1399 = ORIENTED_EDGE('',*,*,#1341,.F.);
#1400 = ORIENTED_EDGE('',*,*,#1365,.T.);
#1401 = PLANE('',#1402);
#1402 = AXIS2_PLACEMENT_3D('',#1403,#1404,#1405);
#1403 = CARTESIAN_POINT('',(-0.837627599461,0.2,0.5));
#1404 = DIRECTION('',(0.,1.,0.));
#1405 = DIRECTION('',(0.,0.,-1.));
#1406 = ( GEOMETRIC_REPRESENTATION_CONTEXT(3) 
GLOBAL_UNCERTAINTY_ASSIGNED_CONTEXT((#1410)) 
GLOBAL_UNIT_ASSIGNED_CONTEXT((#1407,#1408,#1409)) REPRESENTATION_CONTEXT
('Context #1','3D Context with UNIT and UNCERTAINTY') );
#1407 = ( LENGTH_UNIT() NAMED_UNIT(*) SI_UNIT(.MILLI.,.METRE.) );
#1408 = ( NAMED_UNIT(*) PLANE_ANGLE_UNIT() SI_UNIT($,.RADIAN.) );
#1409 = ( NAMED_UNIT(*) SI_UNIT($,.STERADIAN.) SOLID_ANGLE_UNIT() );
#1410 = UNCERTAINTY_MEASURE_WITH_UNIT(LENGTH_MEASURE(1.E-07),#1407,
  'distance_accuracy_value','confusion accuracy');
#1411 = CONTEXT_DEPENDENT_SHAPE_REPRESENTATION(#1412,#1414);
#1412 = ( REPRESENTATION_RELATIONSHIP('','',#1253,#10) 
REPRESENTATION_RELATIONSHIP_WITH_TRANSFORMATION(#1413) 
SHAPE_REPRESENTATION_RELATIONSHIP() );
#1413 = ITEM_DEFINED_TRANSFORMATION('','',#11,#23);
#1414 = PRODUCT_DEFINITION_SHAPE('Placement','Placement of an item',
  #1415);
#1415 = NEXT_ASSEMBLY_USAGE_OCCURRENCE('739','Array002_Solid1','',#5,
  #1248,$);
#1416 = PRODUCT_RELATED_PRODUCT_CATEGORY('part',$,(#1250));
#1417 = CONTEXT_DEPENDENT_SHAPE_REPRESENTATION(#1418,#1420);
#1418 = ( REPRESENTATION_RELATIONSHIP('','',#1253,#10) 
REPRESENTATION_RELATIONSHIP_WITH_TRANSFORMATION(#1419) 
SHAPE_REPRESENTATION_RELATIONSHIP() );
#1419 = ITEM_DEFINED_TRANSFORMATION('','',#11,#27);
#1420 = PRODUCT_DEFINITION_SHAPE('Placement','Placement of an item',
  #1421);
#1421 = NEXT_ASSEMBLY_USAGE_OCCURRENCE('740','Array002_Solid2','',#5,
  #1248,$);
#1422 = CONTEXT_DEPENDENT_SHAPE_REPRESENTATION(#1423,#1425);
#1423 = ( REPRESENTATION_RELATIONSHIP('','',#1253,#10) 
REPRESENTATION_RELATIONSHIP_WITH_TRANSFORMATION(#1424) 
SHAPE_REPRESENTATION_RELATIONSHIP() );
#1424 = ITEM_DEFINED_TRANSFORMATION('','',#11,#31);
#1425 = PRODUCT_DEFINITION_SHAPE('Placement','Placement of an item',
  #1426);
#1426 = NEXT_ASSEMBLY_USAGE_OCCURRENCE('741','Array002_Solid3','',#5,
  #1248,$);
#1427 = SHAPE_DEFINITION_REPRESENTATION(#1428,#1434);
#1428 = PRODUCT_DEFINITION_SHAPE('','',#1429);
#1429 = PRODUCT_DEFINITION('design','',#1430,#1433);
#1430 = PRODUCT_DEFINITION_FORMATION('','',#1431);
#1431 = PRODUCT('Array003_Solid2','Array003_Solid2','',(#1432));
#1432 = PRODUCT_CONTEXT('',#2,'mechanical');
#1433 = PRODUCT_DEFINITION_CONTEXT('part definition',#2,'design');
#1434 = ADVANCED_BREP_SHAPE_REPRESENTATION('',(#11,#1435),#1587);
#1435 = MANIFOLD_SOLID_BREP('',#1436);
#1436 = CLOSED_SHELL('',(#1437,#1477,#1508,#1541,#1563,#1575));
#1437 = ADVANCED_FACE('',(#1438),#1472,.F.);
#1438 = FACE_BOUND('',#1439,.F.);
#1439 = EDGE_LOOP('',(#1440,#1450,#1458,#1466));
#1440 = ORIENTED_EDGE('',*,*,#1441,.T.);
#1441 = EDGE_CURVE('',#1442,#1444,#1446,.T.);
#1442 = VERTEX_POINT('',#1443);
#1443 = CARTESIAN_POINT('',(1.,1.465494392505E-16,0.66));
#1444 = VERTEX_POINT('',#1445);
#1445 = CARTESIAN_POINT('',(1.,0.2,0.66));
#1446 = LINE('',#1447,#1448);
#1447 = CARTESIAN_POINT('',(1.,1.465494392505E-16,0.66));
#1448 = VECTOR('',#1449,1.);
#1449 = DIRECTION('',(-0.,1.,-2.22044604925E-16));
#1450 = ORIENTED_EDGE('',*,*,#1451,.T.);
#1451 = EDGE_CURVE('',#1444,#1452,#1454,.T.);
#1452 = VERTEX_POINT('',#1453);
#1453 = CARTESIAN_POINT('',(1.,0.2,0.34));
#1454 = LINE('',#1455,#1456);
#1455 = CARTESIAN_POINT('',(1.,0.2,0.66));
#1456 = VECTOR('',#1457,1.);
#1457 = DIRECTION('',(0.,-2.22044604925E-16,-1.));
#1458 = ORIENTED_EDGE('',*,*,#1459,.F.);
#1459 = EDGE_CURVE('',#1460,#1452,#1462,.T.);
#1460 = VERTEX_POINT('',#1461);
#1461 = CARTESIAN_POINT('',(1.,7.549516567451E-17,0.34));
#1462 = LINE('',#1463,#1464);
#1463 = CARTESIAN_POINT('',(1.,7.549516567451E-17,0.34));
#1464 = VECTOR('',#1465,1.);
#1465 = DIRECTION('',(-0.,1.,-2.22044604925E-16));
#1466 = ORIENTED_EDGE('',*,*,#1467,.F.);
#1467 = EDGE_CURVE('',#1442,#1460,#1468,.T.);
#1468 = LINE('',#1469,#1470);
#1469 = CARTESIAN_POINT('',(1.,1.465494392505E-16,0.66));
#1470 = VECTOR('',#1471,1.);
#1471 = DIRECTION('',(0.,-2.22044604925E-16,-1.));
#1472 = PLANE('',#1473);
#1473 = AXIS2_PLACEMENT_3D('',#1474,#1475,#1476);
#1474 = CARTESIAN_POINT('',(1.,1.465494392505E-16,0.66));
#1475 = DIRECTION('',(-1.,-0.,0.));
#1476 = DIRECTION('',(0.,-2.22044604925E-16,-1.));
#1477 = ADVANCED_FACE('',(#1478),#1503,.F.);
#1478 = FACE_BOUND('',#1479,.F.);
#1479 = EDGE_LOOP('',(#1480,#1481,#1489,#1497));
#1480 = ORIENTED_EDGE('',*,*,#1459,.T.);
#1481 = ORIENTED_EDGE('',*,*,#1482,.T.);
#1482 = EDGE_CURVE('',#1452,#1483,#1485,.T.);
#1483 = VERTEX_POINT('',#1484);
#1484 = CARTESIAN_POINT('',(0.775,0.2,0.34));
#1485 = LINE('',#1486,#1487);
#1486 = CARTESIAN_POINT('',(1.,0.2,0.34));
#1487 = VECTOR('',#1488,1.);
#1488 = DIRECTION('',(-1.,0.,0.));
#1489 = ORIENTED_EDGE('',*,*,#1490,.F.);
#1490 = EDGE_CURVE('',#1491,#1483,#1493,.T.);
#1491 = VERTEX_POINT('',#1492);
#1492 = CARTESIAN_POINT('',(0.775,7.549516567451E-17,0.34));
#1493 = LINE('',#1494,#1495);
#1494 = CARTESIAN_POINT('',(0.775,7.549516567451E-17,0.34));
#1495 = VECTOR('',#1496,1.);
#1496 = DIRECTION('',(-0.,1.,-2.22044604925E-16));
#1497 = ORIENTED_EDGE('',*,*,#1498,.F.);
#1498 = EDGE_CURVE('',#1460,#1491,#1499,.T.);
#1499 = LINE('',#1500,#1501);
#1500 = CARTESIAN_POINT('',(1.,7.549516567451E-17,0.34));
#1501 = VECTOR('',#1502,1.);
#1502 = DIRECTION('',(-1.,0.,0.));
#1503 = PLANE('',#1504);
#1504 = AXIS2_PLACEMENT_3D('',#1505,#1506,#1507);
#1505 = CARTESIAN_POINT('',(1.,7.549516567451E-17,0.34));
#1506 = DIRECTION('',(0.,2.22044604925E-16,1.));
#1507 = DIRECTION('',(-1.,-0.,0.));
#1508 = ADVANCED_FACE('',(#1509),#1536,.T.);
#1509 = FACE_BOUND('',#1510,.T.);
#1510 = EDGE_LOOP('',(#1511,#1521,#1528,#1529));
#1511 = ORIENTED_EDGE('',*,*,#1512,.T.);
#1512 = EDGE_CURVE('',#1513,#1515,#1517,.T.);
#1513 = VERTEX_POINT('',#1514);
#1514 = CARTESIAN_POINT('',(0.774999999999,1.465494392505E-16,0.66));
#1515 = VERTEX_POINT('',#1516);
#1516 = CARTESIAN_POINT('',(0.774999999999,0.2,0.66));
#1517 = LINE('',#1518,#1519);
#1518 = CARTESIAN_POINT('',(0.774999999999,1.465494392505E-16,0.66));
#1519 = VECTOR('',#1520,1.);
#1520 = DIRECTION('',(-0.,1.,-2.22044604925E-16));
#1521 = ORIENTED_EDGE('',*,*,#1522,.T.);
#1522 = EDGE_CURVE('',#1515,#1483,#1523,.T.);
#1523 = CIRCLE('',#1524,0.16);
#1524 = AXIS2_PLACEMENT_3D('',#1525,#1526,#1527);
#1525 = CARTESIAN_POINT('',(0.775,0.2,0.5));
#1526 = DIRECTION('',(0.,-1.,2.22044604925E-16));
#1527 = DIRECTION('',(1.,0.,0.));
#1528 = ORIENTED_EDGE('',*,*,#1490,.F.);
#1529 = ORIENTED_EDGE('',*,*,#1530,.F.);
#1530 = EDGE_CURVE('',#1513,#1491,#1531,.T.);
#1531 = CIRCLE('',#1532,0.16);
#1532 = AXIS2_PLACEMENT_3D('',#1533,#1534,#1535);
#1533 = CARTESIAN_POINT('',(0.775,1.110223024625E-16,0.5));
#1534 = DIRECTION('',(0.,-1.,2.22044604925E-16));
#1535 = DIRECTION('',(1.,0.,0.));
#1536 = CYLINDRICAL_SURFACE('',#1537,0.16);
#1537 = AXIS2_PLACEMENT_3D('',#1538,#1539,#1540);
#1538 = CARTESIAN_POINT('',(0.775,1.110223024625E-16,0.5));
#1539 = DIRECTION('',(0.,-1.,2.22044604925E-16));
#1540 = DIRECTION('',(1.,0.,0.));
#1541 = ADVANCED_FACE('',(#1542),#1558,.F.);
#1542 = FACE_BOUND('',#1543,.F.);
#1543 = EDGE_LOOP('',(#1544,#1545,#1551,#1552));
#1544 = ORIENTED_EDGE('',*,*,#1512,.T.);
#1545 = ORIENTED_EDGE('',*,*,#1546,.T.);
#1546 = EDGE_CURVE('',#1515,#1444,#1547,.T.);
#1547 = LINE('',#1548,#1549);
#1548 = CARTESIAN_POINT('',(0.775,0.2,0.66));
#1549 = VECTOR('',#1550,1.);
#1550 = DIRECTION('',(1.,0.,0.));
#1551 = ORIENTED_EDGE('',*,*,#1441,.F.);
#1552 = ORIENTED_EDGE('',*,*,#1553,.F.);
#1553 = EDGE_CURVE('',#1513,#1442,#1554,.T.);
#1554 = LINE('',#1555,#1556);
#1555 = CARTESIAN_POINT('',(0.775,1.465494392505E-16,0.66));
#1556 = VECTOR('',#1557,1.);
#1557 = DIRECTION('',(1.,0.,0.));
#1558 = PLANE('',#1559);
#1559 = AXIS2_PLACEMENT_3D('',#1560,#1561,#1562);
#1560 = CARTESIAN_POINT('',(0.775,1.465494392505E-16,0.66));
#1561 = DIRECTION('',(0.,-2.22044604925E-16,-1.));
#1562 = DIRECTION('',(1.,0.,0.));
#1563 = ADVANCED_FACE('',(#1564),#1570,.F.);
#1564 = FACE_BOUND('',#1565,.F.);
#1565 = EDGE_LOOP('',(#1566,#1567,#1568,#1569));
#1566 = ORIENTED_EDGE('',*,*,#1467,.T.);
#1567 = ORIENTED_EDGE('',*,*,#1498,.T.);
#1568 = ORIENTED_EDGE('',*,*,#1530,.F.);
#1569 = ORIENTED_EDGE('',*,*,#1553,.T.);
#1570 = PLANE('',#1571);
#1571 = AXIS2_PLACEMENT_3D('',#1572,#1573,#1574);
#1572 = CARTESIAN_POINT('',(0.837627599461,1.110223024625E-16,0.5));
#1573 = DIRECTION('',(0.,1.,0.));
#1574 = DIRECTION('',(0.,0.,1.));
#1575 = ADVANCED_FACE('',(#1576),#1582,.T.);
#1576 = FACE_BOUND('',#1577,.T.);
#1577 = EDGE_LOOP('',(#1578,#1579,#1580,#1581));
#1578 = ORIENTED_EDGE('',*,*,#1451,.T.);
#1579 = ORIENTED_EDGE('',*,*,#1482,.T.);
#1580 = ORIENTED_EDGE('',*,*,#1522,.F.);
#1581 = ORIENTED_EDGE('',*,*,#1546,.T.);
#1582 = PLANE('',#1583);
#1583 = AXIS2_PLACEMENT_3D('',#1584,#1585,#1586);
#1584 = CARTESIAN_POINT('',(0.837627599461,0.2,0.5));
#1585 = DIRECTION('',(0.,1.,0.));
#1586 = DIRECTION('',(0.,0.,1.));
#1587 = ( GEOMETRIC_REPRESENTATION_CONTEXT(3) 
GLOBAL_UNCERTAINTY_ASSIGNED_CONTEXT((#1591)) 
GLOBAL_UNIT_ASSIGNED_CONTEXT((#1588,#1589,#1590)) REPRESENTATION_CONTEXT
('Context #1','3D Context with UNIT and UNCERTAINTY') );
#1588 = ( LENGTH_UNIT() NAMED_UNIT(*) SI_UNIT(.MILLI.,.METRE.) );
#1589 = ( NAMED_UNIT(*) PLANE_ANGLE_UNIT() SI_UNIT($,.RADIAN.) );
#1590 = ( NAMED_UNIT(*) SI_UNIT($,.STERADIAN.) SOLID_ANGLE_UNIT() );
#1591 = UNCERTAINTY_MEASURE_WITH_UNIT(LENGTH_MEASURE(1.E-07),#1588,
  'distance_accuracy_value','confusion accuracy');
#1592 = CONTEXT_DEPENDENT_SHAPE_REPRESENTATION(#1593,#1595);
#1593 = ( REPRESENTATION_RELATIONSHIP('','',#1434,#10) 
REPRESENTATION_RELATIONSHIP_WITH_TRANSFORMATION(#1594) 
SHAPE_REPRESENTATION_RELATIONSHIP() );
#1594 = ITEM_DEFINED_TRANSFORMATION('','',#11,#35);
#1595 = PRODUCT_DEFINITION_SHAPE('Placement','Placement of an item',
  #1596);
#1596 = NEXT_ASSEMBLY_USAGE_OCCURRENCE('742','Array003_Solid2','',#5,
  #1429,$);
#1597 = PRODUCT_RELATED_PRODUCT_CATEGORY('part',$,(#1431));
#1598 = CONTEXT_DEPENDENT_SHAPE_REPRESENTATION(#1599,#1601);
#1599 = ( REPRESENTATION_RELATIONSHIP('','',#1434,#10) 
REPRESENTATION_RELATIONSHIP_WITH_TRANSFORMATION(#1600) 
SHAPE_REPRESENTATION_RELATIONSHIP() );
#1600 = ITEM_DEFINED_TRANSFORMATION('','',#11,#39);
#1601 = PRODUCT_DEFINITION_SHAPE('Placement','Placement of an item',
  #1602);
#1602 = NEXT_ASSEMBLY_USAGE_OCCURRENCE('743','Array003_Solid3','',#5,
  #1429,$);
#1603 = SHAPE_DEFINITION_REPRESENTATION(#1604,#1610);
#1604 = PRODUCT_DEFINITION_SHAPE('','',#1605);
#1605 = PRODUCT_DEFINITION('design','',#1606,#1609);
#1606 = PRODUCT_DEFINITION_FORMATION('','',#1607);
#1607 = PRODUCT('Body003_Solid1','Body003_Solid1','',(#1608));
#1608 = PRODUCT_CONTEXT('',#2,'mechanical');
#1609 = PRODUCT_DEFINITION_CONTEXT('part definition',#2,'design');
#1610 = ADVANCED_BREP_SHAPE_REPRESENTATION('',(#11,#1611),#1761);
#1611 = MANIFOLD_SOLID_BREP('',#1612);
#1612 = CLOSED_SHELL('',(#1613,#1653,#1684,#1715,#1737,#1749));
#1613 = ADVANCED_FACE('',(#1614),#1648,.T.);
#1614 = FACE_BOUND('',#1615,.T.);
#1615 = EDGE_LOOP('',(#1616,#1626,#1634,#1642));
#1616 = ORIENTED_EDGE('',*,*,#1617,.T.);
#1617 = EDGE_CURVE('',#1618,#1620,#1622,.T.);
#1618 = VERTEX_POINT('',#1619);
#1619 = CARTESIAN_POINT('',(0.46,-1.609823385706E-16,-0.725));
#1620 = VERTEX_POINT('',#1621);
#1621 = CARTESIAN_POINT('',(0.46,5.E-02,-0.725));
#1622 = LINE('',#1623,#1624);
#1623 = CARTESIAN_POINT('',(0.46,-1.609823385706E-16,-0.725));
#1624 = VECTOR('',#1625,1.);
#1625 = DIRECTION('',(-0.,1.,-2.22044604925E-16));
#1626 = ORIENTED_EDGE('',*,*,#1627,.T.);
#1627 = EDGE_CURVE('',#1620,#1628,#1630,.T.);
#1628 = VERTEX_POINT('',#1629);
#1629 = CARTESIAN_POINT('',(0.46,5.E-02,0.725));
#1630 = LINE('',#1631,#1632);
#1631 = CARTESIAN_POINT('',(0.46,5.E-02,-0.725));
#1632 = VECTOR('',#1633,1.);
#1633 = DIRECTION('',(0.,2.22044604925E-16,1.));
#1634 = ORIENTED_EDGE('',*,*,#1635,.F.);
#1635 = EDGE_CURVE('',#1636,#1628,#1638,.T.);
#1636 = VERTEX_POINT('',#1637);
#1637 = CARTESIAN_POINT('',(0.46,1.609823385706E-16,0.725));
#1638 = LINE('',#1639,#1640);
#1639 = CARTESIAN_POINT('',(0.46,1.609823385706E-16,0.725));
#1640 = VECTOR('',#1641,1.);
#1641 = DIRECTION('',(-0.,1.,-2.22044604925E-16));
#1642 = ORIENTED_EDGE('',*,*,#1643,.F.);
#1643 = EDGE_CURVE('',#1618,#1636,#1644,.T.);
#1644 = LINE('',#1645,#1646);
#1645 = CARTESIAN_POINT('',(0.46,-1.609823385706E-16,-0.725));
#1646 = VECTOR('',#1647,1.);
#1647 = DIRECTION('',(0.,2.22044604925E-16,1.));
#1648 = PLANE('',#1649);
#1649 = AXIS2_PLACEMENT_3D('',#1650,#1651,#1652);
#1650 = CARTESIAN_POINT('',(0.46,-1.609823385706E-16,-0.725));
#1651 = DIRECTION('',(1.,0.,0.));
#1652 = DIRECTION('',(0.,2.22044604925E-16,1.));
#1653 = ADVANCED_FACE('',(#1654),#1679,.T.);
#1654 = FACE_BOUND('',#1655,.T.);
#1655 = EDGE_LOOP('',(#1656,#1657,#1665,#1673));
#1656 = ORIENTED_EDGE('',*,*,#1635,.T.);
#1657 = ORIENTED_EDGE('',*,*,#1658,.T.);
#1658 = EDGE_CURVE('',#1628,#1659,#1661,.T.);
#1659 = VERTEX_POINT('',#1660);
#1660 = CARTESIAN_POINT('',(-0.46,5.E-02,0.725));
#1661 = LINE('',#1662,#1663);
#1662 = CARTESIAN_POINT('',(0.46,5.E-02,0.725));
#1663 = VECTOR('',#1664,1.);
#1664 = DIRECTION('',(-1.,0.,0.));
#1665 = ORIENTED_EDGE('',*,*,#1666,.F.);
#1666 = EDGE_CURVE('',#1667,#1659,#1669,.T.);
#1667 = VERTEX_POINT('',#1668);
#1668 = CARTESIAN_POINT('',(-0.46,1.609823385706E-16,0.725));
#1669 = LINE('',#1670,#1671);
#1670 = CARTESIAN_POINT('',(-0.46,1.609823385706E-16,0.725));
#1671 = VECTOR('',#1672,1.);
#1672 = DIRECTION('',(-0.,1.,-2.22044604925E-16));
#1673 = ORIENTED_EDGE('',*,*,#1674,.F.);
#1674 = EDGE_CURVE('',#1636,#1667,#1675,.T.);
#1675 = LINE('',#1676,#1677);
#1676 = CARTESIAN_POINT('',(0.46,1.609823385706E-16,0.725));
#1677 = VECTOR('',#1678,1.);
#1678 = DIRECTION('',(-1.,0.,0.));
#1679 = PLANE('',#1680);
#1680 = AXIS2_PLACEMENT_3D('',#1681,#1682,#1683);
#1681 = CARTESIAN_POINT('',(0.46,1.609823385706E-16,0.725));
#1682 = DIRECTION('',(0.,2.22044604925E-16,1.));
#1683 = DIRECTION('',(-1.,-0.,0.));
#1684 = ADVANCED_FACE('',(#1685),#1710,.T.);
#1685 = FACE_BOUND('',#1686,.T.);
#1686 = EDGE_LOOP('',(#1687,#1688,#1696,#1704));
#1687 = ORIENTED_EDGE('',*,*,#1666,.T.);
#1688 = ORIENTED_EDGE('',*,*,#1689,.T.);
#1689 = EDGE_CURVE('',#1659,#1690,#1692,.T.);
#1690 = VERTEX_POINT('',#1691);
#1691 = CARTESIAN_POINT('',(-0.46,5.E-02,-0.725));
#1692 = LINE('',#1693,#1694);
#1693 = CARTESIAN_POINT('',(-0.46,5.E-02,0.725));
#1694 = VECTOR('',#1695,1.);
#1695 = DIRECTION('',(0.,-2.22044604925E-16,-1.));
#1696 = ORIENTED_EDGE('',*,*,#1697,.F.);
#1697 = EDGE_CURVE('',#1698,#1690,#1700,.T.);
#1698 = VERTEX_POINT('',#1699);
#1699 = CARTESIAN_POINT('',(-0.46,-1.609823385706E-16,-0.725));
#1700 = LINE('',#1701,#1702);
#1701 = CARTESIAN_POINT('',(-0.46,-1.609823385706E-16,-0.725));
#1702 = VECTOR('',#1703,1.);
#1703 = DIRECTION('',(-0.,1.,-2.22044604925E-16));
#1704 = ORIENTED_EDGE('',*,*,#1705,.F.);
#1705 = EDGE_CURVE('',#1667,#1698,#1706,.T.);
#1706 = LINE('',#1707,#1708);
#1707 = CARTESIAN_POINT('',(-0.46,1.609823385706E-16,0.725));
#1708 = VECTOR('',#1709,1.);
#1709 = DIRECTION('',(0.,-2.22044604925E-16,-1.));
#1710 = PLANE('',#1711);
#1711 = AXIS2_PLACEMENT_3D('',#1712,#1713,#1714);
#1712 = CARTESIAN_POINT('',(-0.46,1.609823385706E-16,0.725));
#1713 = DIRECTION('',(-1.,-0.,0.));
#1714 = DIRECTION('',(0.,-2.22044604925E-16,-1.));
#1715 = ADVANCED_FACE('',(#1716),#1732,.T.);
#1716 = FACE_BOUND('',#1717,.T.);
#1717 = EDGE_LOOP('',(#1718,#1719,#1725,#1726));
#1718 = ORIENTED_EDGE('',*,*,#1697,.T.);
#1719 = ORIENTED_EDGE('',*,*,#1720,.T.);
#1720 = EDGE_CURVE('',#1690,#1620,#1721,.T.);
#1721 = LINE('',#1722,#1723);
#1722 = CARTESIAN_POINT('',(-0.46,5.E-02,-0.725));
#1723 = VECTOR('',#1724,1.);
#1724 = DIRECTION('',(1.,0.,0.));
#1725 = ORIENTED_EDGE('',*,*,#1617,.F.);
#1726 = ORIENTED_EDGE('',*,*,#1727,.F.);
#1727 = EDGE_CURVE('',#1698,#1618,#1728,.T.);
#1728 = LINE('',#1729,#1730);
#1729 = CARTESIAN_POINT('',(-0.46,-1.609823385706E-16,-0.725));
#1730 = VECTOR('',#1731,1.);
#1731 = DIRECTION('',(1.,0.,0.));
#1732 = PLANE('',#1733);
#1733 = AXIS2_PLACEMENT_3D('',#1734,#1735,#1736);
#1734 = CARTESIAN_POINT('',(-0.46,-1.609823385706E-16,-0.725));
#1735 = DIRECTION('',(0.,-2.22044604925E-16,-1.));
#1736 = DIRECTION('',(1.,0.,0.));
#1737 = ADVANCED_FACE('',(#1738),#1744,.F.);
#1738 = FACE_BOUND('',#1739,.T.);
#1739 = EDGE_LOOP('',(#1740,#1741,#1742,#1743));
#1740 = ORIENTED_EDGE('',*,*,#1643,.T.);
#1741 = ORIENTED_EDGE('',*,*,#1674,.T.);
#1742 = ORIENTED_EDGE('',*,*,#1705,.T.);
#1743 = ORIENTED_EDGE('',*,*,#1727,.T.);
#1744 = PLANE('',#1745);
#1745 = AXIS2_PLACEMENT_3D('',#1746,#1747,#1748);
#1746 = CARTESIAN_POINT('',(0.,0.,0.));
#1747 = DIRECTION('',(0.,1.,0.));
#1748 = DIRECTION('',(0.,0.,1.));
#1749 = ADVANCED_FACE('',(#1750),#1756,.T.);
#1750 = FACE_BOUND('',#1751,.F.);
#1751 = EDGE_LOOP('',(#1752,#1753,#1754,#1755));
#1752 = ORIENTED_EDGE('',*,*,#1627,.T.);
#1753 = ORIENTED_EDGE('',*,*,#1658,.T.);
#1754 = ORIENTED_EDGE('',*,*,#1689,.T.);
#1755 = ORIENTED_EDGE('',*,*,#1720,.T.);
#1756 = PLANE('',#1757);
#1757 = AXIS2_PLACEMENT_3D('',#1758,#1759,#1760);
#1758 = CARTESIAN_POINT('',(0.,5.E-02,-1.387778780781E-17));
#1759 = DIRECTION('',(0.,1.,0.));
#1760 = DIRECTION('',(0.,0.,1.));
#1761 = ( GEOMETRIC_REPRESENTATION_CONTEXT(3) 
GLOBAL_UNCERTAINTY_ASSIGNED_CONTEXT((#1765)) 
GLOBAL_UNIT_ASSIGNED_CONTEXT((#1762,#1763,#1764)) REPRESENTATION_CONTEXT
('Context #1','3D Context with UNIT and UNCERTAINTY') );
#1762 = ( LENGTH_UNIT() NAMED_UNIT(*) SI_UNIT(.MILLI.,.METRE.) );
#1763 = ( NAMED_UNIT(*) PLANE_ANGLE_UNIT() SI_UNIT($,.RADIAN.) );
#1764 = ( NAMED_UNIT(*) SI_UNIT($,.STERADIAN.) SOLID_ANGLE_UNIT() );
#1765 = UNCERTAINTY_MEASURE_WITH_UNIT(LENGTH_MEASURE(1.E-07),#1762,
  'distance_accuracy_value','confusion accuracy');
#1766 = CONTEXT_DEPENDENT_SHAPE_REPRESENTATION(#1767,#1769);
#1767 = ( REPRESENTATION_RELATIONSHIP('','',#1610,#10) 
REPRESENTATION_RELATIONSHIP_WITH_TRANSFORMATION(#1768) 
SHAPE_REPRESENTATION_RELATIONSHIP() );
#1768 = ITEM_DEFINED_TRANSFORMATION('','',#11,#43);
#1769 = PRODUCT_DEFINITION_SHAPE('Placement','Placement of an item',
  #1770);
#1770 = NEXT_ASSEMBLY_USAGE_OCCURRENCE('744','Body003_Solid1','',#5,
  #1605,$);
#1771 = PRODUCT_RELATED_PRODUCT_CATEGORY('part',$,(#1607));
#1772 = SHAPE_DEFINITION_REPRESENTATION(#1773,#1779);
#1773 = PRODUCT_DEFINITION_SHAPE('','',#1774);
#1774 = PRODUCT_DEFINITION('design','',#1775,#1778);
#1775 = PRODUCT_DEFINITION_FORMATION('','',#1776);
#1776 = PRODUCT('Body004_Solid1','Body004_Solid1','',(#1777));
#1777 = PRODUCT_CONTEXT('',#2,'mechanical');
#1778 = PRODUCT_DEFINITION_CONTEXT('part definition',#2,'design');
#1779 = ADVANCED_BREP_SHAPE_REPRESENTATION('',(#11,#1780),#1833);
#1780 = MANIFOLD_SOLID_BREP('',#1781);
#1781 = CLOSED_SHELL('',(#1782,#1815,#1824));
#1782 = ADVANCED_FACE('',(#1783),#1810,.T.);
#1783 = FACE_BOUND('',#1784,.F.);
#1784 = EDGE_LOOP('',(#1785,#1795,#1802,#1803));
#1785 = ORIENTED_EDGE('',*,*,#1786,.T.);
#1786 = EDGE_CURVE('',#1787,#1789,#1791,.T.);
#1787 = VERTEX_POINT('',#1788);
#1788 = CARTESIAN_POINT('',(-0.846,0.746,-0.746));
#1789 = VERTEX_POINT('',#1790);
#1790 = CARTESIAN_POINT('',(-0.846,1.,-0.746));
#1791 = LINE('',#1792,#1793);
#1792 = CARTESIAN_POINT('',(-0.846,0.746,-0.746));
#1793 = VECTOR('',#1794,1.);
#1794 = DIRECTION('',(0.,1.,-2.22044604925E-16));
#1795 = ORIENTED_EDGE('',*,*,#1796,.T.);
#1796 = EDGE_CURVE('',#1789,#1789,#1797,.T.);
#1797 = CIRCLE('',#1798,0.1);
#1798 = AXIS2_PLACEMENT_3D('',#1799,#1800,#1801);
#1799 = CARTESIAN_POINT('',(-0.746,1.,-0.746));
#1800 = DIRECTION('',(0.,1.,-2.22044604925E-16));
#1801 = DIRECTION('',(-1.,0.,0.));
#1802 = ORIENTED_EDGE('',*,*,#1786,.F.);
#1803 = ORIENTED_EDGE('',*,*,#1804,.F.);
#1804 = EDGE_CURVE('',#1787,#1787,#1805,.T.);
#1805 = CIRCLE('',#1806,0.1);
#1806 = AXIS2_PLACEMENT_3D('',#1807,#1808,#1809);
#1807 = CARTESIAN_POINT('',(-0.746,0.746,-0.746));
#1808 = DIRECTION('',(0.,1.,-2.22044604925E-16));
#1809 = DIRECTION('',(-1.,0.,0.));
#1810 = CYLINDRICAL_SURFACE('',#1811,0.1);
#1811 = AXIS2_PLACEMENT_3D('',#1812,#1813,#1814);
#1812 = CARTESIAN_POINT('',(-0.746,0.746,-0.746));
#1813 = DIRECTION('',(0.,-1.,2.22044604925E-16));
#1814 = DIRECTION('',(-1.,0.,0.));
#1815 = ADVANCED_FACE('',(#1816),#1819,.F.);
#1816 = FACE_BOUND('',#1817,.F.);
#1817 = EDGE_LOOP('',(#1818));
#1818 = ORIENTED_EDGE('',*,*,#1804,.T.);
#1819 = PLANE('',#1820);
#1820 = AXIS2_PLACEMENT_3D('',#1821,#1822,#1823);
#1821 = CARTESIAN_POINT('',(-0.746,0.746,-0.746));
#1822 = DIRECTION('',(3.700743415417E-16,1.,-6.409875621279E-16));
#1823 = DIRECTION('',(0.,6.409875621279E-16,1.));
#1824 = ADVANCED_FACE('',(#1825),#1828,.T.);
#1825 = FACE_BOUND('',#1826,.T.);
#1826 = EDGE_LOOP('',(#1827));
#1827 = ORIENTED_EDGE('',*,*,#1796,.T.);
#1828 = PLANE('',#1829);
#1829 = AXIS2_PLACEMENT_3D('',#1830,#1831,#1832);
#1830 = CARTESIAN_POINT('',(-0.746,1.,-0.746));
#1831 = DIRECTION('',(3.700743415417E-16,1.,-6.409875621279E-16));
#1832 = DIRECTION('',(0.,6.409875621279E-16,1.));
#1833 = ( GEOMETRIC_REPRESENTATION_CONTEXT(3) 
GLOBAL_UNCERTAINTY_ASSIGNED_CONTEXT((#1837)) 
GLOBAL_UNIT_ASSIGNED_CONTEXT((#1834,#1835,#1836)) REPRESENTATION_CONTEXT
('Context #1','3D Context with UNIT and UNCERTAINTY') );
#1834 = ( LENGTH_UNIT() NAMED_UNIT(*) SI_UNIT(.MILLI.,.METRE.) );
#1835 = ( NAMED_UNIT(*) PLANE_ANGLE_UNIT() SI_UNIT($,.RADIAN.) );
#1836 = ( NAMED_UNIT(*) SI_UNIT($,.STERADIAN.) SOLID_ANGLE_UNIT() );
#1837 = UNCERTAINTY_MEASURE_WITH_UNIT(LENGTH_MEASURE(1.E-07),#1834,
  'distance_accuracy_value','confusion accuracy');
#1838 = CONTEXT_DEPENDENT_SHAPE_REPRESENTATION(#1839,#1841);
#1839 = ( REPRESENTATION_RELATIONSHIP('','',#1779,#10) 
REPRESENTATION_RELATIONSHIP_WITH_TRANSFORMATION(#1840) 
SHAPE_REPRESENTATION_RELATIONSHIP() );
#1840 = ITEM_DEFINED_TRANSFORMATION('','',#11,#47);
#1841 = PRODUCT_DEFINITION_SHAPE('Placement','Placement of an item',
  #1842);
#1842 = NEXT_ASSEMBLY_USAGE_OCCURRENCE('745','Body004_Solid1','',#5,
  #1774,$);
#1843 = PRODUCT_RELATED_PRODUCT_CATEGORY('part',$,(#1776));
#1844 = SHAPE_DEFINITION_REPRESENTATION(#1420,#1845);
#1845 = SHAPE_REPRESENTATION('',(#27),#1406);
#1846 = SHAPE_DEFINITION_REPRESENTATION(#1425,#1847);
#1847 = SHAPE_REPRESENTATION('',(#31),#1406);
#1848 = SHAPE_DEFINITION_REPRESENTATION(#1601,#1849);
#1849 = SHAPE_REPRESENTATION('',(#39),#1587);
#1850 = SHAPE_DEFINITION_REPRESENTATION(#1420,#1851);
#1851 = SHAPE_REPRESENTATION('',(#27),#1406);
#1852 = SHAPE_DEFINITION_REPRESENTATION(#1425,#1853);
#1853 = SHAPE_REPRESENTATION('',(#31),#1406);
#1854 = SHAPE_DEFINITION_REPRESENTATION(#1601,#1855);
#1855 = SHAPE_REPRESENTATION('',(#39),#1587);
#1856 = MECHANICAL_DESIGN_GEOMETRIC_PRESENTATION_REPRESENTATION('',(
    #1857),#1235);
#1857 = STYLED_ITEM('color',(#1858),#1083);
#1858 = PRESENTATION_STYLE_ASSIGNMENT((#1859,#1865));
#1859 = SURFACE_STYLE_USAGE(.BOTH.,#1860);
#1860 = SURFACE_SIDE_STYLE('',(#1861));
#1861 = SURFACE_STYLE_FILL_AREA(#1862);
#1862 = FILL_AREA_STYLE('',(#1863));
#1863 = FILL_AREA_STYLE_COLOUR('',#1864);
#1864 = COLOUR_RGB('',0.796078452645,0.823529417451,0.937254901616);
#1865 = CURVE_STYLE('',#1866,POSITIVE_LENGTH_MEASURE(0.1),#1867);
#1866 = DRAUGHTING_PRE_DEFINED_CURVE_FONT('continuous');
#1867 = COLOUR_RGB('',9.803921802644E-02,9.803921802644E-02,
  9.803921802644E-02);
#1868 = MECHANICAL_DESIGN_GEOMETRIC_PRESENTATION_REPRESENTATION('',(
    #1869),#1064);
#1869 = STYLED_ITEM('color',(#1870),#65);
#1870 = PRESENTATION_STYLE_ASSIGNMENT((#1871,#1877));
#1871 = SURFACE_STYLE_USAGE(.BOTH.,#1872);
#1872 = SURFACE_SIDE_STYLE('',(#1873));
#1873 = SURFACE_STYLE_FILL_AREA(#1874);
#1874 = FILL_AREA_STYLE('',(#1875));
#1875 = FILL_AREA_STYLE_COLOUR('',#1876);
#1876 = COLOUR_RGB('',0.250980406631,0.250980406631,0.250980406631);
#1877 = CURVE_STYLE('',#1878,POSITIVE_LENGTH_MEASURE(0.1),#1867);
#1878 = DRAUGHTING_PRE_DEFINED_CURVE_FONT('continuous');
#1879 = MECHANICAL_DESIGN_GEOMETRIC_PRESENTATION_REPRESENTATION('',(
    #1880),#1833);
#1880 = STYLED_ITEM('color',(#1881),#1780);
#1881 = PRESENTATION_STYLE_ASSIGNMENT((#1882,#1888));
#1882 = SURFACE_STYLE_USAGE(.BOTH.,#1883);
#1883 = SURFACE_SIDE_STYLE('',(#1884));
#1884 = SURFACE_STYLE_FILL_AREA(#1885);
#1885 = FILL_AREA_STYLE('',(#1886));
#1886 = FILL_AREA_STYLE_COLOUR('',#1887);
#1887 = DRAUGHTING_PRE_DEFINED_COLOUR('white');
#1888 = CURVE_STYLE('',#1889,POSITIVE_LENGTH_MEASURE(0.1),#1867);
#1889 = DRAUGHTING_PRE_DEFINED_CURVE_FONT('continuous');
#1890 = MECHANICAL_DESIGN_GEOMETRIC_PRESENTATION_REPRESENTATION('',(
    #1891,#1900,#1909),#1587);
#1891 = STYLED_ITEM('color',(#1892),#1435);
#1892 = PRESENTATION_STYLE_ASSIGNMENT((#1893,#1898));
#1893 = SURFACE_STYLE_USAGE(.BOTH.,#1894);
#1894 = SURFACE_SIDE_STYLE('',(#1895));
#1895 = SURFACE_STYLE_FILL_AREA(#1896);
#1896 = FILL_AREA_STYLE('',(#1897));
#1897 = FILL_AREA_STYLE_COLOUR('',#1864);
#1898 = CURVE_STYLE('',#1899,POSITIVE_LENGTH_MEASURE(0.1),#1867);
#1899 = DRAUGHTING_PRE_DEFINED_CURVE_FONT('continuous');
#1900 = OVER_RIDING_STYLED_ITEM('overriding color',(#1901),#1435,#1891);
#1901 = PRESENTATION_STYLE_BY_CONTEXT((#1902,#1907),#1849);
#1902 = SURFACE_STYLE_USAGE(.BOTH.,#1903);
#1903 = SURFACE_SIDE_STYLE('',(#1904));
#1904 = SURFACE_STYLE_FILL_AREA(#1905);
#1905 = FILL_AREA_STYLE('',(#1906));
#1906 = FILL_AREA_STYLE_COLOUR('',#1864);
#1907 = CURVE_STYLE('',#1908,POSITIVE_LENGTH_MEASURE(0.1),#1867);
#1908 = DRAUGHTING_PRE_DEFINED_CURVE_FONT('continuous');
#1909 = OVER_RIDING_STYLED_ITEM('overriding color',(#1910),#1435,#1891);
#1910 = PRESENTATION_STYLE_BY_CONTEXT((#1911,#1917),#1855);
#1911 = SURFACE_STYLE_USAGE(.BOTH.,#1912);
#1912 = SURFACE_SIDE_STYLE('',(#1913));
#1913 = SURFACE_STYLE_FILL_AREA(#1914);
#1914 = FILL_AREA_STYLE('',(#1915));
#1915 = FILL_AREA_STYLE_COLOUR('',#1916);
#1916 = COLOUR_RGB('',0.796078452645,0.823529417451,0.937254901616);
#1917 = CURVE_STYLE('',#1918,POSITIVE_LENGTH_MEASURE(0.1),#1919);
#1918 = DRAUGHTING_PRE_DEFINED_CURVE_FONT('continuous');
#1919 = COLOUR_RGB('',9.803921802644E-02,9.803921802644E-02,
  9.803921802644E-02);
#1920 = MECHANICAL_DESIGN_GEOMETRIC_PRESENTATION_REPRESENTATION('',(
    #1921),#1761);
#1921 = STYLED_ITEM('color',(#1922),#1611);
#1922 = PRESENTATION_STYLE_ASSIGNMENT((#1923,#1928));
#1923 = SURFACE_STYLE_USAGE(.BOTH.,#1924);
#1924 = SURFACE_SIDE_STYLE('',(#1925));
#1925 = SURFACE_STYLE_FILL_AREA(#1926);
#1926 = FILL_AREA_STYLE('',(#1927));
#1927 = FILL_AREA_STYLE_COLOUR('',#1864);
#1928 = CURVE_STYLE('',#1929,POSITIVE_LENGTH_MEASURE(0.1),#1867);
#1929 = DRAUGHTING_PRE_DEFINED_CURVE_FONT('continuous');
#1930 = MECHANICAL_DESIGN_GEOMETRIC_PRESENTATION_REPRESENTATION('',(
    #1931,#1940,#1949,#1958,#1967),#1406);
#1931 = STYLED_ITEM('color',(#1932),#1254);
#1932 = PRESENTATION_STYLE_ASSIGNMENT((#1933,#1938));
#1933 = SURFACE_STYLE_USAGE(.BOTH.,#1934);
#1934 = SURFACE_SIDE_STYLE('',(#1935));
#1935 = SURFACE_STYLE_FILL_AREA(#1936);
#1936 = FILL_AREA_STYLE('',(#1937));
#1937 = FILL_AREA_STYLE_COLOUR('',#1864);
#1938 = CURVE_STYLE('',#1939,POSITIVE_LENGTH_MEASURE(0.1),#1867);
#1939 = DRAUGHTING_PRE_DEFINED_CURVE_FONT('continuous');
#1940 = OVER_RIDING_STYLED_ITEM('overriding color',(#1941),#1254,#1931);
#1941 = PRESENTATION_STYLE_BY_CONTEXT((#1942,#1947),#1845);
#1942 = SURFACE_STYLE_USAGE(.BOTH.,#1943);
#1943 = SURFACE_SIDE_STYLE('',(#1944));
#1944 = SURFACE_STYLE_FILL_AREA(#1945);
#1945 = FILL_AREA_STYLE('',(#1946));
#1946 = FILL_AREA_STYLE_COLOUR('',#1864);
#1947 = CURVE_STYLE('',#1948,POSITIVE_LENGTH_MEASURE(0.1),#1867);
#1948 = DRAUGHTING_PRE_DEFINED_CURVE_FONT('continuous');
#1949 = OVER_RIDING_STYLED_ITEM('overriding color',(#1950),#1254,#1931);
#1950 = PRESENTATION_STYLE_BY_CONTEXT((#1951,#1956),#1847);
#1951 = SURFACE_STYLE_USAGE(.BOTH.,#1952);
#1952 = SURFACE_SIDE_STYLE('',(#1953));
#1953 = SURFACE_STYLE_FILL_AREA(#1954);
#1954 = FILL_AREA_STYLE('',(#1955));
#1955 = FILL_AREA_STYLE_COLOUR('',#1864);
#1956 = CURVE_STYLE('',#1957,POSITIVE_LENGTH_MEASURE(0.1),#1867);
#1957 = DRAUGHTING_PRE_DEFINED_CURVE_FONT('continuous');
#1958 = OVER_RIDING_STYLED_ITEM('overriding color',(#1959),#1254,#1931);
#1959 = PRESENTATION_STYLE_BY_CONTEXT((#1960,#1965),#1851);
#1960 = SURFACE_STYLE_USAGE(.BOTH.,#1961);
#1961 = SURFACE_SIDE_STYLE('',(#1962));
#1962 = SURFACE_STYLE_FILL_AREA(#1963);
#1963 = FILL_AREA_STYLE('',(#1964));
#1964 = FILL_AREA_STYLE_COLOUR('',#1916);
#1965 = CURVE_STYLE('',#1966,POSITIVE_LENGTH_MEASURE(0.1),#1919);
#1966 = DRAUGHTING_PRE_DEFINED_CURVE_FONT('continuous');
#1967 = OVER_RIDING_STYLED_ITEM('overriding color',(#1968),#1254,#1931);
#1968 = PRESENTATION_STYLE_BY_CONTEXT((#1969,#1974),#1853);
#1969 = SURFACE_STYLE_USAGE(.BOTH.,#1970);
#1970 = SURFACE_SIDE_STYLE('',(#1971));
#1971 = SURFACE_STYLE_FILL_AREA(#1972);
#1972 = FILL_AREA_STYLE('',(#1973));
#1973 = FILL_AREA_STYLE_COLOUR('',#1916);
#1974 = CURVE_STYLE('',#1975,POSITIVE_LENGTH_MEASURE(0.1),#1919);
#1975 = DRAUGHTING_PRE_DEFINED_CURVE_FONT('continuous');
ENDSEC;
END-ISO-10303-21;
