#VRML V2.0 utf8
# 3D model generated by easyeda2kicad.py (https://github.com/uPesy/easyeda2kicad.py)

Shape{
    appearance Appearance {
        material  Material 	{
            diffuseColor 0.25098039215686274 0.25098039215686274 0.25098039215686274
            specularColor 0.12549019607843137 0.12549019607843137 0.12549019607843137
            ambientIntensity 0.251
            transparency 0.0
            shininess 0.5
        }
    }
    geometry IndexedFaceSet {
        ccw TRUE
        solid FALSE
        coord DEF co Coordinate {
            point [
                -0.2197 -0.1672 0.0079, -0.2209 -0.1811 0.0079, -0.3957 -0.3937 0.0079, 0.2539 0.3937 0.0079, 0.3917 0.3937 0.0079, 0.2539 0.2953 0.0079, 0.2533 0.2902 0.0079, 0.2441 0.1811 0.0079, -0.248 0.1811 0.0079, -0.1544 0.2763 0.0079, 0.2513 0.2854 0.0079, 0.3917 -0.1976 0.0079, 0.2482 0.2814 0.0079, -0.2735 -0.1134 0.0079, -0.2598 -0.1157 0.0079, -0.2471 -0.1213 0.0079, -0.2361 -0.1298 0.0079, -0.2276 -0.1408 0.0079, -0.222 -0.1535 0.0079, -0.3957 0.3937 0.0079, -0.2788 0.1663 0.0079, -0.2835 0.1588 0.0079, -0.1594 0.2756 0.0079, -0.1496 0.2782 0.0079, -0.1455 0.2814 0.0079, 0.2529 0.1801 0.0079, -0.1424 0.2854 0.0079, -0.1404 0.2902 0.0079, -0.2651 0.1772 0.0079, -0.2559 0.2867 0.0079, -0.2568 0.1801 0.0079, -0.2536 0.283 0.0079, -0.2505 0.2799 0.0079, -0.2579 0.3937 0.0079, -0.2579 0.2953 0.0079, -0.2574 0.2909 0.0079, -0.2726 0.1725 0.0079, -0.2864 0.1505 0.0079, -0.2874 0.1417 0.0079, -0.2874 -0.1146 0.0079, 0.0571 -0.2953 0.0079, 0.1401 -0.283 0.0079, 0.1378 -0.2867 0.0079, 0.1358 -0.3937 0.0079, 0.0571 -0.3937 0.0079, 0.1358 -0.2953 0.0079, 0.1363 -0.2909 0.0079, -0.2579 -0.3937 0.0079, -0.2579 -0.2953 0.0079, -0.2574 -0.2909 0.0079, -0.1398 0.2953 0.0079, -0.1398 0.3937 0.0079, -0.061 0.3937 0.0079, -0.0567 0.283 0.0079, -0.0536 0.2799 0.0079, 0.0528 0.283 0.0079, 0.0551 0.2867 0.0079, 0.1378 0.2867 0.0079, 0.0566 0.2909 0.0079, 0.1401 0.283 0.0079, 0.1432 0.2799 0.0079, 0.0459 0.2775 0.0079, 0.147 0.2775 0.0079, 0.252 -0.2867 0.0079, 0.3917 -0.221 0.0079, 0.3917 -0.2253 0.0079, 0.2441 -0.1811 0.0079, 0.0459 -0.2775 0.0079, 0.0418 -0.2761 0.0079, -0.2467 -0.2775 0.0079, -0.2505 -0.2799 0.0079, -0.2536 -0.283 0.0079, -0.2559 -0.2867 0.0079, -0.061 0.2953 0.0079, -0.0605 0.2909 0.0079, -0.0591 0.2867 0.0079, -0.0499 0.2775 0.0079, -0.0457 0.2761 0.0079, -0.0413 0.2756 0.0079, 0.0374 0.2756 0.0079, 0.0497 0.2799 0.0079, 0.3917 -0.3937 0.0079, 0.2539 -0.3937 0.0079, 0.3917 -0.3774 0.0079, 0.2539 -0.2953 0.0079, 0.3917 -0.2107 0.0079, 0.2496 -0.283 0.0079, 0.2465 -0.2799 0.0079, 0.2612 -0.1772 0.0079, 0.2686 -0.1725 0.0079, -0.0591 -0.2867 0.0079, -0.0605 -0.2909 0.0079, -0.1417 -0.2867 0.0079, -0.2467 0.2775 0.0079, -0.2426 0.2761 0.0079, -0.2382 0.2756 0.0079, 0.0418 0.2761 0.0079, 0.2612 0.1772 0.0079, 0.1511 0.2761 0.0079, 0.0566 -0.2909 0.0079, 0.0551 -0.2867 0.0079, 0.2529 -0.1801 0.0079, 0.0497 -0.2799 0.0079, -0.0457 -0.2761 0.0079, -0.0499 -0.2775 0.0079, -0.1472 -0.2799 0.0079, -0.0536 -0.2799 0.0079, -0.1441 -0.283 0.0079, -0.1594 -0.2756 0.0079, -0.2382 -0.2756 0.0079, -0.2426 -0.2761 0.0079, 0.1555 0.2756 0.0079, 0.2343 0.2756 0.0079, 0.2686 0.1725 0.0079, 0.2393 0.2763 0.0079, 0.2749 0.1663 0.0079, 0.3917 -0.2339 0.0079, 0.3917 -0.2497 0.0079, 0.2534 -0.2909 0.0079, 0.3917 -0.2508 0.0079, 0.3917 -0.2688 0.0079, 0.0374 -0.2756 0.0079, -0.0413 -0.2756 0.0079, -0.0567 -0.283 0.0079, -0.1509 -0.2775 0.0079, -0.1551 -0.2761 0.0079, 0.0571 0.3937 0.0079, 0.1358 0.3937 0.0079, 0.0571 0.2953 0.0079, 0.1358 0.2953 0.0079, 0.1363 0.2909 0.0079, 0.0528 -0.283 0.0079, 0.2835 0.1417 0.0079, 0.2825 0.1505 0.0079, 0.2428 -0.2775 0.0079, 0.2386 -0.2761 0.0079, 0.2343 -0.2756 0.0079, 0.2441 0.2782 0.0079, 0.2796 0.1588 0.0079, -0.061 -0.3937 0.0079, -0.1398 -0.3937 0.0079, -0.061 -0.2953 0.0079, -0.1398 -0.2953 0.0079, -0.1403 -0.2909 0.0079, 0.2749 -0.1663 0.0079, 0.2796 -0.1588 0.0079, 0.3917 -0.2035 0.0079, 0.2825 -0.1505 0.0079, 0.2835 -0.1417 0.0079, 0.1555 -0.2756 0.0079, 0.1511 -0.2761 0.0079, 0.147 -0.2775 0.0079, 0.1432 -0.2799 0.0079, 0.3917 -0.2688 0.1515, 0.3917 -0.2688 0.1441, 0.3917 -0.2508 0.1441, 0.3917 -0.2688 0.1812, 0.3917 -0.2688 0.1757, 0.3917 -0.2508 0.1757, 0.3917 -0.2214 0.148, 0.3917 -0.221 0.1485, 0.3917 -0.221 0.1515, 0.3917 -0.2437 0.2, 0.3917 -0.2423 0.2002, 0.3917 -0.2497 0.2002, 0.3917 -0.2389 0.1813, 0.3917 -0.2401 0.1812, 0.3917 -0.2339 0.1812, 0.3917 -0.2304 0.1979, 0.3917 -0.2304 0.1919, 0.3917 -0.2253 0.1919, 0.3917 -0.2292 0.1516, 0.3917 -0.23 0.1515, 0.3917 -0.2253 0.1515, 0.3917 -0.2335 0.1516, 0.3917 -0.2339 0.1518, 0.3917 -0.2339 0.1515, 0.3917 -0.207 0.1682, 0.3917 -0.207 0.1623, 0.3917 -0.2035 0.1623, 0.3917 -0.285 0.1855, 0.3917 -0.2814 0.1824, 0.3917 -0.2688 0.2002, 0.3917 -0.2997 0.2002, 0.3917 -0.2968 0.1981, 0.3917 -0.2922 0.1928, 0.3917 -0.2896 0.1876, 0.3917 -0.2889 0.1874, 0.3917 -0.3271 0.2021, 0.3917 -0.3209 0.2044, 0.3917 -0.3774 0.3031, 0.3917 -0.2688 0.3031, 0.3917 -0.3086 0.2043, 0.3917 -0.302 0.2018, 0.3917 -0.3148 0.205, 0.3917 -0.3774 0.2002, 0.3917 -0.3449 0.1936, 0.3917 -0.3397 0.1943, 0.3917 -0.3774 0.1812, 0.3917 -0.3593 0.1812, 0.3917 -0.3581 0.1838, 0.3917 -0.3549 0.1879, 0.3917 -0.3302 0.2002, 0.3917 -0.3308 0.1999, 0.3917 -0.3339 0.1972, 0.3917 -0.3381 0.1942, 0.3917 -0.3366 0.194, 0.3917 -0.354 0.1888, 0.3917 -0.3498 0.1917, 0.3917 -0.345 0.1519, 0.3917 -0.3467 0.1524, 0.3917 -0.3774 0.1515, 0.3917 -0.3515 0.1547, 0.3917 -0.3556 0.1583, 0.3917 -0.3586 0.1626, 0.3917 -0.3605 0.1676, 0.3917 -0.3774 0.1757, 0.3917 -0.3612 0.1728, 0.3917 -0.3611 0.174, 0.3917 -0.3608 0.1757, 0.3917 -0.3603 0.179, 0.3917 -0.3391 0.1447, 0.3917 -0.3417 0.1466, 0.3917 -0.3774 0.1441, 0.3917 -0.3436 0.1491, 0.3917 -0.3448 0.1515, 0.3917 -0.3324 0.1429, 0.3917 -0.3291 0.1433, 0.3917 -0.3269 0.1441, 0.3917 -0.3329 0.1429, 0.3917 -0.336 0.1434, 0.3917 -0.3379 0.1441, 0.3917 -0.3199 0.1515, 0.3917 -0.3199 0.1515, 0.3917 -0.3215 0.1485, 0.3917 -0.3235 0.1462, 0.3917 -0.3262 0.1444, 0.3917 -0.277 0.1746, 0.3917 -0.2764 0.1702, 0.3917 -0.303 0.1594, 0.3917 -0.302 0.1597, 0.3917 -0.3005 0.1673, 0.3917 -0.2814 0.1576, 0.3917 -0.285 0.1546, 0.3917 -0.3224 0.1651, 0.3917 -0.3046 0.1744, 0.3917 -0.3247 0.1672, 0.3917 -0.3275 0.1687, 0.3917 -0.3038 0.1588, 0.3917 -0.2787 0.1613, 0.3917 -0.2847 0.1713, 0.3917 -0.2854 0.1738, 0.3917 -0.2864 0.1757, 0.3917 -0.3525 0.1757, 0.3917 -0.277 0.1655, 0.3917 -0.301 0.1599, 0.3917 -0.3009 0.1599, 0.3917 -0.3005 0.1598, 0.3917 -0.3517 0.1677, 0.3917 -0.3501 0.165, 0.3917 -0.3434 0.1637, 0.3917 -0.3477 0.1626, 0.3917 -0.3448 0.1608, 0.3917 -0.3385 0.1681, 0.3917 -0.3412 0.1662, 0.3917 -0.3528 0.173, 0.3917 -0.3527 0.171, 0.3917 -0.3355 0.1692, 0.3917 -0.3324 0.1696, 0.3917 -0.3307 0.1695, 0.3917 -0.3051 0.1558, 0.3917 -0.3051 0.1563, 0.3917 -0.3191 0.1575, 0.3917 -0.3048 0.1573, 0.3917 -0.3043 0.1582, 0.3917 -0.2874 0.1631, 0.3917 -0.2859 0.1652, 0.3917 -0.285 0.1675, 0.3917 -0.2847 0.1701, 0.3917 -0.302 0.1518, 0.3917 -0.3029 0.1521, 0.3917 -0.3038 0.1527, 0.3917 -0.3041 0.153, 0.3917 -0.3047 0.1539, 0.3917 -0.305 0.1548, 0.3917 -0.3191 0.1548, 0.3917 -0.3191 0.1562, 0.3917 -0.289 0.1526, 0.3917 -0.2934 0.1516, 0.3917 -0.3013 0.1516, 0.3917 -0.3002 0.1597, 0.3917 -0.2942 0.1597, 0.3917 -0.2919 0.1602, 0.3917 -0.2895 0.1613, 0.3917 -0.2875 0.1629, 0.3917 -0.2961 0.1805, 0.3917 -0.3513 0.1792, 0.3917 -0.3524 0.1762, 0.3917 -0.295 0.1805, 0.3917 -0.2866 0.1761, 0.3917 -0.2881 0.1778, 0.3917 -0.2902 0.1793, 0.3917 -0.2925 0.1802, 0.3917 -0.299 0.1884, 0.3917 -0.302 0.192, 0.3917 -0.3325 0.1843, 0.3917 -0.3023 0.1923, 0.3917 -0.306 0.1949, 0.3917 -0.3305 0.1885, 0.3917 -0.3499 0.1812, 0.3917 -0.3334 0.1848, 0.3917 -0.2963 0.1812, 0.3917 -0.2969 0.1842, 0.3917 -0.3364 0.1859, 0.3917 -0.3395 0.1863, 0.3917 -0.3409 0.1862, 0.3917 -0.3275 0.1921, 0.3917 -0.3102 0.1965, 0.3917 -0.3239 0.1947, 0.3917 -0.3147 0.1971, 0.3917 -0.3196 0.1964, 0.3917 -0.3442 0.1855, 0.3917 -0.3472 0.1839, 0.3917 -0.3494 0.1819, 0.3917 -0.2805 0.1812, 0.3917 -0.2787 0.1786, 0.3917 -0.2775 0.1757, 0.3917 -0.1993 0.1538, 0.3917 -0.1993 0.1517, 0.3917 -0.1976 0.1515, 0.3917 -0.2035 0.1515, 0.3917 -0.1976 0.1757, 0.3917 -0.1998 0.1682, 0.3917 -0.1998 0.1704, 0.3917 -0.207 0.1538, 0.3917 -0.2035 0.1538, 0.3917 -0.207 0.1601, 0.3917 -0.2035 0.1601, 0.3917 -0.2003 0.1601, 0.3917 -0.2003 0.1623, 0.3917 -0.2035 0.1682, 0.3917 -0.2035 0.1517, 0.3917 -0.2094 0.1517, 0.3917 -0.2107 0.1515, 0.3917 -0.2094 0.1704, 0.3917 -0.2479 0.1581, 0.3917 -0.2475 0.1618, 0.3917 -0.2484 0.1574, 0.3917 -0.2487 0.1566, 0.3917 -0.235 0.1546, 0.3917 -0.2381 0.1603, 0.3917 -0.235 0.1522, 0.3917 -0.2381 0.1517, 0.3917 -0.2416 0.1524, 0.3917 -0.2425 0.1519, 0.3917 -0.2405 0.1517, 0.3917 -0.2433 0.1515, 0.3917 -0.2497 0.1515, 0.3917 -0.2484 0.1534, 0.3917 -0.2487 0.1542, 0.3917 -0.2453 0.1651, 0.3917 -0.2497 0.1757, 0.3917 -0.2471 0.1644, 0.3917 -0.2475 0.1641, 0.3917 -0.2497 0.1441, 0.3917 -0.246 0.1515, 0.3917 -0.246 0.1516, 0.3917 -0.2469 0.1519, 0.3917 -0.2471 0.1587, 0.3917 -0.2461 0.1592, 0.3917 -0.2462 0.1627, 0.3917 -0.2444 0.1596, 0.3917 -0.2424 0.1634, 0.3917 -0.2432 0.1635, 0.3917 -0.2447 0.1633, 0.3917 -0.2477 0.1524, 0.3917 -0.248 0.1527, 0.3917 -0.2405 0.1538, 0.3917 -0.2405 0.1538, 0.3917 -0.2409 0.1532, 0.3917 -0.234 0.154, 0.3917 -0.2339 0.154, 0.3917 -0.2339 0.1589, 0.3917 -0.2488 0.1553, 0.3917 -0.2488 0.1556, 0.3917 -0.2383 0.162, 0.3917 -0.2348 0.1605, 0.3917 -0.2348 0.1623, 0.3917 -0.2346 0.163, 0.3917 -0.2391 0.1639, 0.3917 -0.2429 0.1654, 0.3917 -0.2415 0.1652, 0.3917 -0.2405 0.1649, 0.3917 -0.2405 0.1602, 0.3917 -0.2405 0.1612, 0.3917 -0.2408 0.1621, 0.3917 -0.2411 0.1625, 0.3917 -0.2387 0.1631, 0.3917 -0.2349 0.1614, 0.3917 -0.2339 0.1589, 0.3917 -0.2343 0.1593, 0.3917 -0.2346 0.1598, 0.3917 -0.2414 0.1629, 0.3917 -0.2418 0.1632, 0.3917 -0.2327 0.1515, 0.3917 -0.2339 0.1441, 0.3917 -0.2313 0.1514, 0.3917 -0.2266 0.1648, 0.3917 -0.2266 0.1625, 0.3917 -0.2341 0.1637, 0.3917 -0.2339 0.1639, 0.3917 -0.2339 0.1757, 0.3917 -0.2334 0.1643, 0.3917 -0.2327 0.1647, 0.3917 -0.2261 0.1544, 0.3917 -0.2263 0.1537, 0.3917 -0.2268 0.153, 0.3917 -0.2314 0.1652, 0.3917 -0.2297 0.1654, 0.3917 -0.2253 0.1757, 0.3917 -0.2281 0.1652, 0.3917 -0.2267 0.1575, 0.3917 -0.2263 0.1569, 0.3917 -0.226 0.1562, 0.3917 -0.2259 0.1553, 0.3917 -0.2274 0.1525, 0.3917 -0.228 0.1521, 0.3917 -0.23 0.1635, 0.3917 -0.2307 0.1634, 0.3917 -0.2325 0.1617, 0.3917 -0.2313 0.1632, 0.3917 -0.2318 0.163, 0.3917 -0.2325 0.1613, 0.3917 -0.2324 0.161, 0.3917 -0.2322 0.1607, 0.3917 -0.232 0.1604, 0.3917 -0.2312 0.1599, 0.3917 -0.2285 0.1633, 0.3917 -0.2297 0.1593, 0.3917 -0.2271 0.1628, 0.3917 -0.2288 0.1589, 0.3917 -0.2273 0.158, 0.3917 -0.2322 0.1626, 0.3917 -0.2324 0.1623, 0.3917 -0.2325 0.162, 0.3917 -0.2326 0.1535, 0.3917 -0.2314 0.1576, 0.3917 -0.2328 0.1582, 0.3917 -0.2311 0.1533, 0.3917 -0.231 0.1533, 0.3917 -0.2299 0.1569, 0.3917 -0.2298 0.1534, 0.3917 -0.2283 0.1551, 0.3917 -0.2284 0.1554, 0.3917 -0.2292 0.1537, 0.3917 -0.229 0.1538, 0.3917 -0.2287 0.154, 0.3917 -0.2285 0.1543, 0.3917 -0.2284 0.1547, 0.3917 -0.2285 0.1558, 0.3917 -0.2287 0.1561, 0.3917 -0.2289 0.1564, 0.3917 -0.1907 0.1865, 0.3917 -0.1976 0.1865, 0.3917 -0.1888 0.1813, 0.3917 -0.1976 0.1812, 0.3917 -0.1862 0.1813, 0.3917 0.3937 0.1812, 0.3917 0.3937 0.2002, 0.3917 -0.1933 0.2, 0.3917 -0.1976 0.2002, 0.3917 -0.1985 0.1865, 0.3917 -0.2003 0.1813, 0.3917 -0.2035 0.1812, 0.3917 -0.203 0.1813, 0.3917 -0.2035 0.2002, 0.3917 -0.1976 0.1955, 0.3917 -0.1959 0.2, 0.3917 -0.2107 0.1812, 0.3917 -0.2109 0.1817, 0.3917 -0.2141 0.1813, 0.3917 -0.2139 0.2, 0.3917 -0.2107 0.2002, 0.3917 -0.221 0.2002, 0.3917 -0.221 0.1812, 0.3917 -0.2192 0.1813, 0.3917 -0.2192 0.2, 0.3917 -0.2045 0.1875, 0.3917 -0.2054 0.1856, 0.3917 -0.2062 0.1969, 0.3917 -0.205 0.1953, 0.3917 -0.2068 0.184, 0.3917 -0.2088 0.1826, 0.3917 -0.2107 0.1818, 0.3917 -0.2068 0.1976, 0.3917 -0.211 0.1997, 0.3917 -0.2107 0.1996, 0.3917 -0.2088 0.1989, 0.3917 -0.2043 0.1935, 0.3917 -0.204 0.1909, 0.3917 -0.2041 0.1897, 0.3917 -0.2253 0.2002, 0.3917 -0.2232 0.2, 0.3917 -0.2253 0.2, 0.3917 -0.2232 0.1979, 0.3917 -0.2227 0.1835, 0.3917 -0.2227 0.1813, 0.3917 -0.2253 0.1812, 0.3917 -0.2304 0.1835, 0.3917 -0.2253 0.1835, 0.3917 -0.2304 0.1898, 0.3917 -0.2253 0.1898, 0.3917 -0.2237 0.1898, 0.3917 -0.2237 0.1919, 0.3917 -0.2253 0.1979, 0.3917 -0.2328 0.2, 0.3917 -0.2339 0.2002, 0.3917 -0.2328 0.1813, 0.3917 -0.2365 0.1996, 0.3917 -0.2385 0.2002, 0.3917 -0.239 0.2002, 0.3917 -0.2253 0.1813, 0.3917 -0.2365 0.1971, 0.3917 -0.2369 0.182, 0.3917 -0.2409 0.1982, 0.3917 -0.2418 0.1981, 0.3917 -0.243 0.1834, 0.3917 -0.2414 0.1832, 0.3917 -0.2405 0.1832, 0.3917 -0.2367 0.1972, 0.3917 -0.2384 0.1836, 0.3917 -0.2365 0.1844, 0.3917 -0.2365 0.1821, 0.3917 -0.2386 0.1979, 0.3917 -0.2434 0.1978, 0.3917 -0.2449 0.1971, 0.3917 -0.246 0.1961, 0.3917 -0.2456 0.1847, 0.3917 -0.248 0.1897, 0.3917 -0.2462 0.1851, 0.3917 -0.2476 0.1878, 0.3917 -0.247 0.1863, 0.3917 -0.2462 0.196, 0.3917 -0.2471 0.1947, 0.3917 -0.2477 0.193, 0.3917 -0.248 0.1905, 0.3917 -0.2444 0.1838, 0.3917 -0.241 0.2003, 0.3917 -0.2497 0.3031, 0.3917 -0.2339 0.3031, 0.3917 -0.2492 0.1958, 0.3917 -0.2478 0.1976, 0.3917 -0.2474 0.198, 0.3917 -0.2456 0.1993, 0.3917 -0.2497 0.1861, 0.3917 -0.2502 0.1873, 0.3917 -0.2508 0.1812, 0.3917 -0.2505 0.1903, 0.3917 -0.2505 0.1913, 0.3917 -0.2508 0.2002, 0.3917 -0.2501 0.1937, 0.3917 -0.2497 0.1946, 0.3917 -0.2469 0.1825, 0.3917 -0.2481 0.1836, 0.3917 -0.2497 0.1812, 0.3917 -0.2483 0.1838, 0.3917 -0.2494 0.1853, 0.3917 -0.2417 0.181, 0.3917 -0.2432 0.1811, 0.3917 -0.2434 0.1812, 0.3917 -0.2451 0.1816, 0.3917 -0.2398 0.1645, 0.3917 -0.2434 0.1515, 0.3917 -0.2446 0.1514, 0.3917 -0.2143 0.1651, 0.3917 -0.2119 0.1651, 0.3917 -0.2107 0.1757, 0.3917 -0.2035 0.1704, 0.3917 -0.2035 0.1757, 0.3917 -0.2172 0.1515, 0.3917 -0.2186 0.155, 0.3917 -0.2183 0.1539, 0.3917 -0.2183 0.1539, 0.3917 -0.221 0.1757, 0.3917 -0.221 0.1618, 0.3917 -0.218 0.155, 0.3917 -0.2182 0.1544, 0.3917 -0.221 0.1555, 0.3917 -0.2247 0.1651, 0.3917 -0.2221 0.1651, 0.3917 -0.2195 0.1517, 0.3917 -0.2196 0.1515, 0.3917 -0.2205 0.1493, 0.3917 -0.2253 0.1441, 0.3917 -0.2242 0.1456, 0.3917 -0.2242 0.1477, 0.3917 -0.2238 0.1475, 0.3917 -0.2229 0.1474, 0.3917 -0.221 0.1458, 0.3917 -0.2218 0.1455, 0.3917 -0.221 0.1441, 0.3917 -0.2227 0.1454, 0.3917 -0.2233 0.1454, 0.3917 -0.2223 0.1475, 0.3917 -0.2218 0.1477, 0.3917 -0.218 0.1497, 0.3917 -0.219 0.1476, 0.3917 -0.2107 0.1441, 0.3917 -0.2199 0.1466, 0.3917 -0.22 0.1465, 0.3917 -0.2209 0.1459, 0.3917 -0.3937 0.1441, 0.3917 -0.3937 0.1515, 0.3917 -0.3937 0.1757, 0.3917 -0.3937 0.1812, 0.3917 -0.3937 0.2002, 0.3917 -0.3937 0.3031, 0.3917 -0.2513 0.1835, 0.3917 -0.2513 0.1813, 0.3917 -0.2611 0.1813, 0.3917 -0.2587 0.2, 0.3917 -0.2587 0.1835, 0.3917 -0.2611 0.2, 0.3917 -0.2508 0.1515, 0.3917 -0.2511 0.1517, 0.3917 -0.2611 0.1517, 0.3917 -0.2511 0.1538, 0.3917 -0.2515 0.1682, 0.3917 -0.2587 0.1601, 0.3917 -0.2587 0.1538, 0.3917 -0.252 0.1601, 0.3917 -0.252 0.1623, 0.3917 -0.2587 0.1623, 0.3917 -0.2587 0.1682, 0.3917 -0.2611 0.1704, 0.3917 -0.2515 0.1704, 0.3917 -0.2508 0.3031, 0.3917 -0.2253 0.3031, 0.3917 -0.221 0.3031, 0.3917 -0.2107 0.3031, 0.3917 -0.2035 0.3031, 0.3917 -0.1976 0.3031, 0.3917 0.3937 0.3031, 0.3917 -0.1673 0.1568, 0.3917 -0.1751 0.1568, 0.3917 -0.1769 0.1517, 0.3917 -0.1907 0.1517, 0.3917 -0.1958 0.1517, 0.3917 -0.1958 0.1704, 0.3917 -0.1654 0.1517, 0.3917 -0.1628 0.1517, 0.3917 0.3937 0.1515, 0.3917 -0.1699 0.1704, 0.3917 0.3937 0.1757, 0.3917 -0.1796 0.1517, 0.3917 -0.1725 0.1704, 0.3917 -0.182 0.156, 0.3917 -0.1834 0.1543, 0.3917 -0.1854 0.1529, 0.3917 -0.1875 0.1521, 0.3917 -0.1834 0.1679, 0.3917 -0.1828 0.1673, 0.3917 -0.1816 0.1656, 0.3917 -0.1809 0.1639, 0.3917 -0.1905 0.1704, 0.3917 -0.1876 0.1701, 0.3917 -0.1854 0.1693, 0.3917 -0.1806 0.1613, 0.3917 -0.1807 0.1601, 0.3917 -0.1811 0.1579, 0.3917 -0.2035 0.1441, 0.3917 -0.1976 0.1441, 0.3917 0.3937 0.1441, 0.2539 0.3937 0.0598, 0.1358 0.3937 0.0598, 0.0571 0.3937 0.0598, -0.3957 0.3937 0.3031, -0.061 0.3937 0.0598, -0.2579 0.3937 0.0598, -0.1398 0.3937 0.0598, -0.3957 -0.3937 0.3031, 0.0571 -0.3937 0.0598, 0.2539 -0.3937 0.0598, -0.2579 -0.3937 0.0598, -0.1398 -0.3937 0.0598, 0.1358 -0.3937 0.0598, -0.061 -0.3937 0.0598, -0.2374 -0.2619 0.3031, -0.2391 -0.2743 0.3031, -0.2439 -0.2859 0.3031, -0.2515 -0.2959 0.3031, -0.2615 -0.3035 0.3031, -0.2731 -0.3083 0.3031, -0.3196 -0.2278 0.3031, -0.3096 -0.2202 0.3031, -0.298 -0.2154 0.3031, -0.2856 -0.31 0.3031, -0.298 -0.3083 0.3031, -0.3096 -0.3035 0.3031, -0.2856 -0.2137 0.3031, -0.2731 -0.2154 0.3031, -0.2615 -0.2202 0.3031, -0.3196 -0.2959 0.3031, -0.3272 -0.2859 0.3031, -0.3321 -0.2743 0.3031, -0.2515 -0.2278 0.3031, -0.2439 -0.2378 0.3031, -0.2391 -0.2494 0.3031, -0.3337 -0.2619 0.3031, -0.3321 -0.2494 0.3031, -0.3272 -0.2378 0.3031
            ]
        }
        coordIndex [
            0,1,2,-1,3,4,5,-1,5,4,6,-1,7,8,9,-1,6,4,10,-1,10,4,11,-1,10,11,12,-1,2,13,0,-1,0,13,14,-1,0,14,15,-1,15,16,0,-1,0,16,17,-1,0,17,18,-1,19,20,21,-1,9,8,22,-1,9,23,7,-1,7,23,24,-1,7,24,25,-1,25,24,26,-1,25,26,27,-1,28,29,30,-1,30,29,31,-1,30,31,32,-1,33,34,19,-1,19,34,35,-1,19,35,20,-1,20,35,29,-1,20,29,36,-1,36,29,28,-1,21,37,19,-1,19,37,38,-1,19,38,2,-1,2,38,39,-1,2,39,13,-1,40,41,42,-1,43,44,45,-1,45,44,40,-1,45,40,46,-1,46,40,42,-1,47,2,48,-1,48,2,49,-1,50,51,52,-1,27,53,54,-1,55,56,57,-1,57,56,58,-1,59,60,61,-1,61,60,62,-1,63,64,65,-1,66,67,68,-1,69,70,1,-1,1,70,71,-1,1,71,2,-1,2,71,72,-1,2,72,49,-1,52,73,50,-1,50,73,74,-1,50,74,27,-1,27,74,75,-1,27,75,53,-1,54,76,27,-1,27,76,77,-1,27,77,25,-1,25,77,78,-1,25,78,79,-1,59,61,57,-1,57,61,80,-1,57,80,55,-1,81,82,83,-1,83,82,84,-1,64,63,85,-1,85,63,86,-1,85,86,87,-1,85,88,89,-1,90,91,92,-1,32,93,30,-1,30,93,94,-1,30,94,8,-1,8,94,95,-1,8,95,22,-1,79,96,25,-1,25,96,61,-1,25,61,97,-1,97,61,62,-1,97,62,98,-1,85,99,88,-1,88,99,100,-1,88,100,101,-1,67,66,102,-1,103,104,105,-1,105,104,106,-1,105,106,107,-1,108,109,1,-1,1,109,110,-1,1,110,69,-1,98,111,97,-1,97,111,112,-1,97,112,113,-1,113,112,114,-1,113,114,115,-1,65,116,63,-1,63,116,117,-1,63,117,118,-1,118,117,119,-1,118,119,84,-1,84,119,120,-1,84,120,83,-1,68,121,66,-1,66,121,122,-1,66,122,103,-1,107,106,92,-1,92,106,123,-1,92,123,90,-1,103,105,66,-1,66,105,124,-1,66,124,1,-1,1,124,125,-1,1,125,108,-1,126,127,128,-1,128,127,129,-1,128,129,58,-1,58,129,130,-1,58,130,57,-1,101,100,66,-1,66,100,131,-1,66,131,102,-1,132,133,11,-1,87,134,85,-1,85,134,135,-1,85,135,136,-1,12,11,137,-1,137,11,133,-1,137,133,114,-1,114,133,138,-1,114,138,115,-1,139,140,141,-1,141,140,142,-1,141,142,91,-1,91,142,143,-1,91,143,92,-1,89,144,85,-1,85,144,145,-1,85,145,146,-1,146,145,147,-1,146,147,11,-1,11,147,148,-1,11,148,132,-1,136,149,85,-1,85,149,150,-1,85,150,99,-1,99,150,151,-1,99,151,40,-1,40,151,152,-1,40,152,41,-1,153,154,155,-1,156,157,158,-1,159,160,161,-1,162,163,164,-1,165,166,167,-1,168,169,170,-1,171,172,173,-1,174,175,176,-1,177,178,179,-1,180,181,182,-1,182,181,156,-1,183,184,182,-1,182,184,185,-1,185,186,182,-1,182,186,187,-1,182,187,180,-1,188,189,190,-1,191,192,193,-1,190,189,191,-1,191,189,194,-1,191,194,192,-1,195,196,197,-1,198,199,195,-1,195,199,200,-1,195,200,201,-1,188,190,202,-1,202,190,195,-1,202,195,203,-1,203,195,197,-1,203,197,204,-1,204,197,205,-1,204,205,206,-1,201,207,195,-1,195,207,208,-1,195,208,196,-1,209,210,211,-1,211,210,212,-1,211,212,213,-1,213,214,211,-1,211,214,215,-1,211,215,216,-1,216,215,217,-1,217,218,216,-1,216,218,219,-1,216,219,198,-1,198,219,220,-1,198,220,199,-1,221,222,223,-1,223,222,224,-1,223,224,211,-1,211,224,225,-1,211,225,209,-1,226,83,227,-1,227,83,120,-1,227,120,228,-1,226,229,83,-1,83,229,230,-1,83,230,223,-1,223,230,231,-1,223,231,221,-1,153,232,154,-1,154,232,233,-1,154,233,234,-1,234,235,154,-1,154,235,236,-1,154,236,228,-1,237,238,157,-1,239,240,241,-1,242,243,153,-1,244,245,246,-1,246,245,247,-1,239,241,248,-1,242,153,249,-1,250,251,245,-1,245,251,252,-1,245,252,253,-1,157,238,153,-1,153,238,254,-1,153,254,249,-1,240,255,241,-1,241,255,256,-1,241,256,257,-1,258,259,260,-1,260,259,261,-1,260,261,262,-1,263,253,264,-1,264,253,265,-1,264,265,260,-1,260,265,266,-1,260,266,258,-1,263,267,253,-1,253,267,268,-1,253,268,245,-1,245,268,269,-1,245,269,247,-1,270,271,272,-1,272,271,273,-1,272,273,241,-1,241,273,274,-1,241,274,248,-1,275,276,241,-1,241,276,277,-1,241,277,245,-1,245,277,278,-1,245,278,250,-1,279,280,232,-1,232,280,281,-1,232,281,282,-1,282,283,232,-1,232,283,284,-1,232,284,285,-1,285,284,270,-1,285,270,286,-1,286,270,272,-1,243,287,153,-1,153,287,288,-1,153,288,232,-1,232,288,289,-1,232,289,279,-1,257,290,241,-1,241,290,291,-1,241,291,292,-1,292,293,241,-1,241,293,294,-1,241,294,275,-1,295,296,297,-1,297,253,295,-1,295,253,252,-1,295,252,298,-1,298,252,299,-1,299,300,298,-1,298,300,301,-1,298,301,302,-1,303,304,305,-1,304,306,305,-1,305,306,307,-1,305,307,308,-1,309,305,310,-1,296,295,309,-1,309,295,311,-1,309,311,305,-1,305,311,312,-1,305,312,303,-1,310,313,309,-1,309,313,314,-1,309,314,315,-1,308,307,316,-1,316,307,317,-1,316,317,318,-1,318,317,319,-1,318,319,320,-1,321,322,315,-1,315,322,323,-1,315,323,309,-1,181,324,156,-1,156,324,325,-1,156,325,157,-1,157,325,326,-1,157,326,237,-1,327,328,329,-1,329,328,330,-1,327,331,332,-1,332,331,333,-1,334,335,336,-1,336,335,337,-1,337,335,338,-1,338,335,327,-1,338,327,339,-1,339,327,332,-1,339,332,179,-1,179,332,340,-1,179,340,177,-1,328,341,330,-1,330,341,342,-1,330,342,343,-1,343,342,344,-1,345,346,347,-1,347,346,348,-1,349,350,351,-1,351,350,352,-1,351,352,175,-1,353,354,355,-1,355,354,356,-1,355,356,352,-1,357,358,359,-1,360,361,362,-1,362,361,363,-1,364,365,357,-1,357,365,366,-1,357,366,367,-1,345,368,346,-1,346,368,369,-1,346,369,370,-1,370,369,371,-1,372,373,371,-1,371,373,374,-1,371,374,370,-1,367,375,357,-1,357,375,376,-1,357,376,358,-1,377,378,355,-1,355,378,379,-1,355,379,353,-1,380,381,382,-1,359,383,357,-1,357,383,384,-1,357,384,361,-1,361,384,348,-1,361,348,363,-1,363,348,346,-1,385,350,386,-1,387,388,389,-1,360,390,361,-1,361,390,391,-1,361,391,392,-1,393,394,371,-1,371,394,395,-1,371,395,396,-1,380,382,349,-1,389,397,387,-1,387,397,385,-1,387,385,398,-1,398,385,386,-1,382,399,349,-1,349,399,400,-1,349,400,350,-1,350,400,401,-1,350,401,386,-1,396,402,371,-1,371,402,403,-1,371,403,372,-1,174,176,404,-1,404,176,405,-1,404,405,406,-1,407,408,173,-1,409,410,411,-1,411,410,412,-1,411,412,413,-1,414,415,173,-1,173,415,416,-1,413,417,411,-1,411,417,418,-1,411,418,419,-1,419,418,420,-1,419,420,407,-1,421,422,408,-1,408,422,423,-1,408,423,173,-1,173,423,424,-1,173,424,414,-1,416,425,173,-1,173,425,426,-1,173,426,171,-1,427,428,429,-1,429,428,430,-1,429,430,431,-1,429,432,427,-1,427,432,433,-1,427,433,434,-1,434,435,427,-1,427,435,436,-1,427,436,437,-1,437,436,438,-1,437,438,439,-1,439,438,440,-1,439,440,408,-1,408,440,441,-1,408,441,421,-1,442,443,431,-1,431,443,444,-1,431,444,429,-1,445,446,381,-1,381,446,447,-1,381,447,382,-1,445,448,446,-1,446,448,449,-1,446,449,450,-1,450,449,451,-1,450,452,453,-1,451,454,450,-1,450,454,455,-1,450,455,456,-1,456,457,450,-1,450,457,458,-1,450,458,452,-1,453,459,450,-1,450,459,460,-1,450,460,461,-1,462,463,464,-1,464,463,465,-1,464,465,466,-1,467,468,469,-1,469,468,470,-1,463,471,465,-1,465,471,472,-1,465,472,473,-1,473,472,474,-1,473,474,475,-1,475,474,476,-1,475,476,470,-1,470,476,477,-1,470,477,469,-1,478,479,480,-1,481,482,483,-1,478,480,484,-1,484,480,485,-1,484,485,483,-1,483,485,486,-1,483,486,481,-1,487,488,473,-1,489,490,475,-1,488,491,473,-1,473,491,492,-1,473,492,478,-1,478,492,493,-1,478,493,479,-1,489,475,494,-1,481,495,482,-1,482,495,496,-1,482,496,475,-1,475,496,497,-1,475,497,494,-1,490,498,475,-1,475,498,499,-1,475,499,473,-1,473,499,500,-1,473,500,487,-1,483,501,502,-1,502,501,503,-1,502,504,483,-1,483,504,505,-1,483,505,484,-1,484,505,506,-1,484,506,507,-1,508,509,510,-1,510,509,511,-1,511,509,512,-1,512,509,505,-1,512,505,513,-1,513,505,504,-1,513,504,170,-1,170,504,514,-1,170,514,168,-1,503,501,515,-1,515,501,516,-1,515,516,517,-1,518,516,519,-1,519,516,520,-1,506,521,507,-1,507,521,517,-1,507,517,167,-1,167,517,516,-1,167,516,522,-1,522,516,518,-1,165,167,523,-1,524,525,526,-1,527,528,529,-1,529,528,530,-1,529,530,522,-1,522,530,531,-1,522,531,167,-1,167,531,532,-1,167,532,523,-1,527,529,526,-1,526,529,533,-1,526,533,524,-1,525,534,526,-1,526,534,535,-1,526,535,536,-1,537,538,539,-1,539,538,540,-1,539,540,541,-1,536,542,526,-1,526,542,543,-1,526,543,544,-1,544,545,526,-1,526,545,538,-1,526,538,546,-1,546,538,537,-1,163,547,548,-1,548,547,520,-1,548,520,549,-1,164,550,551,-1,551,552,164,-1,164,552,553,-1,164,553,162,-1,554,555,556,-1,557,558,559,-1,559,558,560,-1,559,560,164,-1,164,560,561,-1,164,561,550,-1,562,563,564,-1,564,563,565,-1,564,565,566,-1,567,568,361,-1,361,568,569,-1,361,569,564,-1,564,569,570,-1,564,570,562,-1,166,567,411,-1,411,567,361,-1,411,361,409,-1,409,361,392,-1,409,392,388,-1,388,392,571,-1,388,571,389,-1,175,352,176,-1,176,352,356,-1,176,356,405,-1,405,356,572,-1,405,572,364,-1,364,572,573,-1,364,573,365,-1,574,575,576,-1,333,331,577,-1,577,331,578,-1,577,578,344,-1,344,578,576,-1,344,576,343,-1,343,576,575,-1,343,575,579,-1,580,581,582,-1,576,583,574,-1,574,583,584,-1,574,584,585,-1,585,584,580,-1,585,580,586,-1,586,580,582,-1,161,587,173,-1,173,587,588,-1,407,173,419,-1,419,173,588,-1,419,588,583,-1,583,588,589,-1,583,589,584,-1,590,587,591,-1,591,587,161,-1,591,161,592,-1,592,161,160,-1,593,594,595,-1,406,405,172,-1,172,405,593,-1,172,593,173,-1,173,593,595,-1,173,595,161,-1,161,595,596,-1,161,596,597,-1,598,599,600,-1,600,599,601,-1,600,601,593,-1,593,601,602,-1,593,602,594,-1,597,603,161,-1,161,603,604,-1,161,604,159,-1,605,606,607,-1,605,607,579,-1,606,608,607,-1,607,608,609,-1,607,609,600,-1,600,609,610,-1,600,610,598,-1,81,83,611,-1,611,83,223,-1,611,223,612,-1,612,223,211,-1,612,211,613,-1,613,211,216,-1,613,216,614,-1,614,216,198,-1,614,198,615,-1,615,198,195,-1,615,195,616,-1,616,195,190,-1,617,618,556,-1,556,618,619,-1,620,559,182,-1,555,557,556,-1,556,557,559,-1,556,559,617,-1,617,559,620,-1,617,620,621,-1,158,556,156,-1,156,556,619,-1,156,619,182,-1,182,619,622,-1,182,622,620,-1,623,624,625,-1,624,623,626,-1,626,623,158,-1,626,158,627,-1,628,629,630,-1,630,629,626,-1,630,626,631,-1,631,626,627,-1,631,627,632,-1,632,627,633,-1,155,623,153,-1,153,623,625,-1,153,625,157,-1,157,625,634,-1,157,634,158,-1,158,634,635,-1,158,635,627,-1,163,548,164,-1,164,548,636,-1,164,636,559,-1,559,636,191,-1,559,191,182,-1,182,191,193,-1,182,193,183,-1,155,364,623,-1,623,364,357,-1,623,357,158,-1,158,357,361,-1,158,361,556,-1,556,361,564,-1,556,564,554,-1,554,564,566,-1,166,411,167,-1,167,411,419,-1,167,419,507,-1,507,419,583,-1,507,583,484,-1,484,583,576,-1,484,576,478,-1,478,576,578,-1,478,578,473,-1,473,578,331,-1,473,331,465,-1,520,516,549,-1,549,516,501,-1,549,501,637,-1,637,501,483,-1,637,483,638,-1,638,483,482,-1,638,482,639,-1,639,482,475,-1,639,475,640,-1,640,475,470,-1,640,470,641,-1,641,470,468,-1,641,468,642,-1,643,644,645,-1,646,647,329,-1,327,329,331,-1,331,329,647,-1,331,647,648,-1,649,329,650,-1,650,329,651,-1,650,651,652,-1,652,651,653,-1,643,645,649,-1,649,645,329,-1,329,645,654,-1,329,654,646,-1,469,466,467,-1,467,466,465,-1,467,465,653,-1,653,465,331,-1,653,331,652,-1,652,331,655,-1,654,656,657,-1,657,658,654,-1,654,658,659,-1,654,659,646,-1,660,661,655,-1,655,661,662,-1,655,662,663,-1,648,664,331,-1,331,664,665,-1,331,665,655,-1,655,665,666,-1,655,666,660,-1,663,667,655,-1,655,667,668,-1,655,668,654,-1,654,668,669,-1,654,669,656,-1,579,607,343,-1,343,607,670,-1,343,670,330,-1,330,670,671,-1,330,671,329,-1,329,671,672,-1,329,672,651,-1,228,120,154,-1,154,120,119,-1,154,119,155,-1,155,119,117,-1,155,117,364,-1,364,117,116,-1,364,116,405,-1,405,116,65,-1,405,65,593,-1,593,65,64,-1,593,64,600,-1,600,64,85,-1,600,85,607,-1,607,85,146,-1,607,146,670,-1,670,146,11,-1,670,11,671,-1,671,11,4,-1,671,4,672,-1,468,467,673,-1,673,467,653,-1,127,126,674,-1,674,126,675,-1,468,673,642,-1,642,673,674,-1,642,674,676,-1,676,674,675,-1,676,675,677,-1,4,3,672,-1,672,3,673,-1,672,673,651,-1,651,673,653,-1,33,19,678,-1,678,19,676,-1,678,676,679,-1,679,676,677,-1,679,677,51,-1,51,677,52,-1,680,676,2,-1,2,676,19,-1,681,44,43,-1,682,82,81,-1,2,47,680,-1,680,47,683,-1,680,683,684,-1,81,611,682,-1,682,611,612,-1,682,612,613,-1,613,614,682,-1,682,614,615,-1,682,615,685,-1,685,615,616,-1,685,616,680,-1,140,139,684,-1,684,139,686,-1,684,686,680,-1,680,686,681,-1,680,681,685,-1,685,681,43,-1,687,688,616,-1,616,688,689,-1,689,690,616,-1,616,690,691,-1,616,691,680,-1,680,691,692,-1,693,694,676,-1,676,694,695,-1,692,696,680,-1,680,696,697,-1,680,697,698,-1,695,699,676,-1,676,699,700,-1,676,700,642,-1,642,700,701,-1,698,702,680,-1,680,702,703,-1,680,703,704,-1,701,705,642,-1,642,705,706,-1,642,706,616,-1,616,706,707,-1,616,707,687,-1,704,708,680,-1,680,708,709,-1,680,709,676,-1,676,709,710,-1,676,710,693,-1,
        ]
    }
}
Shape{
    appearance Appearance {
        material  Material 	{
            diffuseColor 1.0 1.0 1.0
            specularColor 0.5019607843137255 0.5019607843137255 0.5019607843137255
            ambientIntensity 1.0
            transparency 0.0
            shininess 0.5
        }
    }
    geometry IndexedFaceSet {
        ccw TRUE
        solid FALSE
        coord DEF co Coordinate {
            point [
                -0.2374 -0.2619 0.2992, -0.2374 -0.2619 0.3031, -0.2391 -0.2494 0.2992, -0.2391 -0.2494 0.3031, -0.2439 -0.2378 0.2992, -0.2439 -0.2378 0.3031, -0.2515 -0.2278 0.2992, -0.2515 -0.2278 0.3031, -0.2615 -0.2202 0.2992, -0.2615 -0.2202 0.3031, -0.2731 -0.2154 0.2992, -0.2731 -0.2154 0.3031, -0.2856 -0.2137 0.2992, -0.2856 -0.2137 0.3031, -0.298 -0.2154 0.2992, -0.298 -0.2154 0.3031, -0.3096 -0.2202 0.2992, -0.3096 -0.2202 0.3031, -0.3196 -0.2278 0.2992, -0.3196 -0.2278 0.3031, -0.3272 -0.2378 0.2992, -0.3272 -0.2378 0.3031, -0.3321 -0.2494 0.2992, -0.3321 -0.2494 0.3031, -0.3337 -0.2619 0.2992, -0.3337 -0.2619 0.3031, -0.3321 -0.2743 0.2992, -0.3321 -0.2743 0.3031, -0.3272 -0.2859 0.2992, -0.3272 -0.2859 0.3031, -0.3196 -0.2959 0.2992, -0.3196 -0.2959 0.3031, -0.3096 -0.3035 0.2992, -0.3096 -0.3035 0.3031, -0.298 -0.3083 0.2992, -0.298 -0.3083 0.3031, -0.2856 -0.31 0.2992, -0.2856 -0.31 0.3031, -0.2731 -0.3083 0.2992, -0.2731 -0.3083 0.3031, -0.2615 -0.3035 0.2992, -0.2615 -0.3035 0.3031, -0.2515 -0.2959 0.2992, -0.2515 -0.2959 0.3031, -0.2439 -0.2859 0.2992, -0.2439 -0.2859 0.3031, -0.2391 -0.2743 0.2992, -0.2391 -0.2743 0.3031, -0.2856 -0.2619 0.2992
            ]
        }
        coordIndex [
            0,1,2,-1,2,1,3,-1,2,3,4,-1,4,3,5,-1,4,5,6,-1,6,5,7,-1,6,7,8,-1,8,7,9,-1,8,9,10,-1,10,9,11,-1,10,11,12,-1,12,11,13,-1,12,13,14,-1,14,13,15,-1,14,15,16,-1,16,15,17,-1,16,17,18,-1,18,17,19,-1,18,19,20,-1,20,19,21,-1,20,21,22,-1,22,21,23,-1,22,23,24,-1,24,23,25,-1,24,25,26,-1,26,25,27,-1,26,27,28,-1,28,27,29,-1,28,29,30,-1,30,29,31,-1,30,31,32,-1,32,31,33,-1,32,33,34,-1,34,33,35,-1,34,35,36,-1,36,35,37,-1,36,37,38,-1,38,37,39,-1,38,39,40,-1,40,39,41,-1,40,41,42,-1,42,41,43,-1,42,43,44,-1,44,43,45,-1,44,45,46,-1,46,45,47,-1,46,47,0,-1,0,47,1,-1,44,46,48,-1,48,46,0,-1,48,0,2,-1,38,40,48,-1,48,40,42,-1,48,42,44,-1,32,34,48,-1,48,34,36,-1,48,36,38,-1,26,28,48,-1,48,28,30,-1,48,30,32,-1,20,22,48,-1,48,22,24,-1,48,24,26,-1,14,16,48,-1,48,16,18,-1,48,18,20,-1,8,10,48,-1,48,10,12,-1,48,12,14,-1,2,4,48,-1,48,4,6,-1,48,6,8,-1,
        ]
    }
}
Shape{
    appearance Appearance {
        material  Material 	{
            diffuseColor 0.7529411764705882 0.7529411764705882 0.7529411764705882
            specularColor 0.3764705882352941 0.3764705882352941 0.3764705882352941
            ambientIntensity 0.7529
            transparency 0.0
            shininess 0.5
        }
    }
    geometry IndexedFaceSet {
        ccw TRUE
        solid FALSE
        coord DEF co Coordinate {
            point [
                0.0571 0.3976 0.0598, -0.061 0.3976 0.0598, 0.0571 0.3937 0.0598, -0.061 0.3937 0.0598, -0.061 0.3937 0.0079, -0.061 0.3976 0.0, -0.061 0.2953 0.0079, -0.061 0.2953 0.0, -0.0605 0.2909 0.0, -0.0605 0.2909 0.0079, -0.0591 0.2867 0.0, -0.0591 0.2867 0.0079, -0.0567 0.283 0.0, -0.0567 0.283 0.0079, -0.0536 0.2799 0.0, -0.0536 0.2799 0.0079, -0.0499 0.2775 0.0, -0.0499 0.2775 0.0079, -0.0457 0.2761 0.0, -0.0457 0.2761 0.0079, -0.0413 0.2756 0.0, -0.0413 0.2756 0.0079, 0.0374 0.2756 0.0, 0.0374 0.2756 0.0079, 0.0418 0.2761 0.0, 0.0418 0.2761 0.0079, 0.0459 0.2775 0.0, 0.0459 0.2775 0.0079, 0.0497 0.2799 0.0, 0.0497 0.2799 0.0079, 0.0528 0.283 0.0, 0.0528 0.283 0.0079, 0.0551 0.2867 0.0, 0.0551 0.2867 0.0079, 0.0566 0.2909 0.0, 0.0566 0.2909 0.0079, 0.0571 0.2953 0.0, 0.0571 0.2953 0.0079, 0.0571 0.3937 0.0079, 0.0571 0.3976 0.0, 0.2539 0.3937 0.0598, 0.2539 0.3976 0.0598, 0.1358 0.3937 0.0598, 0.1358 0.3976 0.0598, 0.1358 0.2953 0.0079, 0.1358 0.2953 0.0, 0.1363 0.2909 0.0, 0.1363 0.2909 0.0079, 0.1378 0.2867 0.0, 0.1378 0.2867 0.0079, 0.1401 0.283 0.0, 0.1401 0.283 0.0079, 0.1432 0.2799 0.0, 0.1432 0.2799 0.0079, 0.147 0.2775 0.0, 0.147 0.2775 0.0079, 0.1511 0.2761 0.0, 0.1511 0.2761 0.0079, 0.1555 0.2756 0.0, 0.1555 0.2756 0.0079, 0.2343 0.2756 0.0, 0.2343 0.2756 0.0079, 0.2393 0.2763 0.0, 0.2393 0.2763 0.0079, 0.2441 0.2782 0.0, 0.2441 0.2782 0.0079, 0.2482 0.2814 0.0, 0.2482 0.2814 0.0079, 0.2513 0.2854 0.0, 0.2513 0.2854 0.0079, 0.2533 0.2902 0.0, 0.2533 0.2902 0.0079, 0.2539 0.2953 0.0, 0.2539 0.2953 0.0079, 0.2539 0.3937 0.0079, 0.2539 0.3976 0.0, 0.1358 0.3937 0.0079, 0.1358 0.3976 0.0, -0.1398 0.3937 0.0598, -0.1398 0.3976 0.0598, -0.2579 0.3937 0.0598, -0.2579 0.3976 0.0598, -0.2579 0.3937 0.0079, -0.2579 0.3976 0.0, -0.2579 0.2953 0.0079, -0.2579 0.2953 0.0, -0.2574 0.2909 0.0, -0.2574 0.2909 0.0079, -0.2559 0.2867 0.0, -0.2559 0.2867 0.0079, -0.2536 0.283 0.0, -0.2536 0.283 0.0079, -0.2505 0.2799 0.0, -0.2505 0.2799 0.0079, -0.2467 0.2775 0.0, -0.2467 0.2775 0.0079, -0.2426 0.2761 0.0, -0.2426 0.2761 0.0079, -0.2382 0.2756 0.0, -0.2382 0.2756 0.0079, -0.1594 0.2756 0.0, -0.1594 0.2756 0.0079, -0.1544 0.2763 0.0, -0.1544 0.2763 0.0079, -0.1496 0.2782 0.0, -0.1496 0.2782 0.0079, -0.1455 0.2814 0.0, -0.1455 0.2814 0.0079, -0.1424 0.2854 0.0, -0.1424 0.2854 0.0079, -0.1404 0.2902 0.0, -0.1404 0.2902 0.0079, -0.1398 0.2953 0.0, -0.1398 0.2953 0.0079, -0.1398 0.3937 0.0079, -0.1398 0.3976 0.0, -0.2579 -0.3937 0.0598, -0.2579 -0.3976 0.0598, -0.1398 -0.3937 0.0598, -0.1398 -0.3976 0.0598, -0.1398 -0.2953 0.0079, -0.1398 -0.2953 0.0, -0.1403 -0.2909 0.0, -0.1403 -0.2909 0.0079, -0.1417 -0.2867 0.0, -0.1417 -0.2867 0.0079, -0.1441 -0.283 0.0, -0.1441 -0.283 0.0079, -0.1472 -0.2799 0.0, -0.1472 -0.2799 0.0079, -0.1509 -0.2775 0.0, -0.1509 -0.2775 0.0079, -0.1551 -0.2761 0.0, -0.1551 -0.2761 0.0079, -0.1594 -0.2756 0.0, -0.1594 -0.2756 0.0079, -0.2382 -0.2756 0.0, -0.2382 -0.2756 0.0079, -0.2426 -0.2761 0.0, -0.2426 -0.2761 0.0079, -0.2467 -0.2775 0.0, -0.2467 -0.2775 0.0079, -0.2505 -0.2799 0.0, -0.2505 -0.2799 0.0079, -0.2536 -0.283 0.0, -0.2536 -0.283 0.0079, -0.2559 -0.2867 0.0, -0.2559 -0.2867 0.0079, -0.2574 -0.2909 0.0, -0.2574 -0.2909 0.0079, -0.2579 -0.2953 0.0, -0.2579 -0.2953 0.0079, -0.2579 -0.3937 0.0079, -0.2579 -0.3976 0.0, -0.1398 -0.3937 0.0079, -0.1398 -0.3976 0.0, -0.061 -0.3976 0.0598, 0.0571 -0.3976 0.0598, -0.061 -0.3937 0.0598, 0.0571 -0.3937 0.0598, 0.0571 -0.3937 0.0079, 0.0571 -0.3976 0.0, 0.0571 -0.2953 0.0079, 0.0571 -0.2953 0.0, 0.0566 -0.2909 0.0, 0.0566 -0.2909 0.0079, 0.0551 -0.2867 0.0, 0.0551 -0.2867 0.0079, 0.0528 -0.283 0.0, 0.0528 -0.283 0.0079, 0.0497 -0.2799 0.0, 0.0497 -0.2799 0.0079, 0.0459 -0.2775 0.0, 0.0459 -0.2775 0.0079, 0.0418 -0.2761 0.0, 0.0418 -0.2761 0.0079, 0.0374 -0.2756 0.0, 0.0374 -0.2756 0.0079, -0.0413 -0.2756 0.0, -0.0413 -0.2756 0.0079, -0.0457 -0.2761 0.0, -0.0457 -0.2761 0.0079, -0.0499 -0.2775 0.0, -0.0499 -0.2775 0.0079, -0.0536 -0.2799 0.0, -0.0536 -0.2799 0.0079, -0.0567 -0.283 0.0, -0.0567 -0.283 0.0079, -0.0591 -0.2867 0.0, -0.0591 -0.2867 0.0079, -0.0605 -0.2909 0.0, -0.0605 -0.2909 0.0079, -0.061 -0.2953 0.0, -0.061 -0.2953 0.0079, -0.061 -0.3937 0.0079, -0.061 -0.3976 0.0, 0.1358 -0.3976 0.0598, 0.2539 -0.3976 0.0598, 0.1358 -0.3937 0.0598, 0.2539 -0.3937 0.0598, 0.1555 -0.2756 0.0079, 0.1555 -0.2756 0.0, 0.1511 -0.2761 0.0, 0.1511 -0.2761 0.0079, 0.147 -0.2775 0.0, 0.147 -0.2775 0.0079, 0.1432 -0.2799 0.0, 0.1432 -0.2799 0.0079, 0.1401 -0.283 0.0, 0.1401 -0.283 0.0079, 0.1378 -0.2867 0.0, 0.1378 -0.2867 0.0079, 0.1363 -0.2909 0.0, 0.1363 -0.2909 0.0079, 0.1358 -0.2953 0.0, 0.1358 -0.2953 0.0079, 0.1358 -0.3937 0.0079, 0.1358 -0.3976 0.0, 0.2539 -0.3937 0.0079, 0.2539 -0.3976 0.0, 0.2539 -0.2953 0.0079, 0.2539 -0.2953 0.0, 0.2534 -0.2909 0.0, 0.2534 -0.2909 0.0079, 0.252 -0.2867 0.0, 0.252 -0.2867 0.0079, 0.2496 -0.283 0.0, 0.2496 -0.283 0.0079, 0.2465 -0.2799 0.0, 0.2465 -0.2799 0.0079, 0.2428 -0.2775 0.0, 0.2428 -0.2775 0.0079, 0.2386 -0.2761 0.0, 0.2386 -0.2761 0.0079, 0.2343 -0.2756 0.0, 0.2343 -0.2756 0.0079
            ]
        }
        coordIndex [
            0,1,2,-1,2,1,3,-1,3,1,4,-1,4,1,5,-1,4,5,6,-1,6,5,7,-1,6,7,8,-1,6,8,9,-1,9,8,10,-1,9,10,11,-1,11,10,12,-1,11,12,13,-1,13,12,14,-1,13,14,15,-1,15,14,16,-1,15,16,17,-1,17,16,18,-1,17,18,19,-1,19,18,20,-1,19,20,21,-1,20,22,21,-1,21,22,23,-1,23,22,24,-1,23,24,25,-1,25,24,26,-1,25,26,27,-1,27,26,28,-1,27,28,29,-1,29,28,30,-1,29,30,31,-1,31,30,32,-1,31,32,33,-1,33,32,34,-1,33,34,35,-1,35,34,36,-1,35,36,37,-1,37,36,38,-1,38,36,39,-1,38,39,2,-1,2,39,0,-1,5,1,39,-1,39,1,0,-1,24,22,36,-1,34,32,30,-1,24,36,26,-1,34,30,36,-1,36,30,28,-1,36,28,26,-1,18,7,20,-1,20,7,5,-1,20,5,22,-1,22,5,39,-1,22,39,36,-1,18,16,7,-1,7,16,14,-1,7,14,8,-1,8,14,12,-1,8,12,10,-1,40,41,42,-1,42,41,43,-1,44,45,46,-1,44,46,47,-1,47,46,48,-1,47,48,49,-1,49,48,50,-1,49,50,51,-1,51,50,52,-1,51,52,53,-1,53,52,54,-1,53,54,55,-1,55,54,56,-1,55,56,57,-1,57,56,58,-1,57,58,59,-1,58,60,59,-1,59,60,61,-1,61,60,62,-1,61,62,63,-1,63,62,64,-1,63,64,65,-1,65,64,66,-1,65,66,67,-1,67,66,68,-1,67,68,69,-1,69,68,70,-1,69,70,71,-1,71,70,72,-1,71,72,73,-1,73,72,74,-1,74,72,75,-1,74,75,40,-1,40,75,41,-1,42,43,76,-1,76,43,77,-1,76,77,44,-1,44,77,45,-1,77,43,75,-1,75,43,41,-1,46,45,58,-1,58,45,60,-1,77,75,45,-1,45,75,72,-1,45,72,60,-1,60,72,70,-1,60,70,68,-1,52,50,54,-1,54,50,56,-1,56,50,58,-1,58,50,48,-1,58,48,46,-1,66,64,68,-1,68,64,62,-1,68,62,60,-1,78,79,80,-1,80,79,81,-1,80,81,82,-1,82,81,83,-1,82,83,84,-1,84,83,85,-1,84,85,86,-1,84,86,87,-1,87,86,88,-1,87,88,89,-1,89,88,90,-1,89,90,91,-1,91,90,92,-1,91,92,93,-1,93,92,94,-1,93,94,95,-1,95,94,96,-1,95,96,97,-1,97,96,98,-1,97,98,99,-1,98,100,99,-1,99,100,101,-1,101,100,102,-1,101,102,103,-1,103,102,104,-1,103,104,105,-1,105,104,106,-1,105,106,107,-1,107,106,108,-1,107,108,109,-1,109,108,110,-1,109,110,111,-1,111,110,112,-1,111,112,113,-1,113,112,114,-1,114,112,115,-1,114,115,78,-1,78,115,79,-1,83,81,115,-1,115,81,79,-1,108,106,104,-1,102,100,112,-1,112,100,85,-1,112,85,115,-1,115,85,83,-1,100,98,85,-1,85,98,96,-1,85,96,94,-1,102,112,104,-1,104,112,110,-1,104,110,108,-1,94,92,85,-1,85,92,90,-1,85,90,86,-1,86,90,88,-1,116,117,118,-1,118,117,119,-1,120,121,122,-1,120,122,123,-1,123,122,124,-1,123,124,125,-1,125,124,126,-1,125,126,127,-1,127,126,128,-1,127,128,129,-1,129,128,130,-1,129,130,131,-1,131,130,132,-1,131,132,133,-1,133,132,134,-1,133,134,135,-1,134,136,135,-1,135,136,137,-1,137,136,138,-1,137,138,139,-1,139,138,140,-1,139,140,141,-1,141,140,142,-1,141,142,143,-1,143,142,144,-1,143,144,145,-1,145,144,146,-1,145,146,147,-1,147,146,148,-1,147,148,149,-1,149,148,150,-1,149,150,151,-1,151,150,152,-1,152,150,153,-1,152,153,116,-1,116,153,117,-1,118,119,154,-1,154,119,155,-1,154,155,120,-1,120,155,121,-1,155,119,153,-1,153,119,117,-1,122,121,134,-1,134,121,136,-1,155,153,121,-1,121,153,150,-1,121,150,136,-1,136,150,148,-1,128,126,130,-1,130,126,132,-1,132,126,134,-1,134,126,124,-1,134,124,122,-1,148,146,136,-1,136,146,144,-1,136,144,138,-1,138,144,142,-1,138,142,140,-1,156,157,158,-1,158,157,159,-1,159,157,160,-1,160,157,161,-1,160,161,162,-1,162,161,163,-1,162,163,164,-1,162,164,165,-1,165,164,166,-1,165,166,167,-1,167,166,168,-1,167,168,169,-1,169,168,170,-1,169,170,171,-1,171,170,172,-1,171,172,173,-1,173,172,174,-1,173,174,175,-1,175,174,176,-1,175,176,177,-1,176,178,177,-1,177,178,179,-1,179,178,180,-1,179,180,181,-1,181,180,182,-1,181,182,183,-1,183,182,184,-1,183,184,185,-1,185,184,186,-1,185,186,187,-1,187,186,188,-1,187,188,189,-1,189,188,190,-1,189,190,191,-1,191,190,192,-1,191,192,193,-1,193,192,194,-1,194,192,195,-1,194,195,158,-1,158,195,156,-1,161,157,195,-1,195,157,156,-1,195,192,178,-1,178,192,190,-1,186,184,182,-1,195,178,161,-1,161,178,176,-1,161,176,163,-1,163,176,174,-1,163,174,172,-1,172,170,163,-1,163,170,168,-1,163,168,164,-1,164,168,166,-1,190,188,178,-1,178,188,186,-1,178,186,180,-1,180,186,182,-1,196,197,198,-1,198,197,199,-1,200,201,202,-1,200,202,203,-1,203,202,204,-1,203,204,205,-1,205,204,206,-1,205,206,207,-1,207,206,208,-1,207,208,209,-1,209,208,210,-1,209,210,211,-1,211,210,212,-1,211,212,213,-1,213,212,214,-1,213,214,215,-1,215,214,216,-1,216,214,217,-1,216,217,198,-1,198,217,196,-1,199,197,218,-1,218,197,219,-1,218,219,220,-1,220,219,221,-1,220,221,222,-1,220,222,223,-1,223,222,224,-1,223,224,225,-1,225,224,226,-1,225,226,227,-1,227,226,228,-1,227,228,229,-1,229,228,230,-1,229,230,231,-1,231,230,232,-1,231,232,233,-1,233,232,234,-1,233,234,235,-1,234,201,235,-1,235,201,200,-1,219,197,217,-1,217,197,196,-1,204,202,214,-1,202,201,214,-1,214,201,221,-1,214,221,217,-1,217,221,219,-1,214,212,210,-1,201,234,221,-1,221,234,232,-1,221,232,230,-1,210,208,214,-1,214,208,206,-1,214,206,204,-1,230,228,221,-1,221,228,226,-1,221,226,222,-1,222,226,224,-1,
        ]
    }
}
Shape{
    appearance Appearance {
        material  Material 	{
            diffuseColor 1.0 1.0 1.0
            specularColor 0.5019607843137255 0.5019607843137255 0.5019607843137255
            ambientIntensity 1.0
            transparency 0.0
            shininess 0.5
        }
    }
    geometry IndexedFaceSet {
        ccw TRUE
        solid FALSE
        coord DEF co Coordinate {
            point [
                0.3957 -0.2513 0.1835, 0.3957 -0.2513 0.1813, 0.3917 -0.2513 0.1835, 0.3917 -0.2513 0.1813, 0.3957 -0.2587 0.1835, 0.3917 -0.2587 0.1835, 0.3957 -0.2587 0.2, 0.3917 -0.2587 0.2, 0.3957 -0.2611 0.2, 0.3917 -0.2611 0.2, 0.3957 -0.2611 0.1813, 0.3917 -0.2611 0.1813, 0.3917 -0.2417 0.181, 0.3917 -0.2401 0.1812, 0.3957 -0.2417 0.181, 0.3957 -0.2389 0.1813, 0.3917 -0.2389 0.1813, 0.3917 -0.2369 0.182, 0.3957 -0.2369 0.182, 0.3917 -0.2365 0.1821, 0.3957 -0.2365 0.1821, 0.3957 -0.2365 0.1844, 0.3917 -0.2365 0.1844, 0.3917 -0.2384 0.1836, 0.3957 -0.2384 0.1836, 0.3917 -0.2405 0.1832, 0.3957 -0.2405 0.1832, 0.3917 -0.2414 0.1832, 0.3957 -0.2414 0.1832, 0.3917 -0.243 0.1834, 0.3957 -0.243 0.1834, 0.3917 -0.2444 0.1838, 0.3957 -0.2444 0.1838, 0.3917 -0.2456 0.1847, 0.3957 -0.2456 0.1847, 0.3917 -0.2462 0.1851, 0.3957 -0.2462 0.1851, 0.3917 -0.247 0.1863, 0.3957 -0.247 0.1863, 0.3917 -0.2476 0.1878, 0.3957 -0.2476 0.1878, 0.3917 -0.248 0.1897, 0.3957 -0.248 0.1897, 0.3917 -0.248 0.1905, 0.3957 -0.248 0.1905, 0.3917 -0.2477 0.193, 0.3957 -0.2477 0.193, 0.3917 -0.2471 0.1947, 0.3957 -0.2471 0.1947, 0.3917 -0.2462 0.196, 0.3957 -0.2462 0.196, 0.3917 -0.246 0.1961, 0.3957 -0.246 0.1961, 0.3917 -0.2449 0.1971, 0.3957 -0.2449 0.1971, 0.3917 -0.2434 0.1978, 0.3957 -0.2434 0.1978, 0.3917 -0.2418 0.1981, 0.3957 -0.2418 0.1981, 0.3917 -0.2409 0.1982, 0.3957 -0.2409 0.1982, 0.3917 -0.2386 0.1979, 0.3957 -0.2386 0.1979, 0.3917 -0.2367 0.1972, 0.3957 -0.2367 0.1972, 0.3917 -0.2365 0.1971, 0.3957 -0.2365 0.1971, 0.3957 -0.2365 0.1996, 0.3917 -0.2365 0.1996, 0.3917 -0.241 0.2003, 0.3957 -0.241 0.2003, 0.3917 -0.239 0.2002, 0.3957 -0.2385 0.2002, 0.3917 -0.2385 0.2002, 0.3917 -0.2423 0.2002, 0.3957 -0.2437 0.2, 0.3917 -0.2437 0.2, 0.3917 -0.2456 0.1993, 0.3957 -0.2456 0.1993, 0.3917 -0.2474 0.198, 0.3957 -0.2474 0.198, 0.3917 -0.2478 0.1976, 0.3957 -0.2478 0.1976, 0.3917 -0.2492 0.1958, 0.3957 -0.2492 0.1958, 0.3917 -0.2497 0.1946, 0.3957 -0.2501 0.1937, 0.3917 -0.2501 0.1937, 0.3917 -0.2505 0.1913, 0.3957 -0.2505 0.1913, 0.3917 -0.2505 0.1903, 0.3957 -0.2505 0.1903, 0.3917 -0.2502 0.1873, 0.3957 -0.2502 0.1873, 0.3917 -0.2497 0.1861, 0.3957 -0.2494 0.1853, 0.3917 -0.2494 0.1853, 0.3917 -0.2483 0.1838, 0.3957 -0.2483 0.1838, 0.3917 -0.2481 0.1836, 0.3957 -0.2481 0.1836, 0.3957 -0.2432 0.1811, 0.3917 -0.2469 0.1825, 0.3957 -0.2469 0.1825, 0.3917 -0.2451 0.1816, 0.3957 -0.2451 0.1816, 0.3917 -0.2434 0.1812, 0.3917 -0.2432 0.1811, 0.3957 -0.2227 0.1835, 0.3957 -0.2227 0.1813, 0.3917 -0.2227 0.1835, 0.3917 -0.2227 0.1813, 0.3917 -0.2304 0.1835, 0.3957 -0.2304 0.1835, 0.3917 -0.2253 0.1835, 0.3957 -0.2304 0.1898, 0.3917 -0.2304 0.1898, 0.3917 -0.2237 0.1898, 0.3957 -0.2237 0.1898, 0.3917 -0.2253 0.1898, 0.3957 -0.2237 0.1919, 0.3917 -0.2237 0.1919, 0.3917 -0.2304 0.1919, 0.3957 -0.2304 0.1919, 0.3917 -0.2253 0.1919, 0.3957 -0.2304 0.1979, 0.3917 -0.2304 0.1979, 0.3917 -0.2232 0.1979, 0.3957 -0.2232 0.1979, 0.3917 -0.2253 0.1979, 0.3957 -0.2232 0.2, 0.3917 -0.2232 0.2, 0.3917 -0.2328 0.2, 0.3957 -0.2328 0.2, 0.3917 -0.2253 0.2, 0.3957 -0.2328 0.1813, 0.3917 -0.2328 0.1813, 0.3917 -0.2253 0.1813, 0.3957 -0.2068 0.184, 0.3957 -0.2088 0.1852, 0.3957 -0.2088 0.1826, 0.3957 -0.21 0.1844, 0.3957 -0.2109 0.1817, 0.3957 -0.2115 0.1838, 0.3957 -0.2141 0.1813, 0.3957 -0.2141 0.1835, 0.3957 -0.2192 0.1813, 0.3957 -0.2168 0.1835, 0.3957 -0.2192 0.2, 0.3957 -0.2168 0.1979, 0.3957 -0.2139 0.2, 0.3957 -0.214 0.1979, 0.3957 -0.2138 0.1979, 0.3957 -0.211 0.1997, 0.3957 -0.2114 0.1976, 0.3957 -0.2088 0.1989, 0.3957 -0.2098 0.197, 0.3957 -0.2068 0.1976, 0.3957 -0.2086 0.1961, 0.3957 -0.2062 0.1969, 0.3957 -0.2081 0.1956, 0.3957 -0.205 0.1953, 0.3957 -0.2073 0.1946, 0.3957 -0.2043 0.1935, 0.3957 -0.2068 0.1932, 0.3957 -0.204 0.1909, 0.3957 -0.2065 0.1909, 0.3957 -0.2041 0.1897, 0.3957 -0.2066 0.1896, 0.3957 -0.2045 0.1875, 0.3957 -0.207 0.1879, 0.3957 -0.2054 0.1856, 0.3957 -0.2076 0.1865, 0.3957 -0.2085 0.1854, 0.3917 -0.2141 0.1813, 0.3917 -0.2192 0.1813, 0.3917 -0.2068 0.184, 0.3917 -0.2109 0.1817, 0.3917 -0.2107 0.1818, 0.3917 -0.2088 0.1826, 0.3917 -0.2054 0.1856, 0.3917 -0.2045 0.1875, 0.3917 -0.2041 0.1897, 0.3917 -0.204 0.1909, 0.3917 -0.2043 0.1935, 0.3917 -0.205 0.1953, 0.3917 -0.2062 0.1969, 0.3917 -0.2068 0.1976, 0.3917 -0.2139 0.2, 0.3917 -0.2088 0.1989, 0.3917 -0.2107 0.1996, 0.3917 -0.211 0.1997, 0.3917 -0.2192 0.2, 0.3917 -0.214 0.1979, 0.3917 -0.2168 0.1979, 0.3917 -0.2168 0.1835, 0.3917 -0.2141 0.1835, 0.3917 -0.2085 0.1854, 0.3917 -0.2088 0.1852, 0.3917 -0.21 0.1844, 0.3917 -0.2115 0.1838, 0.3917 -0.2065 0.1909, 0.3917 -0.2066 0.1896, 0.3917 -0.207 0.1879, 0.3917 -0.2076 0.1865, 0.3917 -0.2086 0.1961, 0.3917 -0.2081 0.1956, 0.3917 -0.2073 0.1946, 0.3917 -0.2068 0.1932, 0.3917 -0.2138 0.1979, 0.3917 -0.2114 0.1976, 0.3917 -0.2098 0.197
            ]
        }
        coordIndex [
            0,1,2,-1,2,1,3,-1,4,0,5,-1,5,0,2,-1,6,4,7,-1,7,4,5,-1,8,6,9,-1,9,6,7,-1,10,8,11,-1,11,8,9,-1,1,10,3,-1,3,10,11,-1,6,8,4,-1,4,8,10,-1,4,10,0,-1,0,10,1,-1,12,13,14,-1,14,13,15,-1,13,16,15,-1,15,16,17,-1,15,17,18,-1,18,17,19,-1,18,19,20,-1,21,20,22,-1,22,20,19,-1,21,22,23,-1,21,23,24,-1,24,23,25,-1,24,25,26,-1,26,25,27,-1,26,27,28,-1,28,27,29,-1,28,29,30,-1,30,29,31,-1,30,31,32,-1,32,31,33,-1,32,33,34,-1,34,33,35,-1,34,35,36,-1,36,35,37,-1,36,37,38,-1,38,37,39,-1,38,39,40,-1,40,39,41,-1,40,41,42,-1,42,41,43,-1,42,43,44,-1,44,43,45,-1,44,45,46,-1,46,45,47,-1,46,47,48,-1,48,47,49,-1,48,49,50,-1,50,49,51,-1,50,51,52,-1,52,51,53,-1,52,53,54,-1,54,53,55,-1,54,55,56,-1,56,55,57,-1,56,57,58,-1,58,57,59,-1,58,59,60,-1,60,59,61,-1,60,61,62,-1,62,61,63,-1,62,63,64,-1,64,63,65,-1,64,65,66,-1,67,66,68,-1,68,66,65,-1,69,70,71,-1,71,70,72,-1,71,72,73,-1,73,72,67,-1,73,67,68,-1,70,69,74,-1,70,74,75,-1,74,76,75,-1,75,76,77,-1,75,77,78,-1,78,77,79,-1,78,79,80,-1,80,79,81,-1,80,81,82,-1,82,81,83,-1,82,83,84,-1,84,83,85,-1,84,85,86,-1,85,87,86,-1,86,87,88,-1,86,88,89,-1,89,88,90,-1,89,90,91,-1,91,90,92,-1,91,92,93,-1,93,92,94,-1,93,94,95,-1,94,96,95,-1,95,96,97,-1,95,97,98,-1,98,97,99,-1,98,99,100,-1,12,14,101,-1,100,99,102,-1,100,102,103,-1,103,102,104,-1,103,104,105,-1,105,104,106,-1,105,106,101,-1,101,106,107,-1,101,107,12,-1,46,48,84,-1,84,48,82,-1,91,44,89,-1,89,44,46,-1,89,46,86,-1,86,46,84,-1,48,50,82,-1,82,50,52,-1,82,52,80,-1,80,52,54,-1,80,54,78,-1,78,54,75,-1,75,54,56,-1,75,56,70,-1,20,21,18,-1,18,21,24,-1,18,24,15,-1,15,24,26,-1,15,26,14,-1,14,26,28,-1,14,28,101,-1,101,28,30,-1,101,30,105,-1,105,30,32,-1,105,32,103,-1,103,32,34,-1,103,34,100,-1,100,34,36,-1,100,36,98,-1,98,36,38,-1,98,38,95,-1,95,38,93,-1,93,38,40,-1,93,40,91,-1,91,40,42,-1,91,42,44,-1,56,58,70,-1,70,58,60,-1,70,60,72,-1,72,60,62,-1,72,62,67,-1,67,62,64,-1,67,64,66,-1,108,109,110,-1,110,109,111,-1,112,113,114,-1,114,113,108,-1,114,108,110,-1,115,113,116,-1,116,113,112,-1,117,118,119,-1,119,118,115,-1,119,115,116,-1,120,118,121,-1,121,118,117,-1,122,123,124,-1,124,123,120,-1,124,120,121,-1,125,123,126,-1,126,123,122,-1,127,128,129,-1,129,128,125,-1,129,125,126,-1,130,128,131,-1,131,128,127,-1,132,133,134,-1,134,133,130,-1,134,130,131,-1,135,133,136,-1,136,133,132,-1,135,136,109,-1,109,136,137,-1,109,137,111,-1,135,109,108,-1,108,113,135,-1,135,113,115,-1,135,115,133,-1,128,130,125,-1,125,130,133,-1,125,133,123,-1,123,133,115,-1,123,115,120,-1,120,115,118,-1,138,139,140,-1,140,139,141,-1,140,141,142,-1,142,141,143,-1,142,143,144,-1,144,143,145,-1,144,145,146,-1,146,145,147,-1,146,147,148,-1,148,147,149,-1,148,149,150,-1,149,151,150,-1,150,151,152,-1,150,152,153,-1,153,152,154,-1,153,154,155,-1,155,154,156,-1,155,156,157,-1,157,156,158,-1,157,158,159,-1,159,158,160,-1,159,160,161,-1,161,160,162,-1,161,162,163,-1,163,162,164,-1,163,164,165,-1,165,164,166,-1,165,166,167,-1,167,166,168,-1,167,168,169,-1,169,168,170,-1,169,170,171,-1,171,170,172,-1,171,172,138,-1,138,172,173,-1,138,173,139,-1,144,146,174,-1,174,146,175,-1,176,138,140,-1,144,174,177,-1,144,177,142,-1,142,177,178,-1,142,178,140,-1,140,178,179,-1,140,179,176,-1,138,176,180,-1,138,180,171,-1,171,180,181,-1,171,181,169,-1,169,181,182,-1,169,182,167,-1,167,182,183,-1,167,183,165,-1,165,183,184,-1,165,184,163,-1,163,184,185,-1,163,185,161,-1,161,185,186,-1,161,186,159,-1,159,186,187,-1,159,187,157,-1,188,150,153,-1,157,187,189,-1,157,189,155,-1,155,189,190,-1,155,190,153,-1,153,190,191,-1,153,191,188,-1,148,150,192,-1,192,150,188,-1,146,148,175,-1,175,148,192,-1,151,149,193,-1,193,149,194,-1,149,147,194,-1,194,147,195,-1,147,145,195,-1,195,145,196,-1,173,197,198,-1,173,198,139,-1,139,198,199,-1,139,199,141,-1,141,199,200,-1,141,200,143,-1,143,200,196,-1,143,196,145,-1,166,201,202,-1,166,202,168,-1,168,202,203,-1,168,203,170,-1,170,203,204,-1,170,204,172,-1,172,204,197,-1,172,197,173,-1,158,205,206,-1,158,206,160,-1,160,206,207,-1,160,207,162,-1,162,207,208,-1,162,208,164,-1,164,208,201,-1,164,201,166,-1,151,193,209,-1,151,209,152,-1,152,209,210,-1,152,210,154,-1,154,210,211,-1,154,211,156,-1,156,211,205,-1,156,205,158,-1,
        ]
    }
}
Shape{
    appearance Appearance {
        material  Material 	{
            diffuseColor 0.25098039215686274 0.25098039215686274 0.25098039215686274
            specularColor 0.12549019607843137 0.12549019607843137 0.12549019607843137
            ambientIntensity 0.251
            transparency 0.0
            shininess 0.5
        }
    }
    geometry IndexedFaceSet {
        ccw TRUE
        solid FALSE
        coord DEF co Coordinate {
            point [
                0.3917 -0.21 0.1844, 0.3917 -0.2088 0.1852, 0.3917 -0.2138 0.1979, 0.3917 -0.2168 0.1979, 0.3917 -0.2168 0.1835, 0.3917 -0.214 0.1979, 0.3917 -0.2141 0.1835, 0.3917 -0.2115 0.1838, 0.3917 -0.2085 0.1854, 0.3917 -0.2076 0.1865, 0.3917 -0.207 0.1879, 0.3917 -0.2065 0.1909, 0.3917 -0.2086 0.1961, 0.3917 -0.2098 0.197, 0.3917 -0.2068 0.1932, 0.3917 -0.2073 0.1946, 0.3917 -0.2081 0.1956, 0.3917 -0.2066 0.1896, 0.3917 -0.2114 0.1976
            ]
        }
        coordIndex [
            0,1,2,-1,3,4,5,-1,5,4,6,-1,5,6,2,-1,2,6,7,-1,2,7,0,-1,1,8,2,-1,2,8,9,-1,2,9,10,-1,11,12,13,-1,14,15,11,-1,11,15,16,-1,11,16,12,-1,10,17,2,-1,2,17,11,-1,2,11,18,-1,18,11,13,-1,
        ]
    }
}
Shape{
    appearance Appearance {
        material  Material 	{
            diffuseColor 1.0 1.0 1.0
            specularColor 0.5019607843137255 0.5019607843137255 0.5019607843137255
            ambientIntensity 1.0
            transparency 0.0
            shininess 0.5
        }
    }
    geometry IndexedFaceSet {
        ccw TRUE
        solid FALSE
        coord DEF co Coordinate {
            point [
                0.3957 -0.1977 0.1886, 0.3957 -0.1985 0.1865, 0.3957 -0.1915 0.1886, 0.3957 -0.1907 0.1865, 0.3957 -0.1949 0.1963, 0.3957 -0.1959 0.2, 0.3957 -0.203 0.1813, 0.3957 -0.2003 0.1813, 0.3957 -0.1948 0.1969, 0.3957 -0.1946 0.1976, 0.3957 -0.1933 0.2, 0.3957 -0.1946 0.1976, 0.3957 -0.1944 0.1968, 0.3957 -0.1943 0.1963, 0.3957 -0.1862 0.1813, 0.3957 -0.1888 0.1813, 0.3917 -0.1933 0.2, 0.3917 -0.1862 0.1813, 0.3917 -0.1959 0.2, 0.3917 -0.203 0.1813, 0.3917 -0.1976 0.1955, 0.3917 -0.2003 0.1813, 0.3917 -0.1985 0.1865, 0.3917 -0.1907 0.1865, 0.3917 -0.1976 0.1865, 0.3917 -0.1888 0.1813, 0.3917 -0.1977 0.1886, 0.3917 -0.1915 0.1886, 0.3917 -0.1943 0.1963, 0.3917 -0.1946 0.1976, 0.3917 -0.1944 0.1968, 0.3917 -0.1946 0.1976, 0.3917 -0.1949 0.1963, 0.3917 -0.1948 0.1969
            ]
        }
        coordIndex [
            0,1,2,-1,2,1,3,-1,4,5,0,-1,0,5,6,-1,0,6,1,-1,1,6,7,-1,4,8,5,-1,5,8,9,-1,5,9,10,-1,10,9,11,-1,10,11,12,-1,12,13,10,-1,10,13,2,-1,10,2,14,-1,14,2,3,-1,14,3,15,-1,10,14,16,-1,16,14,17,-1,5,10,18,-1,18,10,16,-1,19,6,20,-1,20,6,5,-1,20,5,18,-1,7,6,21,-1,21,6,19,-1,1,7,22,-1,22,7,21,-1,23,3,24,-1,24,3,1,-1,24,1,22,-1,15,3,25,-1,25,3,23,-1,14,15,17,-1,17,15,25,-1,0,2,26,-1,26,2,27,-1,2,13,27,-1,27,13,28,-1,11,29,30,-1,11,30,12,-1,12,30,28,-1,12,28,13,-1,11,9,29,-1,29,9,31,-1,4,32,33,-1,4,33,8,-1,8,33,31,-1,8,31,9,-1,4,0,32,-1,32,0,26,-1,
        ]
    }
}
Shape{
    appearance Appearance {
        material  Material 	{
            diffuseColor 0.25098039215686274 0.25098039215686274 0.25098039215686274
            specularColor 0.12549019607843137 0.12549019607843137 0.12549019607843137
            ambientIntensity 0.251
            transparency 0.0
            shininess 0.5
        }
    }
    geometry IndexedFaceSet {
        ccw TRUE
        solid FALSE
        coord DEF co Coordinate {
            point [
                0.3917 -0.1946 0.1976, 0.3917 -0.1946 0.1976, 0.3917 -0.1944 0.1968, 0.3917 -0.1948 0.1969, 0.3917 -0.1943 0.1963, 0.3917 -0.1949 0.1963, 0.3917 -0.1915 0.1886, 0.3917 -0.1977 0.1886
            ]
        }
        coordIndex [
            0,1,2,-1,2,1,3,-1,2,3,4,-1,4,3,5,-1,4,5,6,-1,6,5,7,-1,
        ]
    }
}
Shape{
    appearance Appearance {
        material  Material 	{
            diffuseColor 1.0 1.0 1.0
            specularColor 0.5019607843137255 0.5019607843137255 0.5019607843137255
            ambientIntensity 1.0
            transparency 0.0
            shininess 0.5
        }
    }
    geometry IndexedFaceSet {
        ccw TRUE
        solid FALSE
        coord DEF co Coordinate {
            point [
                0.3957 -0.2511 0.1538, 0.3957 -0.2511 0.1517, 0.3917 -0.2511 0.1538, 0.3917 -0.2511 0.1517, 0.3957 -0.2587 0.1538, 0.3917 -0.2587 0.1538, 0.3957 -0.2587 0.1601, 0.3917 -0.2587 0.1601, 0.3957 -0.252 0.1601, 0.3917 -0.252 0.1601, 0.3957 -0.252 0.1623, 0.3917 -0.252 0.1623, 0.3957 -0.2587 0.1623, 0.3917 -0.2587 0.1623, 0.3957 -0.2587 0.1682, 0.3917 -0.2587 0.1682, 0.3957 -0.2515 0.1682, 0.3917 -0.2515 0.1682, 0.3957 -0.2515 0.1704, 0.3917 -0.2515 0.1704, 0.3957 -0.2611 0.1704, 0.3917 -0.2611 0.1704, 0.3957 -0.2611 0.1517, 0.3917 -0.2611 0.1517, 0.3957 -0.2405 0.1538, 0.3957 -0.2405 0.1538, 0.3957 -0.2406 0.1559, 0.3957 -0.2405 0.157, 0.3957 -0.2381 0.1603, 0.3957 -0.2405 0.1571, 0.3957 -0.2405 0.1584, 0.3957 -0.2405 0.1517, 0.3957 -0.2381 0.1517, 0.3957 -0.2465 0.1558, 0.3957 -0.2463 0.1564, 0.3957 -0.2484 0.1574, 0.3957 -0.241 0.1551, 0.3957 -0.2415 0.1544, 0.3957 -0.2409 0.1532, 0.3957 -0.2418 0.1541, 0.3957 -0.2416 0.1524, 0.3957 -0.2424 0.1537, 0.3957 -0.2425 0.1519, 0.3957 -0.2431 0.1534, 0.3957 -0.2434 0.1515, 0.3957 -0.244 0.1533, 0.3957 -0.2446 0.1514, 0.3957 -0.2448 0.1534, 0.3957 -0.246 0.1516, 0.3957 -0.2453 0.1536, 0.3957 -0.2469 0.1519, 0.3957 -0.2458 0.1539, 0.3957 -0.2477 0.1524, 0.3957 -0.246 0.1541, 0.3957 -0.2479 0.1581, 0.3957 -0.2461 0.1568, 0.3957 -0.2471 0.1587, 0.3957 -0.2459 0.1572, 0.3957 -0.2461 0.1592, 0.3957 -0.2456 0.1574, 0.3957 -0.245 0.1576, 0.3957 -0.2444 0.1596, 0.3957 -0.2436 0.158, 0.3957 -0.2405 0.1602, 0.3957 -0.2487 0.1566, 0.3957 -0.2488 0.1556, 0.3957 -0.2465 0.1555, 0.3957 -0.2488 0.1553, 0.3957 -0.2464 0.1549, 0.3957 -0.2487 0.1542, 0.3957 -0.2463 0.1545, 0.3957 -0.2484 0.1534, 0.3957 -0.248 0.1527, 0.3957 -0.2475 0.1641, 0.3957 -0.2475 0.1618, 0.3957 -0.2471 0.1644, 0.3957 -0.2462 0.1627, 0.3957 -0.2453 0.1651, 0.3957 -0.2447 0.1633, 0.3957 -0.2429 0.1654, 0.3957 -0.2432 0.1635, 0.3957 -0.2415 0.1652, 0.3957 -0.2424 0.1634, 0.3957 -0.2405 0.1649, 0.3957 -0.2418 0.1632, 0.3957 -0.2398 0.1645, 0.3957 -0.2414 0.1629, 0.3957 -0.2391 0.1639, 0.3957 -0.2411 0.1625, 0.3957 -0.2387 0.1631, 0.3957 -0.2408 0.1621, 0.3957 -0.2383 0.162, 0.3957 -0.2405 0.1612, 0.3917 -0.2429 0.1654, 0.3917 -0.2453 0.1651, 0.3917 -0.2471 0.1644, 0.3917 -0.2475 0.1641, 0.3917 -0.2475 0.1618, 0.3917 -0.2462 0.1627, 0.3917 -0.2447 0.1633, 0.3917 -0.2432 0.1635, 0.3917 -0.2424 0.1634, 0.3917 -0.2418 0.1632, 0.3917 -0.2414 0.1629, 0.3917 -0.2411 0.1625, 0.3917 -0.2408 0.1621, 0.3917 -0.2405 0.1612, 0.3917 -0.2405 0.1602, 0.3917 -0.2444 0.1596, 0.3917 -0.2461 0.1592, 0.3917 -0.2471 0.1587, 0.3917 -0.2479 0.1581, 0.3917 -0.2484 0.1574, 0.3917 -0.2487 0.1566, 0.3917 -0.2488 0.1556, 0.3917 -0.2488 0.1553, 0.3917 -0.2487 0.1542, 0.3917 -0.2484 0.1534, 0.3917 -0.248 0.1527, 0.3917 -0.2477 0.1524, 0.3917 -0.2446 0.1514, 0.3917 -0.246 0.1515, 0.3917 -0.246 0.1516, 0.3917 -0.2469 0.1519, 0.3917 -0.2434 0.1515, 0.3917 -0.2433 0.1515, 0.3917 -0.2425 0.1519, 0.3917 -0.2416 0.1524, 0.3917 -0.2409 0.1532, 0.3917 -0.2405 0.1538, 0.3917 -0.2405 0.1538, 0.3917 -0.2405 0.1517, 0.3917 -0.2381 0.1517, 0.3917 -0.2381 0.1603, 0.3917 -0.2383 0.162, 0.3917 -0.2387 0.1631, 0.3917 -0.2391 0.1639, 0.3917 -0.2398 0.1645, 0.3917 -0.2405 0.1649, 0.3917 -0.2415 0.1652, 0.3917 -0.2459 0.1572, 0.3917 -0.2456 0.1574, 0.3917 -0.245 0.1576, 0.3917 -0.2436 0.158, 0.3917 -0.2465 0.1555, 0.3917 -0.2465 0.1558, 0.3917 -0.2463 0.1564, 0.3917 -0.2461 0.1568, 0.3917 -0.2458 0.1539, 0.3917 -0.246 0.1541, 0.3917 -0.2463 0.1545, 0.3917 -0.2464 0.1549, 0.3917 -0.244 0.1533, 0.3917 -0.2448 0.1534, 0.3917 -0.2453 0.1536, 0.3917 -0.2415 0.1544, 0.3917 -0.2418 0.1541, 0.3917 -0.2424 0.1537, 0.3917 -0.2431 0.1534, 0.3917 -0.2405 0.1571, 0.3917 -0.2405 0.157, 0.3917 -0.2406 0.1559, 0.3917 -0.241 0.1551, 0.3917 -0.2405 0.1584
            ]
        }
        coordIndex [
            0,1,2,-1,2,1,3,-1,4,0,5,-1,5,0,2,-1,6,4,7,-1,7,4,5,-1,8,6,9,-1,9,6,7,-1,10,8,11,-1,11,8,9,-1,12,10,13,-1,13,10,11,-1,14,12,15,-1,15,12,13,-1,16,14,17,-1,17,14,15,-1,18,16,19,-1,19,16,17,-1,20,18,21,-1,21,18,19,-1,22,20,23,-1,23,20,21,-1,1,22,3,-1,3,22,23,-1,16,18,14,-1,14,18,20,-1,14,20,12,-1,1,0,22,-1,22,0,4,-1,22,4,6,-1,8,10,6,-1,6,10,12,-1,6,12,22,-1,22,12,20,-1,24,25,26,-1,27,28,29,-1,29,28,30,-1,31,32,25,-1,25,32,28,-1,25,28,26,-1,26,28,27,-1,33,34,35,-1,26,36,24,-1,24,36,37,-1,24,37,38,-1,38,37,39,-1,38,39,40,-1,40,39,41,-1,40,41,42,-1,42,41,43,-1,42,43,44,-1,44,43,45,-1,44,45,46,-1,46,45,47,-1,46,47,48,-1,48,47,49,-1,48,49,50,-1,50,49,51,-1,50,51,52,-1,52,51,53,-1,35,34,54,-1,54,34,55,-1,54,55,56,-1,56,55,57,-1,56,57,58,-1,57,59,58,-1,58,59,60,-1,58,60,61,-1,61,60,62,-1,61,62,63,-1,35,64,33,-1,33,64,65,-1,33,65,66,-1,66,65,67,-1,66,67,68,-1,68,67,69,-1,68,69,70,-1,70,69,71,-1,70,71,53,-1,53,71,72,-1,53,72,52,-1,73,74,75,-1,75,74,76,-1,75,76,77,-1,77,76,78,-1,77,78,79,-1,79,78,80,-1,79,80,81,-1,81,80,82,-1,81,82,83,-1,83,82,84,-1,83,84,85,-1,85,84,86,-1,85,86,87,-1,87,86,88,-1,87,88,89,-1,89,88,90,-1,89,90,91,-1,91,90,92,-1,91,92,28,-1,28,92,63,-1,28,63,30,-1,30,63,62,-1,79,93,94,-1,79,94,77,-1,77,94,95,-1,77,95,75,-1,75,95,96,-1,75,96,73,-1,74,73,97,-1,97,73,96,-1,74,97,98,-1,74,98,76,-1,76,98,99,-1,76,99,78,-1,78,99,100,-1,78,100,80,-1,80,100,101,-1,80,101,82,-1,82,101,102,-1,82,102,84,-1,84,102,103,-1,84,103,86,-1,86,103,104,-1,86,104,88,-1,88,104,105,-1,88,105,90,-1,90,105,106,-1,90,106,92,-1,92,106,107,-1,92,107,63,-1,61,63,108,-1,108,63,107,-1,61,108,109,-1,61,109,58,-1,58,109,110,-1,58,110,56,-1,56,110,111,-1,56,111,54,-1,54,111,112,-1,54,112,35,-1,35,112,113,-1,35,113,64,-1,64,113,114,-1,64,114,65,-1,65,114,115,-1,65,115,67,-1,67,115,116,-1,67,116,69,-1,69,116,117,-1,69,117,71,-1,71,117,118,-1,71,118,72,-1,72,118,119,-1,72,119,52,-1,120,46,121,-1,121,46,48,-1,121,48,122,-1,122,48,50,-1,122,50,123,-1,123,50,52,-1,123,52,119,-1,46,120,124,-1,46,124,44,-1,44,124,125,-1,44,125,42,-1,125,126,42,-1,42,126,127,-1,42,127,40,-1,40,127,128,-1,40,128,38,-1,38,128,129,-1,38,129,24,-1,25,24,130,-1,130,24,129,-1,31,25,131,-1,131,25,130,-1,32,31,132,-1,132,31,131,-1,28,32,133,-1,133,32,132,-1,28,133,134,-1,28,134,91,-1,91,134,135,-1,91,135,89,-1,89,135,136,-1,89,136,87,-1,87,136,137,-1,87,137,85,-1,85,137,138,-1,85,138,83,-1,83,138,139,-1,83,139,81,-1,81,139,93,-1,81,93,79,-1,57,140,141,-1,57,141,59,-1,59,141,142,-1,59,142,60,-1,60,142,143,-1,60,143,62,-1,66,144,145,-1,66,145,33,-1,33,145,146,-1,33,146,34,-1,34,146,147,-1,34,147,55,-1,55,147,140,-1,55,140,57,-1,51,148,149,-1,51,149,53,-1,53,149,150,-1,53,150,70,-1,70,150,151,-1,70,151,68,-1,68,151,144,-1,68,144,66,-1,45,152,153,-1,45,153,47,-1,47,153,154,-1,47,154,49,-1,49,154,148,-1,49,148,51,-1,37,155,156,-1,37,156,39,-1,39,156,157,-1,39,157,41,-1,41,157,158,-1,41,158,43,-1,43,158,152,-1,43,152,45,-1,29,159,160,-1,29,160,27,-1,27,160,161,-1,27,161,26,-1,26,161,162,-1,26,162,36,-1,36,162,155,-1,36,155,37,-1,29,30,159,-1,159,30,163,-1,30,62,163,-1,163,62,143,-1,
        ]
    }
}
Shape{
    appearance Appearance {
        material  Material 	{
            diffuseColor 0.25098039215686274 0.25098039215686274 0.25098039215686274
            specularColor 0.12549019607843137 0.12549019607843137 0.12549019607843137
            ambientIntensity 0.251
            transparency 0.0
            shininess 0.5
        }
    }
    geometry IndexedFaceSet {
        ccw TRUE
        solid FALSE
        coord DEF co Coordinate {
            point [
                0.3917 -0.2405 0.157, 0.3917 -0.2405 0.1571, 0.3917 -0.2459 0.1572, 0.3917 -0.2405 0.1584, 0.3917 -0.2436 0.158, 0.3917 -0.245 0.1576, 0.3917 -0.2456 0.1574, 0.3917 -0.2406 0.1559, 0.3917 -0.2461 0.1568, 0.3917 -0.241 0.1551, 0.3917 -0.246 0.1541, 0.3917 -0.2458 0.1539, 0.3917 -0.2418 0.1541, 0.3917 -0.2463 0.1545, 0.3917 -0.2424 0.1537, 0.3917 -0.2431 0.1534, 0.3917 -0.244 0.1533, 0.3917 -0.2463 0.1564, 0.3917 -0.2465 0.1558, 0.3917 -0.2415 0.1544, 0.3917 -0.2465 0.1555, 0.3917 -0.2464 0.1549, 0.3917 -0.2453 0.1536, 0.3917 -0.2448 0.1534
            ]
        }
        coordIndex [
            0,1,2,-1,1,3,4,-1,4,5,1,-1,1,5,6,-1,1,6,2,-1,0,2,7,-1,7,2,8,-1,7,8,9,-1,10,11,12,-1,10,12,13,-1,14,12,15,-1,15,12,16,-1,8,17,9,-1,9,17,18,-1,9,18,19,-1,19,18,20,-1,19,20,12,-1,12,20,21,-1,12,21,13,-1,11,22,12,-1,12,22,23,-1,12,23,16,-1,
        ]
    }
}
Shape{
    appearance Appearance {
        material  Material 	{
            diffuseColor 1.0 1.0 1.0
            specularColor 0.5019607843137255 0.5019607843137255 0.5019607843137255
            ambientIntensity 1.0
            transparency 0.0
            shininess 0.5
        }
    }
    geometry IndexedFaceSet {
        ccw TRUE
        solid FALSE
        coord DEF co Coordinate {
            point [
                0.3917 -0.235 0.1546, 0.3957 -0.235 0.1546, 0.3957 -0.234 0.154, 0.3957 -0.2311 0.1533, 0.3917 -0.2311 0.1533, 0.3917 -0.2326 0.1535, 0.3957 -0.2326 0.1535, 0.3917 -0.2339 0.154, 0.3917 -0.234 0.154, 0.3957 -0.235 0.1522, 0.3917 -0.235 0.1522, 0.3917 -0.2339 0.1518, 0.3957 -0.2335 0.1516, 0.3917 -0.2313 0.1514, 0.3957 -0.2313 0.1514, 0.3917 -0.2327 0.1515, 0.3917 -0.2335 0.1516, 0.3917 -0.23 0.1515, 0.3957 -0.2292 0.1516, 0.3917 -0.2292 0.1516, 0.3917 -0.228 0.1521, 0.3957 -0.228 0.1521, 0.3917 -0.2274 0.1525, 0.3957 -0.2274 0.1525, 0.3917 -0.2268 0.153, 0.3957 -0.2268 0.153, 0.3917 -0.2263 0.1537, 0.3957 -0.2263 0.1537, 0.3917 -0.2261 0.1544, 0.3957 -0.2261 0.1544, 0.3917 -0.2259 0.1553, 0.3957 -0.2259 0.1553, 0.3917 -0.226 0.1562, 0.3957 -0.226 0.1562, 0.3917 -0.2263 0.1569, 0.3957 -0.2263 0.1569, 0.3917 -0.2267 0.1575, 0.3957 -0.2267 0.1575, 0.3917 -0.2273 0.158, 0.3957 -0.2273 0.158, 0.3917 -0.2288 0.1589, 0.3957 -0.2288 0.1589, 0.3917 -0.2297 0.1593, 0.3957 -0.2297 0.1593, 0.3917 -0.2312 0.1599, 0.3957 -0.2312 0.1599, 0.3917 -0.232 0.1604, 0.3957 -0.232 0.1604, 0.3917 -0.2322 0.1607, 0.3957 -0.2322 0.1607, 0.3917 -0.2324 0.161, 0.3957 -0.2324 0.161, 0.3917 -0.2325 0.1613, 0.3957 -0.2325 0.1613, 0.3917 -0.2325 0.1617, 0.3957 -0.2325 0.1617, 0.3917 -0.2325 0.162, 0.3957 -0.2325 0.162, 0.3917 -0.2324 0.1623, 0.3957 -0.2324 0.1623, 0.3917 -0.2322 0.1626, 0.3957 -0.2322 0.1626, 0.3917 -0.2318 0.163, 0.3957 -0.2318 0.163, 0.3917 -0.2313 0.1632, 0.3957 -0.2313 0.1632, 0.3917 -0.2307 0.1634, 0.3957 -0.2307 0.1634, 0.3917 -0.23 0.1635, 0.3957 -0.23 0.1635, 0.3917 -0.2285 0.1633, 0.3957 -0.2285 0.1633, 0.3917 -0.2271 0.1628, 0.3957 -0.2271 0.1628, 0.3917 -0.2266 0.1625, 0.3957 -0.2266 0.1625, 0.3957 -0.2266 0.1648, 0.3917 -0.2266 0.1648, 0.3917 -0.2281 0.1652, 0.3957 -0.2281 0.1652, 0.3917 -0.2297 0.1654, 0.3957 -0.2297 0.1654, 0.3917 -0.2314 0.1652, 0.3957 -0.2314 0.1652, 0.3917 -0.2327 0.1647, 0.3957 -0.2327 0.1647, 0.3917 -0.2334 0.1643, 0.3957 -0.2334 0.1643, 0.3917 -0.2339 0.1639, 0.3957 -0.2341 0.1637, 0.3917 -0.2341 0.1637, 0.3917 -0.2346 0.163, 0.3957 -0.2346 0.163, 0.3917 -0.2348 0.1623, 0.3957 -0.2348 0.1623, 0.3917 -0.2349 0.1614, 0.3957 -0.2349 0.1614, 0.3917 -0.2348 0.1605, 0.3957 -0.2348 0.1605, 0.3917 -0.2346 0.1598, 0.3957 -0.2346 0.1598, 0.3917 -0.2343 0.1593, 0.3957 -0.2343 0.1593, 0.3917 -0.2314 0.1576, 0.3957 -0.2314 0.1576, 0.3957 -0.2328 0.1582, 0.3917 -0.2339 0.1589, 0.3957 -0.2339 0.1589, 0.3917 -0.2339 0.1589, 0.3917 -0.2328 0.1582, 0.3917 -0.2299 0.1569, 0.3957 -0.2299 0.1569, 0.3917 -0.2289 0.1564, 0.3957 -0.2289 0.1564, 0.3917 -0.2287 0.1561, 0.3957 -0.2287 0.1561, 0.3917 -0.2285 0.1558, 0.3957 -0.2285 0.1558, 0.3917 -0.2284 0.1554, 0.3957 -0.2284 0.1554, 0.3917 -0.2283 0.1551, 0.3957 -0.2283 0.1551, 0.3917 -0.2284 0.1547, 0.3957 -0.2284 0.1547, 0.3917 -0.2285 0.1543, 0.3957 -0.2285 0.1543, 0.3917 -0.2287 0.154, 0.3957 -0.2287 0.154, 0.3917 -0.229 0.1538, 0.3957 -0.229 0.1538, 0.3917 -0.2292 0.1537, 0.3957 -0.2292 0.1537, 0.3917 -0.2298 0.1534, 0.3957 -0.2298 0.1534, 0.3917 -0.231 0.1533, 0.3957 -0.231 0.1533, 0.3957 -0.2143 0.1651, 0.3957 -0.2119 0.1651, 0.3917 -0.2143 0.1651, 0.3917 -0.2119 0.1651, 0.3957 -0.218 0.155, 0.3917 -0.218 0.155, 0.3917 -0.2182 0.1544, 0.3957 -0.2182 0.1544, 0.3917 -0.2183 0.1539, 0.3957 -0.2183 0.1539, 0.3957 -0.2183 0.1539, 0.3917 -0.2183 0.1539, 0.3957 -0.2186 0.155, 0.3917 -0.2186 0.155, 0.3957 -0.2221 0.1651, 0.3917 -0.221 0.1618, 0.3917 -0.2221 0.1651, 0.3957 -0.2247 0.1651, 0.3917 -0.2247 0.1651, 0.3957 -0.2195 0.1517, 0.3917 -0.221 0.1555, 0.3917 -0.2195 0.1517, 0.3917 -0.2205 0.1493, 0.3957 -0.2205 0.1493, 0.3917 -0.2196 0.1515, 0.3917 -0.221 0.1485, 0.3957 -0.221 0.1485, 0.3917 -0.2214 0.148, 0.3957 -0.2214 0.148, 0.3917 -0.2218 0.1477, 0.3957 -0.2218 0.1477, 0.3917 -0.2223 0.1475, 0.3957 -0.2223 0.1475, 0.3917 -0.2229 0.1474, 0.3957 -0.2229 0.1474, 0.3917 -0.2238 0.1475, 0.3957 -0.2238 0.1475, 0.3917 -0.2242 0.1477, 0.3957 -0.2242 0.1477, 0.3957 -0.2242 0.1456, 0.3917 -0.2242 0.1456, 0.3917 -0.2233 0.1454, 0.3957 -0.2233 0.1454, 0.3917 -0.2227 0.1454, 0.3957 -0.2227 0.1454, 0.3917 -0.2218 0.1455, 0.3957 -0.2218 0.1455, 0.3917 -0.221 0.1458, 0.3957 -0.2209 0.1459, 0.3917 -0.2209 0.1459, 0.3917 -0.22 0.1465, 0.3957 -0.22 0.1465, 0.3917 -0.2199 0.1466, 0.3957 -0.2199 0.1466, 0.3917 -0.219 0.1476, 0.3957 -0.219 0.1476, 0.3917 -0.218 0.1497, 0.3957 -0.218 0.1497, 0.3917 -0.2172 0.1515, 0.3957 -0.1993 0.1538, 0.3957 -0.1993 0.1517, 0.3917 -0.1993 0.1538, 0.3917 -0.1993 0.1517, 0.3957 -0.207 0.1538, 0.3917 -0.2035 0.1538, 0.3917 -0.207 0.1538, 0.3957 -0.207 0.1601, 0.3917 -0.207 0.1601, 0.3957 -0.2003 0.1601, 0.3917 -0.2035 0.1601, 0.3917 -0.2003 0.1601, 0.3957 -0.2003 0.1623, 0.3917 -0.2003 0.1623, 0.3917 -0.207 0.1623, 0.3957 -0.207 0.1623, 0.3917 -0.2035 0.1623, 0.3957 -0.207 0.1682, 0.3917 -0.207 0.1682, 0.3917 -0.1998 0.1682, 0.3957 -0.1998 0.1682, 0.3917 -0.2035 0.1682, 0.3957 -0.1998 0.1704, 0.3917 -0.1998 0.1704, 0.3917 -0.2094 0.1704, 0.3957 -0.2094 0.1704, 0.3917 -0.2035 0.1704, 0.3957 -0.2094 0.1517, 0.3917 -0.2094 0.1517, 0.3917 -0.2035 0.1517, 0.3957 -0.1834 0.1543, 0.3957 -0.1854 0.1556, 0.3957 -0.1854 0.1529, 0.3957 -0.1866 0.1547, 0.3957 -0.1875 0.1521, 0.3957 -0.1881 0.1541, 0.3957 -0.1907 0.1517, 0.3957 -0.1907 0.1538, 0.3957 -0.1958 0.1517, 0.3957 -0.1934 0.1538, 0.3957 -0.1958 0.1704, 0.3957 -0.1934 0.1682, 0.3957 -0.1905 0.1704, 0.3957 -0.1906 0.1682, 0.3957 -0.1904 0.1682, 0.3957 -0.1876 0.1701, 0.3957 -0.188 0.1679, 0.3957 -0.1854 0.1693, 0.3957 -0.1864 0.1673, 0.3957 -0.1834 0.1679, 0.3957 -0.1852 0.1665, 0.3957 -0.1828 0.1673, 0.3957 -0.1847 0.166, 0.3957 -0.1816 0.1656, 0.3957 -0.1839 0.1649, 0.3957 -0.1809 0.1639, 0.3957 -0.1834 0.1636, 0.3957 -0.1806 0.1613, 0.3957 -0.1831 0.1612, 0.3957 -0.1807 0.1601, 0.3957 -0.1832 0.16, 0.3957 -0.1811 0.1579, 0.3957 -0.1836 0.1583, 0.3957 -0.182 0.156, 0.3957 -0.1842 0.1569, 0.3957 -0.1851 0.1558, 0.3917 -0.1907 0.1517, 0.3917 -0.1958 0.1517, 0.3917 -0.1875 0.1521, 0.3917 -0.1854 0.1529, 0.3917 -0.1834 0.1543, 0.3917 -0.182 0.156, 0.3917 -0.1811 0.1579, 0.3917 -0.1807 0.1601, 0.3917 -0.1806 0.1613, 0.3917 -0.1809 0.1639, 0.3917 -0.1816 0.1656, 0.3917 -0.1828 0.1673, 0.3917 -0.1834 0.1679, 0.3917 -0.1854 0.1693, 0.3917 -0.1876 0.1701, 0.3917 -0.1905 0.1704, 0.3917 -0.1958 0.1704, 0.3917 -0.1906 0.1682, 0.3917 -0.1934 0.1682, 0.3917 -0.1934 0.1538, 0.3917 -0.1907 0.1538, 0.3917 -0.1851 0.1558, 0.3917 -0.1854 0.1556, 0.3917 -0.1866 0.1547, 0.3917 -0.1881 0.1541, 0.3917 -0.1831 0.1612, 0.3917 -0.1832 0.16, 0.3917 -0.1836 0.1583, 0.3917 -0.1842 0.1569, 0.3917 -0.1852 0.1665, 0.3917 -0.1847 0.166, 0.3917 -0.1839 0.1649, 0.3917 -0.1834 0.1636, 0.3917 -0.1904 0.1682, 0.3917 -0.188 0.1679, 0.3917 -0.1864 0.1673
            ]
        }
        coordIndex [
            0,1,2,-1,3,4,5,-1,3,5,6,-1,6,5,7,-1,6,7,2,-1,2,7,8,-1,2,8,0,-1,9,1,10,-1,10,1,0,-1,10,11,9,-1,9,11,12,-1,13,14,15,-1,15,14,12,-1,15,12,16,-1,16,12,11,-1,13,17,14,-1,14,17,18,-1,17,19,18,-1,18,19,20,-1,18,20,21,-1,21,20,22,-1,21,22,23,-1,23,22,24,-1,23,24,25,-1,25,24,26,-1,25,26,27,-1,27,26,28,-1,27,28,29,-1,29,28,30,-1,29,30,31,-1,31,30,32,-1,31,32,33,-1,33,32,34,-1,33,34,35,-1,35,34,36,-1,35,36,37,-1,37,36,38,-1,37,38,39,-1,39,38,40,-1,39,40,41,-1,41,40,42,-1,41,42,43,-1,43,42,44,-1,43,44,45,-1,45,44,46,-1,45,46,47,-1,47,46,48,-1,47,48,49,-1,49,48,50,-1,49,50,51,-1,51,50,52,-1,51,52,53,-1,53,52,54,-1,53,54,55,-1,55,54,56,-1,55,56,57,-1,57,56,58,-1,57,58,59,-1,59,58,60,-1,59,60,61,-1,61,60,62,-1,61,62,63,-1,63,62,64,-1,63,64,65,-1,65,64,66,-1,65,66,67,-1,67,66,68,-1,67,68,69,-1,69,68,70,-1,69,70,71,-1,71,70,72,-1,71,72,73,-1,73,72,74,-1,73,74,75,-1,76,75,77,-1,77,75,74,-1,76,77,78,-1,76,78,79,-1,79,78,80,-1,79,80,81,-1,81,80,82,-1,81,82,83,-1,83,82,84,-1,83,84,85,-1,85,84,86,-1,85,86,87,-1,86,88,87,-1,87,88,89,-1,88,90,89,-1,89,90,91,-1,89,91,92,-1,92,91,93,-1,92,93,94,-1,94,93,95,-1,94,95,96,-1,96,95,97,-1,96,97,98,-1,98,97,99,-1,98,99,100,-1,100,99,101,-1,100,101,102,-1,103,104,105,-1,102,101,106,-1,102,106,107,-1,107,106,108,-1,107,108,105,-1,105,108,109,-1,105,109,103,-1,104,103,110,-1,104,110,111,-1,111,110,112,-1,111,112,113,-1,113,112,114,-1,113,114,115,-1,115,114,116,-1,115,116,117,-1,117,116,118,-1,117,118,119,-1,119,118,120,-1,119,120,121,-1,121,120,122,-1,121,122,123,-1,123,122,124,-1,123,124,125,-1,125,124,126,-1,125,126,127,-1,127,126,128,-1,127,128,129,-1,129,128,130,-1,129,130,131,-1,131,130,132,-1,131,132,133,-1,133,132,134,-1,133,134,135,-1,135,134,4,-1,135,4,3,-1,61,63,85,-1,85,63,83,-1,111,43,104,-1,104,43,45,-1,21,23,127,-1,127,23,25,-1,127,25,125,-1,125,25,27,-1,125,27,123,-1,123,27,29,-1,123,29,121,-1,121,29,31,-1,121,31,119,-1,119,31,33,-1,119,33,117,-1,117,33,35,-1,117,35,115,-1,115,35,37,-1,115,37,113,-1,113,37,39,-1,113,39,111,-1,111,39,41,-1,111,41,43,-1,14,3,12,-1,12,3,6,-1,12,6,9,-1,9,6,2,-1,9,2,1,-1,63,65,83,-1,83,65,67,-1,83,67,81,-1,81,67,69,-1,81,69,79,-1,79,69,71,-1,79,71,76,-1,76,71,73,-1,76,73,75,-1,127,129,21,-1,21,129,131,-1,21,131,18,-1,18,131,133,-1,18,133,14,-1,14,133,135,-1,14,135,3,-1,85,87,61,-1,61,87,89,-1,61,89,59,-1,59,89,92,-1,59,92,57,-1,57,92,94,-1,57,94,55,-1,55,94,96,-1,55,96,53,-1,53,96,98,-1,53,98,51,-1,51,98,100,-1,51,100,49,-1,49,100,102,-1,49,102,47,-1,47,102,107,-1,47,107,45,-1,45,107,105,-1,45,105,104,-1,136,137,138,-1,138,137,139,-1,140,136,141,-1,141,136,138,-1,140,141,142,-1,140,142,143,-1,143,142,144,-1,143,144,145,-1,146,145,147,-1,147,145,144,-1,148,146,149,-1,149,146,147,-1,148,149,150,-1,150,149,151,-1,150,151,152,-1,153,150,154,-1,154,150,152,-1,153,154,155,-1,155,154,156,-1,155,156,157,-1,158,159,160,-1,160,159,155,-1,160,155,157,-1,159,158,161,-1,159,161,162,-1,162,161,163,-1,162,163,164,-1,164,163,165,-1,164,165,166,-1,166,165,167,-1,166,167,168,-1,168,167,169,-1,168,169,170,-1,170,169,171,-1,170,171,172,-1,172,171,173,-1,172,173,174,-1,175,174,176,-1,176,174,173,-1,175,176,177,-1,175,177,178,-1,178,177,179,-1,178,179,180,-1,180,179,181,-1,180,181,182,-1,182,181,183,-1,182,183,184,-1,183,185,184,-1,184,185,186,-1,184,186,187,-1,187,186,188,-1,187,188,189,-1,189,188,190,-1,189,190,191,-1,191,190,192,-1,191,192,193,-1,139,137,194,-1,194,137,193,-1,194,193,192,-1,143,145,193,-1,137,136,193,-1,193,136,140,-1,193,140,143,-1,150,153,148,-1,148,153,155,-1,148,155,146,-1,174,175,172,-1,172,175,178,-1,172,178,170,-1,170,178,180,-1,170,180,168,-1,168,180,182,-1,168,182,166,-1,166,182,184,-1,166,184,164,-1,145,146,193,-1,193,146,155,-1,193,155,191,-1,155,159,191,-1,191,159,162,-1,191,162,189,-1,189,162,164,-1,189,164,187,-1,187,164,184,-1,195,196,197,-1,197,196,198,-1,195,197,199,-1,199,197,200,-1,199,200,201,-1,202,199,203,-1,203,199,201,-1,202,203,204,-1,204,203,205,-1,204,205,206,-1,207,204,208,-1,208,204,206,-1,209,210,211,-1,211,210,207,-1,211,207,208,-1,212,210,213,-1,213,210,209,-1,214,215,216,-1,216,215,212,-1,216,212,213,-1,217,215,218,-1,218,215,214,-1,219,220,221,-1,221,220,217,-1,221,217,218,-1,222,220,223,-1,223,220,219,-1,222,223,196,-1,196,223,224,-1,196,224,198,-1,204,207,202,-1,202,207,210,-1,196,195,222,-1,222,195,199,-1,215,217,212,-1,212,217,220,-1,212,220,210,-1,210,220,222,-1,210,222,202,-1,202,222,199,-1,225,226,227,-1,227,226,228,-1,227,228,229,-1,229,228,230,-1,229,230,231,-1,231,230,232,-1,231,232,233,-1,233,232,234,-1,233,234,235,-1,235,234,236,-1,235,236,237,-1,236,238,237,-1,237,238,239,-1,237,239,240,-1,240,239,241,-1,240,241,242,-1,242,241,243,-1,242,243,244,-1,244,243,245,-1,244,245,246,-1,246,245,247,-1,246,247,248,-1,248,247,249,-1,248,249,250,-1,250,249,251,-1,250,251,252,-1,252,251,253,-1,252,253,254,-1,254,253,255,-1,254,255,256,-1,256,255,257,-1,256,257,258,-1,258,257,259,-1,258,259,225,-1,225,259,260,-1,225,260,226,-1,231,233,261,-1,261,233,262,-1,231,261,263,-1,231,263,229,-1,229,263,264,-1,229,264,227,-1,227,264,265,-1,227,265,225,-1,225,265,266,-1,225,266,258,-1,258,266,267,-1,258,267,256,-1,256,267,268,-1,256,268,254,-1,254,268,269,-1,254,269,252,-1,252,269,270,-1,252,270,250,-1,250,270,271,-1,250,271,248,-1,248,271,272,-1,248,272,246,-1,246,272,273,-1,246,273,244,-1,244,273,274,-1,244,274,242,-1,242,274,275,-1,242,275,240,-1,240,275,276,-1,240,276,237,-1,235,237,277,-1,277,237,276,-1,233,235,262,-1,262,235,277,-1,238,236,278,-1,278,236,279,-1,236,234,279,-1,279,234,280,-1,234,232,280,-1,280,232,281,-1,260,282,283,-1,260,283,226,-1,226,283,284,-1,226,284,228,-1,228,284,285,-1,228,285,230,-1,230,285,281,-1,230,281,232,-1,253,286,287,-1,253,287,255,-1,255,287,288,-1,255,288,257,-1,257,288,289,-1,257,289,259,-1,259,289,282,-1,259,282,260,-1,245,290,291,-1,245,291,247,-1,247,291,292,-1,247,292,249,-1,249,292,293,-1,249,293,251,-1,251,293,286,-1,251,286,253,-1,238,278,294,-1,238,294,239,-1,239,294,295,-1,239,295,241,-1,241,295,296,-1,241,296,243,-1,243,296,290,-1,243,290,245,-1,
        ]
    }
}
Shape{
    appearance Appearance {
        material  Material 	{
            diffuseColor 0.25098039215686274 0.25098039215686274 0.25098039215686274
            specularColor 0.12549019607843137 0.12549019607843137 0.12549019607843137
            ambientIntensity 0.251
            transparency 0.0
            shininess 0.5
        }
    }
    geometry IndexedFaceSet {
        ccw TRUE
        solid FALSE
        coord DEF co Coordinate {
            point [
                0.3917 -0.1866 0.1547, 0.3917 -0.1854 0.1556, 0.3917 -0.1904 0.1682, 0.3917 -0.1934 0.1682, 0.3917 -0.1934 0.1538, 0.3917 -0.1906 0.1682, 0.3917 -0.1907 0.1538, 0.3917 -0.1881 0.1541, 0.3917 -0.1851 0.1558, 0.3917 -0.1842 0.1569, 0.3917 -0.1836 0.1583, 0.3917 -0.1831 0.1612, 0.3917 -0.1852 0.1665, 0.3917 -0.1864 0.1673, 0.3917 -0.1834 0.1636, 0.3917 -0.1839 0.1649, 0.3917 -0.1847 0.166, 0.3917 -0.1832 0.16, 0.3917 -0.188 0.1679
            ]
        }
        coordIndex [
            0,1,2,-1,3,4,5,-1,5,4,6,-1,5,6,2,-1,2,6,7,-1,2,7,0,-1,1,8,2,-1,2,8,9,-1,2,9,10,-1,11,12,13,-1,14,15,11,-1,11,15,16,-1,11,16,12,-1,10,17,2,-1,2,17,11,-1,2,11,18,-1,18,11,13,-1,
        ]
    }
}
Shape{
    appearance Appearance {
        material  Material 	{
            diffuseColor 1.0 1.0 1.0
            specularColor 0.5019607843137255 0.5019607843137255 0.5019607843137255
            ambientIntensity 1.0
            transparency 0.0
            shininess 0.5
        }
    }
    geometry IndexedFaceSet {
        ccw TRUE
        solid FALSE
        coord DEF co Coordinate {
            point [
                0.3957 -0.1743 0.1589, 0.3957 -0.1751 0.1568, 0.3957 -0.1681 0.1589, 0.3957 -0.1673 0.1568, 0.3957 -0.1716 0.1667, 0.3957 -0.1725 0.1704, 0.3957 -0.1796 0.1517, 0.3957 -0.1769 0.1517, 0.3957 -0.1714 0.1673, 0.3957 -0.1712 0.168, 0.3957 -0.1699 0.1704, 0.3957 -0.1712 0.168, 0.3957 -0.171 0.1672, 0.3957 -0.1709 0.1667, 0.3957 -0.1628 0.1517, 0.3957 -0.1654 0.1517, 0.3917 -0.1699 0.1704, 0.3917 -0.1628 0.1517, 0.3917 -0.1725 0.1704, 0.3917 -0.1796 0.1517, 0.3917 -0.1769 0.1517, 0.3917 -0.1751 0.1568, 0.3917 -0.1673 0.1568, 0.3917 -0.1654 0.1517, 0.3917 -0.1743 0.1589, 0.3917 -0.1681 0.1589, 0.3917 -0.1709 0.1667, 0.3917 -0.1712 0.168, 0.3917 -0.171 0.1672, 0.3917 -0.1712 0.168, 0.3917 -0.1716 0.1667, 0.3917 -0.1714 0.1673
            ]
        }
        coordIndex [
            0,1,2,-1,2,1,3,-1,4,5,0,-1,0,5,6,-1,0,6,1,-1,1,6,7,-1,4,8,5,-1,5,8,9,-1,5,9,10,-1,10,9,11,-1,10,11,12,-1,12,13,10,-1,10,13,2,-1,10,2,14,-1,14,2,3,-1,14,3,15,-1,10,14,16,-1,16,14,17,-1,5,10,18,-1,18,10,16,-1,6,5,19,-1,19,5,18,-1,7,6,20,-1,20,6,19,-1,1,7,21,-1,21,7,20,-1,3,1,22,-1,22,1,21,-1,15,3,23,-1,23,3,22,-1,14,15,17,-1,17,15,23,-1,0,2,24,-1,24,2,25,-1,2,13,25,-1,25,13,26,-1,11,27,28,-1,11,28,12,-1,12,28,26,-1,12,26,13,-1,11,9,27,-1,27,9,29,-1,4,30,31,-1,4,31,8,-1,8,31,29,-1,8,29,9,-1,4,0,30,-1,30,0,24,-1,
        ]
    }
}
Shape{
    appearance Appearance {
        material  Material 	{
            diffuseColor 0.25098039215686274 0.25098039215686274 0.25098039215686274
            specularColor 0.12549019607843137 0.12549019607843137 0.12549019607843137
            ambientIntensity 0.251
            transparency 0.0
            shininess 0.5
        }
    }
    geometry IndexedFaceSet {
        ccw TRUE
        solid FALSE
        coord DEF co Coordinate {
            point [
                0.3917 -0.1712 0.168, 0.3917 -0.1712 0.168, 0.3917 -0.171 0.1672, 0.3917 -0.1714 0.1673, 0.3917 -0.1709 0.1667, 0.3917 -0.1716 0.1667, 0.3917 -0.1681 0.1589, 0.3917 -0.1743 0.1589
            ]
        }
        coordIndex [
            0,1,2,-1,2,1,3,-1,2,3,4,-1,4,3,5,-1,4,5,6,-1,6,5,7,-1,
        ]
    }
}
Shape{
    appearance Appearance {
        material  Material 	{
            diffuseColor 1.0 1.0 1.0
            specularColor 0.5019607843137255 0.5019607843137255 0.5019607843137255
            ambientIntensity 1.0
            transparency 0.0
            shininess 0.5
        }
    }
    geometry IndexedFaceSet {
        ccw TRUE
        solid FALSE
        coord DEF co Coordinate {
            point [
                0.3957 -0.3472 0.1839, 0.3957 -0.3442 0.1855, 0.3957 -0.3449 0.1936, 0.3957 -0.3215 0.1485, 0.3957 -0.3199 0.1515, 0.3957 -0.3191 0.1548, 0.3957 -0.3366 0.194, 0.3957 -0.3325 0.1843, 0.3957 -0.3305 0.1885, 0.3957 -0.3374 0.1543, 0.3957 -0.3377 0.1556, 0.3957 -0.3448 0.1608, 0.3957 -0.345 0.1519, 0.3957 -0.3467 0.1524, 0.3957 -0.3477 0.1626, 0.3957 -0.3397 0.1943, 0.3957 -0.3005 0.1673, 0.3957 -0.3046 0.1744, 0.3957 -0.3191 0.1575, 0.3957 -0.3224 0.1651, 0.3957 -0.3191 0.1562, 0.3957 -0.3262 0.1444, 0.3957 -0.3235 0.1462, 0.3957 -0.3277 0.1581, 0.3957 -0.3274 0.1569, 0.3957 -0.3273 0.1556, 0.3957 -0.3276 0.1543, 0.3957 -0.3282 0.1531, 0.3957 -0.3368 0.1532, 0.3957 -0.3417 0.1466, 0.3957 -0.3436 0.1491, 0.3957 -0.2961 0.1805, 0.3957 -0.295 0.1805, 0.3957 -0.2896 0.1876, 0.3957 -0.2925 0.1802, 0.3957 -0.2889 0.1874, 0.3957 -0.2902 0.1793, 0.3957 -0.285 0.1855, 0.3957 -0.2814 0.1824, 0.3957 -0.3339 0.1972, 0.3957 -0.3275 0.1921, 0.3957 -0.3308 0.1999, 0.3957 -0.3239 0.1947, 0.3957 -0.3271 0.2021, 0.3957 -0.3409 0.1862, 0.3957 -0.3395 0.1863, 0.3957 -0.3381 0.1942, 0.3957 -0.3364 0.1859, 0.3957 -0.3334 0.1848, 0.3957 -0.329 0.1522, 0.3957 -0.3301 0.1515, 0.3957 -0.3291 0.1433, 0.3957 -0.3312 0.151, 0.3957 -0.3324 0.1429, 0.3957 -0.3325 0.1508, 0.3957 -0.3329 0.1429, 0.3957 -0.3327 0.1508, 0.3957 -0.336 0.1434, 0.3957 -0.3339 0.151, 0.3957 -0.3391 0.1447, 0.3957 -0.3351 0.1516, 0.3957 -0.3361 0.1523, 0.3957 -0.2814 0.1576, 0.3957 -0.2875 0.1629, 0.3957 -0.285 0.1546, 0.3957 -0.2895 0.1613, 0.3957 -0.289 0.1526, 0.3957 -0.2919 0.1602, 0.3957 -0.2934 0.1516, 0.3957 -0.2942 0.1597, 0.3957 -0.3013 0.1516, 0.3957 -0.3002 0.1597, 0.3957 -0.302 0.1518, 0.3957 -0.2881 0.1778, 0.3957 -0.2866 0.1761, 0.3957 -0.2787 0.1786, 0.3957 -0.2854 0.1738, 0.3957 -0.277 0.1746, 0.3957 -0.2847 0.1713, 0.3957 -0.2764 0.1702, 0.3957 -0.2847 0.1701, 0.3957 -0.277 0.1655, 0.3957 -0.285 0.1675, 0.3957 -0.2787 0.1613, 0.3957 -0.2859 0.1652, 0.3957 -0.2874 0.1631, 0.3957 -0.2968 0.1981, 0.3957 -0.302 0.192, 0.3957 -0.2922 0.1928, 0.3957 -0.299 0.1884, 0.3957 -0.2969 0.1842, 0.3957 -0.3524 0.1762, 0.3957 -0.3611 0.174, 0.3957 -0.3528 0.173, 0.3957 -0.3612 0.1728, 0.3957 -0.3527 0.171, 0.3957 -0.3605 0.1676, 0.3957 -0.3517 0.1677, 0.3957 -0.3586 0.1626, 0.3957 -0.3501 0.165, 0.3957 -0.3556 0.1583, 0.3957 -0.3515 0.1547, 0.3957 -0.3376 0.1569, 0.3957 -0.3372 0.1581, 0.3957 -0.3434 0.1637, 0.3957 -0.3366 0.1592, 0.3957 -0.3412 0.1662, 0.3957 -0.336 0.1599, 0.3957 -0.3385 0.1681, 0.3957 -0.3349 0.1606, 0.3957 -0.3355 0.1692, 0.3957 -0.3338 0.161, 0.3957 -0.3324 0.1696, 0.3957 -0.3325 0.1612, 0.3957 -0.3307 0.1695, 0.3957 -0.3316 0.1611, 0.3957 -0.3275 0.1687, 0.3957 -0.3303 0.1607, 0.3957 -0.3247 0.1672, 0.3957 -0.3292 0.1601, 0.3957 -0.3283 0.1591, 0.3957 -0.3209 0.2044, 0.3957 -0.3196 0.1964, 0.3957 -0.3148 0.205, 0.3957 -0.3147 0.1971, 0.3957 -0.3086 0.2043, 0.3957 -0.3102 0.1965, 0.3957 -0.302 0.2018, 0.3957 -0.306 0.1949, 0.3957 -0.3023 0.1923, 0.3957 -0.3498 0.1917, 0.3957 -0.354 0.1888, 0.3957 -0.3494 0.1819, 0.3957 -0.3549 0.1879, 0.3957 -0.3513 0.1792, 0.3957 -0.3581 0.1838, 0.3957 -0.3603 0.179, 0.3957 -0.3009 0.1599, 0.3957 -0.3041 0.153, 0.3957 -0.3038 0.1527, 0.3957 -0.3005 0.1598, 0.3957 -0.3029 0.1521, 0.3957 -0.3051 0.1558, 0.3957 -0.305 0.1548, 0.3957 -0.3047 0.1539, 0.3957 -0.302 0.1597, 0.3957 -0.303 0.1594, 0.3957 -0.3051 0.1563, 0.3957 -0.3038 0.1588, 0.3957 -0.3043 0.1582, 0.3957 -0.3048 0.1573, 0.3957 -0.301 0.1599, 0.3917 -0.2764 0.1702, 0.3917 -0.277 0.1746, 0.3917 -0.2775 0.1757, 0.3917 -0.2787 0.1786, 0.3917 -0.2805 0.1812, 0.3917 -0.2814 0.1824, 0.3917 -0.285 0.1855, 0.3917 -0.2889 0.1874, 0.3917 -0.2896 0.1876, 0.3917 -0.2922 0.1928, 0.3917 -0.2968 0.1981, 0.3917 -0.2997 0.2002, 0.3917 -0.302 0.2018, 0.3917 -0.3086 0.2043, 0.3917 -0.3148 0.205, 0.3917 -0.3308 0.1999, 0.3917 -0.3302 0.2002, 0.3917 -0.3271 0.2021, 0.3917 -0.3209 0.2044, 0.3917 -0.3339 0.1972, 0.3917 -0.3366 0.194, 0.3917 -0.3381 0.1942, 0.3917 -0.3397 0.1943, 0.3917 -0.3449 0.1936, 0.3917 -0.3498 0.1917, 0.3917 -0.354 0.1888, 0.3917 -0.3549 0.1879, 0.3917 -0.3612 0.1728, 0.3917 -0.3581 0.1838, 0.3917 -0.3593 0.1812, 0.3917 -0.3603 0.179, 0.3917 -0.3608 0.1757, 0.3917 -0.3611 0.174, 0.3917 -0.3605 0.1676, 0.3917 -0.3586 0.1626, 0.3917 -0.3556 0.1583, 0.3917 -0.3515 0.1547, 0.3917 -0.3467 0.1524, 0.3917 -0.345 0.1519, 0.3917 -0.3448 0.1515, 0.3917 -0.3436 0.1491, 0.3917 -0.3417 0.1466, 0.3917 -0.3391 0.1447, 0.3917 -0.3379 0.1441, 0.3917 -0.336 0.1434, 0.3917 -0.3329 0.1429, 0.3917 -0.3324 0.1429, 0.3917 -0.3191 0.1562, 0.3917 -0.3291 0.1433, 0.3917 -0.3269 0.1441, 0.3917 -0.3262 0.1444, 0.3917 -0.3235 0.1462, 0.3917 -0.3215 0.1485, 0.3917 -0.3199 0.1515, 0.3917 -0.3199 0.1515, 0.3917 -0.3191 0.1548, 0.3917 -0.3191 0.1575, 0.3917 -0.3005 0.1673, 0.3917 -0.3046 0.1744, 0.3917 -0.3224 0.1651, 0.3917 -0.3247 0.1672, 0.3917 -0.3275 0.1687, 0.3917 -0.3307 0.1695, 0.3917 -0.3324 0.1696, 0.3917 -0.3355 0.1692, 0.3917 -0.3385 0.1681, 0.3917 -0.3412 0.1662, 0.3917 -0.3434 0.1637, 0.3917 -0.3448 0.1608, 0.3917 -0.3477 0.1626, 0.3917 -0.3501 0.165, 0.3917 -0.3517 0.1677, 0.3917 -0.3527 0.171, 0.3917 -0.3528 0.173, 0.3917 -0.3525 0.1757, 0.3917 -0.3524 0.1762, 0.3917 -0.3513 0.1792, 0.3917 -0.3499 0.1812, 0.3917 -0.3494 0.1819, 0.3917 -0.3472 0.1839, 0.3917 -0.3442 0.1855, 0.3917 -0.3409 0.1862, 0.3917 -0.3395 0.1863, 0.3917 -0.3364 0.1859, 0.3917 -0.3334 0.1848, 0.3917 -0.3325 0.1843, 0.3917 -0.3305 0.1885, 0.3917 -0.3275 0.1921, 0.3917 -0.3239 0.1947, 0.3917 -0.3196 0.1964, 0.3917 -0.3147 0.1971, 0.3917 -0.2961 0.1805, 0.3917 -0.2963 0.1812, 0.3917 -0.2969 0.1842, 0.3917 -0.299 0.1884, 0.3917 -0.302 0.192, 0.3917 -0.3023 0.1923, 0.3917 -0.306 0.1949, 0.3917 -0.3102 0.1965, 0.3917 -0.295 0.1805, 0.3917 -0.2925 0.1802, 0.3917 -0.2902 0.1793, 0.3917 -0.2881 0.1778, 0.3917 -0.2866 0.1761, 0.3917 -0.2864 0.1757, 0.3917 -0.2854 0.1738, 0.3917 -0.2847 0.1713, 0.3917 -0.2847 0.1701, 0.3917 -0.285 0.1675, 0.3917 -0.2859 0.1652, 0.3917 -0.2874 0.1631, 0.3917 -0.2875 0.1629, 0.3917 -0.2895 0.1613, 0.3917 -0.2919 0.1602, 0.3917 -0.2942 0.1597, 0.3917 -0.3002 0.1597, 0.3917 -0.3005 0.1598, 0.3917 -0.3009 0.1599, 0.3917 -0.301 0.1599, 0.3917 -0.302 0.1597, 0.3917 -0.303 0.1594, 0.3917 -0.3038 0.1588, 0.3917 -0.3043 0.1582, 0.3917 -0.3048 0.1573, 0.3917 -0.3051 0.1563, 0.3917 -0.3051 0.1558, 0.3917 -0.305 0.1548, 0.3917 -0.3047 0.1539, 0.3917 -0.3041 0.153, 0.3917 -0.3038 0.1527, 0.3917 -0.3029 0.1521, 0.3917 -0.302 0.1518, 0.3917 -0.3013 0.1516, 0.3917 -0.2934 0.1516, 0.3917 -0.289 0.1526, 0.3917 -0.285 0.1546, 0.3917 -0.2814 0.1576, 0.3917 -0.2787 0.1613, 0.3917 -0.277 0.1655, 0.3917 -0.3325 0.1612, 0.3917 -0.3316 0.1611, 0.3917 -0.3303 0.1607, 0.3917 -0.3292 0.1601, 0.3917 -0.3283 0.1591, 0.3917 -0.3277 0.1581, 0.3917 -0.3274 0.1569, 0.3917 -0.3273 0.1556, 0.3917 -0.3276 0.1543, 0.3917 -0.3282 0.1531, 0.3917 -0.329 0.1522, 0.3917 -0.3301 0.1515, 0.3917 -0.3312 0.151, 0.3917 -0.3325 0.1508, 0.3917 -0.3327 0.1508, 0.3917 -0.3339 0.151, 0.3917 -0.3351 0.1516, 0.3917 -0.3361 0.1523, 0.3917 -0.3368 0.1532, 0.3917 -0.3374 0.1543, 0.3917 -0.3377 0.1556, 0.3917 -0.3376 0.1569, 0.3917 -0.3372 0.1581, 0.3917 -0.3366 0.1592, 0.3917 -0.336 0.1599, 0.3917 -0.3349 0.1606, 0.3917 -0.3338 0.161
            ]
        }
        coordIndex [
            0,1,2,-1,3,4,5,-1,6,7,8,-1,9,10,11,-1,12,11,13,-1,13,11,14,-1,2,1,15,-1,16,17,18,-1,18,17,19,-1,18,19,20,-1,20,19,21,-1,20,21,5,-1,5,21,22,-1,5,22,3,-1,23,24,19,-1,19,24,25,-1,19,25,21,-1,21,25,26,-1,21,26,27,-1,28,9,29,-1,29,9,11,-1,29,11,30,-1,30,11,12,-1,31,32,33,-1,33,32,34,-1,33,34,35,-1,35,34,36,-1,35,36,37,-1,37,36,38,-1,6,8,39,-1,39,8,40,-1,39,40,41,-1,41,40,42,-1,41,42,43,-1,1,44,15,-1,15,44,45,-1,15,45,46,-1,46,45,47,-1,46,47,6,-1,6,47,48,-1,6,48,7,-1,27,49,21,-1,21,49,50,-1,21,50,51,-1,51,50,52,-1,51,52,53,-1,53,52,54,-1,53,54,55,-1,55,54,56,-1,55,56,57,-1,57,56,58,-1,57,58,59,-1,59,58,60,-1,59,60,29,-1,29,60,61,-1,29,61,28,-1,62,63,64,-1,64,63,65,-1,64,65,66,-1,66,65,67,-1,66,67,68,-1,68,67,69,-1,68,69,70,-1,70,69,71,-1,70,71,72,-1,36,73,38,-1,38,73,74,-1,38,74,75,-1,75,74,76,-1,75,76,77,-1,77,76,78,-1,77,78,79,-1,79,78,80,-1,79,80,81,-1,81,80,82,-1,81,82,83,-1,83,82,84,-1,83,84,62,-1,62,84,85,-1,62,85,63,-1,86,87,88,-1,88,87,89,-1,88,89,33,-1,33,89,90,-1,33,90,31,-1,91,92,93,-1,93,92,94,-1,93,94,95,-1,95,94,96,-1,95,96,97,-1,97,96,98,-1,97,98,99,-1,99,98,100,-1,99,100,14,-1,14,100,101,-1,14,101,13,-1,10,102,11,-1,11,102,103,-1,11,103,104,-1,104,103,105,-1,104,105,106,-1,106,105,107,-1,106,107,108,-1,108,107,109,-1,108,109,110,-1,110,109,111,-1,110,111,112,-1,112,111,113,-1,112,113,114,-1,114,113,115,-1,114,115,116,-1,116,115,117,-1,116,117,118,-1,118,117,119,-1,118,119,19,-1,19,119,120,-1,19,120,23,-1,43,42,121,-1,121,42,122,-1,121,122,123,-1,123,122,124,-1,123,124,125,-1,125,124,126,-1,125,126,127,-1,127,126,128,-1,127,128,86,-1,86,128,129,-1,86,129,87,-1,2,130,0,-1,0,130,131,-1,0,131,132,-1,132,131,133,-1,132,133,134,-1,134,133,135,-1,134,135,91,-1,91,135,136,-1,91,136,92,-1,137,138,139,-1,71,140,72,-1,72,140,137,-1,72,137,141,-1,141,137,139,-1,142,143,137,-1,137,143,144,-1,137,144,138,-1,145,146,147,-1,146,148,147,-1,147,148,149,-1,147,149,150,-1,142,137,147,-1,147,137,151,-1,147,151,145,-1,79,152,153,-1,79,153,77,-1,77,153,154,-1,77,154,75,-1,154,155,75,-1,75,155,156,-1,75,156,38,-1,156,157,38,-1,38,157,158,-1,38,158,37,-1,37,158,159,-1,37,159,35,-1,35,159,160,-1,35,160,33,-1,33,160,161,-1,33,161,88,-1,88,161,162,-1,88,162,86,-1,86,162,127,-1,127,162,163,-1,163,164,127,-1,127,164,165,-1,127,165,125,-1,125,165,166,-1,125,166,123,-1,167,41,168,-1,168,41,43,-1,168,43,169,-1,169,43,121,-1,169,121,170,-1,170,121,123,-1,170,123,166,-1,41,167,171,-1,41,171,39,-1,39,171,172,-1,39,172,6,-1,6,172,173,-1,6,173,46,-1,46,173,174,-1,46,174,15,-1,15,174,175,-1,15,175,2,-1,2,175,176,-1,2,176,130,-1,130,176,177,-1,130,177,131,-1,131,177,178,-1,131,178,133,-1,179,94,92,-1,133,178,180,-1,181,136,180,-1,180,136,135,-1,180,135,133,-1,181,182,136,-1,136,182,183,-1,136,183,92,-1,92,183,184,-1,92,184,179,-1,94,179,185,-1,94,185,96,-1,96,185,186,-1,96,186,98,-1,98,186,187,-1,98,187,100,-1,100,187,188,-1,100,188,101,-1,101,188,189,-1,101,189,13,-1,13,189,190,-1,13,190,12,-1,12,190,191,-1,12,191,30,-1,191,192,30,-1,30,192,193,-1,30,193,29,-1,29,193,194,-1,29,194,59,-1,59,194,195,-1,59,195,57,-1,195,196,57,-1,57,196,197,-1,57,197,55,-1,55,197,198,-1,55,198,53,-1,199,20,5,-1,53,198,200,-1,53,200,51,-1,51,200,201,-1,51,201,21,-1,201,202,21,-1,21,202,203,-1,21,203,22,-1,22,203,204,-1,22,204,3,-1,3,204,205,-1,3,205,4,-1,4,205,206,-1,4,206,5,-1,5,206,207,-1,5,207,199,-1,18,20,208,-1,208,20,199,-1,16,18,209,-1,209,18,208,-1,17,16,210,-1,210,16,209,-1,19,17,211,-1,211,17,210,-1,19,211,212,-1,19,212,118,-1,118,212,213,-1,118,213,116,-1,116,213,214,-1,116,214,114,-1,114,214,215,-1,114,215,112,-1,112,215,216,-1,112,216,110,-1,110,216,217,-1,110,217,108,-1,108,217,218,-1,108,218,106,-1,106,218,219,-1,106,219,104,-1,104,219,220,-1,104,220,11,-1,11,220,221,-1,11,221,14,-1,14,221,222,-1,14,222,99,-1,99,222,223,-1,99,223,97,-1,97,223,224,-1,97,224,95,-1,95,224,225,-1,95,225,93,-1,225,226,93,-1,93,226,91,-1,226,227,91,-1,91,227,228,-1,91,228,134,-1,134,228,229,-1,134,229,132,-1,229,230,132,-1,132,230,231,-1,132,231,0,-1,0,231,232,-1,0,232,1,-1,1,232,233,-1,1,233,44,-1,44,233,234,-1,44,234,45,-1,45,234,235,-1,45,235,47,-1,47,235,236,-1,47,236,48,-1,48,236,237,-1,48,237,7,-1,7,237,238,-1,7,238,8,-1,8,238,239,-1,8,239,40,-1,40,239,240,-1,40,240,42,-1,42,240,241,-1,42,241,122,-1,122,241,242,-1,122,242,124,-1,243,31,244,-1,244,31,90,-1,244,90,245,-1,245,90,89,-1,245,89,246,-1,246,89,87,-1,246,87,247,-1,247,87,129,-1,247,129,248,-1,248,129,128,-1,248,128,249,-1,249,128,126,-1,249,126,250,-1,250,126,124,-1,250,124,242,-1,32,31,251,-1,251,31,243,-1,32,251,252,-1,32,252,34,-1,34,252,253,-1,34,253,36,-1,36,253,254,-1,36,254,73,-1,73,254,255,-1,73,255,74,-1,74,255,256,-1,74,256,76,-1,256,257,76,-1,76,257,258,-1,76,258,78,-1,78,258,259,-1,78,259,80,-1,80,259,260,-1,80,260,82,-1,82,260,261,-1,82,261,84,-1,84,261,262,-1,84,262,85,-1,85,262,263,-1,85,263,63,-1,63,263,264,-1,63,264,65,-1,65,264,265,-1,65,265,67,-1,67,265,266,-1,67,266,69,-1,71,69,267,-1,267,69,266,-1,71,267,268,-1,71,268,140,-1,140,268,269,-1,140,269,137,-1,137,269,270,-1,137,270,151,-1,151,270,271,-1,151,271,145,-1,145,271,272,-1,145,272,146,-1,146,272,273,-1,146,273,148,-1,148,273,274,-1,148,274,149,-1,149,274,275,-1,149,275,150,-1,150,275,276,-1,150,276,147,-1,147,276,277,-1,147,277,142,-1,142,277,278,-1,142,278,143,-1,143,278,279,-1,143,279,144,-1,144,279,280,-1,144,280,138,-1,138,280,281,-1,138,281,139,-1,139,281,282,-1,139,282,141,-1,141,282,283,-1,141,283,72,-1,72,283,284,-1,72,284,70,-1,68,70,285,-1,285,70,284,-1,68,285,286,-1,68,286,66,-1,66,286,287,-1,66,287,64,-1,64,287,288,-1,64,288,62,-1,62,288,289,-1,62,289,83,-1,83,289,290,-1,83,290,81,-1,81,290,152,-1,81,152,79,-1,113,291,292,-1,113,292,115,-1,115,292,293,-1,115,293,117,-1,117,293,294,-1,117,294,119,-1,119,294,295,-1,119,295,120,-1,120,295,296,-1,120,296,23,-1,23,296,297,-1,23,297,24,-1,24,297,298,-1,24,298,25,-1,25,298,299,-1,25,299,26,-1,26,299,300,-1,26,300,27,-1,27,300,301,-1,27,301,49,-1,49,301,302,-1,49,302,50,-1,50,302,303,-1,50,303,52,-1,52,303,304,-1,52,304,54,-1,54,304,305,-1,54,305,56,-1,56,305,306,-1,56,306,58,-1,58,306,307,-1,58,307,60,-1,60,307,308,-1,60,308,61,-1,61,308,309,-1,61,309,28,-1,28,309,310,-1,28,310,9,-1,9,310,311,-1,9,311,10,-1,10,311,312,-1,10,312,102,-1,102,312,313,-1,102,313,103,-1,103,313,314,-1,103,314,105,-1,105,314,315,-1,105,315,107,-1,107,315,316,-1,107,316,109,-1,109,316,317,-1,109,317,111,-1,111,317,291,-1,111,291,113,-1,
        ]
    }
}
Shape{
    appearance Appearance {
        material  Material 	{
            diffuseColor 0.25098039215686274 0.25098039215686274 0.25098039215686274
            specularColor 0.12549019607843137 0.12549019607843137 0.12549019607843137
            ambientIntensity 0.251
            transparency 0.0
            shininess 0.5
        }
    }
    geometry IndexedFaceSet {
        ccw TRUE
        solid FALSE
        coord DEF co Coordinate {
            point [
                0.3917 -0.3327 0.1508, 0.3917 -0.336 0.1599, 0.3917 -0.3366 0.1592, 0.3917 -0.3325 0.1612, 0.3917 -0.3338 0.161, 0.3917 -0.3349 0.1606, 0.3917 -0.3374 0.1543, 0.3917 -0.3368 0.1532, 0.3917 -0.3361 0.1523, 0.3917 -0.3316 0.1611, 0.3917 -0.3325 0.1508, 0.3917 -0.3312 0.151, 0.3917 -0.3282 0.1531, 0.3917 -0.3277 0.1581, 0.3917 -0.329 0.1522, 0.3917 -0.3283 0.1591, 0.3917 -0.3292 0.1601, 0.3917 -0.3301 0.1515, 0.3917 -0.3303 0.1607, 0.3917 -0.3372 0.1581, 0.3917 -0.3376 0.1569, 0.3917 -0.3377 0.1556, 0.3917 -0.3351 0.1516, 0.3917 -0.3339 0.151, 0.3917 -0.3276 0.1543, 0.3917 -0.3273 0.1556, 0.3917 -0.3274 0.1569
            ]
        }
        coordIndex [
            0,1,2,-1,3,4,0,-1,0,4,5,-1,0,5,1,-1,6,7,2,-1,2,7,8,-1,3,0,9,-1,9,0,10,-1,9,10,11,-1,12,13,14,-1,14,13,15,-1,14,15,16,-1,11,17,9,-1,9,17,14,-1,9,14,18,-1,18,14,16,-1,19,20,2,-1,2,20,21,-1,2,21,6,-1,8,22,2,-1,2,22,23,-1,2,23,0,-1,24,25,12,-1,12,25,26,-1,12,26,13,-1,
        ]
    }
}
Shape{
    appearance Appearance {
        material  Material 	{
            diffuseColor 0.7529411764705882 0.7529411764705882 0.7529411764705882
            specularColor 0.3764705882352941 0.3764705882352941 0.3764705882352941
            ambientIntensity 0.7529
            transparency 0.0
            shininess 0.5
        }
    }
    geometry IndexedFaceSet {
        ccw TRUE
        solid FALSE
        coord DEF co Coordinate {
            point [
                -0.2874 0.1417 0.0, -0.2874 0.1417 0.0079, -0.2864 0.1505 0.0079, -0.2864 0.1505 0.0, -0.2835 0.1588 0.0079, -0.2835 0.1588 0.0, -0.2788 0.1663 0.0079, -0.2788 0.1663 0.0, -0.2726 0.1725 0.0079, -0.2726 0.1725 0.0, -0.2651 0.1772 0.0079, -0.2651 0.1772 0.0, -0.2568 0.1801 0.0079, -0.2568 0.1801 0.0, -0.248 0.1811 0.0079, -0.248 0.1811 0.0, 0.2441 0.1811 0.0079, 0.2441 0.1811 0.0, 0.2529 0.1801 0.0079, 0.2529 0.1801 0.0, 0.2612 0.1772 0.0079, 0.2612 0.1772 0.0, 0.2686 0.1725 0.0079, 0.2686 0.1725 0.0, 0.2749 0.1663 0.0079, 0.2749 0.1663 0.0, 0.2796 0.1588 0.0079, 0.2796 0.1588 0.0, 0.2825 0.1505 0.0079, 0.2825 0.1505 0.0, 0.2835 0.1417 0.0079, 0.2835 0.1417 0.0, 0.2835 -0.1417 0.0079, 0.2835 -0.1417 0.0, 0.2825 -0.1505 0.0079, 0.2825 -0.1505 0.0, 0.2796 -0.1588 0.0079, 0.2796 -0.1588 0.0, 0.2749 -0.1663 0.0079, 0.2749 -0.1663 0.0, 0.2686 -0.1725 0.0079, 0.2686 -0.1725 0.0, 0.2612 -0.1772 0.0079, 0.2612 -0.1772 0.0, 0.2529 -0.1801 0.0079, 0.2529 -0.1801 0.0, 0.2441 -0.1811 0.0079, 0.2441 -0.1811 0.0, -0.2209 -0.1811 0.0, -0.2209 -0.1811 0.0079, -0.2874 -0.1146 0.0079, -0.2874 -0.1146 0.0, -0.2361 -0.1298 0.0, -0.2471 -0.1213 0.0, -0.2197 -0.1672 0.0, -0.2598 -0.1157 0.0, -0.2735 -0.1134 0.0, -0.222 -0.1535 0.0, -0.2276 -0.1408 0.0, -0.2735 -0.1134 0.0079, -0.2598 -0.1157 0.0079, -0.2471 -0.1213 0.0079, -0.2361 -0.1298 0.0079, -0.2276 -0.1408 0.0079, -0.222 -0.1535 0.0079, -0.2197 -0.1672 0.0079
            ]
        }
        coordIndex [
            0,1,2,-1,0,2,3,-1,3,2,4,-1,3,4,5,-1,5,4,6,-1,5,6,7,-1,7,6,8,-1,7,8,9,-1,9,8,10,-1,9,10,11,-1,11,10,12,-1,11,12,13,-1,13,12,14,-1,13,14,15,-1,14,16,15,-1,15,16,17,-1,17,16,18,-1,17,18,19,-1,19,18,20,-1,19,20,21,-1,21,20,22,-1,21,22,23,-1,23,22,24,-1,23,24,25,-1,25,24,26,-1,25,26,27,-1,27,26,28,-1,27,28,29,-1,29,28,30,-1,29,30,31,-1,30,32,31,-1,31,32,33,-1,33,32,34,-1,33,34,35,-1,35,34,36,-1,35,36,37,-1,37,36,38,-1,37,38,39,-1,39,38,40,-1,39,40,41,-1,41,40,42,-1,41,42,43,-1,43,42,44,-1,43,44,45,-1,45,44,46,-1,45,46,47,-1,48,47,49,-1,49,47,46,-1,50,1,51,-1,51,1,0,-1,52,53,17,-1,47,48,54,-1,17,53,15,-1,15,53,55,-1,15,55,13,-1,13,55,56,-1,13,56,11,-1,7,0,5,-1,5,0,3,-1,56,51,11,-1,11,51,0,-1,11,0,9,-1,9,0,7,-1,57,58,29,-1,58,21,23,-1,43,37,41,-1,41,37,39,-1,29,31,57,-1,57,31,33,-1,57,33,54,-1,54,33,35,-1,54,35,47,-1,47,35,37,-1,47,37,45,-1,45,37,43,-1,52,17,58,-1,58,17,19,-1,58,19,21,-1,23,25,58,-1,58,25,27,-1,58,27,29,-1,50,51,59,-1,59,51,56,-1,59,56,60,-1,60,56,55,-1,60,55,61,-1,61,55,53,-1,61,53,62,-1,62,53,52,-1,62,52,63,-1,63,52,58,-1,63,58,64,-1,64,58,57,-1,64,57,65,-1,65,57,54,-1,65,54,49,-1,49,54,48,-1,
        ]
    }
}