#VRML V2.0 utf8
# 3D model generated by easyeda2kicad.py (https://github.com/uPesy/easyeda2kicad.py)

Shape{
    appearance Appearance {
        material  Material 	{
            diffuseColor 0.0 0.37254901960784315 0.23921568627450981
            specularColor 0.0 0.18823529411764706 0.12156862745098039
            ambientIntensity 0.246
            transparency 0.0
            shininess 0.5
        }
    }
    geometry IndexedFaceSet {
        ccw TRUE
        solid FALSE
        coord DEF co Coordinate {
            point [
                -0.9753 0.5176 0.0827, -0.9843 0.5906 0.0827, -0.982 0.4955 0.0827, -0.9843 0.4724 0.0827, -0.9643 0.5381 0.0827, -0.9497 0.556 0.0827, -0.9318 0.5706 0.0827, -0.9113 0.5816 0.0827, -0.8892 0.5883 0.0827, -0.8661 0.5906 0.0827, 0.9843 0.4724 0.0827, 0.9843 0.5906 0.0827, 0.982 0.4955 0.0827, 0.9753 0.5176 0.0827, 0.8661 0.5906 0.0827, 0.8892 0.5883 0.0827, 0.9113 0.5816 0.0827, 0.9318 0.5706 0.0827, 0.9497 0.556 0.0827, 0.9643 0.5381 0.0827, 0.9753 -0.5176 0.0827, 0.9843 -0.5906 0.0827, 0.982 -0.4955 0.0827, 0.9843 -0.4724 0.0827, 0.9643 -0.5381 0.0827, 0.9497 -0.556 0.0827, 0.9318 -0.5706 0.0827, 0.9113 -0.5816 0.0827, 0.8892 -0.5883 0.0827, 0.8661 -0.5906 0.0827, -0.982 -0.4955 0.0827, -0.9843 -0.4724 0.0827, -0.9843 -0.5906 0.0827, -0.9753 -0.5176 0.0827, -0.9318 -0.5706 0.0827, -0.9497 -0.556 0.0827, -0.9643 -0.5381 0.0827, -0.8661 -0.5906 0.0827, -0.8892 -0.5883 0.0827, -0.9113 -0.5816 0.0827, -0.8366 0.5512 0.0039, -0.9843 0.5906 0.0039, -0.5996 0.5906 0.0039, -0.9843 -0.0 0.0039, -0.8366 0.2362 0.0039, -0.5996 -0.0 0.0039, -0.6398 0.2362 0.0039, -0.6398 0.5512 0.0039, -0.398 0.5906 0.0039, -0.3445 0.5512 0.0039, -0.3445 0.2362 0.0039, -0.1476 0.5512 0.0039, 0.0 0.5906 0.0039, -0.1476 0.2362 0.0039, 0.0 -0.0 0.0039, -0.398 -0.0 0.0039, 0.3445 0.5512 0.0039, 0.4921 0.5906 0.0039, 0.3445 0.2362 0.0039, 0.4921 -0.0 0.0039, 0.1476 0.2362 0.0039, 0.1476 0.5512 0.0039, 0.8366 0.2362 0.0039, 0.8366 0.5512 0.0039, 0.9104 0.5906 0.0039, 0.6398 0.5512 0.0039, 0.9104 -0.0 0.0039, 0.6398 0.2362 0.0039, 0.9843 0.5906 0.0039, 0.9843 -0.0 0.0039, -0.5996 -0.5906 0.0039, -0.6398 -0.5512 0.0039, -0.6398 -0.2362 0.0039, -0.8366 -0.5512 0.0039, -0.9843 -0.5906 0.0039, -0.8366 -0.2362 0.0039, -0.4516 -0.3658 0.0039, -0.398 -0.5906 0.0039, -0.5594 -0.3658 0.0039, -0.5594 -0.2509 0.0039, -0.3445 -0.5512 0.0039, -0.1476 -0.5512 0.0039, -0.3445 -0.2362 0.0039, -0.1476 -0.2362 0.0039, 0.0 -0.5906 0.0039, 0.3445 -0.2362 0.0039, 0.3445 -0.5512 0.0039, 0.4921 -0.5906 0.0039, 0.1476 -0.5512 0.0039, 0.1476 -0.2362 0.0039, 0.9104 -0.5906 0.0039, 0.8366 -0.5512 0.0039, 0.8366 -0.2362 0.0039, 0.6398 -0.5512 0.0039, 0.6398 -0.2362 0.0039, 0.9843 -0.5906 0.0039
            ]
        }
        coordIndex [
            0,1,2,-1,2,1,3,-1,0,4,1,-1,1,4,5,-1,1,5,6,-1,6,7,1,-1,1,7,8,-1,1,8,9,-1,10,11,12,-1,12,11,13,-1,14,15,11,-1,11,15,16,-1,11,16,17,-1,17,18,11,-1,11,18,19,-1,11,19,13,-1,20,21,22,-1,22,21,23,-1,20,24,21,-1,21,24,25,-1,21,25,26,-1,26,27,21,-1,21,27,28,-1,21,28,29,-1,30,31,32,-1,30,32,33,-1,34,35,32,-1,32,35,36,-1,32,36,33,-1,37,38,32,-1,32,38,39,-1,32,39,34,-1,40,41,42,-1,41,40,43,-1,43,40,44,-1,43,44,45,-1,45,44,46,-1,45,46,42,-1,42,46,47,-1,42,47,40,-1,48,49,50,-1,49,48,51,-1,51,48,52,-1,51,52,53,-1,53,52,54,-1,53,54,50,-1,50,54,55,-1,50,55,48,-1,56,57,58,-1,58,57,59,-1,58,59,60,-1,60,59,54,-1,60,54,61,-1,61,54,52,-1,61,52,56,-1,56,52,57,-1,62,63,64,-1,64,63,65,-1,62,66,67,-1,67,66,59,-1,67,59,65,-1,65,59,57,-1,65,57,64,-1,62,64,66,-1,66,64,68,-1,66,68,69,-1,70,71,72,-1,71,70,73,-1,73,70,74,-1,73,74,75,-1,75,74,43,-1,75,43,72,-1,72,43,45,-1,72,45,70,-1,42,48,45,-1,45,48,55,-1,45,55,76,-1,76,55,77,-1,76,77,78,-1,78,77,70,-1,78,70,79,-1,79,70,45,-1,79,45,76,-1,77,80,81,-1,80,77,82,-1,82,77,55,-1,82,55,83,-1,83,55,54,-1,83,54,81,-1,81,54,84,-1,81,84,77,-1,85,59,86,-1,86,59,87,-1,86,87,88,-1,88,87,84,-1,88,84,89,-1,89,84,54,-1,89,54,85,-1,85,54,59,-1,90,91,92,-1,91,90,93,-1,93,90,87,-1,93,87,94,-1,94,87,59,-1,94,59,92,-1,92,59,66,-1,92,66,90,-1,90,66,69,-1,90,69,95,-1,21,95,23,-1,23,95,69,-1,23,69,10,-1,10,69,68,-1,10,68,11,-1,11,68,14,-1,14,68,64,-1,48,9,52,-1,52,9,14,-1,52,14,57,-1,57,14,64,-1,48,42,9,-1,9,42,41,-1,9,41,1,-1,1,41,3,-1,3,41,43,-1,3,43,31,-1,31,43,74,-1,31,74,32,-1,32,74,37,-1,37,74,70,-1,70,77,37,-1,37,77,84,-1,37,84,29,-1,95,21,90,-1,90,21,29,-1,90,29,87,-1,87,29,84,-1,
        ]
    }
}
Shape{
    appearance Appearance {
        material  Material 	{
            diffuseColor 0.9686274509803922 0.8784313725490196 0.6
            specularColor 0.6784313725490196 0.615686274509804 0.4196078431372549
            ambientIntensity 0.8737
            transparency 0.0
            shininess 0.5
        }
    }
    geometry IndexedFaceSet {
        ccw TRUE
        solid FALSE
        coord DEF co Coordinate {
            point [
                -0.8366 -0.5512 0.0039, -0.8366 -0.2362 0.0039, -0.8366 -0.5512 0.0, -0.8366 -0.2362 0.0, -0.6398 -0.5512 0.0039, -0.6398 -0.5512 0.0, -0.6398 -0.2362 0.0039, -0.6398 -0.2362 0.0, -0.5594 -0.2509 0.0039, -0.4516 -0.3658 0.0039, -0.5594 -0.2509 0.0, -0.4516 -0.3658 0.0, -0.5594 -0.3658 0.0039, -0.5594 -0.3658 0.0, -0.3445 -0.2362 0.0039, -0.1476 -0.2362 0.0039, -0.3445 -0.2362 0.0, -0.1476 -0.2362 0.0, -0.3445 -0.5512 0.0039, -0.3445 -0.5512 0.0, -0.1476 -0.5512 0.0039, -0.1476 -0.5512 0.0, 0.1476 -0.2362 0.0039, 0.3445 -0.2362 0.0039, 0.1476 -0.2362 0.0, 0.3445 -0.2362 0.0, 0.1476 -0.5512 0.0039, 0.1476 -0.5512 0.0, 0.3445 -0.5512 0.0039, 0.3445 -0.5512 0.0, 0.6398 -0.2362 0.0039, 0.8366 -0.2362 0.0039, 0.6398 -0.2362 0.0, 0.8366 -0.2362 0.0, 0.6398 -0.5512 0.0039, 0.6398 -0.5512 0.0, 0.8366 -0.5512 0.0039, 0.8366 -0.5512 0.0, 0.6398 0.2362 0.0039, 0.6398 0.5512 0.0039, 0.6398 0.2362 0.0, 0.6398 0.5512 0.0, 0.8366 0.2362 0.0039, 0.8366 0.2362 0.0, 0.8366 0.5512 0.0039, 0.8366 0.5512 0.0, 0.1476 0.2362 0.0039, 0.1476 0.5512 0.0039, 0.1476 0.2362 0.0, 0.1476 0.5512 0.0, 0.3445 0.2362 0.0039, 0.3445 0.2362 0.0, 0.3445 0.5512 0.0039, 0.3445 0.5512 0.0, -0.3445 0.2362 0.0039, -0.3445 0.5512 0.0039, -0.3445 0.2362 0.0, -0.3445 0.5512 0.0, -0.1476 0.2362 0.0039, -0.1476 0.2362 0.0, -0.1476 0.5512 0.0039, -0.1476 0.5512 0.0, -0.6398 0.2362 0.0039, -0.8366 0.2362 0.0039, -0.6398 0.2362 0.0, -0.8366 0.2362 0.0, -0.6398 0.5512 0.0039, -0.6398 0.5512 0.0, -0.8366 0.5512 0.0039, -0.8366 0.5512 0.0
            ]
        }
        coordIndex [
            0,1,2,-1,2,1,3,-1,4,0,5,-1,5,0,2,-1,6,4,7,-1,7,4,5,-1,1,6,3,-1,3,6,7,-1,7,5,3,-1,3,5,2,-1,8,9,10,-1,10,9,11,-1,12,8,13,-1,13,8,10,-1,9,12,11,-1,11,12,13,-1,11,13,10,-1,14,15,16,-1,16,15,17,-1,18,14,19,-1,19,14,16,-1,20,18,21,-1,21,18,19,-1,15,20,17,-1,17,20,21,-1,21,19,17,-1,17,19,16,-1,22,23,24,-1,24,23,25,-1,26,22,27,-1,27,22,24,-1,28,26,29,-1,29,26,27,-1,23,28,25,-1,25,28,29,-1,29,27,25,-1,25,27,24,-1,30,31,32,-1,32,31,33,-1,34,30,35,-1,35,30,32,-1,36,34,37,-1,37,34,35,-1,31,36,33,-1,33,36,37,-1,37,35,33,-1,33,35,32,-1,38,39,40,-1,40,39,41,-1,42,38,43,-1,43,38,40,-1,44,42,45,-1,45,42,43,-1,39,44,41,-1,41,44,45,-1,45,43,41,-1,41,43,40,-1,46,47,48,-1,48,47,49,-1,50,46,51,-1,51,46,48,-1,52,50,53,-1,53,50,51,-1,47,52,49,-1,49,52,53,-1,53,51,49,-1,49,51,48,-1,54,55,56,-1,56,55,57,-1,58,54,59,-1,59,54,56,-1,60,58,61,-1,61,58,59,-1,55,60,57,-1,57,60,61,-1,61,59,57,-1,57,59,56,-1,62,63,64,-1,64,63,65,-1,66,62,67,-1,67,62,64,-1,68,66,69,-1,69,66,67,-1,63,68,65,-1,65,68,69,-1,69,67,65,-1,65,67,64,-1,
        ]
    }
}
Shape{
    appearance Appearance {
        material  Material 	{
            diffuseColor 0.8509803921568627 0.8509803921568627 0.8509803921568627
            specularColor 0.4235294117647059 0.4235294117647059 0.4235294117647059
            ambientIntensity 0.851
            transparency 0.0
            shininess 0.5
        }
    }
    geometry IndexedFaceSet {
        ccw TRUE
        solid FALSE
        coord DEF co Coordinate {
            point [
                -0.8957 -0.4035 0.195, -0.8957 -0.4035 0.3346, -0.8957 0.4035 0.195, -0.8957 0.4035 0.3346, 0.7972 -0.502 0.195, 0.7972 -0.502 0.3346, -0.7972 -0.502 0.195, -0.7972 -0.502 0.3346, 0.8957 0.4035 0.195, 0.8957 0.4035 0.3346, 0.8957 -0.4035 0.195, 0.8957 -0.4035 0.3346, -0.7972 0.502 0.195, -0.7972 0.502 0.3346, 0.7972 0.502 0.195, 0.7972 0.502 0.3346, 0.542 -0.0696 0.4331, 0.5217 -0.0852 0.4331, 0.7972 -0.4035 0.4331, -0.7972 -0.4035 0.4331, 0.4232 -0.0852 0.4331, 0.4028 -0.0696 0.4331, 0.5577 -0.0492 0.4331, 0.374 0.0 0.4331, -0.7972 0.4035 0.4331, 0.3774 -0.0255 0.4331, 0.3872 -0.0492 0.4331, 0.4979 0.0951 0.4331, 0.5217 0.0852 0.4331, 0.7972 0.4035 0.4331, 0.542 0.0696 0.4331, 0.5577 0.0492 0.4331, 0.3774 0.0255 0.4331, 0.3872 0.0492 0.4331, 0.4028 0.0696 0.4331, 0.4232 0.0852 0.4331, 0.447 0.0951 0.4331, 0.4724 0.0984 0.4331, 0.5675 0.0255 0.4331, 0.5709 0.0 0.4331, 0.5675 -0.0255 0.4331, 0.4979 -0.0951 0.4331, 0.4724 -0.0984 0.4331, 0.447 -0.0951 0.4331, -0.8916 -0.4316 0.1976, -0.8902 -0.4358 0.1983, -0.892 -0.4289 0.3346, -0.8879 -0.4418 0.1992, -0.8859 -0.4462 0.3346, -0.8841 -0.4499 0.2002, -0.882 -0.4525 0.3346, -0.8957 -0.4044 0.195, -0.8952 -0.4135 0.1954, -0.8932 -0.4254 0.3346, -0.8938 -0.4226 0.1963, -0.8922 -0.429 0.1972, -0.8062 -0.5016 0.1953, -0.8462 -0.4883 0.3346, -0.8464 -0.4887 0.2003, -0.8399 -0.4922 0.3346, -0.8451 -0.4895 0.2003, -0.8226 -0.4983 0.3346, -0.8371 -0.4935 0.1995, -0.8355 -0.4942 0.1992, -0.826 -0.4977 0.1977, -0.8227 -0.4985 0.1972, -0.8191 -0.4995 0.3346, -0.817 -0.5 0.1964, -0.8078 -0.5014 0.1954, -0.8586 -0.4805 0.3346, -0.8664 -0.4727 0.3346, -0.8668 -0.4731 0.2008, -0.862 -0.4777 0.2008, -0.8602 -0.4792 0.2008, -0.8529 -0.4847 0.2007, -0.8824 -0.4527 0.2003, -0.8803 -0.4564 0.2006, -0.8742 -0.4649 0.3346, -0.8749 -0.4641 0.2007, -0.8688 -0.4712 0.2008, -0.8932 0.4035 0.3565, -0.8932 -0.4035 0.3565, -0.892 0.4035 0.36, -0.892 -0.4035 0.36, -0.8859 0.4035 0.3774, -0.8859 -0.4035 0.3774, -0.882 0.4035 0.3836, -0.882 -0.4035 0.3836, -0.8742 0.4035 0.396, -0.8742 -0.4035 0.396, -0.8664 0.4035 0.4038, -0.8664 -0.4035 0.4038, -0.8586 0.4035 0.4116, -0.8586 -0.4035 0.4116, -0.8462 0.4035 0.4194, -0.8462 -0.4035 0.4194, -0.8399 0.4035 0.4233, -0.8399 -0.4035 0.4233, -0.8226 0.4035 0.4294, -0.8226 -0.4035 0.4294, -0.8191 0.4035 0.4306, -0.8191 -0.4035 0.4306, -0.8253 0.4979 0.1976, -0.8295 0.4965 0.1983, -0.8226 0.4983 0.3346, -0.8355 0.4942 0.1992, -0.8399 0.4922 0.3346, -0.8436 0.4904 0.2002, -0.8462 0.4883 0.3346, -0.7981 0.502 0.195, -0.8072 0.5015 0.1954, -0.8191 0.4995 0.3346, -0.8163 0.5001 0.1963, -0.8227 0.4985 0.1972, -0.8953 0.4125 0.1953, -0.882 0.4525 0.3346, -0.8824 0.4527 0.2003, -0.8859 0.4462 0.3346, -0.8832 0.4514 0.2003, -0.892 0.4289 0.3346, -0.8872 0.4434 0.1995, -0.8879 0.4418 0.1992, -0.8914 0.4323 0.1977, -0.8922 0.429 0.1972, -0.8932 0.4254 0.3346, -0.8937 0.4233 0.1964, -0.8951 0.4141 0.1954, -0.8742 0.4649 0.3346, -0.8664 0.4727 0.3346, -0.8668 0.4731 0.2008, -0.8714 0.4683 0.2008, -0.8729 0.4665 0.2008, -0.8784 0.4592 0.2007, -0.8464 0.4887 0.2003, -0.8501 0.4866 0.2006, -0.8586 0.4805 0.3346, -0.8578 0.4812 0.2007, -0.8649 0.4751 0.2008, -0.7972 -0.4983 0.36, -0.7972 -0.4922 0.3774, -0.8191 -0.49 0.3763, -0.7972 -0.4883 0.3836, -0.7972 -0.4805 0.396, -0.8191 -0.4786 0.3945, -0.7972 -0.4727 0.4038, -0.7972 -0.4649 0.4116, -0.8191 -0.4634 0.4097, -0.7972 -0.4525 0.4194, -0.7972 -0.4462 0.4233, -0.8191 -0.4452 0.4211, -0.7972 -0.4289 0.4294, -0.7972 -0.4254 0.4306, -0.8191 -0.4249 0.4282, -0.8932 -0.4084 0.356, -0.8859 -0.413 0.3763, -0.8932 -0.4249 0.3395, -0.8859 -0.4452 0.3441, -0.8742 -0.4634 0.3483, -0.8586 -0.4207 0.4097, -0.8742 -0.4172 0.3945, -0.8586 -0.4786 0.3518, -0.8399 -0.4233 0.4211, -0.8399 -0.49 0.3544, -0.8399 -0.442 0.4145, -0.8586 -0.4369 0.404, -0.8742 -0.4302 0.3899, -0.8859 -0.4221 0.3731, -0.8932 -0.413 0.3544, -0.8399 -0.4588 0.404, -0.8586 -0.4515 0.3948, -0.8742 -0.4418 0.3826, -0.8859 -0.4302 0.368, -0.8932 -0.4172 0.3518, -0.8399 -0.4729 0.3899, -0.8586 -0.4637 0.3826, -0.8742 -0.4515 0.3729, -0.8859 -0.4369 0.3613, -0.8932 -0.4207 0.3483, -0.8399 -0.4834 0.3731, -0.8586 -0.4729 0.368, -0.8742 -0.4588 0.3613, -0.8859 -0.442 0.3532, -0.8932 -0.4233 0.3441, -0.7972 -0.4995 0.3565, -0.8191 -0.4971 0.356, -0.7972 0.4289 0.4294, -0.7972 0.4462 0.4233, -0.8191 0.4452 0.4211, -0.7972 0.4525 0.4194, -0.7972 0.4649 0.4116, -0.8191 0.4634 0.4097, -0.7972 0.4727 0.4038, -0.7972 0.4805 0.396, -0.8191 0.4786 0.3945, -0.7972 0.4883 0.3836, -0.7972 0.4922 0.3774, -0.8191 0.49 0.3763, -0.7972 0.4983 0.36, -0.7972 0.4995 0.3565, -0.8191 0.4971 0.356, -0.8932 0.4249 0.3395, -0.8859 0.4452 0.3441, -0.8932 0.4084 0.356, -0.8859 0.413 0.3763, -0.8742 0.4172 0.3945, -0.8586 0.4786 0.3518, -0.8742 0.4634 0.3483, -0.8586 0.4207 0.4097, -0.8399 0.49 0.3544, -0.8399 0.4233 0.4211, -0.8399 0.4834 0.3731, -0.8586 0.4729 0.368, -0.8742 0.4588 0.3613, -0.8859 0.442 0.3532, -0.8932 0.4233 0.3441, -0.8399 0.4729 0.3899, -0.8586 0.4637 0.3826, -0.8742 0.4515 0.3729, -0.8859 0.4369 0.3613, -0.8932 0.4207 0.3483, -0.8399 0.4588 0.404, -0.8586 0.4515 0.3948, -0.8742 0.4418 0.3826, -0.8859 0.4302 0.368, -0.8932 0.4172 0.3518, -0.8399 0.442 0.4145, -0.8586 0.4369 0.404, -0.8742 0.4302 0.3899, -0.8859 0.4221 0.3731, -0.8932 0.413 0.3544, -0.7972 0.4254 0.4306, -0.8191 0.4249 0.4282, 0.8253 -0.4979 0.1976, 0.8295 -0.4965 0.1983, 0.8226 -0.4983 0.3346, 0.8355 -0.4942 0.1992, 0.8399 -0.4922 0.3346, 0.8436 -0.4904 0.2002, 0.8462 -0.4883 0.3346, 0.7981 -0.502 0.195, 0.8072 -0.5015 0.1954, 0.8191 -0.4995 0.3346, 0.8163 -0.5001 0.1963, 0.8227 -0.4985 0.1972, 0.8953 -0.4125 0.1953, 0.882 -0.4525 0.3346, 0.8824 -0.4527 0.2003, 0.8859 -0.4462 0.3346, 0.8832 -0.4514 0.2003, 0.892 -0.4289 0.3346, 0.8872 -0.4434 0.1995, 0.8879 -0.4418 0.1992, 0.8914 -0.4323 0.1977, 0.8922 -0.429 0.1972, 0.8932 -0.4254 0.3346, 0.8937 -0.4233 0.1964, 0.8951 -0.4141 0.1954, 0.8742 -0.4649 0.3346, 0.8664 -0.4727 0.3346, 0.8668 -0.4731 0.2008, 0.8714 -0.4683 0.2008, 0.8729 -0.4665 0.2008, 0.8784 -0.4592 0.2007, 0.8464 -0.4887 0.2003, 0.8501 -0.4866 0.2006, 0.8586 -0.4805 0.3346, 0.8578 -0.4812 0.2007, 0.8649 -0.4751 0.2008, 0.7972 -0.4254 0.4306, 0.7972 -0.4289 0.4294, 0.7972 -0.4462 0.4233, 0.7972 -0.4525 0.4194, 0.7972 -0.4649 0.4116, 0.7972 -0.4727 0.4038, 0.7972 -0.4805 0.396, 0.7972 -0.4883 0.3836, 0.7972 -0.4922 0.3774, 0.7972 -0.4983 0.36, 0.7972 -0.4995 0.3565, 0.7972 0.4254 0.4306, 0.7972 0.4289 0.4294, 0.7972 0.4462 0.4233, 0.7972 0.4525 0.4194, 0.7972 0.4649 0.4116, 0.7972 0.4727 0.4038, 0.7972 0.4805 0.396, 0.7972 0.4883 0.3836, 0.7972 0.4922 0.3774, 0.7972 0.4983 0.36, 0.7972 0.4995 0.3565, 0.8916 0.4316 0.1976, 0.8902 0.4358 0.1983, 0.892 0.4289 0.3346, 0.8879 0.4418 0.1992, 0.8859 0.4462 0.3346, 0.8841 0.4499 0.2002, 0.882 0.4525 0.3346, 0.8957 0.4044 0.195, 0.8952 0.4135 0.1954, 0.8932 0.4254 0.3346, 0.8938 0.4226 0.1963, 0.8922 0.429 0.1972, 0.8062 0.5016 0.1953, 0.8462 0.4883 0.3346, 0.8464 0.4887 0.2003, 0.8399 0.4922 0.3346, 0.8451 0.4895 0.2003, 0.8226 0.4983 0.3346, 0.8371 0.4935 0.1995, 0.8355 0.4942 0.1992, 0.826 0.4977 0.1977, 0.8227 0.4985 0.1972, 0.8191 0.4995 0.3346, 0.817 0.5 0.1964, 0.8078 0.5014 0.1954, 0.8586 0.4805 0.3346, 0.8664 0.4727 0.3346, 0.8668 0.4731 0.2008, 0.862 0.4777 0.2008, 0.8602 0.4792 0.2008, 0.8529 0.4847 0.2007, 0.8824 0.4527 0.2003, 0.8803 0.4564 0.2006, 0.8742 0.4649 0.3346, 0.8749 0.4641 0.2007, 0.8688 0.4712 0.2008, 0.892 -0.4035 0.36, 0.8859 -0.4035 0.3774, 0.8837 -0.4254 0.3763, 0.882 -0.4035 0.3836, 0.8742 -0.4035 0.396, 0.8723 -0.4254 0.3945, 0.8664 -0.4035 0.4038, 0.8586 -0.4035 0.4116, 0.8571 -0.4254 0.4097, 0.8462 -0.4035 0.4194, 0.8399 -0.4035 0.4233, 0.8389 -0.4254 0.4211, 0.8226 -0.4035 0.4294, 0.8191 -0.4035 0.4306, 0.8186 -0.4254 0.4282, 0.8021 -0.4995 0.356, 0.8067 -0.4922 0.3763, 0.8186 -0.4995 0.3395, 0.8389 -0.4922 0.3441, 0.8571 -0.4805 0.3483, 0.8144 -0.4649 0.4097, 0.8109 -0.4805 0.3945, 0.8723 -0.4649 0.3518, 0.817 -0.4462 0.4211, 0.8837 -0.4462 0.3544, 0.8357 -0.4462 0.4145, 0.8306 -0.4649 0.404, 0.8239 -0.4805 0.3899, 0.8158 -0.4922 0.3731, 0.8067 -0.4995 0.3544, 0.8525 -0.4462 0.404, 0.8452 -0.4649 0.3948, 0.8355 -0.4805 0.3826, 0.8239 -0.4922 0.368, 0.8109 -0.4995 0.3518, 0.8666 -0.4462 0.3899, 0.8574 -0.4649 0.3826, 0.8452 -0.4805 0.3729, 0.8306 -0.4922 0.3613, 0.8144 -0.4995 0.3483, 0.8771 -0.4462 0.3731, 0.8666 -0.4649 0.368, 0.8525 -0.4805 0.3613, 0.8357 -0.4922 0.3532, 0.817 -0.4995 0.3441, 0.8932 -0.4035 0.3565, 0.8908 -0.4254 0.356, 0.8226 0.4035 0.4294, 0.8399 0.4035 0.4233, 0.8389 0.4254 0.4211, 0.8462 0.4035 0.4194, 0.8586 0.4035 0.4116, 0.8571 0.4254 0.4097, 0.8664 0.4035 0.4038, 0.8742 0.4035 0.396, 0.8723 0.4254 0.3945, 0.882 0.4035 0.3836, 0.8859 0.4035 0.3774, 0.8837 0.4254 0.3763, 0.892 0.4035 0.36, 0.8932 0.4035 0.3565, 0.8908 0.4254 0.356, 0.8186 0.4995 0.3395, 0.8389 0.4922 0.3441, 0.8021 0.4995 0.356, 0.8067 0.4922 0.3763, 0.8109 0.4805 0.3945, 0.8723 0.4649 0.3518, 0.8571 0.4805 0.3483, 0.8144 0.4649 0.4097, 0.8837 0.4462 0.3544, 0.817 0.4462 0.4211, 0.8771 0.4462 0.3731, 0.8666 0.4649 0.368, 0.8525 0.4805 0.3613, 0.8357 0.4922 0.3532, 0.817 0.4995 0.3441, 0.8666 0.4462 0.3899, 0.8574 0.4649 0.3826, 0.8452 0.4805 0.3729, 0.8306 0.4922 0.3613, 0.8144 0.4995 0.3483, 0.8525 0.4462 0.404, 0.8452 0.4649 0.3948, 0.8355 0.4805 0.3826, 0.8239 0.4922 0.368, 0.8109 0.4995 0.3518, 0.8357 0.4462 0.4145, 0.8306 0.4649 0.404, 0.8239 0.4805 0.3899, 0.8158 0.4922 0.3731, 0.8067 0.4995 0.3544, 0.8191 0.4035 0.4306, 0.8186 0.4254 0.4282, 0.8981 -0.4035 0.1766, 0.8972 -0.4035 0.1796, 0.8968 -0.4132 0.1797, 0.9047 -0.4035 0.1592, 0.9017 -0.4035 0.1647, 0.9013 -0.4141 0.1647, 0.9309 -0.4207 0.1292, 0.931 -0.4181 0.1292, 0.9188 -0.4167 0.139, 0.8927 -0.4342 0.1808, 0.9449 -0.4724 0.122, 0.9449 -0.4553 0.122, 0.929 -0.4653 0.1274, 0.9299 -0.4501 0.1283, 0.9149 -0.4585 0.1365, 0.9032 -0.4525 0.149, 0.9166 -0.4452 0.1378, 0.9178 -0.4323 0.1385, 0.8945 -0.4476 0.1642, 0.9056 -0.4408 0.1501, 0.9074 -0.4293 0.1507, 0.9086 -0.4174 0.1509, 0.8893 -0.4439 0.1812, 0.8976 -0.4371 0.1647, 0.8998 -0.4268 0.1648, 0.9012 -0.416 0.1647, 0.9449 -0.4035 0.122, 0.9449 -0.4196 0.122, 0.9449 -0.4225 0.122, 0.9311 -0.4035 0.1293, 0.9287 -0.4035 0.1312, 0.919 -0.4035 0.1391, 0.9151 -0.4035 0.1438, 0.9449 -0.439 0.122, 0.9305 -0.4356 0.1288, 0.9187 -0.419 0.1389, 0.9088 -0.4153 0.151, 0.9091 -0.4035 0.151, 0.8966 -0.4149 0.1798, 0.8951 -0.4247 0.1802, 0.8815 -0.5497 0.122, 0.8904 -0.547 0.122, 0.8802 -0.5311 0.1259, 0.8963 -0.5452 0.122, 0.9047 -0.5407 0.122, 0.8927 -0.5253 0.1253, 0.9099 -0.5379 0.122, 0.9181 -0.5312 0.122, 0.9044 -0.5168 0.125, 0.9218 -0.5281 0.122, 0.9293 -0.519 0.122, 0.9144 -0.506 0.125, 0.8733 -0.47 0.1806, 0.8667 -0.477 0.1806, 0.872 -0.4826 0.1617, 0.8804 -0.4608 0.181, 0.8887 -0.4454 0.1813, 0.9446 -0.4749 0.122, 0.9289 -0.4674 0.1272, 0.9434 -0.4878 0.122, 0.9271 -0.4788 0.1264, 0.9146 -0.4604 0.1363, 0.9389 -0.5026 0.122, 0.9231 -0.4909 0.1257, 0.9124 -0.4702 0.1351, 0.9027 -0.4542 0.1488, 0.9316 -0.5162 0.122, 0.9164 -0.5031 0.1251, 0.9083 -0.4807 0.134, 0.8999 -0.4628 0.1477, 0.8939 -0.4491 0.1641, 0.9022 -0.4912 0.1332, 0.8958 -0.4719 0.1466, 0.8906 -0.457 0.1634, 0.9003 -0.4937 0.1331, 0.89 -0.481 0.1458, 0.8863 -0.4651 0.1626, 0.8849 -0.4532 0.1813, 0.8915 -0.5032 0.1329, 0.8883 -0.4832 0.1456, 0.8807 -0.4732 0.1619, 0.8716 -0.4985 0.146, 0.8641 -0.489 0.1621, 0.8594 -0.4831 0.1808, 0.8813 -0.5108 0.1334, 0.8805 -0.4915 0.1455, 0.8791 -0.4751 0.1618, 0.8748 -0.4683 0.1807, 0.8705 -0.5163 0.1344, 0.8623 -0.5038 0.147, 0.8559 -0.4943 0.1629, 0.8517 -0.4884 0.1811, 0.8701 -0.5339 0.1266, 0.8619 -0.5192 0.1354, 0.8548 -0.5069 0.1479, 0.8491 -0.4977 0.1636, 0.8453 -0.4921 0.1813, 0.879 -0.5499 0.122, 0.8661 -0.5512 0.122, 0.859 -0.5353 0.1274, 0.8522 -0.5212 0.1365, 0.8462 -0.5095 0.149, 0.8413 -0.5008 0.1642, 0.8376 -0.4956 0.1812, 0.8972 0.4035 0.1796, 0.8981 0.4035 0.1766, 0.9017 0.4035 0.1647, 0.9047 0.4035 0.1592, 0.9091 0.4035 0.151, 0.9151 0.4035 0.1438, 0.919 0.4035 0.1391, 0.9287 0.4035 0.1312, 0.9311 0.4035 0.1293, 0.9449 0.4035 0.122, 0.7972 -0.535 0.1312, 0.7972 -0.5374 0.1293, 0.7987 -0.5374 0.1293, 0.8091 -0.5075 0.1647, 0.7983 -0.508 0.1647, 0.7984 -0.5154 0.151, 0.8315 -0.4979 0.181, 0.8347 -0.5028 0.1646, 0.83 -0.5041 0.1647, 0.8389 -0.5111 0.1498, 0.8336 -0.5121 0.1502, 0.8222 -0.5139 0.1507, 0.8439 -0.5223 0.1374, 0.8379 -0.523 0.1379, 0.8251 -0.5242 0.1386, 0.8119 -0.525 0.1389, 0.8495 -0.5359 0.128, 0.8427 -0.5362 0.1284, 0.8282 -0.5368 0.1289, 0.8135 -0.5373 0.1292, 0.8177 -0.5015 0.1802, 0.808 -0.503 0.1798, 0.7982 -0.5035 0.1796, 0.7972 -0.5035 0.1796, 0.7972 -0.5044 0.1766, 0.8272 -0.4992 0.1808, 0.8197 -0.5062 0.1648, 0.8104 -0.515 0.1509, 0.7985 -0.5253 0.1391, 0.7972 -0.5214 0.1438, 0.7972 -0.5253 0.1391, 0.7972 -0.508 0.1647, 0.7972 -0.511 0.1592, 0.7972 -0.5154 0.151, 0.8553 -0.5512 0.122, 0.8477 -0.5512 0.122, 0.8315 -0.5512 0.122, 0.8152 -0.5512 0.122, 0.7988 -0.5512 0.122, 0.7972 -0.5512 0.122, 0.9311 0.405 0.1293, 0.9012 0.4154 0.1647, 0.9017 0.4046 0.1647, 0.9091 0.4047 0.151, 0.8893 0.4439 0.1812, 0.8916 0.4378 0.181, 0.8945 0.4476 0.1642, 0.9032 0.4525 0.149, 0.8965 0.441 0.1646, 0.8978 0.4363 0.1647, 0.9149 0.4585 0.1365, 0.9048 0.4452 0.1498, 0.9058 0.4399 0.1502, 0.9076 0.4285 0.1507, 0.929 0.4653 0.1274, 0.916 0.4502 0.1374, 0.9167 0.4442 0.1379, 0.9179 0.4314 0.1386, 0.9187 0.4182 0.1389, 0.9449 0.4724 0.122, 0.9296 0.4558 0.128, 0.9299 0.449 0.1284, 0.9305 0.4345 0.1289, 0.931 0.4198 0.1292, 0.8952 0.424 0.1802, 0.8967 0.4143 0.1798, 0.8972 0.4045 0.1796, 0.8929 0.4335 0.1808, 0.8999 0.426 0.1648, 0.9087 0.4167 0.1509, 0.919 0.4048 0.1391, 0.9449 0.4616 0.122, 0.9449 0.454 0.122, 0.9449 0.4378 0.122, 0.9449 0.4215 0.122, 0.9449 0.4051 0.122, -0.7972 -0.5512 0.122, -0.7972 -0.5374 0.1293, -0.7972 -0.535 0.1312, -0.7972 -0.5253 0.1391, -0.7972 -0.5214 0.1438, -0.7972 -0.5154 0.151, -0.7972 -0.511 0.1592, -0.7972 -0.508 0.1647, -0.7972 -0.5044 0.1766, -0.7972 -0.5035 0.1796, 0.9434 0.4878 0.122, 0.9407 0.4967 0.122, 0.9248 0.4865 0.1259, 0.9389 0.5026 0.122, 0.9344 0.511 0.122, 0.919 0.499 0.1253, 0.9316 0.5162 0.122, 0.9249 0.5244 0.122, 0.9105 0.5107 0.125, 0.9218 0.5281 0.122, 0.9127 0.5356 0.122, 0.8997 0.5207 0.125, 0.8637 0.4796 0.1806, 0.8707 0.473 0.1806, 0.8763 0.4783 0.1617, 0.8545 0.4867 0.181, 0.8392 0.495 0.1813, 0.8376 0.4956 0.1812, 0.8686 0.5509 0.122, 0.8661 0.5512 0.122, 0.8611 0.5352 0.1272, 0.859 0.5353 0.1274, 0.8815 0.5497 0.122, 0.8725 0.5334 0.1264, 0.8541 0.5209 0.1363, 0.8522 0.5212 0.1365, 0.8963 0.5452 0.122, 0.8846 0.5294 0.1257, 0.8639 0.5187 0.1351, 0.8479 0.509 0.1488, 0.8462 0.5095 0.149, 0.9099 0.5379 0.122, 0.8968 0.5227 0.1251, 0.8744 0.5146 0.134, 0.8565 0.5062 0.1477, 0.8428 0.5002 0.1641, 0.8413 0.5008 0.1642, 0.8849 0.5085 0.1332, 0.8656 0.5021 0.1466, 0.8507 0.4969 0.1634, 0.8874 0.5066 0.1331, 0.8747 0.4963 0.1458, 0.8588 0.4926 0.1626, 0.8469 0.4912 0.1813, 0.8969 0.4978 0.1329, 0.8769 0.4946 0.1456, 0.8669 0.487 0.1619, 0.8922 0.4779 0.146, 0.8827 0.4704 0.1621, 0.8768 0.4657 0.1808, 0.9045 0.4876 0.1334, 0.8852 0.4868 0.1455, 0.8688 0.4854 0.1618, 0.862 0.4811 0.1807, 0.91 0.4768 0.1344, 0.8975 0.4686 0.147, 0.888 0.4622 0.1629, 0.8821 0.458 0.1811, 0.9276 0.4764 0.1266, 0.9129 0.4682 0.1354, 0.9006 0.4611 0.1479, 0.8914 0.4554 0.1636, 0.8858 0.4516 0.1813, 0.9436 0.4853 0.122, -0.8069 -0.5031 0.1797, -0.8078 -0.5076 0.1647, -0.8144 -0.5372 0.1292, -0.8118 -0.5373 0.1292, -0.8104 -0.5251 0.139, -0.8279 -0.499 0.1808, -0.8661 -0.5512 0.122, -0.849 -0.5512 0.122, -0.859 -0.5353 0.1274, -0.8438 -0.5362 0.1283, -0.8522 -0.5212 0.1365, -0.8462 -0.5095 0.149, -0.8389 -0.5229 0.1378, -0.826 -0.5241 0.1385, -0.8413 -0.5008 0.1642, -0.8345 -0.5119 0.1501, -0.823 -0.5137 0.1507, -0.8111 -0.5149 0.1509, -0.8376 -0.4956 0.1812, -0.8308 -0.5039 0.1647, -0.8205 -0.5061 0.1648, -0.8097 -0.5075 0.1647, -0.8133 -0.5512 0.122, -0.8162 -0.5512 0.122, -0.8327 -0.5512 0.122, -0.8293 -0.5368 0.1288, -0.8127 -0.525 0.1389, -0.809 -0.5151 0.151, -0.8086 -0.5029 0.1798, -0.8184 -0.5014 0.1802, 0.7972 0.5044 0.1766, 0.7972 0.5035 0.1796, 0.8069 0.5031 0.1797, 0.7972 0.511 0.1592, 0.7972 0.508 0.1647, 0.8078 0.5076 0.1647, 0.8144 0.5372 0.1292, 0.8118 0.5373 0.1292, 0.8104 0.5251 0.139, 0.8279 0.499 0.1808, 0.849 0.5512 0.122, 0.8438 0.5362 0.1283, 0.8389 0.5229 0.1378, 0.826 0.5241 0.1385, 0.8345 0.5119 0.1501, 0.823 0.5137 0.1507, 0.8111 0.5149 0.1509, 0.8308 0.5039 0.1647, 0.8205 0.5061 0.1648, 0.8097 0.5075 0.1647, 0.7972 0.5512 0.122, 0.8133 0.5512 0.122, 0.8162 0.5512 0.122, 0.7972 0.5374 0.1293, 0.7972 0.535 0.1312, 0.7972 0.5253 0.1391, 0.7972 0.5214 0.1438, 0.8327 0.5512 0.122, 0.8293 0.5368 0.1288, 0.8127 0.525 0.1389, 0.809 0.5151 0.151, 0.7972 0.5154 0.151, 0.8086 0.5029 0.1798, 0.8184 0.5014 0.1802, -0.9434 -0.4878 0.122, -0.9407 -0.4967 0.122, -0.9248 -0.4865 0.1259, -0.9389 -0.5026 0.122, -0.9344 -0.511 0.122, -0.919 -0.499 0.1253, -0.9316 -0.5162 0.122, -0.9249 -0.5244 0.122, -0.9105 -0.5107 0.125, -0.9218 -0.5281 0.122, -0.9127 -0.5356 0.122, -0.8997 -0.5207 0.125, -0.8637 -0.4796 0.1806, -0.8707 -0.473 0.1806, -0.8763 -0.4783 0.1617, -0.8545 -0.4867 0.181, -0.8392 -0.495 0.1813, -0.8686 -0.5509 0.122, -0.8611 -0.5352 0.1272, -0.8815 -0.5497 0.122, -0.8725 -0.5334 0.1264, -0.8541 -0.5209 0.1363, -0.8963 -0.5452 0.122, -0.8846 -0.5294 0.1257, -0.8639 -0.5187 0.1351, -0.8479 -0.509 0.1488, -0.9099 -0.5379 0.122, -0.8968 -0.5227 0.1251, -0.8744 -0.5146 0.134, -0.8565 -0.5062 0.1477, -0.8428 -0.5002 0.1641, -0.8849 -0.5085 0.1332, -0.8656 -0.5021 0.1466, -0.8507 -0.4969 0.1634, -0.8874 -0.5066 0.1331, -0.8747 -0.4963 0.1458, -0.8588 -0.4926 0.1626, -0.8469 -0.4912 0.1813, -0.8969 -0.4978 0.1329, -0.8769 -0.4946 0.1456, -0.8669 -0.487 0.1619, -0.8922 -0.4779 0.146, -0.8827 -0.4704 0.1621, -0.8768 -0.4657 0.1808, -0.9045 -0.4876 0.1334, -0.8852 -0.4868 0.1455, -0.8688 -0.4854 0.1618, -0.862 -0.4811 0.1807, -0.91 -0.4768 0.1344, -0.8975 -0.4686 0.147, -0.888 -0.4622 0.1629, -0.8821 -0.458 0.1811, -0.9276 -0.4764 0.1266, -0.9129 -0.4682 0.1354, -0.9006 -0.4611 0.1479, -0.8914 -0.4554 0.1636, -0.8858 -0.4516 0.1813, -0.9436 -0.4853 0.122, -0.9449 -0.4724 0.122, -0.929 -0.4653 0.1274, -0.9149 -0.4585 0.1365, -0.9032 -0.4525 0.149, -0.8945 -0.4476 0.1642, -0.8893 -0.4439 0.1812, -0.7972 0.5035 0.1796, -0.7972 0.5044 0.1766, -0.7972 0.508 0.1647, -0.7972 0.511 0.1592, -0.7972 0.5154 0.151, -0.7972 0.5214 0.1438, -0.7972 0.5253 0.1391, -0.7972 0.535 0.1312, -0.7972 0.5374 0.1293, -0.7972 0.5512 0.122, -0.9287 -0.4035 0.1312, -0.9311 -0.4035 0.1293, -0.9311 -0.405 0.1293, -0.9012 -0.4154 0.1647, -0.9017 -0.4046 0.1647, -0.9091 -0.4047 0.151, -0.8916 -0.4378 0.181, -0.8965 -0.441 0.1646, -0.8978 -0.4363 0.1647, -0.9048 -0.4452 0.1498, -0.9058 -0.4399 0.1502, -0.9076 -0.4285 0.1507, -0.916 -0.4502 0.1374, -0.9167 -0.4442 0.1379, -0.9179 -0.4314 0.1386, -0.9187 -0.4182 0.1389, -0.9296 -0.4558 0.128, -0.9299 -0.449 0.1284, -0.9305 -0.4345 0.1289, -0.931 -0.4198 0.1292, -0.8952 -0.424 0.1802, -0.8967 -0.4143 0.1798, -0.8972 -0.4045 0.1796, -0.8972 -0.4035 0.1796, -0.8981 -0.4035 0.1766, -0.8929 -0.4335 0.1808, -0.8999 -0.426 0.1648, -0.9087 -0.4167 0.1509, -0.919 -0.4048 0.1391, -0.9151 -0.4035 0.1438, -0.919 -0.4035 0.1391, -0.9017 -0.4035 0.1647, -0.9047 -0.4035 0.1592, -0.9091 -0.4035 0.151, -0.9449 -0.4616 0.122, -0.9449 -0.454 0.122, -0.9449 -0.4378 0.122, -0.9449 -0.4215 0.122, -0.9449 -0.4051 0.122, -0.9449 -0.4035 0.122, -0.7987 0.5374 0.1293, -0.8091 0.5075 0.1647, -0.7983 0.508 0.1647, -0.7984 0.5154 0.151, -0.8376 0.4956 0.1812, -0.8315 0.4979 0.181, -0.8413 0.5008 0.1642, -0.8462 0.5095 0.149, -0.8347 0.5028 0.1646, -0.83 0.5041 0.1647, -0.8522 0.5212 0.1365, -0.8389 0.5111 0.1498, -0.8336 0.5121 0.1502, -0.8222 0.5139 0.1507, -0.859 0.5353 0.1274, -0.8439 0.5223 0.1374, -0.8379 0.523 0.1379, -0.8251 0.5242 0.1386, -0.8119 0.525 0.1389, -0.8661 0.5512 0.122, -0.8495 0.5359 0.128, -0.8427 0.5362 0.1284, -0.8282 0.5368 0.1289, -0.8135 0.5373 0.1292, -0.8177 0.5015 0.1802, -0.808 0.503 0.1798, -0.7982 0.5035 0.1796, -0.8272 0.4992 0.1808, -0.8197 0.5062 0.1648, -0.8104 0.515 0.1509, -0.7985 0.5253 0.1391, -0.8553 0.5512 0.122, -0.8477 0.5512 0.122, -0.8315 0.5512 0.122, -0.8152 0.5512 0.122, -0.7988 0.5512 0.122, -0.9449 0.4035 0.122, -0.9311 0.4035 0.1293, -0.9287 0.4035 0.1312, -0.919 0.4035 0.1391, -0.9151 0.4035 0.1438, -0.9091 0.4035 0.151, -0.9047 0.4035 0.1592, -0.9017 0.4035 0.1647, -0.8981 0.4035 0.1766, -0.8972 0.4035 0.1796, -0.8815 0.5497 0.122, -0.8904 0.547 0.122, -0.8802 0.5311 0.1259, -0.8963 0.5452 0.122, -0.9047 0.5407 0.122, -0.8927 0.5253 0.1253, -0.9099 0.5379 0.122, -0.9181 0.5312 0.122, -0.9044 0.5168 0.125, -0.9218 0.5281 0.122, -0.9293 0.519 0.122, -0.9144 0.506 0.125, -0.8733 0.47 0.1806, -0.8667 0.477 0.1806, -0.872 0.4826 0.1617, -0.8804 0.4608 0.181, -0.8887 0.4454 0.1813, -0.8893 0.4439 0.1812, -0.9446 0.4749 0.122, -0.9449 0.4724 0.122, -0.9289 0.4674 0.1272, -0.929 0.4653 0.1274, -0.9434 0.4878 0.122, -0.9271 0.4788 0.1264, -0.9146 0.4604 0.1363, -0.9149 0.4585 0.1365, -0.9389 0.5026 0.122, -0.9231 0.4909 0.1257, -0.9124 0.4702 0.1351, -0.9027 0.4542 0.1488, -0.9032 0.4525 0.149, -0.9316 0.5162 0.122, -0.9164 0.5031 0.1251, -0.9083 0.4807 0.134, -0.8999 0.4628 0.1477, -0.8939 0.4491 0.1641, -0.8945 0.4476 0.1642, -0.9022 0.4912 0.1332, -0.8958 0.4719 0.1466, -0.8906 0.457 0.1634, -0.9003 0.4937 0.1331, -0.89 0.481 0.1458, -0.8863 0.4651 0.1626, -0.8849 0.4532 0.1813, -0.8915 0.5032 0.1329, -0.8883 0.4832 0.1456, -0.8807 0.4732 0.1619, -0.8716 0.4985 0.146, -0.8641 0.489 0.1621, -0.8594 0.4831 0.1808, -0.8813 0.5108 0.1334, -0.8805 0.4915 0.1455, -0.8791 0.4751 0.1618, -0.8748 0.4683 0.1807, -0.8705 0.5163 0.1344, -0.8623 0.5038 0.147, -0.8559 0.4943 0.1629, -0.8517 0.4884 0.1811, -0.8701 0.5339 0.1266, -0.8619 0.5192 0.1354, -0.8548 0.5069 0.1479, -0.8491 0.4977 0.1636, -0.8453 0.4921 0.1813, -0.879 0.5499 0.122, -0.8968 0.4132 0.1797, -0.9013 0.4141 0.1647, -0.9309 0.4207 0.1292, -0.931 0.4181 0.1292, -0.9188 0.4167 0.139, -0.8927 0.4342 0.1808, -0.9449 0.4553 0.122, -0.9299 0.4501 0.1283, -0.9166 0.4452 0.1378, -0.9178 0.4323 0.1385, -0.9056 0.4408 0.1501, -0.9074 0.4293 0.1507, -0.9086 0.4174 0.1509, -0.8976 0.4371 0.1647, -0.8998 0.4268 0.1648, -0.9012 0.416 0.1647, -0.9449 0.4196 0.122, -0.9449 0.4225 0.122, -0.9449 0.439 0.122, -0.9305 0.4356 0.1288, -0.9187 0.419 0.1389, -0.9088 0.4153 0.151, -0.8966 0.4149 0.1798, -0.8951 0.4247 0.1802, 0.982 -0.4955 0.0827, 0.9843 -0.4724 0.0827, 0.9741 -0.4724 0.084, 0.9753 -0.5176 0.0827, 0.972 -0.4935 0.084, 0.9643 -0.5381 0.0827, 0.9658 -0.5137 0.084, 0.9497 -0.556 0.0827, 0.9559 -0.5324 0.084, 0.9318 -0.5706 0.0827, 0.9425 -0.5488 0.084, 0.9113 -0.5816 0.0827, 0.9261 -0.5622 0.084, 0.8892 -0.5883 0.0827, 0.9074 -0.5721 0.084, 0.8661 -0.5906 0.0827, 0.8872 -0.5783 0.084, 0.8818 -0.551 0.1119, 0.8661 -0.5804 0.084, 0.8853 -0.569 0.088, 0.8661 -0.5709 0.088, 0.8838 -0.561 0.0942, 0.8661 -0.5627 0.0942, 0.8825 -0.5548 0.1024, 0.8661 -0.5565 0.1024, 0.8661 -0.5525 0.1119, 0.8968 -0.5464 0.1119, 0.9038 -0.5634 0.088, 0.9007 -0.5558 0.0942, 0.8983 -0.5501 0.1024, 0.9106 -0.539 0.1119, 0.9208 -0.5543 0.088, 0.9163 -0.5475 0.0942, 0.9128 -0.5423 0.1024, 0.9228 -0.5291 0.1119, 0.9357 -0.542 0.088, 0.93 -0.5363 0.0942, 0.9255 -0.5318 0.1024, 0.9327 -0.5169 0.1119, 0.948 -0.5271 0.088, 0.9412 -0.5226 0.0942, 0.936 -0.5191 0.1024, 0.9571 -0.5101 0.088, 0.9495 -0.507 0.0942, 0.9438 -0.5046 0.1024, 0.9401 -0.5031 0.1119, 0.9627 -0.4916 0.088, 0.9547 -0.4901 0.0942, 0.9485 -0.4888 0.1024, 0.9447 -0.4881 0.1119, 0.9462 -0.4724 0.1119, 0.9646 -0.4724 0.088, 0.9564 -0.4724 0.0942, 0.9502 -0.4724 0.1024, 0.9462 0.4724 0.1119, 0.9502 0.4724 0.1024, 0.9564 0.4724 0.0942, 0.9646 0.4724 0.088, 0.9741 0.4724 0.084, 0.9843 0.4724 0.0827, -0.8661 -0.5525 0.1119, -0.8661 -0.5565 0.1024, -0.8661 -0.5627 0.0942, -0.8661 -0.5709 0.088, -0.8661 -0.5804 0.084, -0.8661 -0.5906 0.0827, 0.8892 0.5883 0.0827, 0.8661 0.5906 0.0827, 0.8661 0.5804 0.084, 0.9113 0.5816 0.0827, 0.8872 0.5783 0.084, 0.9318 0.5706 0.0827, 0.9074 0.5721 0.084, 0.9497 0.556 0.0827, 0.9261 0.5622 0.084, 0.9643 0.5381 0.0827, 0.9425 0.5488 0.084, 0.9753 0.5176 0.0827, 0.9559 0.5324 0.084, 0.982 0.4955 0.0827, 0.9658 0.5137 0.084, 0.972 0.4935 0.084, 0.9447 0.4881 0.1119, 0.9627 0.4916 0.088, 0.9547 0.4901 0.0942, 0.9485 0.4888 0.1024, 0.9401 0.5031 0.1119, 0.9571 0.5101 0.088, 0.9495 0.507 0.0942, 0.9438 0.5046 0.1024, 0.9327 0.5169 0.1119, 0.948 0.5271 0.088, 0.9412 0.5226 0.0942, 0.936 0.5191 0.1024, 0.9228 0.5291 0.1119, 0.9357 0.542 0.088, 0.93 0.5363 0.0942, 0.9255 0.5318 0.1024, 0.9106 0.539 0.1119, 0.9208 0.5543 0.088, 0.9163 0.5475 0.0942, 0.9128 0.5423 0.1024, 0.9038 0.5634 0.088, 0.9007 0.5558 0.0942, 0.8983 0.5501 0.1024, 0.8968 0.5464 0.1119, 0.8853 0.569 0.088, 0.8838 0.561 0.0942, 0.8825 0.5548 0.1024, 0.8818 0.551 0.1119, 0.8661 0.5525 0.1119, 0.8661 0.5709 0.088, 0.8661 0.5627 0.0942, 0.8661 0.5565 0.1024, -0.8892 -0.5883 0.0827, -0.9113 -0.5816 0.0827, -0.8872 -0.5783 0.084, -0.9318 -0.5706 0.0827, -0.9074 -0.5721 0.084, -0.9497 -0.556 0.0827, -0.9261 -0.5622 0.084, -0.9643 -0.5381 0.0827, -0.9425 -0.5488 0.084, -0.9753 -0.5176 0.0827, -0.9559 -0.5324 0.084, -0.982 -0.4955 0.0827, -0.9658 -0.5137 0.084, -0.9843 -0.4724 0.0827, -0.972 -0.4935 0.084, -0.9447 -0.4881 0.1119, -0.9741 -0.4724 0.084, -0.9627 -0.4916 0.088, -0.9646 -0.4724 0.088, -0.9547 -0.4901 0.0942, -0.9564 -0.4724 0.0942, -0.9485 -0.4888 0.1024, -0.9502 -0.4724 0.1024, -0.9462 -0.4724 0.1119, -0.9401 -0.5031 0.1119, -0.9571 -0.5101 0.088, -0.9495 -0.507 0.0942, -0.9438 -0.5046 0.1024, -0.9327 -0.5169 0.1119, -0.948 -0.5271 0.088, -0.9412 -0.5226 0.0942, -0.936 -0.5191 0.1024, -0.9228 -0.5291 0.1119, -0.9357 -0.542 0.088, -0.93 -0.5363 0.0942, -0.9255 -0.5318 0.1024, -0.9106 -0.539 0.1119, -0.9208 -0.5543 0.088, -0.9163 -0.5475 0.0942, -0.9128 -0.5423 0.1024, -0.9038 -0.5634 0.088, -0.9007 -0.5558 0.0942, -0.8983 -0.5501 0.1024, -0.8968 -0.5464 0.1119, -0.8853 -0.569 0.088, -0.8838 -0.561 0.0942, -0.8825 -0.5548 0.1024, -0.8818 -0.551 0.1119, -0.8661 0.5525 0.1119, -0.8661 0.5565 0.1024, -0.8661 0.5627 0.0942, -0.8661 0.5709 0.088, -0.8661 0.5804 0.084, -0.8661 0.5906 0.0827, -0.9462 0.4724 0.1119, -0.9502 0.4724 0.1024, -0.9564 0.4724 0.0942, -0.9646 0.4724 0.088, -0.9741 0.4724 0.084, -0.9843 0.4724 0.0827, -0.982 0.4955 0.0827, -0.9753 0.5176 0.0827, -0.972 0.4935 0.084, -0.9643 0.5381 0.0827, -0.9658 0.5137 0.084, -0.9497 0.556 0.0827, -0.9559 0.5324 0.084, -0.9318 0.5706 0.0827, -0.9425 0.5488 0.084, -0.9113 0.5816 0.0827, -0.9261 0.5622 0.084, -0.8892 0.5883 0.0827, -0.9074 0.5721 0.084, -0.8872 0.5783 0.084, -0.8818 0.551 0.1119, -0.8853 0.569 0.088, -0.8838 0.561 0.0942, -0.8825 0.5548 0.1024, -0.8968 0.5464 0.1119, -0.9038 0.5634 0.088, -0.9007 0.5558 0.0942, -0.8983 0.5501 0.1024, -0.9106 0.539 0.1119, -0.9208 0.5543 0.088, -0.9163 0.5475 0.0942, -0.9128 0.5423 0.1024, -0.9228 0.5291 0.1119, -0.9357 0.542 0.088, -0.93 0.5363 0.0942, -0.9255 0.5318 0.1024, -0.9327 0.5169 0.1119, -0.948 0.5271 0.088, -0.9412 0.5226 0.0942, -0.936 0.5191 0.1024, -0.9571 0.5101 0.088, -0.9495 0.507 0.0942, -0.9438 0.5046 0.1024, -0.9401 0.5031 0.1119, -0.9627 0.4916 0.088, -0.9547 0.4901 0.0942, -0.9485 0.4888 0.1024, -0.9447 0.4881 0.1119
            ]
        }
        coordIndex [
            0,1,2,-1,2,1,3,-1,4,5,6,-1,6,5,7,-1,8,9,10,-1,10,9,11,-1,12,13,14,-1,14,13,15,-1,16,17,18,-1,19,20,21,-1,16,18,22,-1,23,24,25,-1,25,24,19,-1,25,19,26,-1,26,19,21,-1,27,28,29,-1,29,28,30,-1,29,30,31,-1,23,32,24,-1,24,32,33,-1,24,33,34,-1,34,35,24,-1,24,35,36,-1,24,36,29,-1,29,36,37,-1,29,37,27,-1,31,38,29,-1,29,38,39,-1,29,39,18,-1,18,39,40,-1,18,40,22,-1,17,41,18,-1,18,41,42,-1,18,42,19,-1,19,42,43,-1,19,43,20,-1,44,45,46,-1,46,45,47,-1,46,47,48,-1,48,47,49,-1,48,49,50,-1,0,51,1,-1,1,51,52,-1,1,52,53,-1,53,52,54,-1,53,54,46,-1,46,54,55,-1,46,55,44,-1,56,6,7,-1,57,58,59,-1,59,58,60,-1,59,60,61,-1,61,60,62,-1,61,62,63,-1,63,64,61,-1,61,64,65,-1,61,65,66,-1,66,65,67,-1,66,67,7,-1,7,67,68,-1,7,68,56,-1,69,70,71,-1,71,72,69,-1,69,72,73,-1,69,73,57,-1,57,73,74,-1,57,74,58,-1,49,75,50,-1,50,75,76,-1,50,76,77,-1,77,76,78,-1,77,78,70,-1,70,78,79,-1,70,79,71,-1,3,1,80,-1,80,1,81,-1,80,81,82,-1,82,81,83,-1,82,83,84,-1,84,83,85,-1,84,85,86,-1,86,85,87,-1,86,87,88,-1,88,87,89,-1,88,89,90,-1,90,89,91,-1,90,91,92,-1,92,91,93,-1,92,93,94,-1,94,93,95,-1,94,95,96,-1,96,95,97,-1,96,97,98,-1,98,97,99,-1,98,99,100,-1,100,99,101,-1,100,101,24,-1,24,101,19,-1,102,103,104,-1,104,103,105,-1,104,105,106,-1,106,105,107,-1,106,107,108,-1,12,109,13,-1,13,109,110,-1,13,110,111,-1,111,110,112,-1,111,112,104,-1,104,112,113,-1,104,113,102,-1,114,2,3,-1,115,116,117,-1,117,116,118,-1,117,118,119,-1,119,118,120,-1,119,120,121,-1,121,122,119,-1,119,122,123,-1,119,123,124,-1,124,123,125,-1,124,125,3,-1,3,125,126,-1,3,126,114,-1,127,128,129,-1,129,130,127,-1,127,130,131,-1,127,131,115,-1,115,131,132,-1,115,132,116,-1,107,133,108,-1,108,133,134,-1,108,134,135,-1,135,134,136,-1,135,136,128,-1,128,136,137,-1,128,137,129,-1,138,139,140,-1,141,142,143,-1,144,145,146,-1,147,148,149,-1,150,151,152,-1,1,153,81,-1,154,85,153,-1,153,85,83,-1,153,83,81,-1,1,53,155,-1,155,53,46,-1,155,46,156,-1,46,48,156,-1,156,48,50,-1,156,50,157,-1,158,91,159,-1,159,91,89,-1,159,89,154,-1,154,89,87,-1,154,87,85,-1,50,77,157,-1,157,77,70,-1,157,70,160,-1,161,95,158,-1,158,95,93,-1,158,93,91,-1,70,69,160,-1,160,69,57,-1,160,57,162,-1,152,99,161,-1,161,99,97,-1,161,97,95,-1,151,19,152,-1,152,19,101,-1,152,101,99,-1,148,150,149,-1,149,150,152,-1,149,152,163,-1,163,152,161,-1,163,161,164,-1,164,161,158,-1,164,158,165,-1,165,158,159,-1,165,159,166,-1,166,159,154,-1,166,154,167,-1,167,154,153,-1,167,153,1,-1,145,147,146,-1,146,147,149,-1,146,149,168,-1,168,149,163,-1,168,163,169,-1,169,163,164,-1,169,164,170,-1,170,164,165,-1,170,165,171,-1,171,165,166,-1,171,166,172,-1,172,166,167,-1,172,167,1,-1,142,144,143,-1,143,144,146,-1,143,146,173,-1,173,146,168,-1,173,168,174,-1,174,168,169,-1,174,169,175,-1,175,169,170,-1,175,170,176,-1,176,170,171,-1,176,171,177,-1,177,171,172,-1,177,172,1,-1,139,141,140,-1,140,141,143,-1,140,143,178,-1,178,143,173,-1,178,173,179,-1,179,173,174,-1,179,174,180,-1,180,174,175,-1,180,175,181,-1,181,175,176,-1,181,176,182,-1,182,176,177,-1,182,177,1,-1,183,138,184,-1,184,138,140,-1,184,140,162,-1,162,140,178,-1,162,178,160,-1,160,178,179,-1,160,179,157,-1,157,179,180,-1,157,180,156,-1,156,180,181,-1,156,181,155,-1,155,181,182,-1,155,182,1,-1,57,59,162,-1,162,59,61,-1,162,61,184,-1,184,61,66,-1,184,66,183,-1,183,66,7,-1,185,186,187,-1,188,189,190,-1,191,192,193,-1,194,195,196,-1,197,198,199,-1,3,200,124,-1,201,117,200,-1,200,117,119,-1,200,119,124,-1,3,80,202,-1,202,80,82,-1,202,82,203,-1,82,84,203,-1,203,84,86,-1,203,86,204,-1,205,128,206,-1,206,128,127,-1,206,127,201,-1,201,127,115,-1,201,115,117,-1,86,88,204,-1,204,88,90,-1,204,90,207,-1,208,108,205,-1,205,108,135,-1,205,135,128,-1,90,92,207,-1,207,92,94,-1,207,94,209,-1,199,104,208,-1,208,104,106,-1,208,106,108,-1,198,13,199,-1,199,13,111,-1,199,111,104,-1,195,197,196,-1,196,197,199,-1,196,199,210,-1,210,199,208,-1,210,208,211,-1,211,208,205,-1,211,205,212,-1,212,205,206,-1,212,206,213,-1,213,206,201,-1,213,201,214,-1,214,201,200,-1,214,200,3,-1,192,194,193,-1,193,194,196,-1,193,196,215,-1,215,196,210,-1,215,210,216,-1,216,210,211,-1,216,211,217,-1,217,211,212,-1,217,212,218,-1,218,212,213,-1,218,213,219,-1,219,213,214,-1,219,214,3,-1,189,191,190,-1,190,191,193,-1,190,193,220,-1,220,193,215,-1,220,215,221,-1,221,215,216,-1,221,216,222,-1,222,216,217,-1,222,217,223,-1,223,217,218,-1,223,218,224,-1,224,218,219,-1,224,219,3,-1,186,188,187,-1,187,188,190,-1,187,190,225,-1,225,190,220,-1,225,220,226,-1,226,220,221,-1,226,221,227,-1,227,221,222,-1,227,222,228,-1,228,222,223,-1,228,223,229,-1,229,223,224,-1,229,224,3,-1,230,185,231,-1,231,185,187,-1,231,187,209,-1,209,187,225,-1,209,225,207,-1,207,225,226,-1,207,226,204,-1,204,226,227,-1,204,227,203,-1,203,227,228,-1,203,228,202,-1,202,228,229,-1,202,229,3,-1,94,96,209,-1,209,96,98,-1,209,98,231,-1,231,98,100,-1,231,100,230,-1,230,100,24,-1,232,233,234,-1,234,233,235,-1,234,235,236,-1,236,235,237,-1,236,237,238,-1,4,239,5,-1,5,239,240,-1,5,240,241,-1,241,240,242,-1,241,242,234,-1,234,242,243,-1,234,243,232,-1,244,10,11,-1,245,246,247,-1,247,246,248,-1,247,248,249,-1,249,248,250,-1,249,250,251,-1,251,252,249,-1,249,252,253,-1,249,253,254,-1,254,253,255,-1,254,255,11,-1,11,255,256,-1,11,256,244,-1,257,258,259,-1,259,260,257,-1,257,260,261,-1,257,261,245,-1,245,261,262,-1,245,262,246,-1,237,263,238,-1,238,263,264,-1,238,264,265,-1,265,264,266,-1,265,266,258,-1,258,266,267,-1,258,267,259,-1,18,19,268,-1,268,19,151,-1,268,151,269,-1,269,151,150,-1,269,150,270,-1,270,150,148,-1,270,148,271,-1,271,148,147,-1,271,147,272,-1,272,147,145,-1,272,145,273,-1,273,145,144,-1,273,144,274,-1,274,144,142,-1,274,142,275,-1,275,142,141,-1,275,141,276,-1,276,141,139,-1,276,139,277,-1,277,139,138,-1,277,138,278,-1,278,138,183,-1,278,183,5,-1,5,183,7,-1,24,29,230,-1,230,29,279,-1,230,279,185,-1,185,279,280,-1,185,280,186,-1,186,280,281,-1,186,281,188,-1,188,281,282,-1,188,282,189,-1,189,282,283,-1,189,283,191,-1,191,283,284,-1,191,284,192,-1,192,284,285,-1,192,285,194,-1,194,285,286,-1,194,286,195,-1,195,286,287,-1,195,287,197,-1,197,287,288,-1,197,288,198,-1,198,288,289,-1,198,289,13,-1,13,289,15,-1,290,291,292,-1,292,291,293,-1,292,293,294,-1,294,293,295,-1,294,295,296,-1,8,297,9,-1,9,297,298,-1,9,298,299,-1,299,298,300,-1,299,300,292,-1,292,300,301,-1,292,301,290,-1,302,14,15,-1,303,304,305,-1,305,304,306,-1,305,306,307,-1,307,306,308,-1,307,308,309,-1,309,310,307,-1,307,310,311,-1,307,311,312,-1,312,311,313,-1,312,313,15,-1,15,313,314,-1,15,314,302,-1,315,316,317,-1,317,318,315,-1,315,318,319,-1,315,319,303,-1,303,319,320,-1,303,320,304,-1,295,321,296,-1,296,321,322,-1,296,322,323,-1,323,322,324,-1,323,324,316,-1,316,324,325,-1,316,325,317,-1,326,327,328,-1,329,330,331,-1,332,333,334,-1,335,336,337,-1,338,339,340,-1,5,341,278,-1,342,276,341,-1,341,276,277,-1,341,277,278,-1,5,241,343,-1,343,241,234,-1,343,234,344,-1,234,236,344,-1,344,236,238,-1,344,238,345,-1,346,273,347,-1,347,273,274,-1,347,274,342,-1,342,274,275,-1,342,275,276,-1,238,265,345,-1,345,265,258,-1,345,258,348,-1,349,271,346,-1,346,271,272,-1,346,272,273,-1,258,257,348,-1,348,257,245,-1,348,245,350,-1,340,269,349,-1,349,269,270,-1,349,270,271,-1,339,18,340,-1,340,18,268,-1,340,268,269,-1,336,338,337,-1,337,338,340,-1,337,340,351,-1,351,340,349,-1,351,349,352,-1,352,349,346,-1,352,346,353,-1,353,346,347,-1,353,347,354,-1,354,347,342,-1,354,342,355,-1,355,342,341,-1,355,341,5,-1,333,335,334,-1,334,335,337,-1,334,337,356,-1,356,337,351,-1,356,351,357,-1,357,351,352,-1,357,352,358,-1,358,352,353,-1,358,353,359,-1,359,353,354,-1,359,354,360,-1,360,354,355,-1,360,355,5,-1,330,332,331,-1,331,332,334,-1,331,334,361,-1,361,334,356,-1,361,356,362,-1,362,356,357,-1,362,357,363,-1,363,357,358,-1,363,358,364,-1,364,358,359,-1,364,359,365,-1,365,359,360,-1,365,360,5,-1,327,329,328,-1,328,329,331,-1,328,331,366,-1,366,331,361,-1,366,361,367,-1,367,361,362,-1,367,362,368,-1,368,362,363,-1,368,363,369,-1,369,363,364,-1,369,364,370,-1,370,364,365,-1,370,365,5,-1,371,326,372,-1,372,326,328,-1,372,328,350,-1,350,328,366,-1,350,366,348,-1,348,366,367,-1,348,367,345,-1,345,367,368,-1,345,368,344,-1,344,368,369,-1,344,369,343,-1,343,369,370,-1,343,370,5,-1,245,247,350,-1,350,247,249,-1,350,249,372,-1,372,249,254,-1,372,254,371,-1,371,254,11,-1,373,374,375,-1,376,377,378,-1,379,380,381,-1,382,383,384,-1,385,386,387,-1,15,388,312,-1,389,305,388,-1,388,305,307,-1,388,307,312,-1,15,289,390,-1,390,289,288,-1,390,288,391,-1,288,287,391,-1,391,287,286,-1,391,286,392,-1,393,316,394,-1,394,316,315,-1,394,315,389,-1,389,315,303,-1,389,303,305,-1,286,285,392,-1,392,285,284,-1,392,284,395,-1,396,296,393,-1,393,296,323,-1,393,323,316,-1,284,283,395,-1,395,283,282,-1,395,282,397,-1,387,292,396,-1,396,292,294,-1,396,294,296,-1,386,9,387,-1,387,9,299,-1,387,299,292,-1,383,385,384,-1,384,385,387,-1,384,387,398,-1,398,387,396,-1,398,396,399,-1,399,396,393,-1,399,393,400,-1,400,393,394,-1,400,394,401,-1,401,394,389,-1,401,389,402,-1,402,389,388,-1,402,388,15,-1,380,382,381,-1,381,382,384,-1,381,384,403,-1,403,384,398,-1,403,398,404,-1,404,398,399,-1,404,399,405,-1,405,399,400,-1,405,400,406,-1,406,400,401,-1,406,401,407,-1,407,401,402,-1,407,402,15,-1,377,379,378,-1,378,379,381,-1,378,381,408,-1,408,381,403,-1,408,403,409,-1,409,403,404,-1,409,404,410,-1,410,404,405,-1,410,405,411,-1,411,405,406,-1,411,406,412,-1,412,406,407,-1,412,407,15,-1,374,376,375,-1,375,376,378,-1,375,378,413,-1,413,378,408,-1,413,408,414,-1,414,408,409,-1,414,409,415,-1,415,409,410,-1,415,410,416,-1,416,410,411,-1,416,411,417,-1,417,411,412,-1,417,412,15,-1,418,373,419,-1,419,373,375,-1,419,375,397,-1,397,375,413,-1,397,413,395,-1,395,413,414,-1,395,414,392,-1,392,414,415,-1,392,415,391,-1,391,415,416,-1,391,416,390,-1,390,416,417,-1,390,417,15,-1,282,281,397,-1,397,281,280,-1,397,280,419,-1,419,280,279,-1,419,279,418,-1,418,279,29,-1,29,18,418,-1,418,18,339,-1,418,339,373,-1,373,339,338,-1,373,338,374,-1,374,338,336,-1,374,336,376,-1,376,336,335,-1,376,335,377,-1,377,335,333,-1,377,333,379,-1,379,333,332,-1,379,332,380,-1,380,332,330,-1,380,330,382,-1,382,330,329,-1,382,329,383,-1,383,329,327,-1,383,327,385,-1,385,327,326,-1,385,326,386,-1,386,326,371,-1,386,371,9,-1,9,371,11,-1,420,421,422,-1,423,424,425,-1,426,427,428,-1,429,252,251,-1,430,431,432,-1,432,431,433,-1,432,433,434,-1,435,434,436,-1,436,434,433,-1,436,433,437,-1,438,435,439,-1,439,435,436,-1,439,436,440,-1,440,436,437,-1,440,437,441,-1,442,438,443,-1,443,438,439,-1,443,439,444,-1,444,439,440,-1,444,440,445,-1,445,440,441,-1,445,441,425,-1,446,427,447,-1,447,427,426,-1,447,426,448,-1,446,449,427,-1,427,449,450,-1,427,450,428,-1,428,450,451,-1,428,451,452,-1,453,448,454,-1,454,448,426,-1,454,426,455,-1,455,426,428,-1,455,428,456,-1,456,428,452,-1,456,452,457,-1,431,453,433,-1,433,453,454,-1,433,454,437,-1,437,454,455,-1,437,455,441,-1,441,455,456,-1,441,456,425,-1,425,456,457,-1,425,457,423,-1,424,420,425,-1,425,420,422,-1,425,422,445,-1,445,422,458,-1,445,458,444,-1,444,458,459,-1,444,459,443,-1,443,459,429,-1,443,429,442,-1,442,429,251,-1,252,429,253,-1,253,429,459,-1,253,459,255,-1,255,459,458,-1,255,458,256,-1,256,458,422,-1,256,422,244,-1,244,422,421,-1,244,421,10,-1,460,461,462,-1,463,464,465,-1,466,467,468,-1,469,470,471,-1,472,473,474,-1,246,262,475,-1,476,442,250,-1,250,442,251,-1,477,430,478,-1,478,430,432,-1,479,477,480,-1,480,477,478,-1,480,478,481,-1,481,478,432,-1,481,432,434,-1,482,479,483,-1,483,479,480,-1,483,480,484,-1,484,480,481,-1,484,481,485,-1,485,481,434,-1,485,434,435,-1,486,482,487,-1,487,482,483,-1,487,483,488,-1,488,483,484,-1,488,484,489,-1,489,484,485,-1,489,485,490,-1,490,485,435,-1,490,435,438,-1,470,486,471,-1,471,486,487,-1,471,487,491,-1,491,487,488,-1,491,488,492,-1,492,488,489,-1,492,489,493,-1,493,489,490,-1,493,490,476,-1,476,490,438,-1,476,438,442,-1,472,260,259,-1,467,469,468,-1,468,469,471,-1,468,471,494,-1,494,471,491,-1,494,491,495,-1,495,491,492,-1,495,492,496,-1,496,492,493,-1,496,493,497,-1,497,493,476,-1,497,476,248,-1,248,476,250,-1,472,259,473,-1,473,259,267,-1,473,267,266,-1,464,466,465,-1,465,466,468,-1,465,468,498,-1,498,468,494,-1,498,494,499,-1,499,494,495,-1,499,495,500,-1,500,495,496,-1,500,496,475,-1,475,496,497,-1,475,497,246,-1,246,497,248,-1,501,474,502,-1,502,474,473,-1,502,473,503,-1,503,473,266,-1,503,266,264,-1,461,463,462,-1,462,463,465,-1,462,465,504,-1,504,465,498,-1,504,498,505,-1,505,498,499,-1,505,499,506,-1,506,499,500,-1,506,500,507,-1,507,500,475,-1,507,475,261,-1,261,475,262,-1,508,501,509,-1,509,501,502,-1,509,502,510,-1,510,502,503,-1,510,503,511,-1,511,503,264,-1,511,264,263,-1,512,508,513,-1,513,508,509,-1,513,509,514,-1,514,509,510,-1,514,510,515,-1,515,510,511,-1,515,511,516,-1,516,511,263,-1,516,263,237,-1,517,460,512,-1,512,460,462,-1,512,462,508,-1,508,462,504,-1,508,504,501,-1,501,504,505,-1,501,505,474,-1,474,505,506,-1,474,506,472,-1,472,506,507,-1,472,507,260,-1,260,507,261,-1,518,517,519,-1,519,517,512,-1,519,512,520,-1,520,512,513,-1,520,513,521,-1,521,513,514,-1,521,514,522,-1,522,514,515,-1,522,515,523,-1,523,515,516,-1,523,516,235,-1,235,516,237,-1,8,10,524,-1,524,10,421,-1,524,421,525,-1,525,421,420,-1,525,420,526,-1,526,420,424,-1,526,424,527,-1,527,424,423,-1,527,423,528,-1,528,423,457,-1,528,457,529,-1,529,457,452,-1,529,452,530,-1,530,452,451,-1,530,451,531,-1,531,451,450,-1,531,450,532,-1,532,450,449,-1,532,449,533,-1,533,449,446,-1,534,535,536,-1,537,538,539,-1,235,233,523,-1,523,233,540,-1,523,540,522,-1,521,522,541,-1,541,522,540,-1,541,540,542,-1,520,521,543,-1,543,521,541,-1,543,541,544,-1,544,541,542,-1,544,542,545,-1,519,520,546,-1,546,520,543,-1,546,543,547,-1,547,543,544,-1,547,544,548,-1,548,544,545,-1,548,545,549,-1,518,519,550,-1,550,519,546,-1,550,546,551,-1,551,546,547,-1,551,547,552,-1,552,547,548,-1,552,548,553,-1,553,548,549,-1,553,549,536,-1,243,242,554,-1,554,242,240,-1,554,240,555,-1,555,240,239,-1,555,239,556,-1,556,239,4,-1,556,4,557,-1,557,558,556,-1,556,558,538,-1,556,538,555,-1,555,538,537,-1,555,537,554,-1,232,243,559,-1,559,243,554,-1,559,554,560,-1,560,554,537,-1,560,537,561,-1,561,537,539,-1,561,539,562,-1,562,539,563,-1,562,563,564,-1,558,565,538,-1,538,565,566,-1,538,566,539,-1,539,566,567,-1,539,567,563,-1,233,232,540,-1,540,232,559,-1,540,559,542,-1,542,559,560,-1,542,560,545,-1,545,560,561,-1,545,561,549,-1,549,561,562,-1,549,562,536,-1,536,562,564,-1,536,564,534,-1,518,550,568,-1,568,550,551,-1,568,551,569,-1,569,551,552,-1,569,552,570,-1,570,552,553,-1,570,553,571,-1,571,553,536,-1,571,536,572,-1,572,536,535,-1,572,535,573,-1,531,532,574,-1,575,576,577,-1,293,291,578,-1,578,291,579,-1,578,579,580,-1,581,580,582,-1,582,580,579,-1,582,579,583,-1,584,581,585,-1,585,581,582,-1,585,582,586,-1,586,582,583,-1,586,583,587,-1,588,584,589,-1,589,584,585,-1,589,585,590,-1,590,585,586,-1,590,586,591,-1,591,586,587,-1,591,587,592,-1,593,588,594,-1,594,588,589,-1,594,589,595,-1,595,589,590,-1,595,590,596,-1,596,590,591,-1,596,591,597,-1,597,591,592,-1,597,592,574,-1,301,300,598,-1,598,300,298,-1,598,298,599,-1,599,298,297,-1,599,297,600,-1,600,297,8,-1,600,8,524,-1,524,525,600,-1,600,525,576,-1,600,576,599,-1,599,576,575,-1,599,575,598,-1,290,301,601,-1,601,301,598,-1,601,598,602,-1,602,598,575,-1,602,575,603,-1,603,575,577,-1,603,577,604,-1,604,577,529,-1,604,529,530,-1,525,526,576,-1,576,526,527,-1,576,527,577,-1,577,527,528,-1,577,528,529,-1,291,290,579,-1,579,290,601,-1,579,601,583,-1,583,601,602,-1,583,602,587,-1,587,602,603,-1,587,603,592,-1,592,603,604,-1,592,604,574,-1,574,604,530,-1,574,530,531,-1,593,594,605,-1,605,594,595,-1,605,595,606,-1,606,595,596,-1,606,596,607,-1,607,596,597,-1,607,597,608,-1,608,597,574,-1,608,574,609,-1,609,574,532,-1,609,532,533,-1,610,573,611,-1,611,573,535,-1,611,535,612,-1,612,535,534,-1,612,534,613,-1,613,534,564,-1,613,564,614,-1,614,564,563,-1,614,563,615,-1,615,563,567,-1,615,567,616,-1,616,567,566,-1,616,566,617,-1,617,566,565,-1,617,565,618,-1,618,565,558,-1,618,558,619,-1,619,558,557,-1,619,557,6,-1,6,557,4,-1,620,621,622,-1,623,624,625,-1,626,627,628,-1,629,630,631,-1,632,633,634,-1,304,320,635,-1,636,637,308,-1,308,637,309,-1,638,639,640,-1,640,639,641,-1,642,638,643,-1,643,638,640,-1,643,640,644,-1,644,640,641,-1,644,641,645,-1,646,642,647,-1,647,642,643,-1,647,643,648,-1,648,643,644,-1,648,644,649,-1,649,644,645,-1,649,645,650,-1,651,646,652,-1,652,646,647,-1,652,647,653,-1,653,647,648,-1,653,648,654,-1,654,648,649,-1,654,649,655,-1,655,649,650,-1,655,650,656,-1,630,651,631,-1,631,651,652,-1,631,652,657,-1,657,652,653,-1,657,653,658,-1,658,653,654,-1,658,654,659,-1,659,654,655,-1,659,655,636,-1,636,655,656,-1,636,656,637,-1,632,318,317,-1,627,629,628,-1,628,629,631,-1,628,631,660,-1,660,631,657,-1,660,657,661,-1,661,657,658,-1,661,658,662,-1,662,658,659,-1,662,659,663,-1,663,659,636,-1,663,636,306,-1,306,636,308,-1,632,317,633,-1,633,317,325,-1,633,325,324,-1,624,626,625,-1,625,626,628,-1,625,628,664,-1,664,628,660,-1,664,660,665,-1,665,660,661,-1,665,661,666,-1,666,661,662,-1,666,662,635,-1,635,662,663,-1,635,663,304,-1,304,663,306,-1,667,634,668,-1,668,634,633,-1,668,633,669,-1,669,633,324,-1,669,324,322,-1,621,623,622,-1,622,623,625,-1,622,625,670,-1,670,625,664,-1,670,664,671,-1,671,664,665,-1,671,665,672,-1,672,665,666,-1,672,666,673,-1,673,666,635,-1,673,635,319,-1,319,635,320,-1,674,667,675,-1,675,667,668,-1,675,668,676,-1,676,668,669,-1,676,669,677,-1,677,669,322,-1,677,322,321,-1,678,674,679,-1,679,674,675,-1,679,675,680,-1,680,675,676,-1,680,676,681,-1,681,676,677,-1,681,677,682,-1,682,677,321,-1,682,321,295,-1,683,620,678,-1,678,620,622,-1,678,622,674,-1,674,622,670,-1,674,670,667,-1,667,670,671,-1,667,671,634,-1,634,671,672,-1,634,672,632,-1,632,672,673,-1,632,673,318,-1,318,673,319,-1,593,683,588,-1,588,683,678,-1,588,678,584,-1,584,678,679,-1,584,679,581,-1,581,679,680,-1,581,680,580,-1,580,680,681,-1,580,681,578,-1,578,681,682,-1,578,682,293,-1,293,682,295,-1,618,619,684,-1,616,617,685,-1,686,687,688,-1,689,64,63,-1,690,691,692,-1,692,691,693,-1,692,693,694,-1,695,694,696,-1,696,694,693,-1,696,693,697,-1,698,695,699,-1,699,695,696,-1,699,696,700,-1,700,696,697,-1,700,697,701,-1,702,698,703,-1,703,698,699,-1,703,699,704,-1,704,699,700,-1,704,700,705,-1,705,700,701,-1,705,701,685,-1,610,687,706,-1,706,687,686,-1,706,686,707,-1,610,611,687,-1,687,611,612,-1,687,612,688,-1,688,612,613,-1,688,613,614,-1,708,707,709,-1,709,707,686,-1,709,686,710,-1,710,686,688,-1,710,688,711,-1,711,688,614,-1,711,614,615,-1,691,708,693,-1,693,708,709,-1,693,709,697,-1,697,709,710,-1,697,710,701,-1,701,710,711,-1,701,711,685,-1,685,711,615,-1,685,615,616,-1,617,618,685,-1,685,618,684,-1,685,684,705,-1,705,684,712,-1,705,712,704,-1,704,712,713,-1,704,713,703,-1,703,713,689,-1,703,689,702,-1,702,689,63,-1,64,689,65,-1,65,689,713,-1,65,713,67,-1,67,713,712,-1,67,712,68,-1,68,712,684,-1,68,684,56,-1,56,684,619,-1,56,619,6,-1,714,715,716,-1,717,718,719,-1,720,721,722,-1,723,310,309,-1,639,724,641,-1,641,724,725,-1,641,725,645,-1,650,645,726,-1,726,645,725,-1,726,725,727,-1,656,650,728,-1,728,650,726,-1,728,726,729,-1,729,726,727,-1,729,727,730,-1,637,656,731,-1,731,656,728,-1,731,728,732,-1,732,728,729,-1,732,729,733,-1,733,729,730,-1,733,730,719,-1,734,721,735,-1,735,721,720,-1,735,720,736,-1,734,737,721,-1,721,737,738,-1,721,738,722,-1,722,738,739,-1,722,739,740,-1,741,736,742,-1,742,736,720,-1,742,720,743,-1,743,720,722,-1,743,722,744,-1,744,722,740,-1,744,740,745,-1,724,741,725,-1,725,741,742,-1,725,742,727,-1,727,742,743,-1,727,743,730,-1,730,743,744,-1,730,744,719,-1,719,744,745,-1,719,745,717,-1,718,714,719,-1,719,714,716,-1,719,716,733,-1,733,716,746,-1,733,746,732,-1,732,746,747,-1,732,747,731,-1,731,747,723,-1,731,723,637,-1,637,723,309,-1,310,723,311,-1,311,723,747,-1,311,747,313,-1,313,747,746,-1,313,746,314,-1,314,746,716,-1,314,716,302,-1,302,716,715,-1,302,715,14,-1,748,749,750,-1,751,752,753,-1,754,755,756,-1,757,758,759,-1,760,761,762,-1,58,74,763,-1,764,702,62,-1,62,702,63,-1,765,690,766,-1,766,690,692,-1,767,765,768,-1,768,765,766,-1,768,766,769,-1,769,766,692,-1,769,692,694,-1,770,767,771,-1,771,767,768,-1,771,768,772,-1,772,768,769,-1,772,769,773,-1,773,769,694,-1,773,694,695,-1,774,770,775,-1,775,770,771,-1,775,771,776,-1,776,771,772,-1,776,772,777,-1,777,772,773,-1,777,773,778,-1,778,773,695,-1,778,695,698,-1,758,774,759,-1,759,774,775,-1,759,775,779,-1,779,775,776,-1,779,776,780,-1,780,776,777,-1,780,777,781,-1,781,777,778,-1,781,778,764,-1,764,778,698,-1,764,698,702,-1,760,72,71,-1,755,757,756,-1,756,757,759,-1,756,759,782,-1,782,759,779,-1,782,779,783,-1,783,779,780,-1,783,780,784,-1,784,780,781,-1,784,781,785,-1,785,781,764,-1,785,764,60,-1,60,764,62,-1,760,71,761,-1,761,71,79,-1,761,79,78,-1,752,754,753,-1,753,754,756,-1,753,756,786,-1,786,756,782,-1,786,782,787,-1,787,782,783,-1,787,783,788,-1,788,783,784,-1,788,784,763,-1,763,784,785,-1,763,785,58,-1,58,785,60,-1,789,762,790,-1,790,762,761,-1,790,761,791,-1,791,761,78,-1,791,78,76,-1,749,751,750,-1,750,751,753,-1,750,753,792,-1,792,753,786,-1,792,786,793,-1,793,786,787,-1,793,787,794,-1,794,787,788,-1,794,788,795,-1,795,788,763,-1,795,763,73,-1,73,763,74,-1,796,789,797,-1,797,789,790,-1,797,790,798,-1,798,790,791,-1,798,791,799,-1,799,791,76,-1,799,76,75,-1,800,796,801,-1,801,796,797,-1,801,797,802,-1,802,797,798,-1,802,798,803,-1,803,798,799,-1,803,799,804,-1,804,799,75,-1,804,75,49,-1,805,748,800,-1,800,748,750,-1,800,750,796,-1,796,750,792,-1,796,792,789,-1,789,792,793,-1,789,793,762,-1,762,793,794,-1,762,794,760,-1,760,794,795,-1,760,795,72,-1,72,795,73,-1,806,805,807,-1,807,805,800,-1,807,800,808,-1,808,800,801,-1,808,801,809,-1,809,801,802,-1,809,802,810,-1,810,802,803,-1,810,803,811,-1,811,803,804,-1,811,804,47,-1,47,804,49,-1,12,14,812,-1,812,14,715,-1,812,715,813,-1,813,715,714,-1,813,714,814,-1,814,714,718,-1,814,718,815,-1,815,718,717,-1,815,717,816,-1,816,717,745,-1,816,745,817,-1,817,745,740,-1,817,740,818,-1,818,740,739,-1,818,739,819,-1,819,739,738,-1,819,738,820,-1,820,738,737,-1,820,737,821,-1,821,737,734,-1,822,823,824,-1,825,826,827,-1,47,45,811,-1,811,45,828,-1,811,828,810,-1,809,810,829,-1,829,810,828,-1,829,828,830,-1,808,809,831,-1,831,809,829,-1,831,829,832,-1,832,829,830,-1,832,830,833,-1,807,808,834,-1,834,808,831,-1,834,831,835,-1,835,831,832,-1,835,832,836,-1,836,832,833,-1,836,833,837,-1,806,807,838,-1,838,807,834,-1,838,834,839,-1,839,834,835,-1,839,835,840,-1,840,835,836,-1,840,836,841,-1,841,836,837,-1,841,837,824,-1,55,54,842,-1,842,54,52,-1,842,52,843,-1,843,52,51,-1,843,51,844,-1,844,51,0,-1,844,0,845,-1,845,846,844,-1,844,846,826,-1,844,826,843,-1,843,826,825,-1,843,825,842,-1,44,55,847,-1,847,55,842,-1,847,842,848,-1,848,842,825,-1,848,825,849,-1,849,825,827,-1,849,827,850,-1,850,827,851,-1,850,851,852,-1,846,853,826,-1,826,853,854,-1,826,854,827,-1,827,854,855,-1,827,855,851,-1,45,44,828,-1,828,44,847,-1,828,847,830,-1,830,847,848,-1,830,848,833,-1,833,848,849,-1,833,849,837,-1,837,849,850,-1,837,850,824,-1,824,850,852,-1,824,852,822,-1,806,838,856,-1,856,838,839,-1,856,839,857,-1,857,839,840,-1,857,840,858,-1,858,840,841,-1,858,841,859,-1,859,841,824,-1,859,824,860,-1,860,824,823,-1,860,823,861,-1,819,820,862,-1,863,864,865,-1,105,103,866,-1,866,103,867,-1,866,867,868,-1,869,868,870,-1,870,868,867,-1,870,867,871,-1,872,869,873,-1,873,869,870,-1,873,870,874,-1,874,870,871,-1,874,871,875,-1,876,872,877,-1,877,872,873,-1,877,873,878,-1,878,873,874,-1,878,874,879,-1,879,874,875,-1,879,875,880,-1,881,876,882,-1,882,876,877,-1,882,877,883,-1,883,877,878,-1,883,878,884,-1,884,878,879,-1,884,879,885,-1,885,879,880,-1,885,880,862,-1,113,112,886,-1,886,112,110,-1,886,110,887,-1,887,110,109,-1,887,109,888,-1,888,109,12,-1,888,12,812,-1,812,813,888,-1,888,813,864,-1,888,864,887,-1,887,864,863,-1,887,863,886,-1,102,113,889,-1,889,113,886,-1,889,886,890,-1,890,886,863,-1,890,863,891,-1,891,863,865,-1,891,865,892,-1,892,865,817,-1,892,817,818,-1,813,814,864,-1,864,814,815,-1,864,815,865,-1,865,815,816,-1,865,816,817,-1,103,102,867,-1,867,102,889,-1,867,889,871,-1,871,889,890,-1,871,890,875,-1,875,890,891,-1,875,891,880,-1,880,891,892,-1,880,892,862,-1,862,892,818,-1,862,818,819,-1,881,882,893,-1,893,882,883,-1,893,883,894,-1,894,883,884,-1,894,884,895,-1,895,884,885,-1,895,885,896,-1,896,885,862,-1,896,862,897,-1,897,862,820,-1,897,820,821,-1,898,861,899,-1,899,861,823,-1,899,823,900,-1,900,823,822,-1,900,822,901,-1,901,822,852,-1,901,852,902,-1,902,852,851,-1,902,851,903,-1,903,851,855,-1,903,855,904,-1,904,855,854,-1,904,854,905,-1,905,854,853,-1,905,853,906,-1,906,853,846,-1,906,846,907,-1,907,846,845,-1,907,845,2,-1,2,845,0,-1,908,909,910,-1,911,912,913,-1,914,915,916,-1,917,918,919,-1,920,921,922,-1,116,132,923,-1,924,925,120,-1,120,925,121,-1,926,927,928,-1,928,927,929,-1,930,926,931,-1,931,926,928,-1,931,928,932,-1,932,928,929,-1,932,929,933,-1,934,930,935,-1,935,930,931,-1,935,931,936,-1,936,931,932,-1,936,932,937,-1,937,932,933,-1,937,933,938,-1,939,934,940,-1,940,934,935,-1,940,935,941,-1,941,935,936,-1,941,936,942,-1,942,936,937,-1,942,937,943,-1,943,937,938,-1,943,938,944,-1,918,939,919,-1,919,939,940,-1,919,940,945,-1,945,940,941,-1,945,941,946,-1,946,941,942,-1,946,942,947,-1,947,942,943,-1,947,943,924,-1,924,943,944,-1,924,944,925,-1,920,130,129,-1,915,917,916,-1,916,917,919,-1,916,919,948,-1,948,919,945,-1,948,945,949,-1,949,945,946,-1,949,946,950,-1,950,946,947,-1,950,947,951,-1,951,947,924,-1,951,924,118,-1,118,924,120,-1,920,129,921,-1,921,129,137,-1,921,137,136,-1,912,914,913,-1,913,914,916,-1,913,916,952,-1,952,916,948,-1,952,948,953,-1,953,948,949,-1,953,949,954,-1,954,949,950,-1,954,950,923,-1,923,950,951,-1,923,951,116,-1,116,951,118,-1,955,922,956,-1,956,922,921,-1,956,921,957,-1,957,921,136,-1,957,136,134,-1,909,911,910,-1,910,911,913,-1,910,913,958,-1,958,913,952,-1,958,952,959,-1,959,952,953,-1,959,953,960,-1,960,953,954,-1,960,954,961,-1,961,954,923,-1,961,923,131,-1,131,923,132,-1,962,955,963,-1,963,955,956,-1,963,956,964,-1,964,956,957,-1,964,957,965,-1,965,957,134,-1,965,134,133,-1,966,962,967,-1,967,962,963,-1,967,963,968,-1,968,963,964,-1,968,964,969,-1,969,964,965,-1,969,965,970,-1,970,965,133,-1,970,133,107,-1,971,908,966,-1,966,908,910,-1,966,910,962,-1,962,910,958,-1,962,958,955,-1,955,958,959,-1,955,959,922,-1,922,959,960,-1,922,960,920,-1,920,960,961,-1,920,961,130,-1,130,961,131,-1,881,971,876,-1,876,971,966,-1,876,966,872,-1,872,966,967,-1,872,967,869,-1,869,967,968,-1,869,968,868,-1,868,968,969,-1,868,969,866,-1,866,969,970,-1,866,970,105,-1,105,970,107,-1,906,907,972,-1,904,905,973,-1,974,975,976,-1,977,122,121,-1,927,978,929,-1,929,978,979,-1,929,979,933,-1,938,933,980,-1,980,933,979,-1,980,979,981,-1,944,938,982,-1,982,938,980,-1,982,980,983,-1,983,980,981,-1,983,981,984,-1,925,944,985,-1,985,944,982,-1,985,982,986,-1,986,982,983,-1,986,983,987,-1,987,983,984,-1,987,984,973,-1,898,975,988,-1,988,975,974,-1,988,974,989,-1,898,899,975,-1,975,899,900,-1,975,900,976,-1,976,900,901,-1,976,901,902,-1,990,989,991,-1,991,989,974,-1,991,974,992,-1,992,974,976,-1,992,976,993,-1,993,976,902,-1,993,902,903,-1,978,990,979,-1,979,990,991,-1,979,991,981,-1,981,991,992,-1,981,992,984,-1,984,992,993,-1,984,993,973,-1,973,993,903,-1,973,903,904,-1,905,906,973,-1,973,906,972,-1,973,972,987,-1,987,972,994,-1,987,994,986,-1,986,994,995,-1,986,995,985,-1,985,995,977,-1,985,977,925,-1,925,977,121,-1,122,977,123,-1,123,977,995,-1,123,995,125,-1,125,995,994,-1,125,994,126,-1,126,994,972,-1,126,972,114,-1,114,972,907,-1,114,907,2,-1,996,997,998,-1,999,996,1000,-1,1001,999,1002,-1,1003,1001,1004,-1,1005,1003,1006,-1,1007,1005,1008,-1,1009,1007,1010,-1,1011,1009,1012,-1,1013,460,517,-1,1011,1012,1014,-1,1014,1012,1015,-1,1014,1015,1016,-1,1016,1015,1017,-1,1016,1017,1018,-1,1018,1017,1019,-1,1018,1019,1020,-1,1020,1019,1013,-1,1020,1013,1021,-1,1021,1013,517,-1,1021,517,518,-1,1022,463,461,-1,1009,1010,1012,-1,1012,1010,1023,-1,1012,1023,1015,-1,1015,1023,1024,-1,1015,1024,1017,-1,1017,1024,1025,-1,1017,1025,1019,-1,1019,1025,1022,-1,1019,1022,1013,-1,1013,1022,461,-1,1013,461,460,-1,1026,466,464,-1,1007,1008,1010,-1,1010,1008,1027,-1,1010,1027,1023,-1,1023,1027,1028,-1,1023,1028,1024,-1,1024,1028,1029,-1,1024,1029,1025,-1,1025,1029,1026,-1,1025,1026,1022,-1,1022,1026,464,-1,1022,464,463,-1,1030,469,467,-1,1005,1006,1008,-1,1008,1006,1031,-1,1008,1031,1027,-1,1027,1031,1032,-1,1027,1032,1028,-1,1028,1032,1033,-1,1028,1033,1029,-1,1029,1033,1030,-1,1029,1030,1026,-1,1026,1030,467,-1,1026,467,466,-1,1034,486,470,-1,1003,1004,1006,-1,1006,1004,1035,-1,1006,1035,1031,-1,1031,1035,1036,-1,1031,1036,1032,-1,1032,1036,1037,-1,1032,1037,1033,-1,1033,1037,1034,-1,1033,1034,1030,-1,1030,1034,470,-1,1030,470,469,-1,1001,1002,1004,-1,1004,1002,1038,-1,1004,1038,1035,-1,1035,1038,1039,-1,1035,1039,1036,-1,1036,1039,1040,-1,1036,1040,1037,-1,1037,1040,1041,-1,1037,1041,1034,-1,1034,1041,482,-1,1034,482,486,-1,999,1000,1002,-1,1002,1000,1042,-1,1002,1042,1038,-1,1038,1042,1043,-1,1038,1043,1039,-1,1039,1043,1044,-1,1039,1044,1040,-1,1040,1044,1045,-1,1040,1045,1041,-1,1041,1045,479,-1,1041,479,482,-1,1046,430,477,-1,996,998,1000,-1,1000,998,1047,-1,1000,1047,1042,-1,1042,1047,1048,-1,1042,1048,1043,-1,1043,1048,1049,-1,1043,1049,1044,-1,1044,1049,1046,-1,1044,1046,1045,-1,1045,1046,477,-1,1045,477,479,-1,593,605,1050,-1,1050,605,606,-1,1050,606,607,-1,607,608,1050,-1,1050,608,609,-1,1050,609,533,-1,448,1046,447,-1,447,1046,446,-1,448,453,1046,-1,1046,453,431,-1,1046,431,430,-1,533,446,1050,-1,1050,446,1046,-1,1050,1046,1051,-1,1051,1046,1049,-1,1051,1049,1052,-1,1052,1049,1048,-1,1052,1048,1053,-1,1053,1048,1047,-1,1053,1047,1054,-1,1054,1047,998,-1,1054,998,1055,-1,1055,998,997,-1,518,568,1021,-1,1021,568,569,-1,1021,569,570,-1,570,571,1021,-1,1021,571,572,-1,1021,572,573,-1,707,1056,706,-1,706,1056,610,-1,707,708,1056,-1,1056,708,691,-1,1056,691,690,-1,573,610,1021,-1,1021,610,1056,-1,1021,1056,1020,-1,1020,1056,1057,-1,1020,1057,1018,-1,1018,1057,1058,-1,1018,1058,1016,-1,1016,1058,1059,-1,1016,1059,1014,-1,1014,1059,1060,-1,1014,1060,1011,-1,1011,1060,1061,-1,1062,1063,1064,-1,1065,1062,1066,-1,1067,1065,1068,-1,1069,1067,1070,-1,1071,1069,1072,-1,1073,1071,1074,-1,1075,1073,1076,-1,1055,1075,1077,-1,1078,620,683,-1,1055,1077,1054,-1,1054,1077,1079,-1,1054,1079,1053,-1,1053,1079,1080,-1,1053,1080,1052,-1,1052,1080,1081,-1,1052,1081,1051,-1,1051,1081,1078,-1,1051,1078,1050,-1,1050,1078,683,-1,1050,683,593,-1,1082,623,621,-1,1075,1076,1077,-1,1077,1076,1083,-1,1077,1083,1079,-1,1079,1083,1084,-1,1079,1084,1080,-1,1080,1084,1085,-1,1080,1085,1081,-1,1081,1085,1082,-1,1081,1082,1078,-1,1078,1082,621,-1,1078,621,620,-1,1086,626,624,-1,1073,1074,1076,-1,1076,1074,1087,-1,1076,1087,1083,-1,1083,1087,1088,-1,1083,1088,1084,-1,1084,1088,1089,-1,1084,1089,1085,-1,1085,1089,1086,-1,1085,1086,1082,-1,1082,1086,624,-1,1082,624,623,-1,1090,629,627,-1,1071,1072,1074,-1,1074,1072,1091,-1,1074,1091,1087,-1,1087,1091,1092,-1,1087,1092,1088,-1,1088,1092,1093,-1,1088,1093,1089,-1,1089,1093,1090,-1,1089,1090,1086,-1,1086,1090,627,-1,1086,627,626,-1,1094,651,630,-1,1069,1070,1072,-1,1072,1070,1095,-1,1072,1095,1091,-1,1091,1095,1096,-1,1091,1096,1092,-1,1092,1096,1097,-1,1092,1097,1093,-1,1093,1097,1094,-1,1093,1094,1090,-1,1090,1094,630,-1,1090,630,629,-1,1067,1068,1070,-1,1070,1068,1098,-1,1070,1098,1095,-1,1095,1098,1099,-1,1095,1099,1096,-1,1096,1099,1100,-1,1096,1100,1097,-1,1097,1100,1101,-1,1097,1101,1094,-1,1094,1101,646,-1,1094,646,651,-1,1065,1066,1068,-1,1068,1066,1102,-1,1068,1102,1098,-1,1098,1102,1103,-1,1098,1103,1099,-1,1099,1103,1104,-1,1099,1104,1100,-1,1100,1104,1105,-1,1100,1105,1101,-1,1101,1105,642,-1,1101,642,646,-1,1106,639,638,-1,1062,1064,1066,-1,1066,1064,1107,-1,1066,1107,1102,-1,1102,1107,1108,-1,1102,1108,1103,-1,1103,1108,1109,-1,1103,1109,1104,-1,1104,1109,1106,-1,1104,1106,1105,-1,1105,1106,638,-1,1105,638,642,-1,1110,1061,1060,-1,1111,1110,1112,-1,1113,1111,1114,-1,1115,1113,1116,-1,1117,1115,1118,-1,1119,1117,1120,-1,1121,1119,1122,-1,1123,1121,1124,-1,1125,748,805,-1,1123,1124,1126,-1,1126,1124,1127,-1,1126,1127,1128,-1,1128,1127,1129,-1,1128,1129,1130,-1,1130,1129,1131,-1,1130,1131,1132,-1,1132,1131,1125,-1,1132,1125,1133,-1,1133,1125,805,-1,1133,805,806,-1,1134,751,749,-1,1121,1122,1124,-1,1124,1122,1135,-1,1124,1135,1127,-1,1127,1135,1136,-1,1127,1136,1129,-1,1129,1136,1137,-1,1129,1137,1131,-1,1131,1137,1134,-1,1131,1134,1125,-1,1125,1134,749,-1,1125,749,748,-1,1138,754,752,-1,1119,1120,1122,-1,1122,1120,1139,-1,1122,1139,1135,-1,1135,1139,1140,-1,1135,1140,1136,-1,1136,1140,1141,-1,1136,1141,1137,-1,1137,1141,1138,-1,1137,1138,1134,-1,1134,1138,752,-1,1134,752,751,-1,1142,757,755,-1,1117,1118,1120,-1,1120,1118,1143,-1,1120,1143,1139,-1,1139,1143,1144,-1,1139,1144,1140,-1,1140,1144,1145,-1,1140,1145,1141,-1,1141,1145,1142,-1,1141,1142,1138,-1,1138,1142,755,-1,1138,755,754,-1,1146,774,758,-1,1115,1116,1118,-1,1118,1116,1147,-1,1118,1147,1143,-1,1143,1147,1148,-1,1143,1148,1144,-1,1144,1148,1149,-1,1144,1149,1145,-1,1145,1149,1146,-1,1145,1146,1142,-1,1142,1146,758,-1,1142,758,757,-1,1113,1114,1116,-1,1116,1114,1150,-1,1116,1150,1147,-1,1147,1150,1151,-1,1147,1151,1148,-1,1148,1151,1152,-1,1148,1152,1149,-1,1149,1152,1153,-1,1149,1153,1146,-1,1146,1153,770,-1,1146,770,774,-1,1111,1112,1114,-1,1114,1112,1154,-1,1114,1154,1150,-1,1150,1154,1155,-1,1150,1155,1151,-1,1151,1155,1156,-1,1151,1156,1152,-1,1152,1156,1157,-1,1152,1157,1153,-1,1153,1157,767,-1,1153,767,770,-1,1056,690,765,-1,1110,1060,1112,-1,1112,1060,1059,-1,1112,1059,1154,-1,1154,1059,1058,-1,1154,1058,1155,-1,1155,1058,1057,-1,1155,1057,1156,-1,1156,1057,1056,-1,1156,1056,1157,-1,1157,1056,765,-1,1157,765,767,-1,894,1158,893,-1,893,1158,881,-1,894,895,1158,-1,1158,895,896,-1,1158,896,897,-1,821,734,1106,-1,1106,734,735,-1,1106,735,736,-1,736,741,1106,-1,1106,741,724,-1,1106,724,639,-1,897,821,1158,-1,1158,821,1106,-1,1158,1106,1159,-1,1159,1106,1109,-1,1159,1109,1160,-1,1160,1109,1108,-1,1160,1108,1161,-1,1161,1108,1107,-1,1161,1107,1162,-1,1162,1107,1064,-1,1162,1064,1163,-1,1163,1064,1063,-1,806,856,1133,-1,1133,856,857,-1,1133,857,858,-1,858,859,1133,-1,1133,859,860,-1,1133,860,861,-1,989,1164,988,-1,988,1164,898,-1,989,990,1164,-1,1164,990,978,-1,1164,978,927,-1,861,898,1133,-1,1133,898,1164,-1,1133,1164,1132,-1,1132,1164,1165,-1,1132,1165,1130,-1,1130,1165,1166,-1,1130,1166,1128,-1,1128,1166,1167,-1,1128,1167,1126,-1,1126,1167,1168,-1,1126,1168,1123,-1,1123,1168,1169,-1,1170,1169,1168,-1,1171,1170,1172,-1,1173,1171,1174,-1,1175,1173,1176,-1,1177,1175,1178,-1,1179,1177,1180,-1,1181,1179,1182,-1,1163,1181,1183,-1,1184,908,971,-1,1163,1183,1162,-1,1162,1183,1185,-1,1162,1185,1161,-1,1161,1185,1186,-1,1161,1186,1160,-1,1160,1186,1187,-1,1160,1187,1159,-1,1159,1187,1184,-1,1159,1184,1158,-1,1158,1184,971,-1,1158,971,881,-1,1188,911,909,-1,1181,1182,1183,-1,1183,1182,1189,-1,1183,1189,1185,-1,1185,1189,1190,-1,1185,1190,1186,-1,1186,1190,1191,-1,1186,1191,1187,-1,1187,1191,1188,-1,1187,1188,1184,-1,1184,1188,909,-1,1184,909,908,-1,1192,914,912,-1,1179,1180,1182,-1,1182,1180,1193,-1,1182,1193,1189,-1,1189,1193,1194,-1,1189,1194,1190,-1,1190,1194,1195,-1,1190,1195,1191,-1,1191,1195,1192,-1,1191,1192,1188,-1,1188,1192,912,-1,1188,912,911,-1,1196,917,915,-1,1177,1178,1180,-1,1180,1178,1197,-1,1180,1197,1193,-1,1193,1197,1198,-1,1193,1198,1194,-1,1194,1198,1199,-1,1194,1199,1195,-1,1195,1199,1196,-1,1195,1196,1192,-1,1192,1196,915,-1,1192,915,914,-1,1200,939,918,-1,1175,1176,1178,-1,1178,1176,1201,-1,1178,1201,1197,-1,1197,1201,1202,-1,1197,1202,1198,-1,1198,1202,1203,-1,1198,1203,1199,-1,1199,1203,1200,-1,1199,1200,1196,-1,1196,1200,918,-1,1196,918,917,-1,1173,1174,1176,-1,1176,1174,1204,-1,1176,1204,1201,-1,1201,1204,1205,-1,1201,1205,1202,-1,1202,1205,1206,-1,1202,1206,1203,-1,1203,1206,1207,-1,1203,1207,1200,-1,1200,1207,934,-1,1200,934,939,-1,1171,1172,1174,-1,1174,1172,1208,-1,1174,1208,1204,-1,1204,1208,1209,-1,1204,1209,1205,-1,1205,1209,1210,-1,1205,1210,1206,-1,1206,1210,1211,-1,1206,1211,1207,-1,1207,1211,930,-1,1207,930,934,-1,1164,927,926,-1,1170,1168,1172,-1,1172,1168,1167,-1,1172,1167,1208,-1,1208,1167,1166,-1,1208,1166,1209,-1,1209,1166,1165,-1,1209,1165,1210,-1,1210,1165,1164,-1,1210,1164,1211,-1,1211,1164,926,-1,1211,926,930,-1,
        ]
    }
}
Shape{
    appearance Appearance {
        material  Material 	{
            diffuseColor 0.0 0.0 0.0
            specularColor 0.0 0.0 0.0
            ambientIntensity 0.0
            transparency 0.0
            shininess 0.5
        }
    }
    geometry IndexedFaceSet {
        ccw TRUE
        solid FALSE
        coord DEF co Coordinate {
            point [
                0.5709 -0.0 0.3543, 0.5709 0.0 0.4331, 0.5675 0.0255 0.3543, 0.5675 0.0255 0.4331, 0.5577 0.0492 0.3543, 0.5577 0.0492 0.4331, 0.542 0.0696 0.3543, 0.542 0.0696 0.4331, 0.5217 0.0852 0.3543, 0.5217 0.0852 0.4331, 0.4979 0.0951 0.3543, 0.4979 0.0951 0.4331, 0.4724 0.0984 0.3543, 0.4724 0.0984 0.4331, 0.447 0.0951 0.3543, 0.447 0.0951 0.4331, 0.4232 0.0852 0.3543, 0.4232 0.0852 0.4331, 0.4028 0.0696 0.3543, 0.4028 0.0696 0.4331, 0.3872 0.0492 0.3543, 0.3872 0.0492 0.4331, 0.3774 0.0255 0.3543, 0.3774 0.0255 0.4331, 0.374 0.0 0.3543, 0.374 0.0 0.4331, 0.3774 -0.0255 0.3543, 0.3774 -0.0255 0.4331, 0.3872 -0.0492 0.3543, 0.3872 -0.0492 0.4331, 0.4028 -0.0696 0.3543, 0.4028 -0.0696 0.4331, 0.4232 -0.0852 0.3543, 0.4232 -0.0852 0.4331, 0.447 -0.0951 0.3543, 0.447 -0.0951 0.4331, 0.4724 -0.0984 0.3543, 0.4724 -0.0984 0.4331, 0.4979 -0.0951 0.3543, 0.4979 -0.0951 0.4331, 0.5217 -0.0852 0.3543, 0.5217 -0.0852 0.4331, 0.542 -0.0696 0.3543, 0.542 -0.0696 0.4331, 0.5577 -0.0492 0.3543, 0.5577 -0.0492 0.4331, 0.5675 -0.0255 0.3543, 0.5675 -0.0255 0.4331, 0.4724 0.0 0.3543
            ]
        }
        coordIndex [
            0,1,2,-1,2,1,3,-1,2,3,4,-1,4,3,5,-1,4,5,6,-1,6,5,7,-1,6,7,8,-1,8,7,9,-1,8,9,10,-1,10,9,11,-1,10,11,12,-1,12,11,13,-1,12,13,14,-1,14,13,15,-1,14,15,16,-1,16,15,17,-1,16,17,18,-1,18,17,19,-1,18,19,20,-1,20,19,21,-1,20,21,22,-1,22,21,23,-1,22,23,24,-1,24,23,25,-1,24,25,26,-1,26,25,27,-1,26,27,28,-1,28,27,29,-1,28,29,30,-1,30,29,31,-1,30,31,32,-1,32,31,33,-1,32,33,34,-1,34,33,35,-1,34,35,36,-1,36,35,37,-1,36,37,38,-1,38,37,39,-1,38,39,40,-1,40,39,41,-1,40,41,42,-1,42,41,43,-1,42,43,44,-1,44,43,45,-1,44,45,46,-1,46,45,47,-1,46,47,0,-1,0,47,1,-1,44,46,48,-1,48,46,0,-1,48,0,2,-1,38,40,48,-1,48,40,42,-1,48,42,44,-1,32,34,48,-1,48,34,36,-1,48,36,38,-1,26,28,48,-1,48,28,30,-1,48,30,32,-1,20,22,48,-1,48,22,24,-1,48,24,26,-1,14,16,48,-1,48,16,18,-1,48,18,20,-1,8,10,48,-1,48,10,12,-1,48,12,14,-1,2,4,48,-1,48,4,6,-1,48,6,8,-1,
        ]
    }
}